<svg width="225" height="445" viewBox="0 0 225 445" fill="none" xmlns="http://www.w3.org/2000/svg">
<path d="M96.2983 48.5784L96.4169 106.778L89.6174 106.992L89.4926 45.7923L96.2983 48.5784ZM171.75 73.6246L170.96 78.6263L49.6735 36.4735C48.8735 36.4751 48.1409 36.8099 47.4756 37.4779C46.8102 38.146 46.2127 39.3472 45.6829 41.0816C45.2867 42.9491 45.0921 45.6161 45.0992 49.0828L45.1106 54.6828L39.1106 54.695L39.0283 14.2951L45.0283 14.2829L45.0311 15.6829C45.0374 18.7495 45.9765 21.6143 47.8486 24.2771C49.721 27.0733 52.7254 29.2006 56.8617 30.6588L181.151 74.2055L181.179 88.2055L52.0733 134.469C49.1422 135.541 47.2788 137.145 46.4831 139.28C45.6877 141.548 45.293 144.149 45.299 147.083L45.301 148.083L39.3011 148.095L39.2016 99.2949L45.2016 99.2827L45.2081 102.483C45.2127 104.749 45.284 107.016 45.4219 109.282C45.6935 111.682 45.9641 113.615 46.2338 115.081C46.637 116.68 47.0387 117.479 47.4387 117.478L171.75 73.6246ZM37.9647 179.29C37.9579 175.956 39.0188 173.154 41.1475 170.883C43.4098 168.745 46.2077 167.673 49.541 167.666C53.0076 167.659 55.8098 168.72 57.9475 170.849C60.0854 173.111 61.1578 175.909 61.1646 179.243C61.1717 182.709 60.1107 185.511 57.9817 187.649C55.8528 189.787 53.0549 190.859 49.5883 190.866C46.255 190.873 43.4528 189.812 41.1818 187.683C39.0441 185.554 37.9717 182.756 37.9647 179.29ZM39.4284 210.534L45.4283 210.522L45.4328 212.722C45.438 215.255 45.8429 217.654 46.6475 219.919C47.5855 222.184 48.9893 224.048 50.8589 225.51C52.7286 226.973 55.1967 227.702 58.2634 227.695L168.263 227.471C170.263 227.467 171.728 226.731 172.659 225.262C173.722 223.793 174.452 221.925 174.847 219.658C175.243 217.39 175.438 214.99 175.433 212.456L175.428 210.256L181.428 210.244L181.513 252.044L51.3984 293.91L51.391 290.31L181.68 334.044L181.766 375.844L175.766 375.856L175.763 374.656C175.755 370.523 175.281 366.79 174.34 363.459C173.401 360.261 171.464 358.665 168.531 358.671L52.9309 358.907C49.9976 358.913 48.0675 360.516 47.1407 363.718C46.2139 366.92 45.7548 370.655 45.7635 374.921L45.766 376.121L39.766 376.133L39.6579 323.134L45.6579 323.121L45.6616 324.921C45.6662 327.188 45.7375 329.454 45.8754 331.721C46.0137 334.121 46.2177 336.12 46.4877 337.72C46.8912 339.452 47.293 340.318 47.693 340.317L181.293 340.045L180.897 342.046L39.1992 294.334L39.1735 281.734L180.275 233.447L180.68 235.846L52.2805 236.108C50.4139 236.111 48.9484 236.714 47.8842 237.917C46.9536 239.252 46.2906 241.053 45.8952 243.321C45.6332 245.588 45.505 248.121 45.5107 250.921L45.5172 254.121L39.5172 254.134L39.4284 210.534ZM38.4297 407.414C38.423 404.081 39.4839 401.279 41.6126 399.008C43.8749 396.87 46.6727 395.798 50.0061 395.791C53.4727 395.784 56.2749 396.845 58.4126 398.974C60.5505 401.236 61.6229 404.034 61.6297 407.367C61.6368 410.834 60.5758 413.636 58.4468 415.774C56.3179 417.911 53.52 418.984 50.0534 418.991C46.72 418.997 43.9179 417.936 41.6469 415.808C39.5092 413.679 38.4368 410.881 38.4297 407.414Z" fill="#A6A391" fill-opacity="0.05"/>
</svg>
