<svg width="1833" height="70" viewBox="0 0 1833 70" fill="none" xmlns="http://www.w3.org/2000/svg">
<path d="M22.5586 39V38.9219C22.5846 38.8568 22.6042 38.7591 22.6172 38.6289C22.6302 38.4987 22.6367 38.3815 22.6367 38.2773C22.6367 37.8737 22.5781 37.431 22.4609 36.9492C22.3568 36.4544 22.1484 35.8424 21.8359 35.1133L19.4727 29.8008C18.7435 29.7747 17.7734 29.7617 16.5625 29.7617C15.3516 29.7617 14.043 29.7617 12.6367 29.7617C11.6081 29.7617 10.612 29.7617 9.64844 29.7617C8.69792 29.7617 7.83854 29.7747 7.07031 29.8008L4.82422 34.957C4.62891 35.4388 4.42057 35.9661 4.19922 36.5391C3.97786 37.112 3.86719 37.6914 3.86719 38.2773C3.86719 38.4466 3.88021 38.5898 3.90625 38.707C3.93229 38.8112 3.95833 38.8828 3.98438 38.9219V39H0V38.9219C0.234375 38.6745 0.527344 38.2383 0.878906 37.6133C1.23047 36.9753 1.61458 36.181 2.03125 35.2305L13.2227 10.4062H14.7852L25.3906 34.2734C25.638 34.8333 25.8919 35.3802 26.1523 35.9141C26.4258 36.4349 26.6797 36.9036 26.9141 37.3203C27.1484 37.737 27.3568 38.0885 27.5391 38.375C27.7214 38.6615 27.8451 38.8438 27.9102 38.9219V39H22.5586ZM9.90234 28.082C10.6576 28.082 11.4323 28.082 12.2266 28.082C13.0208 28.069 13.7956 28.0625 14.5508 28.0625C15.319 28.0495 16.0547 28.043 16.7578 28.043C17.4609 28.0299 18.099 28.0169 18.6719 28.0039L13.1836 15.6016L7.79297 28.082H9.90234ZM29.5312 37.2812C29.5312 36.9948 29.5833 36.7279 29.6875 36.4805C29.8047 36.2201 29.9544 35.9987 30.1367 35.8164C30.332 35.6211 30.5534 35.4714 30.8008 35.3672C31.0612 35.25 31.3346 35.1914 31.6211 35.1914C31.9206 35.1914 32.194 35.25 32.4414 35.3672C32.7018 35.4714 32.9232 35.6211 33.1055 35.8164C33.3008 35.9987 33.4505 36.2201 33.5547 36.4805C33.6719 36.7279 33.7305 36.9948 33.7305 37.2812C33.7305 37.8802 33.5286 38.3815 33.125 38.7852C32.7214 39.1888 32.2201 39.3906 31.6211 39.3906C31.3346 39.3906 31.0612 39.332 30.8008 39.2148C30.5534 39.1107 30.332 38.9674 30.1367 38.7852C29.9544 38.5898 29.8047 38.3685 29.6875 38.1211C29.5833 37.8607 29.5312 37.5807 29.5312 37.2812ZM37.1484 38.9219C37.2917 38.7135 37.4544 38.4076 37.6367 38.0039C37.819 37.5872 37.9622 37.0664 38.0664 36.4414C38.2096 35.5299 38.3659 34.5078 38.5352 33.375C38.7174 32.2292 38.8997 31.0312 39.082 29.7812C39.2773 28.5312 39.4661 27.2552 39.6484 25.9531C39.8438 24.638 40.026 23.349 40.1953 22.0859C40.3776 20.8099 40.5469 19.5859 40.7031 18.4141C40.8724 17.2292 41.0221 16.1484 41.1523 15.1719C41.2826 14.1953 41.3867 13.349 41.4648 12.6328C41.556 11.9036 41.6211 11.3568 41.6602 10.9922H44.1406L56.4258 33.9609L68.6133 10.9922H70.4688L73.6719 34.1953C73.763 34.9245 73.8607 35.5495 73.9648 36.0703C74.069 36.5911 74.1732 37.0404 74.2773 37.418C74.3815 37.7826 74.4792 38.0885 74.5703 38.3359C74.6745 38.5703 74.7721 38.7656 74.8633 38.9219V39H69.9414V38.9219C70.0065 38.7786 70.0651 38.5443 70.1172 38.2188C70.1823 37.8932 70.2148 37.5026 70.2148 37.0469C70.2148 36.8776 70.2083 36.7083 70.1953 36.5391C70.1823 36.3568 70.1628 36.1615 70.1367 35.9531L67.6562 17.2422L56.1328 38.9219L54.7852 38.7656L43.1836 17.0469C42.7279 20.1328 42.3307 22.9844 41.9922 25.6016C41.849 26.7214 41.7057 27.8411 41.5625 28.9609C41.4193 30.0677 41.2891 31.1029 41.1719 32.0664C41.0677 33.0299 40.9831 33.8828 40.918 34.625C40.8529 35.3542 40.8203 35.8945 40.8203 36.2461C40.8203 36.6888 40.8333 37.0794 40.8594 37.418C40.8854 37.7565 40.9115 38.043 40.9375 38.2773C40.9766 38.5508 41.0156 38.7917 41.0547 39H37.1484V38.9219ZM79.7656 26.0312C79.7656 24.8594 79.7526 23.8438 79.7266 22.9844C79.7005 22.112 79.6615 21.3633 79.6094 20.7383C79.5703 20.1003 79.5117 19.5664 79.4336 19.1367C79.3685 18.707 79.2904 18.3555 79.1992 18.082V18.0039H83.7305V18.082C83.6393 18.3555 83.5547 18.707 83.4766 19.1367C83.4115 19.5664 83.3529 20.1003 83.3008 20.7383C83.2617 21.3633 83.2292 22.112 83.2031 22.9844C83.1771 23.8438 83.1641 24.8594 83.1641 26.0312V30.9531C83.1641 32.125 83.1771 33.1471 83.2031 34.0195C83.2292 34.8919 83.2617 35.6471 83.3008 36.2852C83.3529 36.9102 83.4115 37.4375 83.4766 37.8672C83.5547 38.2969 83.6393 38.6484 83.7305 38.9219V39H79.1992V38.9219C79.2904 38.6484 79.3685 38.2969 79.4336 37.8672C79.5117 37.4375 79.5703 36.9102 79.6094 36.2852C79.6615 35.6471 79.7005 34.8919 79.7266 34.0195C79.7526 33.1471 79.7656 32.125 79.7656 30.9531V26.0312ZM89.7266 26.0312C89.7266 24.8594 89.7135 23.8438 89.6875 22.9844C89.6615 22.112 89.6224 21.3633 89.5703 20.7383C89.5312 20.1003 89.4727 19.5664 89.3945 19.1367C89.3294 18.707 89.2513 18.3555 89.1602 18.082V18.0039H93.6719V18.082C93.5807 18.3555 93.5026 18.707 93.4375 19.1367C93.3724 19.5664 93.3138 20.1003 93.2617 20.7383C93.2227 21.3633 93.1901 22.112 93.1641 22.9844C93.138 23.8438 93.125 24.8594 93.125 26.0312V27.3203L102.051 19.9961C102.546 19.5924 102.917 19.2344 103.164 18.9219C103.424 18.6094 103.555 18.3034 103.555 18.0039H108.203V18.082C107.617 18.2253 107.012 18.4857 106.387 18.8633C105.775 19.2409 105.124 19.7161 104.434 20.2891L96.6406 26.6758L104.766 35.1133C105.846 36.2461 106.758 37.112 107.5 37.7109C108.255 38.2969 108.835 38.7005 109.238 38.9219V39H103.926C103.783 38.7396 103.477 38.3555 103.008 37.8477C102.539 37.3398 101.921 36.6823 101.152 35.875L93.125 27.5156V30.9531C93.125 32.125 93.138 33.1471 93.1641 34.0195C93.1901 34.8919 93.2227 35.6471 93.2617 36.2852C93.3138 36.9102 93.3724 37.4375 93.4375 37.8672C93.5026 38.2969 93.5807 38.6484 93.6719 38.9219V39H89.1602V38.9219C89.2513 38.6484 89.3294 38.2969 89.3945 37.8672C89.4727 37.4375 89.5312 36.9102 89.5703 36.2852C89.6224 35.6471 89.6615 34.8919 89.6875 34.0195C89.7135 33.1471 89.7266 32.125 89.7266 30.9531V26.0312ZM126.348 28.9609C125.944 28.9609 125.443 28.9609 124.844 28.9609C124.245 28.9479 123.594 28.9349 122.891 28.9219C122.188 28.9089 121.458 28.9023 120.703 28.9023C119.948 28.8893 119.219 28.8828 118.516 28.8828C117.852 28.8828 117.227 28.8893 116.641 28.9023C116.068 28.9154 115.573 28.9349 115.156 28.9609V30.9531C115.156 32.125 115.169 33.1471 115.195 34.0195C115.221 34.8919 115.254 35.6471 115.293 36.2852C115.345 36.9102 115.404 37.4375 115.469 37.8672C115.534 38.2969 115.612 38.6484 115.703 38.9219V39H111.191V38.9219C111.283 38.6484 111.361 38.2969 111.426 37.8672C111.504 37.4375 111.562 36.9102 111.602 36.2852C111.654 35.6471 111.693 34.8919 111.719 34.0195C111.745 33.1471 111.758 32.125 111.758 30.9531V26.0312C111.758 24.8594 111.745 23.8438 111.719 22.9844C111.693 22.112 111.654 21.3633 111.602 20.7383C111.562 20.1003 111.504 19.5664 111.426 19.1367C111.361 18.707 111.283 18.3555 111.191 18.082V18.0039H115.703V18.082C115.612 18.3555 115.534 18.707 115.469 19.1367C115.404 19.5664 115.345 20.1003 115.293 20.7383C115.254 21.3633 115.221 22.112 115.195 22.9844C115.169 23.8438 115.156 24.8594 115.156 26.0312V27.3594H118.027C118.743 27.3594 119.499 27.3594 120.293 27.3594C121.087 27.3464 121.855 27.3398 122.598 27.3398C123.34 27.3268 124.036 27.3138 124.688 27.3008C125.339 27.2878 125.892 27.2682 126.348 27.2422V26.0312C126.348 24.8594 126.335 23.8438 126.309 22.9844C126.283 22.112 126.243 21.3633 126.191 20.7383C126.152 20.1003 126.1 19.5664 126.035 19.1367C125.97 18.707 125.892 18.3555 125.801 18.082V18.0039H130.312V18.082C130.221 18.3555 130.137 18.707 130.059 19.1367C129.993 19.5664 129.935 20.1003 129.883 20.7383C129.844 21.3633 129.811 22.112 129.785 22.9844C129.759 23.8438 129.746 24.8594 129.746 26.0312V30.9531C129.746 32.125 129.759 33.1471 129.785 34.0195C129.811 34.8919 129.844 35.6471 129.883 36.2852C129.935 36.9102 129.993 37.4375 130.059 37.8672C130.137 38.2969 130.221 38.6484 130.312 38.9219V39H125.801V38.9219C125.892 38.6484 125.97 38.2969 126.035 37.8672C126.1 37.4375 126.152 36.9102 126.191 36.2852C126.243 35.6471 126.283 34.8919 126.309 34.0195C126.335 33.1471 126.348 32.125 126.348 30.9531V28.9609ZM148.203 32.3984C147.852 32.3984 147.409 32.3984 146.875 32.3984C146.354 32.3984 145.781 32.3984 145.156 32.3984C144.531 32.3984 143.887 32.3984 143.223 32.3984C142.559 32.3984 141.927 32.4049 141.328 32.418C140.729 32.418 140.182 32.4245 139.688 32.4375C139.193 32.4375 138.809 32.4375 138.535 32.4375L137.812 33.9609C137.5 34.5859 137.233 35.1328 137.012 35.6016C136.79 36.0573 136.608 36.4609 136.465 36.8125C136.322 37.1641 136.217 37.4701 136.152 37.7305C136.087 37.9779 136.055 38.2122 136.055 38.4336C136.055 38.5768 136.061 38.6875 136.074 38.7656C136.087 38.8307 136.107 38.8828 136.133 38.9219V39H132.695V38.9219C132.786 38.8307 132.93 38.6354 133.125 38.3359C133.32 38.0234 133.542 37.6458 133.789 37.2031C134.049 36.7604 134.323 36.2591 134.609 35.6992C134.909 35.1393 135.202 34.5599 135.488 33.9609L143.457 17.5156H144.922L152.734 33.9609C153.034 34.5859 153.333 35.1849 153.633 35.7578C153.945 36.3307 154.232 36.8451 154.492 37.3008C154.753 37.7435 154.98 38.1146 155.176 38.4141C155.371 38.7005 155.501 38.8698 155.566 38.9219V39H150.566C150.592 38.8958 150.605 38.8047 150.605 38.7266C150.605 38.6354 150.605 38.5378 150.605 38.4336C150.605 38.1471 150.54 37.8021 150.41 37.3984C150.293 36.9948 150.143 36.5846 149.961 36.168C149.792 35.7383 149.609 35.3281 149.414 34.9375C149.232 34.5469 149.082 34.2214 148.965 33.9609L148.203 32.3984ZM139.297 30.875H140.488C141.035 30.875 141.615 30.875 142.227 30.875C142.852 30.862 143.477 30.8555 144.102 30.8555C144.727 30.8555 145.332 30.8555 145.918 30.8555C146.504 30.8424 147.031 30.8359 147.5 30.8359L143.457 22.2031L139.297 30.875ZM158.672 26.0312C158.672 24.8594 158.659 23.8438 158.633 22.9844C158.607 22.112 158.568 21.3633 158.516 20.7383C158.477 20.1003 158.418 19.5664 158.34 19.1367C158.275 18.707 158.197 18.3555 158.105 18.082V18.0039H162.637V18.082C162.546 18.3555 162.461 18.707 162.383 19.1367C162.318 19.5664 162.259 20.1003 162.207 20.7383C162.168 21.3633 162.135 22.112 162.109 22.9844C162.083 23.8438 162.07 24.8594 162.07 26.0312V30.9531C162.07 32.125 162.083 33.1471 162.109 34.0195C162.135 34.8919 162.168 35.6471 162.207 36.2852C162.259 36.9102 162.318 37.4375 162.383 37.8672C162.461 38.2969 162.546 38.6484 162.637 38.9219V39H158.105V38.9219C158.197 38.6484 158.275 38.2969 158.34 37.8672C158.418 37.4375 158.477 36.9102 158.516 36.2852C158.568 35.6471 158.607 34.8919 158.633 34.0195C158.659 33.1471 158.672 32.125 158.672 30.9531V26.0312ZM172.031 37.4766C173.242 37.4766 174.355 37.431 175.371 37.3398C176.4 37.2357 177.298 37.125 178.066 37.0078C178.965 36.8646 179.779 36.7018 180.508 36.5195L180.059 39.1172C179.876 39.1042 179.564 39.0846 179.121 39.0586C178.691 39.0456 178.236 39.0326 177.754 39.0195C177.272 39.0195 176.823 39.013 176.406 39C175.99 39 175.703 39 175.547 39H168.066V38.9219C168.158 38.6484 168.236 38.2969 168.301 37.8672C168.379 37.4375 168.438 36.9102 168.477 36.2852C168.529 35.6471 168.568 34.8919 168.594 34.0195C168.62 33.1471 168.633 32.125 168.633 30.9531V26.0312C168.633 24.8594 168.62 23.8438 168.594 22.9844C168.568 22.112 168.529 21.3633 168.477 20.7383C168.438 20.1003 168.379 19.5664 168.301 19.1367C168.236 18.707 168.158 18.3555 168.066 18.082V18.0039H172.578V18.082C172.487 18.3555 172.409 18.707 172.344 19.1367C172.279 19.5664 172.22 20.1003 172.168 20.7383C172.129 21.3633 172.096 22.112 172.07 22.9844C172.044 23.8438 172.031 24.8594 172.031 26.0312V37.4766ZM182.773 28.4336C182.773 26.8971 183.06 25.4714 183.633 24.1562C184.219 22.8411 185.013 21.7018 186.016 20.7383C187.018 19.7617 188.203 19 189.57 18.4531C190.938 17.9062 192.402 17.6328 193.965 17.6328C195.501 17.6328 196.947 17.8932 198.301 18.4141C199.668 18.9219 200.853 19.651 201.855 20.6016C202.871 21.5521 203.672 22.7044 204.258 24.0586C204.844 25.4128 205.137 26.9297 205.137 28.6094C205.137 30.0026 204.889 31.3503 204.395 32.6523C203.9 33.9414 203.177 35.0872 202.227 36.0898C201.276 37.0794 200.104 37.8737 198.711 38.4727C197.318 39.0586 195.723 39.3516 193.926 39.3516C192.402 39.3516 190.964 39.0977 189.609 38.5898C188.255 38.082 187.07 37.3594 186.055 36.4219C185.039 35.4714 184.238 34.3255 183.652 32.9844C183.066 31.6302 182.773 30.1133 182.773 28.4336ZM194.414 37.9648C195.404 37.9648 196.315 37.7695 197.148 37.3789C197.982 36.9883 198.698 36.4284 199.297 35.6992C199.909 34.9701 200.378 34.0846 200.703 33.043C201.042 31.9883 201.211 30.8034 201.211 29.4883C201.211 27.9909 201.048 26.6042 200.723 25.3281C200.41 24.0521 199.928 22.9518 199.277 22.0273C198.639 21.0898 197.839 20.3607 196.875 19.8398C195.911 19.306 194.785 19.0391 193.496 19.0391C192.507 19.0391 191.595 19.2279 190.762 19.6055C189.928 19.9831 189.206 20.5299 188.594 21.2461C187.995 21.9622 187.526 22.8411 187.188 23.8828C186.849 24.9245 186.68 26.1094 186.68 27.4375C186.68 28.9219 186.842 30.3086 187.168 31.5977C187.507 32.8737 187.995 33.987 188.633 34.9375C189.284 35.875 190.091 36.6172 191.055 37.1641C192.018 37.6979 193.138 37.9648 194.414 37.9648ZM211.289 18.0039V18.082C211.263 18.1471 211.243 18.2513 211.23 18.3945C211.217 18.5378 211.211 18.6615 211.211 18.7656C211.211 19.1823 211.27 19.651 211.387 20.1719C211.517 20.6797 211.751 21.3177 212.09 22.0859L217.285 33.8438L222.52 22.2422C222.637 21.9948 222.754 21.7344 222.871 21.4609C222.988 21.1745 223.099 20.8815 223.203 20.582C223.307 20.2826 223.392 19.9831 223.457 19.6836C223.522 19.3711 223.555 19.0651 223.555 18.7656C223.555 18.5964 223.542 18.4531 223.516 18.3359C223.49 18.2057 223.464 18.1211 223.438 18.082V18.0039H227.129V18.082C226.882 18.3424 226.562 18.8047 226.172 19.4688C225.781 20.1198 225.378 20.9531 224.961 21.9688L217.168 39.2734H215.918L208.73 22.9648C208.47 22.3659 208.19 21.793 207.891 21.2461C207.604 20.6862 207.331 20.1914 207.07 19.7617C206.823 19.319 206.602 18.9544 206.406 18.668C206.211 18.3685 206.074 18.1732 205.996 18.082V18.0039H211.289ZM241.094 32.3984C240.742 32.3984 240.299 32.3984 239.766 32.3984C239.245 32.3984 238.672 32.3984 238.047 32.3984C237.422 32.3984 236.777 32.3984 236.113 32.3984C235.449 32.3984 234.818 32.4049 234.219 32.418C233.62 32.418 233.073 32.4245 232.578 32.4375C232.083 32.4375 231.699 32.4375 231.426 32.4375L230.703 33.9609C230.391 34.5859 230.124 35.1328 229.902 35.6016C229.681 36.0573 229.499 36.4609 229.355 36.8125C229.212 37.1641 229.108 37.4701 229.043 37.7305C228.978 37.9779 228.945 38.2122 228.945 38.4336C228.945 38.5768 228.952 38.6875 228.965 38.7656C228.978 38.8307 228.997 38.8828 229.023 38.9219V39H225.586V38.9219C225.677 38.8307 225.82 38.6354 226.016 38.3359C226.211 38.0234 226.432 37.6458 226.68 37.2031C226.94 36.7604 227.214 36.2591 227.5 35.6992C227.799 35.1393 228.092 34.5599 228.379 33.9609L236.348 17.5156H237.812L245.625 33.9609C245.924 34.5859 246.224 35.1849 246.523 35.7578C246.836 36.3307 247.122 36.8451 247.383 37.3008C247.643 37.7435 247.871 38.1146 248.066 38.4141C248.262 38.7005 248.392 38.8698 248.457 38.9219V39H243.457C243.483 38.8958 243.496 38.8047 243.496 38.7266C243.496 38.6354 243.496 38.5378 243.496 38.4336C243.496 38.1471 243.431 37.8021 243.301 37.3984C243.184 36.9948 243.034 36.5846 242.852 36.168C242.682 35.7383 242.5 35.3281 242.305 34.9375C242.122 34.5469 241.973 34.2214 241.855 33.9609L241.094 32.3984ZM232.188 30.875H233.379C233.926 30.875 234.505 30.875 235.117 30.875C235.742 30.862 236.367 30.8555 236.992 30.8555C237.617 30.8555 238.223 30.8555 238.809 30.8555C239.395 30.8424 239.922 30.8359 240.391 30.8359L236.348 22.2031L232.188 30.875Z" fill="#C3DAC3"/>
<path d="M417.559 39V38.9219C417.585 38.8568 417.604 38.7591 417.617 38.6289C417.63 38.4987 417.637 38.3815 417.637 38.2773C417.637 37.8737 417.578 37.431 417.461 36.9492C417.357 36.4544 417.148 35.8424 416.836 35.1133L414.473 29.8008C413.743 29.7747 412.773 29.7617 411.562 29.7617C410.352 29.7617 409.043 29.7617 407.637 29.7617C406.608 29.7617 405.612 29.7617 404.648 29.7617C403.698 29.7617 402.839 29.7747 402.07 29.8008L399.824 34.957C399.629 35.4388 399.421 35.9661 399.199 36.5391C398.978 37.112 398.867 37.6914 398.867 38.2773C398.867 38.4466 398.88 38.5898 398.906 38.707C398.932 38.8112 398.958 38.8828 398.984 38.9219V39H395V38.9219C395.234 38.6745 395.527 38.2383 395.879 37.6133C396.23 36.9753 396.615 36.181 397.031 35.2305L408.223 10.4062H409.785L420.391 34.2734C420.638 34.8333 420.892 35.3802 421.152 35.9141C421.426 36.4349 421.68 36.9036 421.914 37.3203C422.148 37.737 422.357 38.0885 422.539 38.375C422.721 38.6615 422.845 38.8438 422.91 38.9219V39H417.559ZM404.902 28.082C405.658 28.082 406.432 28.082 407.227 28.082C408.021 28.069 408.796 28.0625 409.551 28.0625C410.319 28.0495 411.055 28.043 411.758 28.043C412.461 28.0299 413.099 28.0169 413.672 28.0039L408.184 15.6016L402.793 28.082H404.902ZM424.531 37.2812C424.531 36.9948 424.583 36.7279 424.688 36.4805C424.805 36.2201 424.954 35.9987 425.137 35.8164C425.332 35.6211 425.553 35.4714 425.801 35.3672C426.061 35.25 426.335 35.1914 426.621 35.1914C426.921 35.1914 427.194 35.25 427.441 35.3672C427.702 35.4714 427.923 35.6211 428.105 35.8164C428.301 35.9987 428.451 36.2201 428.555 36.4805C428.672 36.7279 428.73 36.9948 428.73 37.2812C428.73 37.8802 428.529 38.3815 428.125 38.7852C427.721 39.1888 427.22 39.3906 426.621 39.3906C426.335 39.3906 426.061 39.332 425.801 39.2148C425.553 39.1107 425.332 38.9674 425.137 38.7852C424.954 38.5898 424.805 38.3685 424.688 38.1211C424.583 37.8607 424.531 37.5807 424.531 37.2812ZM432.148 38.9219C432.292 38.7135 432.454 38.4076 432.637 38.0039C432.819 37.5872 432.962 37.0664 433.066 36.4414C433.21 35.5299 433.366 34.5078 433.535 33.375C433.717 32.2292 433.9 31.0312 434.082 29.7812C434.277 28.5312 434.466 27.2552 434.648 25.9531C434.844 24.638 435.026 23.349 435.195 22.0859C435.378 20.8099 435.547 19.5859 435.703 18.4141C435.872 17.2292 436.022 16.1484 436.152 15.1719C436.283 14.1953 436.387 13.349 436.465 12.6328C436.556 11.9036 436.621 11.3568 436.66 10.9922H439.141L451.426 33.9609L463.613 10.9922H465.469L468.672 34.1953C468.763 34.9245 468.861 35.5495 468.965 36.0703C469.069 36.5911 469.173 37.0404 469.277 37.418C469.382 37.7826 469.479 38.0885 469.57 38.3359C469.674 38.5703 469.772 38.7656 469.863 38.9219V39H464.941V38.9219C465.007 38.7786 465.065 38.5443 465.117 38.2188C465.182 37.8932 465.215 37.5026 465.215 37.0469C465.215 36.8776 465.208 36.7083 465.195 36.5391C465.182 36.3568 465.163 36.1615 465.137 35.9531L462.656 17.2422L451.133 38.9219L449.785 38.7656L438.184 17.0469C437.728 20.1328 437.331 22.9844 436.992 25.6016C436.849 26.7214 436.706 27.8411 436.562 28.9609C436.419 30.0677 436.289 31.1029 436.172 32.0664C436.068 33.0299 435.983 33.8828 435.918 34.625C435.853 35.3542 435.82 35.8945 435.82 36.2461C435.82 36.6888 435.833 37.0794 435.859 37.418C435.885 37.7565 435.911 38.043 435.938 38.2773C435.977 38.5508 436.016 38.7917 436.055 39H432.148V38.9219ZM474.766 26.0312C474.766 24.8594 474.753 23.8438 474.727 22.9844C474.701 22.112 474.661 21.3633 474.609 20.7383C474.57 20.1003 474.512 19.5664 474.434 19.1367C474.368 18.707 474.29 18.3555 474.199 18.082V18.0039H478.73V18.082C478.639 18.3555 478.555 18.707 478.477 19.1367C478.411 19.5664 478.353 20.1003 478.301 20.7383C478.262 21.3633 478.229 22.112 478.203 22.9844C478.177 23.8438 478.164 24.8594 478.164 26.0312V30.9531C478.164 32.125 478.177 33.1471 478.203 34.0195C478.229 34.8919 478.262 35.6471 478.301 36.2852C478.353 36.9102 478.411 37.4375 478.477 37.8672C478.555 38.2969 478.639 38.6484 478.73 38.9219V39H474.199V38.9219C474.29 38.6484 474.368 38.2969 474.434 37.8672C474.512 37.4375 474.57 36.9102 474.609 36.2852C474.661 35.6471 474.701 34.8919 474.727 34.0195C474.753 33.1471 474.766 32.125 474.766 30.9531V26.0312ZM484.727 26.0312C484.727 24.8594 484.714 23.8438 484.688 22.9844C484.661 22.112 484.622 21.3633 484.57 20.7383C484.531 20.1003 484.473 19.5664 484.395 19.1367C484.329 18.707 484.251 18.3555 484.16 18.082V18.0039H488.672V18.082C488.581 18.3555 488.503 18.707 488.438 19.1367C488.372 19.5664 488.314 20.1003 488.262 20.7383C488.223 21.3633 488.19 22.112 488.164 22.9844C488.138 23.8438 488.125 24.8594 488.125 26.0312V27.3203L497.051 19.9961C497.546 19.5924 497.917 19.2344 498.164 18.9219C498.424 18.6094 498.555 18.3034 498.555 18.0039H503.203V18.082C502.617 18.2253 502.012 18.4857 501.387 18.8633C500.775 19.2409 500.124 19.7161 499.434 20.2891L491.641 26.6758L499.766 35.1133C500.846 36.2461 501.758 37.112 502.5 37.7109C503.255 38.2969 503.835 38.7005 504.238 38.9219V39H498.926C498.783 38.7396 498.477 38.3555 498.008 37.8477C497.539 37.3398 496.921 36.6823 496.152 35.875L488.125 27.5156V30.9531C488.125 32.125 488.138 33.1471 488.164 34.0195C488.19 34.8919 488.223 35.6471 488.262 36.2852C488.314 36.9102 488.372 37.4375 488.438 37.8672C488.503 38.2969 488.581 38.6484 488.672 38.9219V39H484.16V38.9219C484.251 38.6484 484.329 38.2969 484.395 37.8672C484.473 37.4375 484.531 36.9102 484.57 36.2852C484.622 35.6471 484.661 34.8919 484.688 34.0195C484.714 33.1471 484.727 32.125 484.727 30.9531V26.0312ZM521.348 28.9609C520.944 28.9609 520.443 28.9609 519.844 28.9609C519.245 28.9479 518.594 28.9349 517.891 28.9219C517.188 28.9089 516.458 28.9023 515.703 28.9023C514.948 28.8893 514.219 28.8828 513.516 28.8828C512.852 28.8828 512.227 28.8893 511.641 28.9023C511.068 28.9154 510.573 28.9349 510.156 28.9609V30.9531C510.156 32.125 510.169 33.1471 510.195 34.0195C510.221 34.8919 510.254 35.6471 510.293 36.2852C510.345 36.9102 510.404 37.4375 510.469 37.8672C510.534 38.2969 510.612 38.6484 510.703 38.9219V39H506.191V38.9219C506.283 38.6484 506.361 38.2969 506.426 37.8672C506.504 37.4375 506.562 36.9102 506.602 36.2852C506.654 35.6471 506.693 34.8919 506.719 34.0195C506.745 33.1471 506.758 32.125 506.758 30.9531V26.0312C506.758 24.8594 506.745 23.8438 506.719 22.9844C506.693 22.112 506.654 21.3633 506.602 20.7383C506.562 20.1003 506.504 19.5664 506.426 19.1367C506.361 18.707 506.283 18.3555 506.191 18.082V18.0039H510.703V18.082C510.612 18.3555 510.534 18.707 510.469 19.1367C510.404 19.5664 510.345 20.1003 510.293 20.7383C510.254 21.3633 510.221 22.112 510.195 22.9844C510.169 23.8438 510.156 24.8594 510.156 26.0312V27.3594H513.027C513.743 27.3594 514.499 27.3594 515.293 27.3594C516.087 27.3464 516.855 27.3398 517.598 27.3398C518.34 27.3268 519.036 27.3138 519.688 27.3008C520.339 27.2878 520.892 27.2682 521.348 27.2422V26.0312C521.348 24.8594 521.335 23.8438 521.309 22.9844C521.283 22.112 521.243 21.3633 521.191 20.7383C521.152 20.1003 521.1 19.5664 521.035 19.1367C520.97 18.707 520.892 18.3555 520.801 18.082V18.0039H525.312V18.082C525.221 18.3555 525.137 18.707 525.059 19.1367C524.993 19.5664 524.935 20.1003 524.883 20.7383C524.844 21.3633 524.811 22.112 524.785 22.9844C524.759 23.8438 524.746 24.8594 524.746 26.0312V30.9531C524.746 32.125 524.759 33.1471 524.785 34.0195C524.811 34.8919 524.844 35.6471 524.883 36.2852C524.935 36.9102 524.993 37.4375 525.059 37.8672C525.137 38.2969 525.221 38.6484 525.312 38.9219V39H520.801V38.9219C520.892 38.6484 520.97 38.2969 521.035 37.8672C521.1 37.4375 521.152 36.9102 521.191 36.2852C521.243 35.6471 521.283 34.8919 521.309 34.0195C521.335 33.1471 521.348 32.125 521.348 30.9531V28.9609ZM543.203 32.3984C542.852 32.3984 542.409 32.3984 541.875 32.3984C541.354 32.3984 540.781 32.3984 540.156 32.3984C539.531 32.3984 538.887 32.3984 538.223 32.3984C537.559 32.3984 536.927 32.4049 536.328 32.418C535.729 32.418 535.182 32.4245 534.688 32.4375C534.193 32.4375 533.809 32.4375 533.535 32.4375L532.812 33.9609C532.5 34.5859 532.233 35.1328 532.012 35.6016C531.79 36.0573 531.608 36.4609 531.465 36.8125C531.322 37.1641 531.217 37.4701 531.152 37.7305C531.087 37.9779 531.055 38.2122 531.055 38.4336C531.055 38.5768 531.061 38.6875 531.074 38.7656C531.087 38.8307 531.107 38.8828 531.133 38.9219V39H527.695V38.9219C527.786 38.8307 527.93 38.6354 528.125 38.3359C528.32 38.0234 528.542 37.6458 528.789 37.2031C529.049 36.7604 529.323 36.2591 529.609 35.6992C529.909 35.1393 530.202 34.5599 530.488 33.9609L538.457 17.5156H539.922L547.734 33.9609C548.034 34.5859 548.333 35.1849 548.633 35.7578C548.945 36.3307 549.232 36.8451 549.492 37.3008C549.753 37.7435 549.98 38.1146 550.176 38.4141C550.371 38.7005 550.501 38.8698 550.566 38.9219V39H545.566C545.592 38.8958 545.605 38.8047 545.605 38.7266C545.605 38.6354 545.605 38.5378 545.605 38.4336C545.605 38.1471 545.54 37.8021 545.41 37.3984C545.293 36.9948 545.143 36.5846 544.961 36.168C544.792 35.7383 544.609 35.3281 544.414 34.9375C544.232 34.5469 544.082 34.2214 543.965 33.9609L543.203 32.3984ZM534.297 30.875H535.488C536.035 30.875 536.615 30.875 537.227 30.875C537.852 30.862 538.477 30.8555 539.102 30.8555C539.727 30.8555 540.332 30.8555 540.918 30.8555C541.504 30.8424 542.031 30.8359 542.5 30.8359L538.457 22.2031L534.297 30.875ZM553.672 26.0312C553.672 24.8594 553.659 23.8438 553.633 22.9844C553.607 22.112 553.568 21.3633 553.516 20.7383C553.477 20.1003 553.418 19.5664 553.34 19.1367C553.275 18.707 553.197 18.3555 553.105 18.082V18.0039H557.637V18.082C557.546 18.3555 557.461 18.707 557.383 19.1367C557.318 19.5664 557.259 20.1003 557.207 20.7383C557.168 21.3633 557.135 22.112 557.109 22.9844C557.083 23.8438 557.07 24.8594 557.07 26.0312V30.9531C557.07 32.125 557.083 33.1471 557.109 34.0195C557.135 34.8919 557.168 35.6471 557.207 36.2852C557.259 36.9102 557.318 37.4375 557.383 37.8672C557.461 38.2969 557.546 38.6484 557.637 38.9219V39H553.105V38.9219C553.197 38.6484 553.275 38.2969 553.34 37.8672C553.418 37.4375 553.477 36.9102 553.516 36.2852C553.568 35.6471 553.607 34.8919 553.633 34.0195C553.659 33.1471 553.672 32.125 553.672 30.9531V26.0312ZM567.031 37.4766C568.242 37.4766 569.355 37.431 570.371 37.3398C571.4 37.2357 572.298 37.125 573.066 37.0078C573.965 36.8646 574.779 36.7018 575.508 36.5195L575.059 39.1172C574.876 39.1042 574.564 39.0846 574.121 39.0586C573.691 39.0456 573.236 39.0326 572.754 39.0195C572.272 39.0195 571.823 39.013 571.406 39C570.99 39 570.703 39 570.547 39H563.066V38.9219C563.158 38.6484 563.236 38.2969 563.301 37.8672C563.379 37.4375 563.438 36.9102 563.477 36.2852C563.529 35.6471 563.568 34.8919 563.594 34.0195C563.62 33.1471 563.633 32.125 563.633 30.9531V26.0312C563.633 24.8594 563.62 23.8438 563.594 22.9844C563.568 22.112 563.529 21.3633 563.477 20.7383C563.438 20.1003 563.379 19.5664 563.301 19.1367C563.236 18.707 563.158 18.3555 563.066 18.082V18.0039H567.578V18.082C567.487 18.3555 567.409 18.707 567.344 19.1367C567.279 19.5664 567.22 20.1003 567.168 20.7383C567.129 21.3633 567.096 22.112 567.07 22.9844C567.044 23.8438 567.031 24.8594 567.031 26.0312V37.4766ZM577.773 28.4336C577.773 26.8971 578.06 25.4714 578.633 24.1562C579.219 22.8411 580.013 21.7018 581.016 20.7383C582.018 19.7617 583.203 19 584.57 18.4531C585.938 17.9062 587.402 17.6328 588.965 17.6328C590.501 17.6328 591.947 17.8932 593.301 18.4141C594.668 18.9219 595.853 19.651 596.855 20.6016C597.871 21.5521 598.672 22.7044 599.258 24.0586C599.844 25.4128 600.137 26.9297 600.137 28.6094C600.137 30.0026 599.889 31.3503 599.395 32.6523C598.9 33.9414 598.177 35.0872 597.227 36.0898C596.276 37.0794 595.104 37.8737 593.711 38.4727C592.318 39.0586 590.723 39.3516 588.926 39.3516C587.402 39.3516 585.964 39.0977 584.609 38.5898C583.255 38.082 582.07 37.3594 581.055 36.4219C580.039 35.4714 579.238 34.3255 578.652 32.9844C578.066 31.6302 577.773 30.1133 577.773 28.4336ZM589.414 37.9648C590.404 37.9648 591.315 37.7695 592.148 37.3789C592.982 36.9883 593.698 36.4284 594.297 35.6992C594.909 34.9701 595.378 34.0846 595.703 33.043C596.042 31.9883 596.211 30.8034 596.211 29.4883C596.211 27.9909 596.048 26.6042 595.723 25.3281C595.41 24.0521 594.928 22.9518 594.277 22.0273C593.639 21.0898 592.839 20.3607 591.875 19.8398C590.911 19.306 589.785 19.0391 588.496 19.0391C587.507 19.0391 586.595 19.2279 585.762 19.6055C584.928 19.9831 584.206 20.5299 583.594 21.2461C582.995 21.9622 582.526 22.8411 582.188 23.8828C581.849 24.9245 581.68 26.1094 581.68 27.4375C581.68 28.9219 581.842 30.3086 582.168 31.5977C582.507 32.8737 582.995 33.987 583.633 34.9375C584.284 35.875 585.091 36.6172 586.055 37.1641C587.018 37.6979 588.138 37.9648 589.414 37.9648ZM606.289 18.0039V18.082C606.263 18.1471 606.243 18.2513 606.23 18.3945C606.217 18.5378 606.211 18.6615 606.211 18.7656C606.211 19.1823 606.27 19.651 606.387 20.1719C606.517 20.6797 606.751 21.3177 607.09 22.0859L612.285 33.8438L617.52 22.2422C617.637 21.9948 617.754 21.7344 617.871 21.4609C617.988 21.1745 618.099 20.8815 618.203 20.582C618.307 20.2826 618.392 19.9831 618.457 19.6836C618.522 19.3711 618.555 19.0651 618.555 18.7656C618.555 18.5964 618.542 18.4531 618.516 18.3359C618.49 18.2057 618.464 18.1211 618.438 18.082V18.0039H622.129V18.082C621.882 18.3424 621.562 18.8047 621.172 19.4688C620.781 20.1198 620.378 20.9531 619.961 21.9688L612.168 39.2734H610.918L603.73 22.9648C603.47 22.3659 603.19 21.793 602.891 21.2461C602.604 20.6862 602.331 20.1914 602.07 19.7617C601.823 19.319 601.602 18.9544 601.406 18.668C601.211 18.3685 601.074 18.1732 600.996 18.082V18.0039H606.289ZM636.094 32.3984C635.742 32.3984 635.299 32.3984 634.766 32.3984C634.245 32.3984 633.672 32.3984 633.047 32.3984C632.422 32.3984 631.777 32.3984 631.113 32.3984C630.449 32.3984 629.818 32.4049 629.219 32.418C628.62 32.418 628.073 32.4245 627.578 32.4375C627.083 32.4375 626.699 32.4375 626.426 32.4375L625.703 33.9609C625.391 34.5859 625.124 35.1328 624.902 35.6016C624.681 36.0573 624.499 36.4609 624.355 36.8125C624.212 37.1641 624.108 37.4701 624.043 37.7305C623.978 37.9779 623.945 38.2122 623.945 38.4336C623.945 38.5768 623.952 38.6875 623.965 38.7656C623.978 38.8307 623.997 38.8828 624.023 38.9219V39H620.586V38.9219C620.677 38.8307 620.82 38.6354 621.016 38.3359C621.211 38.0234 621.432 37.6458 621.68 37.2031C621.94 36.7604 622.214 36.2591 622.5 35.6992C622.799 35.1393 623.092 34.5599 623.379 33.9609L631.348 17.5156H632.812L640.625 33.9609C640.924 34.5859 641.224 35.1849 641.523 35.7578C641.836 36.3307 642.122 36.8451 642.383 37.3008C642.643 37.7435 642.871 38.1146 643.066 38.4141C643.262 38.7005 643.392 38.8698 643.457 38.9219V39H638.457C638.483 38.8958 638.496 38.8047 638.496 38.7266C638.496 38.6354 638.496 38.5378 638.496 38.4336C638.496 38.1471 638.431 37.8021 638.301 37.3984C638.184 36.9948 638.034 36.5846 637.852 36.168C637.682 35.7383 637.5 35.3281 637.305 34.9375C637.122 34.5469 636.973 34.2214 636.855 33.9609L636.094 32.3984ZM627.188 30.875H628.379C628.926 30.875 629.505 30.875 630.117 30.875C630.742 30.862 631.367 30.8555 631.992 30.8555C632.617 30.8555 633.223 30.8555 633.809 30.8555C634.395 30.8424 634.922 30.8359 635.391 30.8359L631.348 22.2031L627.188 30.875Z" fill="#C3DAC3"/>
<path d="M812.559 39V38.9219C812.585 38.8568 812.604 38.7591 812.617 38.6289C812.63 38.4987 812.637 38.3815 812.637 38.2773C812.637 37.8737 812.578 37.431 812.461 36.9492C812.357 36.4544 812.148 35.8424 811.836 35.1133L809.473 29.8008C808.743 29.7747 807.773 29.7617 806.562 29.7617C805.352 29.7617 804.043 29.7617 802.637 29.7617C801.608 29.7617 800.612 29.7617 799.648 29.7617C798.698 29.7617 797.839 29.7747 797.07 29.8008L794.824 34.957C794.629 35.4388 794.421 35.9661 794.199 36.5391C793.978 37.112 793.867 37.6914 793.867 38.2773C793.867 38.4466 793.88 38.5898 793.906 38.707C793.932 38.8112 793.958 38.8828 793.984 38.9219V39H790V38.9219C790.234 38.6745 790.527 38.2383 790.879 37.6133C791.23 36.9753 791.615 36.181 792.031 35.2305L803.223 10.4062H804.785L815.391 34.2734C815.638 34.8333 815.892 35.3802 816.152 35.9141C816.426 36.4349 816.68 36.9036 816.914 37.3203C817.148 37.737 817.357 38.0885 817.539 38.375C817.721 38.6615 817.845 38.8438 817.91 38.9219V39H812.559ZM799.902 28.082C800.658 28.082 801.432 28.082 802.227 28.082C803.021 28.069 803.796 28.0625 804.551 28.0625C805.319 28.0495 806.055 28.043 806.758 28.043C807.461 28.0299 808.099 28.0169 808.672 28.0039L803.184 15.6016L797.793 28.082H799.902ZM819.531 37.2812C819.531 36.9948 819.583 36.7279 819.688 36.4805C819.805 36.2201 819.954 35.9987 820.137 35.8164C820.332 35.6211 820.553 35.4714 820.801 35.3672C821.061 35.25 821.335 35.1914 821.621 35.1914C821.921 35.1914 822.194 35.25 822.441 35.3672C822.702 35.4714 822.923 35.6211 823.105 35.8164C823.301 35.9987 823.451 36.2201 823.555 36.4805C823.672 36.7279 823.73 36.9948 823.73 37.2812C823.73 37.8802 823.529 38.3815 823.125 38.7852C822.721 39.1888 822.22 39.3906 821.621 39.3906C821.335 39.3906 821.061 39.332 820.801 39.2148C820.553 39.1107 820.332 38.9674 820.137 38.7852C819.954 38.5898 819.805 38.3685 819.688 38.1211C819.583 37.8607 819.531 37.5807 819.531 37.2812ZM827.148 38.9219C827.292 38.7135 827.454 38.4076 827.637 38.0039C827.819 37.5872 827.962 37.0664 828.066 36.4414C828.21 35.5299 828.366 34.5078 828.535 33.375C828.717 32.2292 828.9 31.0312 829.082 29.7812C829.277 28.5312 829.466 27.2552 829.648 25.9531C829.844 24.638 830.026 23.349 830.195 22.0859C830.378 20.8099 830.547 19.5859 830.703 18.4141C830.872 17.2292 831.022 16.1484 831.152 15.1719C831.283 14.1953 831.387 13.349 831.465 12.6328C831.556 11.9036 831.621 11.3568 831.66 10.9922H834.141L846.426 33.9609L858.613 10.9922H860.469L863.672 34.1953C863.763 34.9245 863.861 35.5495 863.965 36.0703C864.069 36.5911 864.173 37.0404 864.277 37.418C864.382 37.7826 864.479 38.0885 864.57 38.3359C864.674 38.5703 864.772 38.7656 864.863 38.9219V39H859.941V38.9219C860.007 38.7786 860.065 38.5443 860.117 38.2188C860.182 37.8932 860.215 37.5026 860.215 37.0469C860.215 36.8776 860.208 36.7083 860.195 36.5391C860.182 36.3568 860.163 36.1615 860.137 35.9531L857.656 17.2422L846.133 38.9219L844.785 38.7656L833.184 17.0469C832.728 20.1328 832.331 22.9844 831.992 25.6016C831.849 26.7214 831.706 27.8411 831.562 28.9609C831.419 30.0677 831.289 31.1029 831.172 32.0664C831.068 33.0299 830.983 33.8828 830.918 34.625C830.853 35.3542 830.82 35.8945 830.82 36.2461C830.82 36.6888 830.833 37.0794 830.859 37.418C830.885 37.7565 830.911 38.043 830.938 38.2773C830.977 38.5508 831.016 38.7917 831.055 39H827.148V38.9219ZM869.766 26.0312C869.766 24.8594 869.753 23.8438 869.727 22.9844C869.701 22.112 869.661 21.3633 869.609 20.7383C869.57 20.1003 869.512 19.5664 869.434 19.1367C869.368 18.707 869.29 18.3555 869.199 18.082V18.0039H873.73V18.082C873.639 18.3555 873.555 18.707 873.477 19.1367C873.411 19.5664 873.353 20.1003 873.301 20.7383C873.262 21.3633 873.229 22.112 873.203 22.9844C873.177 23.8438 873.164 24.8594 873.164 26.0312V30.9531C873.164 32.125 873.177 33.1471 873.203 34.0195C873.229 34.8919 873.262 35.6471 873.301 36.2852C873.353 36.9102 873.411 37.4375 873.477 37.8672C873.555 38.2969 873.639 38.6484 873.73 38.9219V39H869.199V38.9219C869.29 38.6484 869.368 38.2969 869.434 37.8672C869.512 37.4375 869.57 36.9102 869.609 36.2852C869.661 35.6471 869.701 34.8919 869.727 34.0195C869.753 33.1471 869.766 32.125 869.766 30.9531V26.0312ZM879.727 26.0312C879.727 24.8594 879.714 23.8438 879.688 22.9844C879.661 22.112 879.622 21.3633 879.57 20.7383C879.531 20.1003 879.473 19.5664 879.395 19.1367C879.329 18.707 879.251 18.3555 879.16 18.082V18.0039H883.672V18.082C883.581 18.3555 883.503 18.707 883.438 19.1367C883.372 19.5664 883.314 20.1003 883.262 20.7383C883.223 21.3633 883.19 22.112 883.164 22.9844C883.138 23.8438 883.125 24.8594 883.125 26.0312V27.3203L892.051 19.9961C892.546 19.5924 892.917 19.2344 893.164 18.9219C893.424 18.6094 893.555 18.3034 893.555 18.0039H898.203V18.082C897.617 18.2253 897.012 18.4857 896.387 18.8633C895.775 19.2409 895.124 19.7161 894.434 20.2891L886.641 26.6758L894.766 35.1133C895.846 36.2461 896.758 37.112 897.5 37.7109C898.255 38.2969 898.835 38.7005 899.238 38.9219V39H893.926C893.783 38.7396 893.477 38.3555 893.008 37.8477C892.539 37.3398 891.921 36.6823 891.152 35.875L883.125 27.5156V30.9531C883.125 32.125 883.138 33.1471 883.164 34.0195C883.19 34.8919 883.223 35.6471 883.262 36.2852C883.314 36.9102 883.372 37.4375 883.438 37.8672C883.503 38.2969 883.581 38.6484 883.672 38.9219V39H879.16V38.9219C879.251 38.6484 879.329 38.2969 879.395 37.8672C879.473 37.4375 879.531 36.9102 879.57 36.2852C879.622 35.6471 879.661 34.8919 879.688 34.0195C879.714 33.1471 879.727 32.125 879.727 30.9531V26.0312ZM916.348 28.9609C915.944 28.9609 915.443 28.9609 914.844 28.9609C914.245 28.9479 913.594 28.9349 912.891 28.9219C912.188 28.9089 911.458 28.9023 910.703 28.9023C909.948 28.8893 909.219 28.8828 908.516 28.8828C907.852 28.8828 907.227 28.8893 906.641 28.9023C906.068 28.9154 905.573 28.9349 905.156 28.9609V30.9531C905.156 32.125 905.169 33.1471 905.195 34.0195C905.221 34.8919 905.254 35.6471 905.293 36.2852C905.345 36.9102 905.404 37.4375 905.469 37.8672C905.534 38.2969 905.612 38.6484 905.703 38.9219V39H901.191V38.9219C901.283 38.6484 901.361 38.2969 901.426 37.8672C901.504 37.4375 901.562 36.9102 901.602 36.2852C901.654 35.6471 901.693 34.8919 901.719 34.0195C901.745 33.1471 901.758 32.125 901.758 30.9531V26.0312C901.758 24.8594 901.745 23.8438 901.719 22.9844C901.693 22.112 901.654 21.3633 901.602 20.7383C901.562 20.1003 901.504 19.5664 901.426 19.1367C901.361 18.707 901.283 18.3555 901.191 18.082V18.0039H905.703V18.082C905.612 18.3555 905.534 18.707 905.469 19.1367C905.404 19.5664 905.345 20.1003 905.293 20.7383C905.254 21.3633 905.221 22.112 905.195 22.9844C905.169 23.8438 905.156 24.8594 905.156 26.0312V27.3594H908.027C908.743 27.3594 909.499 27.3594 910.293 27.3594C911.087 27.3464 911.855 27.3398 912.598 27.3398C913.34 27.3268 914.036 27.3138 914.688 27.3008C915.339 27.2878 915.892 27.2682 916.348 27.2422V26.0312C916.348 24.8594 916.335 23.8438 916.309 22.9844C916.283 22.112 916.243 21.3633 916.191 20.7383C916.152 20.1003 916.1 19.5664 916.035 19.1367C915.97 18.707 915.892 18.3555 915.801 18.082V18.0039H920.312V18.082C920.221 18.3555 920.137 18.707 920.059 19.1367C919.993 19.5664 919.935 20.1003 919.883 20.7383C919.844 21.3633 919.811 22.112 919.785 22.9844C919.759 23.8438 919.746 24.8594 919.746 26.0312V30.9531C919.746 32.125 919.759 33.1471 919.785 34.0195C919.811 34.8919 919.844 35.6471 919.883 36.2852C919.935 36.9102 919.993 37.4375 920.059 37.8672C920.137 38.2969 920.221 38.6484 920.312 38.9219V39H915.801V38.9219C915.892 38.6484 915.97 38.2969 916.035 37.8672C916.1 37.4375 916.152 36.9102 916.191 36.2852C916.243 35.6471 916.283 34.8919 916.309 34.0195C916.335 33.1471 916.348 32.125 916.348 30.9531V28.9609ZM938.203 32.3984C937.852 32.3984 937.409 32.3984 936.875 32.3984C936.354 32.3984 935.781 32.3984 935.156 32.3984C934.531 32.3984 933.887 32.3984 933.223 32.3984C932.559 32.3984 931.927 32.4049 931.328 32.418C930.729 32.418 930.182 32.4245 929.688 32.4375C929.193 32.4375 928.809 32.4375 928.535 32.4375L927.812 33.9609C927.5 34.5859 927.233 35.1328 927.012 35.6016C926.79 36.0573 926.608 36.4609 926.465 36.8125C926.322 37.1641 926.217 37.4701 926.152 37.7305C926.087 37.9779 926.055 38.2122 926.055 38.4336C926.055 38.5768 926.061 38.6875 926.074 38.7656C926.087 38.8307 926.107 38.8828 926.133 38.9219V39H922.695V38.9219C922.786 38.8307 922.93 38.6354 923.125 38.3359C923.32 38.0234 923.542 37.6458 923.789 37.2031C924.049 36.7604 924.323 36.2591 924.609 35.6992C924.909 35.1393 925.202 34.5599 925.488 33.9609L933.457 17.5156H934.922L942.734 33.9609C943.034 34.5859 943.333 35.1849 943.633 35.7578C943.945 36.3307 944.232 36.8451 944.492 37.3008C944.753 37.7435 944.98 38.1146 945.176 38.4141C945.371 38.7005 945.501 38.8698 945.566 38.9219V39H940.566C940.592 38.8958 940.605 38.8047 940.605 38.7266C940.605 38.6354 940.605 38.5378 940.605 38.4336C940.605 38.1471 940.54 37.8021 940.41 37.3984C940.293 36.9948 940.143 36.5846 939.961 36.168C939.792 35.7383 939.609 35.3281 939.414 34.9375C939.232 34.5469 939.082 34.2214 938.965 33.9609L938.203 32.3984ZM929.297 30.875H930.488C931.035 30.875 931.615 30.875 932.227 30.875C932.852 30.862 933.477 30.8555 934.102 30.8555C934.727 30.8555 935.332 30.8555 935.918 30.8555C936.504 30.8424 937.031 30.8359 937.5 30.8359L933.457 22.2031L929.297 30.875ZM948.672 26.0312C948.672 24.8594 948.659 23.8438 948.633 22.9844C948.607 22.112 948.568 21.3633 948.516 20.7383C948.477 20.1003 948.418 19.5664 948.34 19.1367C948.275 18.707 948.197 18.3555 948.105 18.082V18.0039H952.637V18.082C952.546 18.3555 952.461 18.707 952.383 19.1367C952.318 19.5664 952.259 20.1003 952.207 20.7383C952.168 21.3633 952.135 22.112 952.109 22.9844C952.083 23.8438 952.07 24.8594 952.07 26.0312V30.9531C952.07 32.125 952.083 33.1471 952.109 34.0195C952.135 34.8919 952.168 35.6471 952.207 36.2852C952.259 36.9102 952.318 37.4375 952.383 37.8672C952.461 38.2969 952.546 38.6484 952.637 38.9219V39H948.105V38.9219C948.197 38.6484 948.275 38.2969 948.34 37.8672C948.418 37.4375 948.477 36.9102 948.516 36.2852C948.568 35.6471 948.607 34.8919 948.633 34.0195C948.659 33.1471 948.672 32.125 948.672 30.9531V26.0312ZM962.031 37.4766C963.242 37.4766 964.355 37.431 965.371 37.3398C966.4 37.2357 967.298 37.125 968.066 37.0078C968.965 36.8646 969.779 36.7018 970.508 36.5195L970.059 39.1172C969.876 39.1042 969.564 39.0846 969.121 39.0586C968.691 39.0456 968.236 39.0326 967.754 39.0195C967.272 39.0195 966.823 39.013 966.406 39C965.99 39 965.703 39 965.547 39H958.066V38.9219C958.158 38.6484 958.236 38.2969 958.301 37.8672C958.379 37.4375 958.438 36.9102 958.477 36.2852C958.529 35.6471 958.568 34.8919 958.594 34.0195C958.62 33.1471 958.633 32.125 958.633 30.9531V26.0312C958.633 24.8594 958.62 23.8438 958.594 22.9844C958.568 22.112 958.529 21.3633 958.477 20.7383C958.438 20.1003 958.379 19.5664 958.301 19.1367C958.236 18.707 958.158 18.3555 958.066 18.082V18.0039H962.578V18.082C962.487 18.3555 962.409 18.707 962.344 19.1367C962.279 19.5664 962.22 20.1003 962.168 20.7383C962.129 21.3633 962.096 22.112 962.07 22.9844C962.044 23.8438 962.031 24.8594 962.031 26.0312V37.4766ZM972.773 28.4336C972.773 26.8971 973.06 25.4714 973.633 24.1562C974.219 22.8411 975.013 21.7018 976.016 20.7383C977.018 19.7617 978.203 19 979.57 18.4531C980.938 17.9062 982.402 17.6328 983.965 17.6328C985.501 17.6328 986.947 17.8932 988.301 18.4141C989.668 18.9219 990.853 19.651 991.855 20.6016C992.871 21.5521 993.672 22.7044 994.258 24.0586C994.844 25.4128 995.137 26.9297 995.137 28.6094C995.137 30.0026 994.889 31.3503 994.395 32.6523C993.9 33.9414 993.177 35.0872 992.227 36.0898C991.276 37.0794 990.104 37.8737 988.711 38.4727C987.318 39.0586 985.723 39.3516 983.926 39.3516C982.402 39.3516 980.964 39.0977 979.609 38.5898C978.255 38.082 977.07 37.3594 976.055 36.4219C975.039 35.4714 974.238 34.3255 973.652 32.9844C973.066 31.6302 972.773 30.1133 972.773 28.4336ZM984.414 37.9648C985.404 37.9648 986.315 37.7695 987.148 37.3789C987.982 36.9883 988.698 36.4284 989.297 35.6992C989.909 34.9701 990.378 34.0846 990.703 33.043C991.042 31.9883 991.211 30.8034 991.211 29.4883C991.211 27.9909 991.048 26.6042 990.723 25.3281C990.41 24.0521 989.928 22.9518 989.277 22.0273C988.639 21.0898 987.839 20.3607 986.875 19.8398C985.911 19.306 984.785 19.0391 983.496 19.0391C982.507 19.0391 981.595 19.2279 980.762 19.6055C979.928 19.9831 979.206 20.5299 978.594 21.2461C977.995 21.9622 977.526 22.8411 977.188 23.8828C976.849 24.9245 976.68 26.1094 976.68 27.4375C976.68 28.9219 976.842 30.3086 977.168 31.5977C977.507 32.8737 977.995 33.987 978.633 34.9375C979.284 35.875 980.091 36.6172 981.055 37.1641C982.018 37.6979 983.138 37.9648 984.414 37.9648ZM1001.29 18.0039V18.082C1001.26 18.1471 1001.24 18.2513 1001.23 18.3945C1001.22 18.5378 1001.21 18.6615 1001.21 18.7656C1001.21 19.1823 1001.27 19.651 1001.39 20.1719C1001.52 20.6797 1001.75 21.3177 1002.09 22.0859L1007.29 33.8438L1012.52 22.2422C1012.64 21.9948 1012.75 21.7344 1012.87 21.4609C1012.99 21.1745 1013.1 20.8815 1013.2 20.582C1013.31 20.2826 1013.39 19.9831 1013.46 19.6836C1013.52 19.3711 1013.55 19.0651 1013.55 18.7656C1013.55 18.5964 1013.54 18.4531 1013.52 18.3359C1013.49 18.2057 1013.46 18.1211 1013.44 18.082V18.0039H1017.13V18.082C1016.88 18.3424 1016.56 18.8047 1016.17 19.4688C1015.78 20.1198 1015.38 20.9531 1014.96 21.9688L1007.17 39.2734H1005.92L998.73 22.9648C998.47 22.3659 998.19 21.793 997.891 21.2461C997.604 20.6862 997.331 20.1914 997.07 19.7617C996.823 19.319 996.602 18.9544 996.406 18.668C996.211 18.3685 996.074 18.1732 995.996 18.082V18.0039H1001.29ZM1031.09 32.3984C1030.74 32.3984 1030.3 32.3984 1029.77 32.3984C1029.24 32.3984 1028.67 32.3984 1028.05 32.3984C1027.42 32.3984 1026.78 32.3984 1026.11 32.3984C1025.45 32.3984 1024.82 32.4049 1024.22 32.418C1023.62 32.418 1023.07 32.4245 1022.58 32.4375C1022.08 32.4375 1021.7 32.4375 1021.43 32.4375L1020.7 33.9609C1020.39 34.5859 1020.12 35.1328 1019.9 35.6016C1019.68 36.0573 1019.5 36.4609 1019.36 36.8125C1019.21 37.1641 1019.11 37.4701 1019.04 37.7305C1018.98 37.9779 1018.95 38.2122 1018.95 38.4336C1018.95 38.5768 1018.95 38.6875 1018.96 38.7656C1018.98 38.8307 1019 38.8828 1019.02 38.9219V39H1015.59V38.9219C1015.68 38.8307 1015.82 38.6354 1016.02 38.3359C1016.21 38.0234 1016.43 37.6458 1016.68 37.2031C1016.94 36.7604 1017.21 36.2591 1017.5 35.6992C1017.8 35.1393 1018.09 34.5599 1018.38 33.9609L1026.35 17.5156H1027.81L1035.62 33.9609C1035.92 34.5859 1036.22 35.1849 1036.52 35.7578C1036.84 36.3307 1037.12 36.8451 1037.38 37.3008C1037.64 37.7435 1037.87 38.1146 1038.07 38.4141C1038.26 38.7005 1038.39 38.8698 1038.46 38.9219V39H1033.46C1033.48 38.8958 1033.5 38.8047 1033.5 38.7266C1033.5 38.6354 1033.5 38.5378 1033.5 38.4336C1033.5 38.1471 1033.43 37.8021 1033.3 37.3984C1033.18 36.9948 1033.03 36.5846 1032.85 36.168C1032.68 35.7383 1032.5 35.3281 1032.3 34.9375C1032.12 34.5469 1031.97 34.2214 1031.86 33.9609L1031.09 32.3984ZM1022.19 30.875H1023.38C1023.93 30.875 1024.51 30.875 1025.12 30.875C1025.74 30.862 1026.37 30.8555 1026.99 30.8555C1027.62 30.8555 1028.22 30.8555 1028.81 30.8555C1029.39 30.8424 1029.92 30.8359 1030.39 30.8359L1026.35 22.2031L1022.19 30.875Z" fill="#C3DAC3"/>
<path d="M1197.56 39V38.9219C1197.58 38.8568 1197.6 38.7591 1197.62 38.6289C1197.63 38.4987 1197.64 38.3815 1197.64 38.2773C1197.64 37.8737 1197.58 37.431 1197.46 36.9492C1197.36 36.4544 1197.15 35.8424 1196.84 35.1133L1194.47 29.8008C1193.74 29.7747 1192.77 29.7617 1191.56 29.7617C1190.35 29.7617 1189.04 29.7617 1187.64 29.7617C1186.61 29.7617 1185.61 29.7617 1184.65 29.7617C1183.7 29.7617 1182.84 29.7747 1182.07 29.8008L1179.82 34.957C1179.63 35.4388 1179.42 35.9661 1179.2 36.5391C1178.98 37.112 1178.87 37.6914 1178.87 38.2773C1178.87 38.4466 1178.88 38.5898 1178.91 38.707C1178.93 38.8112 1178.96 38.8828 1178.98 38.9219V39H1175V38.9219C1175.23 38.6745 1175.53 38.2383 1175.88 37.6133C1176.23 36.9753 1176.61 36.181 1177.03 35.2305L1188.22 10.4062H1189.79L1200.39 34.2734C1200.64 34.8333 1200.89 35.3802 1201.15 35.9141C1201.43 36.4349 1201.68 36.9036 1201.91 37.3203C1202.15 37.737 1202.36 38.0885 1202.54 38.375C1202.72 38.6615 1202.85 38.8438 1202.91 38.9219V39H1197.56ZM1184.9 28.082C1185.66 28.082 1186.43 28.082 1187.23 28.082C1188.02 28.069 1188.8 28.0625 1189.55 28.0625C1190.32 28.0495 1191.05 28.043 1191.76 28.043C1192.46 28.0299 1193.1 28.0169 1193.67 28.0039L1188.18 15.6016L1182.79 28.082H1184.9ZM1204.53 37.2812C1204.53 36.9948 1204.58 36.7279 1204.69 36.4805C1204.8 36.2201 1204.95 35.9987 1205.14 35.8164C1205.33 35.6211 1205.55 35.4714 1205.8 35.3672C1206.06 35.25 1206.33 35.1914 1206.62 35.1914C1206.92 35.1914 1207.19 35.25 1207.44 35.3672C1207.7 35.4714 1207.92 35.6211 1208.11 35.8164C1208.3 35.9987 1208.45 36.2201 1208.55 36.4805C1208.67 36.7279 1208.73 36.9948 1208.73 37.2812C1208.73 37.8802 1208.53 38.3815 1208.12 38.7852C1207.72 39.1888 1207.22 39.3906 1206.62 39.3906C1206.33 39.3906 1206.06 39.332 1205.8 39.2148C1205.55 39.1107 1205.33 38.9674 1205.14 38.7852C1204.95 38.5898 1204.8 38.3685 1204.69 38.1211C1204.58 37.8607 1204.53 37.5807 1204.53 37.2812ZM1212.15 38.9219C1212.29 38.7135 1212.45 38.4076 1212.64 38.0039C1212.82 37.5872 1212.96 37.0664 1213.07 36.4414C1213.21 35.5299 1213.37 34.5078 1213.54 33.375C1213.72 32.2292 1213.9 31.0312 1214.08 29.7812C1214.28 28.5312 1214.47 27.2552 1214.65 25.9531C1214.84 24.638 1215.03 23.349 1215.2 22.0859C1215.38 20.8099 1215.55 19.5859 1215.7 18.4141C1215.87 17.2292 1216.02 16.1484 1216.15 15.1719C1216.28 14.1953 1216.39 13.349 1216.46 12.6328C1216.56 11.9036 1216.62 11.3568 1216.66 10.9922H1219.14L1231.43 33.9609L1243.61 10.9922H1245.47L1248.67 34.1953C1248.76 34.9245 1248.86 35.5495 1248.96 36.0703C1249.07 36.5911 1249.17 37.0404 1249.28 37.418C1249.38 37.7826 1249.48 38.0885 1249.57 38.3359C1249.67 38.5703 1249.77 38.7656 1249.86 38.9219V39H1244.94V38.9219C1245.01 38.7786 1245.07 38.5443 1245.12 38.2188C1245.18 37.8932 1245.21 37.5026 1245.21 37.0469C1245.21 36.8776 1245.21 36.7083 1245.2 36.5391C1245.18 36.3568 1245.16 36.1615 1245.14 35.9531L1242.66 17.2422L1231.13 38.9219L1229.79 38.7656L1218.18 17.0469C1217.73 20.1328 1217.33 22.9844 1216.99 25.6016C1216.85 26.7214 1216.71 27.8411 1216.56 28.9609C1216.42 30.0677 1216.29 31.1029 1216.17 32.0664C1216.07 33.0299 1215.98 33.8828 1215.92 34.625C1215.85 35.3542 1215.82 35.8945 1215.82 36.2461C1215.82 36.6888 1215.83 37.0794 1215.86 37.418C1215.89 37.7565 1215.91 38.043 1215.94 38.2773C1215.98 38.5508 1216.02 38.7917 1216.05 39H1212.15V38.9219ZM1254.77 26.0312C1254.77 24.8594 1254.75 23.8438 1254.73 22.9844C1254.7 22.112 1254.66 21.3633 1254.61 20.7383C1254.57 20.1003 1254.51 19.5664 1254.43 19.1367C1254.37 18.707 1254.29 18.3555 1254.2 18.082V18.0039H1258.73V18.082C1258.64 18.3555 1258.55 18.707 1258.48 19.1367C1258.41 19.5664 1258.35 20.1003 1258.3 20.7383C1258.26 21.3633 1258.23 22.112 1258.2 22.9844C1258.18 23.8438 1258.16 24.8594 1258.16 26.0312V30.9531C1258.16 32.125 1258.18 33.1471 1258.2 34.0195C1258.23 34.8919 1258.26 35.6471 1258.3 36.2852C1258.35 36.9102 1258.41 37.4375 1258.48 37.8672C1258.55 38.2969 1258.64 38.6484 1258.73 38.9219V39H1254.2V38.9219C1254.29 38.6484 1254.37 38.2969 1254.43 37.8672C1254.51 37.4375 1254.57 36.9102 1254.61 36.2852C1254.66 35.6471 1254.7 34.8919 1254.73 34.0195C1254.75 33.1471 1254.77 32.125 1254.77 30.9531V26.0312ZM1264.73 26.0312C1264.73 24.8594 1264.71 23.8438 1264.69 22.9844C1264.66 22.112 1264.62 21.3633 1264.57 20.7383C1264.53 20.1003 1264.47 19.5664 1264.39 19.1367C1264.33 18.707 1264.25 18.3555 1264.16 18.082V18.0039H1268.67V18.082C1268.58 18.3555 1268.5 18.707 1268.44 19.1367C1268.37 19.5664 1268.31 20.1003 1268.26 20.7383C1268.22 21.3633 1268.19 22.112 1268.16 22.9844C1268.14 23.8438 1268.12 24.8594 1268.12 26.0312V27.3203L1277.05 19.9961C1277.55 19.5924 1277.92 19.2344 1278.16 18.9219C1278.42 18.6094 1278.55 18.3034 1278.55 18.0039H1283.2V18.082C1282.62 18.2253 1282.01 18.4857 1281.39 18.8633C1280.77 19.2409 1280.12 19.7161 1279.43 20.2891L1271.64 26.6758L1279.77 35.1133C1280.85 36.2461 1281.76 37.112 1282.5 37.7109C1283.26 38.2969 1283.83 38.7005 1284.24 38.9219V39H1278.93C1278.78 38.7396 1278.48 38.3555 1278.01 37.8477C1277.54 37.3398 1276.92 36.6823 1276.15 35.875L1268.12 27.5156V30.9531C1268.12 32.125 1268.14 33.1471 1268.16 34.0195C1268.19 34.8919 1268.22 35.6471 1268.26 36.2852C1268.31 36.9102 1268.37 37.4375 1268.44 37.8672C1268.5 38.2969 1268.58 38.6484 1268.67 38.9219V39H1264.16V38.9219C1264.25 38.6484 1264.33 38.2969 1264.39 37.8672C1264.47 37.4375 1264.53 36.9102 1264.57 36.2852C1264.62 35.6471 1264.66 34.8919 1264.69 34.0195C1264.71 33.1471 1264.73 32.125 1264.73 30.9531V26.0312ZM1301.35 28.9609C1300.94 28.9609 1300.44 28.9609 1299.84 28.9609C1299.24 28.9479 1298.59 28.9349 1297.89 28.9219C1297.19 28.9089 1296.46 28.9023 1295.7 28.9023C1294.95 28.8893 1294.22 28.8828 1293.52 28.8828C1292.85 28.8828 1292.23 28.8893 1291.64 28.9023C1291.07 28.9154 1290.57 28.9349 1290.16 28.9609V30.9531C1290.16 32.125 1290.17 33.1471 1290.2 34.0195C1290.22 34.8919 1290.25 35.6471 1290.29 36.2852C1290.35 36.9102 1290.4 37.4375 1290.47 37.8672C1290.53 38.2969 1290.61 38.6484 1290.7 38.9219V39H1286.19V38.9219C1286.28 38.6484 1286.36 38.2969 1286.43 37.8672C1286.5 37.4375 1286.56 36.9102 1286.6 36.2852C1286.65 35.6471 1286.69 34.8919 1286.72 34.0195C1286.74 33.1471 1286.76 32.125 1286.76 30.9531V26.0312C1286.76 24.8594 1286.74 23.8438 1286.72 22.9844C1286.69 22.112 1286.65 21.3633 1286.6 20.7383C1286.56 20.1003 1286.5 19.5664 1286.43 19.1367C1286.36 18.707 1286.28 18.3555 1286.19 18.082V18.0039H1290.7V18.082C1290.61 18.3555 1290.53 18.707 1290.47 19.1367C1290.4 19.5664 1290.35 20.1003 1290.29 20.7383C1290.25 21.3633 1290.22 22.112 1290.2 22.9844C1290.17 23.8438 1290.16 24.8594 1290.16 26.0312V27.3594H1293.03C1293.74 27.3594 1294.5 27.3594 1295.29 27.3594C1296.09 27.3464 1296.86 27.3398 1297.6 27.3398C1298.34 27.3268 1299.04 27.3138 1299.69 27.3008C1300.34 27.2878 1300.89 27.2682 1301.35 27.2422V26.0312C1301.35 24.8594 1301.33 23.8438 1301.31 22.9844C1301.28 22.112 1301.24 21.3633 1301.19 20.7383C1301.15 20.1003 1301.1 19.5664 1301.04 19.1367C1300.97 18.707 1300.89 18.3555 1300.8 18.082V18.0039H1305.31V18.082C1305.22 18.3555 1305.14 18.707 1305.06 19.1367C1304.99 19.5664 1304.93 20.1003 1304.88 20.7383C1304.84 21.3633 1304.81 22.112 1304.79 22.9844C1304.76 23.8438 1304.75 24.8594 1304.75 26.0312V30.9531C1304.75 32.125 1304.76 33.1471 1304.79 34.0195C1304.81 34.8919 1304.84 35.6471 1304.88 36.2852C1304.93 36.9102 1304.99 37.4375 1305.06 37.8672C1305.14 38.2969 1305.22 38.6484 1305.31 38.9219V39H1300.8V38.9219C1300.89 38.6484 1300.97 38.2969 1301.04 37.8672C1301.1 37.4375 1301.15 36.9102 1301.19 36.2852C1301.24 35.6471 1301.28 34.8919 1301.31 34.0195C1301.33 33.1471 1301.35 32.125 1301.35 30.9531V28.9609ZM1323.2 32.3984C1322.85 32.3984 1322.41 32.3984 1321.88 32.3984C1321.35 32.3984 1320.78 32.3984 1320.16 32.3984C1319.53 32.3984 1318.89 32.3984 1318.22 32.3984C1317.56 32.3984 1316.93 32.4049 1316.33 32.418C1315.73 32.418 1315.18 32.4245 1314.69 32.4375C1314.19 32.4375 1313.81 32.4375 1313.54 32.4375L1312.81 33.9609C1312.5 34.5859 1312.23 35.1328 1312.01 35.6016C1311.79 36.0573 1311.61 36.4609 1311.46 36.8125C1311.32 37.1641 1311.22 37.4701 1311.15 37.7305C1311.09 37.9779 1311.05 38.2122 1311.05 38.4336C1311.05 38.5768 1311.06 38.6875 1311.07 38.7656C1311.09 38.8307 1311.11 38.8828 1311.13 38.9219V39H1307.7V38.9219C1307.79 38.8307 1307.93 38.6354 1308.12 38.3359C1308.32 38.0234 1308.54 37.6458 1308.79 37.2031C1309.05 36.7604 1309.32 36.2591 1309.61 35.6992C1309.91 35.1393 1310.2 34.5599 1310.49 33.9609L1318.46 17.5156H1319.92L1327.73 33.9609C1328.03 34.5859 1328.33 35.1849 1328.63 35.7578C1328.95 36.3307 1329.23 36.8451 1329.49 37.3008C1329.75 37.7435 1329.98 38.1146 1330.18 38.4141C1330.37 38.7005 1330.5 38.8698 1330.57 38.9219V39H1325.57C1325.59 38.8958 1325.61 38.8047 1325.61 38.7266C1325.61 38.6354 1325.61 38.5378 1325.61 38.4336C1325.61 38.1471 1325.54 37.8021 1325.41 37.3984C1325.29 36.9948 1325.14 36.5846 1324.96 36.168C1324.79 35.7383 1324.61 35.3281 1324.41 34.9375C1324.23 34.5469 1324.08 34.2214 1323.96 33.9609L1323.2 32.3984ZM1314.3 30.875H1315.49C1316.04 30.875 1316.61 30.875 1317.23 30.875C1317.85 30.862 1318.48 30.8555 1319.1 30.8555C1319.73 30.8555 1320.33 30.8555 1320.92 30.8555C1321.5 30.8424 1322.03 30.8359 1322.5 30.8359L1318.46 22.2031L1314.3 30.875ZM1333.67 26.0312C1333.67 24.8594 1333.66 23.8438 1333.63 22.9844C1333.61 22.112 1333.57 21.3633 1333.52 20.7383C1333.48 20.1003 1333.42 19.5664 1333.34 19.1367C1333.27 18.707 1333.2 18.3555 1333.11 18.082V18.0039H1337.64V18.082C1337.55 18.3555 1337.46 18.707 1337.38 19.1367C1337.32 19.5664 1337.26 20.1003 1337.21 20.7383C1337.17 21.3633 1337.14 22.112 1337.11 22.9844C1337.08 23.8438 1337.07 24.8594 1337.07 26.0312V30.9531C1337.07 32.125 1337.08 33.1471 1337.11 34.0195C1337.14 34.8919 1337.17 35.6471 1337.21 36.2852C1337.26 36.9102 1337.32 37.4375 1337.38 37.8672C1337.46 38.2969 1337.55 38.6484 1337.64 38.9219V39H1333.11V38.9219C1333.2 38.6484 1333.27 38.2969 1333.34 37.8672C1333.42 37.4375 1333.48 36.9102 1333.52 36.2852C1333.57 35.6471 1333.61 34.8919 1333.63 34.0195C1333.66 33.1471 1333.67 32.125 1333.67 30.9531V26.0312ZM1347.03 37.4766C1348.24 37.4766 1349.36 37.431 1350.37 37.3398C1351.4 37.2357 1352.3 37.125 1353.07 37.0078C1353.96 36.8646 1354.78 36.7018 1355.51 36.5195L1355.06 39.1172C1354.88 39.1042 1354.56 39.0846 1354.12 39.0586C1353.69 39.0456 1353.24 39.0326 1352.75 39.0195C1352.27 39.0195 1351.82 39.013 1351.41 39C1350.99 39 1350.7 39 1350.55 39H1343.07V38.9219C1343.16 38.6484 1343.24 38.2969 1343.3 37.8672C1343.38 37.4375 1343.44 36.9102 1343.48 36.2852C1343.53 35.6471 1343.57 34.8919 1343.59 34.0195C1343.62 33.1471 1343.63 32.125 1343.63 30.9531V26.0312C1343.63 24.8594 1343.62 23.8438 1343.59 22.9844C1343.57 22.112 1343.53 21.3633 1343.48 20.7383C1343.44 20.1003 1343.38 19.5664 1343.3 19.1367C1343.24 18.707 1343.16 18.3555 1343.07 18.082V18.0039H1347.58V18.082C1347.49 18.3555 1347.41 18.707 1347.34 19.1367C1347.28 19.5664 1347.22 20.1003 1347.17 20.7383C1347.13 21.3633 1347.1 22.112 1347.07 22.9844C1347.04 23.8438 1347.03 24.8594 1347.03 26.0312V37.4766ZM1357.77 28.4336C1357.77 26.8971 1358.06 25.4714 1358.63 24.1562C1359.22 22.8411 1360.01 21.7018 1361.02 20.7383C1362.02 19.7617 1363.2 19 1364.57 18.4531C1365.94 17.9062 1367.4 17.6328 1368.96 17.6328C1370.5 17.6328 1371.95 17.8932 1373.3 18.4141C1374.67 18.9219 1375.85 19.651 1376.86 20.6016C1377.87 21.5521 1378.67 22.7044 1379.26 24.0586C1379.84 25.4128 1380.14 26.9297 1380.14 28.6094C1380.14 30.0026 1379.89 31.3503 1379.39 32.6523C1378.9 33.9414 1378.18 35.0872 1377.23 36.0898C1376.28 37.0794 1375.1 37.8737 1373.71 38.4727C1372.32 39.0586 1370.72 39.3516 1368.93 39.3516C1367.4 39.3516 1365.96 39.0977 1364.61 38.5898C1363.26 38.082 1362.07 37.3594 1361.05 36.4219C1360.04 35.4714 1359.24 34.3255 1358.65 32.9844C1358.07 31.6302 1357.77 30.1133 1357.77 28.4336ZM1369.41 37.9648C1370.4 37.9648 1371.32 37.7695 1372.15 37.3789C1372.98 36.9883 1373.7 36.4284 1374.3 35.6992C1374.91 34.9701 1375.38 34.0846 1375.7 33.043C1376.04 31.9883 1376.21 30.8034 1376.21 29.4883C1376.21 27.9909 1376.05 26.6042 1375.72 25.3281C1375.41 24.0521 1374.93 22.9518 1374.28 22.0273C1373.64 21.0898 1372.84 20.3607 1371.88 19.8398C1370.91 19.306 1369.79 19.0391 1368.5 19.0391C1367.51 19.0391 1366.6 19.2279 1365.76 19.6055C1364.93 19.9831 1364.21 20.5299 1363.59 21.2461C1362.99 21.9622 1362.53 22.8411 1362.19 23.8828C1361.85 24.9245 1361.68 26.1094 1361.68 27.4375C1361.68 28.9219 1361.84 30.3086 1362.17 31.5977C1362.51 32.8737 1362.99 33.987 1363.63 34.9375C1364.28 35.875 1365.09 36.6172 1366.05 37.1641C1367.02 37.6979 1368.14 37.9648 1369.41 37.9648ZM1386.29 18.0039V18.082C1386.26 18.1471 1386.24 18.2513 1386.23 18.3945C1386.22 18.5378 1386.21 18.6615 1386.21 18.7656C1386.21 19.1823 1386.27 19.651 1386.39 20.1719C1386.52 20.6797 1386.75 21.3177 1387.09 22.0859L1392.29 33.8438L1397.52 22.2422C1397.64 21.9948 1397.75 21.7344 1397.87 21.4609C1397.99 21.1745 1398.1 20.8815 1398.2 20.582C1398.31 20.2826 1398.39 19.9831 1398.46 19.6836C1398.52 19.3711 1398.55 19.0651 1398.55 18.7656C1398.55 18.5964 1398.54 18.4531 1398.52 18.3359C1398.49 18.2057 1398.46 18.1211 1398.44 18.082V18.0039H1402.13V18.082C1401.88 18.3424 1401.56 18.8047 1401.17 19.4688C1400.78 20.1198 1400.38 20.9531 1399.96 21.9688L1392.17 39.2734H1390.92L1383.73 22.9648C1383.47 22.3659 1383.19 21.793 1382.89 21.2461C1382.6 20.6862 1382.33 20.1914 1382.07 19.7617C1381.82 19.319 1381.6 18.9544 1381.41 18.668C1381.21 18.3685 1381.07 18.1732 1381 18.082V18.0039H1386.29ZM1416.09 32.3984C1415.74 32.3984 1415.3 32.3984 1414.77 32.3984C1414.24 32.3984 1413.67 32.3984 1413.05 32.3984C1412.42 32.3984 1411.78 32.3984 1411.11 32.3984C1410.45 32.3984 1409.82 32.4049 1409.22 32.418C1408.62 32.418 1408.07 32.4245 1407.58 32.4375C1407.08 32.4375 1406.7 32.4375 1406.43 32.4375L1405.7 33.9609C1405.39 34.5859 1405.12 35.1328 1404.9 35.6016C1404.68 36.0573 1404.5 36.4609 1404.36 36.8125C1404.21 37.1641 1404.11 37.4701 1404.04 37.7305C1403.98 37.9779 1403.95 38.2122 1403.95 38.4336C1403.95 38.5768 1403.95 38.6875 1403.96 38.7656C1403.98 38.8307 1404 38.8828 1404.02 38.9219V39H1400.59V38.9219C1400.68 38.8307 1400.82 38.6354 1401.02 38.3359C1401.21 38.0234 1401.43 37.6458 1401.68 37.2031C1401.94 36.7604 1402.21 36.2591 1402.5 35.6992C1402.8 35.1393 1403.09 34.5599 1403.38 33.9609L1411.35 17.5156H1412.81L1420.62 33.9609C1420.92 34.5859 1421.22 35.1849 1421.52 35.7578C1421.84 36.3307 1422.12 36.8451 1422.38 37.3008C1422.64 37.7435 1422.87 38.1146 1423.07 38.4141C1423.26 38.7005 1423.39 38.8698 1423.46 38.9219V39H1418.46C1418.48 38.8958 1418.5 38.8047 1418.5 38.7266C1418.5 38.6354 1418.5 38.5378 1418.5 38.4336C1418.5 38.1471 1418.43 37.8021 1418.3 37.3984C1418.18 36.9948 1418.03 36.5846 1417.85 36.168C1417.68 35.7383 1417.5 35.3281 1417.3 34.9375C1417.12 34.5469 1416.97 34.2214 1416.86 33.9609L1416.09 32.3984ZM1407.19 30.875H1408.38C1408.93 30.875 1409.51 30.875 1410.12 30.875C1410.74 30.862 1411.37 30.8555 1411.99 30.8555C1412.62 30.8555 1413.22 30.8555 1413.81 30.8555C1414.39 30.8424 1414.92 30.8359 1415.39 30.8359L1411.35 22.2031L1407.19 30.875Z" fill="#C3DAC3"/>
<path d="M1592.56 39V38.9219C1592.58 38.8568 1592.6 38.7591 1592.62 38.6289C1592.63 38.4987 1592.64 38.3815 1592.64 38.2773C1592.64 37.8737 1592.58 37.431 1592.46 36.9492C1592.36 36.4544 1592.15 35.8424 1591.84 35.1133L1589.47 29.8008C1588.74 29.7747 1587.77 29.7617 1586.56 29.7617C1585.35 29.7617 1584.04 29.7617 1582.64 29.7617C1581.61 29.7617 1580.61 29.7617 1579.65 29.7617C1578.7 29.7617 1577.84 29.7747 1577.07 29.8008L1574.82 34.957C1574.63 35.4388 1574.42 35.9661 1574.2 36.5391C1573.98 37.112 1573.87 37.6914 1573.87 38.2773C1573.87 38.4466 1573.88 38.5898 1573.91 38.707C1573.93 38.8112 1573.96 38.8828 1573.98 38.9219V39H1570V38.9219C1570.23 38.6745 1570.53 38.2383 1570.88 37.6133C1571.23 36.9753 1571.61 36.181 1572.03 35.2305L1583.22 10.4062H1584.79L1595.39 34.2734C1595.64 34.8333 1595.89 35.3802 1596.15 35.9141C1596.43 36.4349 1596.68 36.9036 1596.91 37.3203C1597.15 37.737 1597.36 38.0885 1597.54 38.375C1597.72 38.6615 1597.85 38.8438 1597.91 38.9219V39H1592.56ZM1579.9 28.082C1580.66 28.082 1581.43 28.082 1582.23 28.082C1583.02 28.069 1583.8 28.0625 1584.55 28.0625C1585.32 28.0495 1586.05 28.043 1586.76 28.043C1587.46 28.0299 1588.1 28.0169 1588.67 28.0039L1583.18 15.6016L1577.79 28.082H1579.9ZM1599.53 37.2812C1599.53 36.9948 1599.58 36.7279 1599.69 36.4805C1599.8 36.2201 1599.95 35.9987 1600.14 35.8164C1600.33 35.6211 1600.55 35.4714 1600.8 35.3672C1601.06 35.25 1601.33 35.1914 1601.62 35.1914C1601.92 35.1914 1602.19 35.25 1602.44 35.3672C1602.7 35.4714 1602.92 35.6211 1603.11 35.8164C1603.3 35.9987 1603.45 36.2201 1603.55 36.4805C1603.67 36.7279 1603.73 36.9948 1603.73 37.2812C1603.73 37.8802 1603.53 38.3815 1603.12 38.7852C1602.72 39.1888 1602.22 39.3906 1601.62 39.3906C1601.33 39.3906 1601.06 39.332 1600.8 39.2148C1600.55 39.1107 1600.33 38.9674 1600.14 38.7852C1599.95 38.5898 1599.8 38.3685 1599.69 38.1211C1599.58 37.8607 1599.53 37.5807 1599.53 37.2812ZM1607.15 38.9219C1607.29 38.7135 1607.45 38.4076 1607.64 38.0039C1607.82 37.5872 1607.96 37.0664 1608.07 36.4414C1608.21 35.5299 1608.37 34.5078 1608.54 33.375C1608.72 32.2292 1608.9 31.0312 1609.08 29.7812C1609.28 28.5312 1609.47 27.2552 1609.65 25.9531C1609.84 24.638 1610.03 23.349 1610.2 22.0859C1610.38 20.8099 1610.55 19.5859 1610.7 18.4141C1610.87 17.2292 1611.02 16.1484 1611.15 15.1719C1611.28 14.1953 1611.39 13.349 1611.46 12.6328C1611.56 11.9036 1611.62 11.3568 1611.66 10.9922H1614.14L1626.43 33.9609L1638.61 10.9922H1640.47L1643.67 34.1953C1643.76 34.9245 1643.86 35.5495 1643.96 36.0703C1644.07 36.5911 1644.17 37.0404 1644.28 37.418C1644.38 37.7826 1644.48 38.0885 1644.57 38.3359C1644.67 38.5703 1644.77 38.7656 1644.86 38.9219V39H1639.94V38.9219C1640.01 38.7786 1640.07 38.5443 1640.12 38.2188C1640.18 37.8932 1640.21 37.5026 1640.21 37.0469C1640.21 36.8776 1640.21 36.7083 1640.2 36.5391C1640.18 36.3568 1640.16 36.1615 1640.14 35.9531L1637.66 17.2422L1626.13 38.9219L1624.79 38.7656L1613.18 17.0469C1612.73 20.1328 1612.33 22.9844 1611.99 25.6016C1611.85 26.7214 1611.71 27.8411 1611.56 28.9609C1611.42 30.0677 1611.29 31.1029 1611.17 32.0664C1611.07 33.0299 1610.98 33.8828 1610.92 34.625C1610.85 35.3542 1610.82 35.8945 1610.82 36.2461C1610.82 36.6888 1610.83 37.0794 1610.86 37.418C1610.89 37.7565 1610.91 38.043 1610.94 38.2773C1610.98 38.5508 1611.02 38.7917 1611.05 39H1607.15V38.9219ZM1649.77 26.0312C1649.77 24.8594 1649.75 23.8438 1649.73 22.9844C1649.7 22.112 1649.66 21.3633 1649.61 20.7383C1649.57 20.1003 1649.51 19.5664 1649.43 19.1367C1649.37 18.707 1649.29 18.3555 1649.2 18.082V18.0039H1653.73V18.082C1653.64 18.3555 1653.55 18.707 1653.48 19.1367C1653.41 19.5664 1653.35 20.1003 1653.3 20.7383C1653.26 21.3633 1653.23 22.112 1653.2 22.9844C1653.18 23.8438 1653.16 24.8594 1653.16 26.0312V30.9531C1653.16 32.125 1653.18 33.1471 1653.2 34.0195C1653.23 34.8919 1653.26 35.6471 1653.3 36.2852C1653.35 36.9102 1653.41 37.4375 1653.48 37.8672C1653.55 38.2969 1653.64 38.6484 1653.73 38.9219V39H1649.2V38.9219C1649.29 38.6484 1649.37 38.2969 1649.43 37.8672C1649.51 37.4375 1649.57 36.9102 1649.61 36.2852C1649.66 35.6471 1649.7 34.8919 1649.73 34.0195C1649.75 33.1471 1649.77 32.125 1649.77 30.9531V26.0312ZM1659.73 26.0312C1659.73 24.8594 1659.71 23.8438 1659.69 22.9844C1659.66 22.112 1659.62 21.3633 1659.57 20.7383C1659.53 20.1003 1659.47 19.5664 1659.39 19.1367C1659.33 18.707 1659.25 18.3555 1659.16 18.082V18.0039H1663.67V18.082C1663.58 18.3555 1663.5 18.707 1663.44 19.1367C1663.37 19.5664 1663.31 20.1003 1663.26 20.7383C1663.22 21.3633 1663.19 22.112 1663.16 22.9844C1663.14 23.8438 1663.12 24.8594 1663.12 26.0312V27.3203L1672.05 19.9961C1672.55 19.5924 1672.92 19.2344 1673.16 18.9219C1673.42 18.6094 1673.55 18.3034 1673.55 18.0039H1678.2V18.082C1677.62 18.2253 1677.01 18.4857 1676.39 18.8633C1675.77 19.2409 1675.12 19.7161 1674.43 20.2891L1666.64 26.6758L1674.77 35.1133C1675.85 36.2461 1676.76 37.112 1677.5 37.7109C1678.26 38.2969 1678.83 38.7005 1679.24 38.9219V39H1673.93C1673.78 38.7396 1673.48 38.3555 1673.01 37.8477C1672.54 37.3398 1671.92 36.6823 1671.15 35.875L1663.12 27.5156V30.9531C1663.12 32.125 1663.14 33.1471 1663.16 34.0195C1663.19 34.8919 1663.22 35.6471 1663.26 36.2852C1663.31 36.9102 1663.37 37.4375 1663.44 37.8672C1663.5 38.2969 1663.58 38.6484 1663.67 38.9219V39H1659.16V38.9219C1659.25 38.6484 1659.33 38.2969 1659.39 37.8672C1659.47 37.4375 1659.53 36.9102 1659.57 36.2852C1659.62 35.6471 1659.66 34.8919 1659.69 34.0195C1659.71 33.1471 1659.73 32.125 1659.73 30.9531V26.0312ZM1696.35 28.9609C1695.94 28.9609 1695.44 28.9609 1694.84 28.9609C1694.24 28.9479 1693.59 28.9349 1692.89 28.9219C1692.19 28.9089 1691.46 28.9023 1690.7 28.9023C1689.95 28.8893 1689.22 28.8828 1688.52 28.8828C1687.85 28.8828 1687.23 28.8893 1686.64 28.9023C1686.07 28.9154 1685.57 28.9349 1685.16 28.9609V30.9531C1685.16 32.125 1685.17 33.1471 1685.2 34.0195C1685.22 34.8919 1685.25 35.6471 1685.29 36.2852C1685.35 36.9102 1685.4 37.4375 1685.47 37.8672C1685.53 38.2969 1685.61 38.6484 1685.7 38.9219V39H1681.19V38.9219C1681.28 38.6484 1681.36 38.2969 1681.43 37.8672C1681.5 37.4375 1681.56 36.9102 1681.6 36.2852C1681.65 35.6471 1681.69 34.8919 1681.72 34.0195C1681.74 33.1471 1681.76 32.125 1681.76 30.9531V26.0312C1681.76 24.8594 1681.74 23.8438 1681.72 22.9844C1681.69 22.112 1681.65 21.3633 1681.6 20.7383C1681.56 20.1003 1681.5 19.5664 1681.43 19.1367C1681.36 18.707 1681.28 18.3555 1681.19 18.082V18.0039H1685.7V18.082C1685.61 18.3555 1685.53 18.707 1685.47 19.1367C1685.4 19.5664 1685.35 20.1003 1685.29 20.7383C1685.25 21.3633 1685.22 22.112 1685.2 22.9844C1685.17 23.8438 1685.16 24.8594 1685.16 26.0312V27.3594H1688.03C1688.74 27.3594 1689.5 27.3594 1690.29 27.3594C1691.09 27.3464 1691.86 27.3398 1692.6 27.3398C1693.34 27.3268 1694.04 27.3138 1694.69 27.3008C1695.34 27.2878 1695.89 27.2682 1696.35 27.2422V26.0312C1696.35 24.8594 1696.33 23.8438 1696.31 22.9844C1696.28 22.112 1696.24 21.3633 1696.19 20.7383C1696.15 20.1003 1696.1 19.5664 1696.04 19.1367C1695.97 18.707 1695.89 18.3555 1695.8 18.082V18.0039H1700.31V18.082C1700.22 18.3555 1700.14 18.707 1700.06 19.1367C1699.99 19.5664 1699.93 20.1003 1699.88 20.7383C1699.84 21.3633 1699.81 22.112 1699.79 22.9844C1699.76 23.8438 1699.75 24.8594 1699.75 26.0312V30.9531C1699.75 32.125 1699.76 33.1471 1699.79 34.0195C1699.81 34.8919 1699.84 35.6471 1699.88 36.2852C1699.93 36.9102 1699.99 37.4375 1700.06 37.8672C1700.14 38.2969 1700.22 38.6484 1700.31 38.9219V39H1695.8V38.9219C1695.89 38.6484 1695.97 38.2969 1696.04 37.8672C1696.1 37.4375 1696.15 36.9102 1696.19 36.2852C1696.24 35.6471 1696.28 34.8919 1696.31 34.0195C1696.33 33.1471 1696.35 32.125 1696.35 30.9531V28.9609ZM1718.2 32.3984C1717.85 32.3984 1717.41 32.3984 1716.88 32.3984C1716.35 32.3984 1715.78 32.3984 1715.16 32.3984C1714.53 32.3984 1713.89 32.3984 1713.22 32.3984C1712.56 32.3984 1711.93 32.4049 1711.33 32.418C1710.73 32.418 1710.18 32.4245 1709.69 32.4375C1709.19 32.4375 1708.81 32.4375 1708.54 32.4375L1707.81 33.9609C1707.5 34.5859 1707.23 35.1328 1707.01 35.6016C1706.79 36.0573 1706.61 36.4609 1706.46 36.8125C1706.32 37.1641 1706.22 37.4701 1706.15 37.7305C1706.09 37.9779 1706.05 38.2122 1706.05 38.4336C1706.05 38.5768 1706.06 38.6875 1706.07 38.7656C1706.09 38.8307 1706.11 38.8828 1706.13 38.9219V39H1702.7V38.9219C1702.79 38.8307 1702.93 38.6354 1703.12 38.3359C1703.32 38.0234 1703.54 37.6458 1703.79 37.2031C1704.05 36.7604 1704.32 36.2591 1704.61 35.6992C1704.91 35.1393 1705.2 34.5599 1705.49 33.9609L1713.46 17.5156H1714.92L1722.73 33.9609C1723.03 34.5859 1723.33 35.1849 1723.63 35.7578C1723.95 36.3307 1724.23 36.8451 1724.49 37.3008C1724.75 37.7435 1724.98 38.1146 1725.18 38.4141C1725.37 38.7005 1725.5 38.8698 1725.57 38.9219V39H1720.57C1720.59 38.8958 1720.61 38.8047 1720.61 38.7266C1720.61 38.6354 1720.61 38.5378 1720.61 38.4336C1720.61 38.1471 1720.54 37.8021 1720.41 37.3984C1720.29 36.9948 1720.14 36.5846 1719.96 36.168C1719.79 35.7383 1719.61 35.3281 1719.41 34.9375C1719.23 34.5469 1719.08 34.2214 1718.96 33.9609L1718.2 32.3984ZM1709.3 30.875H1710.49C1711.04 30.875 1711.61 30.875 1712.23 30.875C1712.85 30.862 1713.48 30.8555 1714.1 30.8555C1714.73 30.8555 1715.33 30.8555 1715.92 30.8555C1716.5 30.8424 1717.03 30.8359 1717.5 30.8359L1713.46 22.2031L1709.3 30.875ZM1728.67 26.0312C1728.67 24.8594 1728.66 23.8438 1728.63 22.9844C1728.61 22.112 1728.57 21.3633 1728.52 20.7383C1728.48 20.1003 1728.42 19.5664 1728.34 19.1367C1728.27 18.707 1728.2 18.3555 1728.11 18.082V18.0039H1732.64V18.082C1732.55 18.3555 1732.46 18.707 1732.38 19.1367C1732.32 19.5664 1732.26 20.1003 1732.21 20.7383C1732.17 21.3633 1732.14 22.112 1732.11 22.9844C1732.08 23.8438 1732.07 24.8594 1732.07 26.0312V30.9531C1732.07 32.125 1732.08 33.1471 1732.11 34.0195C1732.14 34.8919 1732.17 35.6471 1732.21 36.2852C1732.26 36.9102 1732.32 37.4375 1732.38 37.8672C1732.46 38.2969 1732.55 38.6484 1732.64 38.9219V39H1728.11V38.9219C1728.2 38.6484 1728.27 38.2969 1728.34 37.8672C1728.42 37.4375 1728.48 36.9102 1728.52 36.2852C1728.57 35.6471 1728.61 34.8919 1728.63 34.0195C1728.66 33.1471 1728.67 32.125 1728.67 30.9531V26.0312ZM1742.03 37.4766C1743.24 37.4766 1744.36 37.431 1745.37 37.3398C1746.4 37.2357 1747.3 37.125 1748.07 37.0078C1748.96 36.8646 1749.78 36.7018 1750.51 36.5195L1750.06 39.1172C1749.88 39.1042 1749.56 39.0846 1749.12 39.0586C1748.69 39.0456 1748.24 39.0326 1747.75 39.0195C1747.27 39.0195 1746.82 39.013 1746.41 39C1745.99 39 1745.7 39 1745.55 39H1738.07V38.9219C1738.16 38.6484 1738.24 38.2969 1738.3 37.8672C1738.38 37.4375 1738.44 36.9102 1738.48 36.2852C1738.53 35.6471 1738.57 34.8919 1738.59 34.0195C1738.62 33.1471 1738.63 32.125 1738.63 30.9531V26.0312C1738.63 24.8594 1738.62 23.8438 1738.59 22.9844C1738.57 22.112 1738.53 21.3633 1738.48 20.7383C1738.44 20.1003 1738.38 19.5664 1738.3 19.1367C1738.24 18.707 1738.16 18.3555 1738.07 18.082V18.0039H1742.58V18.082C1742.49 18.3555 1742.41 18.707 1742.34 19.1367C1742.28 19.5664 1742.22 20.1003 1742.17 20.7383C1742.13 21.3633 1742.1 22.112 1742.07 22.9844C1742.04 23.8438 1742.03 24.8594 1742.03 26.0312V37.4766ZM1752.77 28.4336C1752.77 26.8971 1753.06 25.4714 1753.63 24.1562C1754.22 22.8411 1755.01 21.7018 1756.02 20.7383C1757.02 19.7617 1758.2 19 1759.57 18.4531C1760.94 17.9062 1762.4 17.6328 1763.96 17.6328C1765.5 17.6328 1766.95 17.8932 1768.3 18.4141C1769.67 18.9219 1770.85 19.651 1771.86 20.6016C1772.87 21.5521 1773.67 22.7044 1774.26 24.0586C1774.84 25.4128 1775.14 26.9297 1775.14 28.6094C1775.14 30.0026 1774.89 31.3503 1774.39 32.6523C1773.9 33.9414 1773.18 35.0872 1772.23 36.0898C1771.28 37.0794 1770.1 37.8737 1768.71 38.4727C1767.32 39.0586 1765.72 39.3516 1763.93 39.3516C1762.4 39.3516 1760.96 39.0977 1759.61 38.5898C1758.26 38.082 1757.07 37.3594 1756.05 36.4219C1755.04 35.4714 1754.24 34.3255 1753.65 32.9844C1753.07 31.6302 1752.77 30.1133 1752.77 28.4336ZM1764.41 37.9648C1765.4 37.9648 1766.32 37.7695 1767.15 37.3789C1767.98 36.9883 1768.7 36.4284 1769.3 35.6992C1769.91 34.9701 1770.38 34.0846 1770.7 33.043C1771.04 31.9883 1771.21 30.8034 1771.21 29.4883C1771.21 27.9909 1771.05 26.6042 1770.72 25.3281C1770.41 24.0521 1769.93 22.9518 1769.28 22.0273C1768.64 21.0898 1767.84 20.3607 1766.88 19.8398C1765.91 19.306 1764.79 19.0391 1763.5 19.0391C1762.51 19.0391 1761.6 19.2279 1760.76 19.6055C1759.93 19.9831 1759.21 20.5299 1758.59 21.2461C1757.99 21.9622 1757.53 22.8411 1757.19 23.8828C1756.85 24.9245 1756.68 26.1094 1756.68 27.4375C1756.68 28.9219 1756.84 30.3086 1757.17 31.5977C1757.51 32.8737 1757.99 33.987 1758.63 34.9375C1759.28 35.875 1760.09 36.6172 1761.05 37.1641C1762.02 37.6979 1763.14 37.9648 1764.41 37.9648ZM1781.29 18.0039V18.082C1781.26 18.1471 1781.24 18.2513 1781.23 18.3945C1781.22 18.5378 1781.21 18.6615 1781.21 18.7656C1781.21 19.1823 1781.27 19.651 1781.39 20.1719C1781.52 20.6797 1781.75 21.3177 1782.09 22.0859L1787.29 33.8438L1792.52 22.2422C1792.64 21.9948 1792.75 21.7344 1792.87 21.4609C1792.99 21.1745 1793.1 20.8815 1793.2 20.582C1793.31 20.2826 1793.39 19.9831 1793.46 19.6836C1793.52 19.3711 1793.55 19.0651 1793.55 18.7656C1793.55 18.5964 1793.54 18.4531 1793.52 18.3359C1793.49 18.2057 1793.46 18.1211 1793.44 18.082V18.0039H1797.13V18.082C1796.88 18.3424 1796.56 18.8047 1796.17 19.4688C1795.78 20.1198 1795.38 20.9531 1794.96 21.9688L1787.17 39.2734H1785.92L1778.73 22.9648C1778.47 22.3659 1778.19 21.793 1777.89 21.2461C1777.6 20.6862 1777.33 20.1914 1777.07 19.7617C1776.82 19.319 1776.6 18.9544 1776.41 18.668C1776.21 18.3685 1776.07 18.1732 1776 18.082V18.0039H1781.29ZM1811.09 32.3984C1810.74 32.3984 1810.3 32.3984 1809.77 32.3984C1809.24 32.3984 1808.67 32.3984 1808.05 32.3984C1807.42 32.3984 1806.78 32.3984 1806.11 32.3984C1805.45 32.3984 1804.82 32.4049 1804.22 32.418C1803.62 32.418 1803.07 32.4245 1802.58 32.4375C1802.08 32.4375 1801.7 32.4375 1801.43 32.4375L1800.7 33.9609C1800.39 34.5859 1800.12 35.1328 1799.9 35.6016C1799.68 36.0573 1799.5 36.4609 1799.36 36.8125C1799.21 37.1641 1799.11 37.4701 1799.04 37.7305C1798.98 37.9779 1798.95 38.2122 1798.95 38.4336C1798.95 38.5768 1798.95 38.6875 1798.96 38.7656C1798.98 38.8307 1799 38.8828 1799.02 38.9219V39H1795.59V38.9219C1795.68 38.8307 1795.82 38.6354 1796.02 38.3359C1796.21 38.0234 1796.43 37.6458 1796.68 37.2031C1796.94 36.7604 1797.21 36.2591 1797.5 35.6992C1797.8 35.1393 1798.09 34.5599 1798.38 33.9609L1806.35 17.5156H1807.81L1815.62 33.9609C1815.92 34.5859 1816.22 35.1849 1816.52 35.7578C1816.84 36.3307 1817.12 36.8451 1817.38 37.3008C1817.64 37.7435 1817.87 38.1146 1818.07 38.4141C1818.26 38.7005 1818.39 38.8698 1818.46 38.9219V39H1813.46C1813.48 38.8958 1813.5 38.8047 1813.5 38.7266C1813.5 38.6354 1813.5 38.5378 1813.5 38.4336C1813.5 38.1471 1813.43 37.8021 1813.3 37.3984C1813.18 36.9948 1813.03 36.5846 1812.85 36.168C1812.68 35.7383 1812.5 35.3281 1812.3 34.9375C1812.12 34.5469 1811.97 34.2214 1811.86 33.9609L1811.09 32.3984ZM1802.19 30.875H1803.38C1803.93 30.875 1804.51 30.875 1805.12 30.875C1805.74 30.862 1806.37 30.8555 1806.99 30.8555C1807.62 30.8555 1808.22 30.8555 1808.81 30.8555C1809.39 30.8424 1809.92 30.8359 1810.39 30.8359L1806.35 22.2031L1802.19 30.875Z" fill="#C3DAC3"/>
</svg>
