<svg width="61" height="61" viewBox="0 0 61 61" fill="none" xmlns="http://www.w3.org/2000/svg">
<path d="M10.9114 28.8998C10.7761 28.9528 10.6597 29.045 10.5772 29.1647C10.4948 29.2843 10.4499 29.4259 10.4485 29.5712C10.4485 29.8627 10.64 30.137 10.9114 30.2398L19.4457 33.3541L37.0285 24.2769C37.1215 24.2338 37.2266 24.2245 37.3257 24.2506C37.4248 24.2766 37.5117 24.3365 37.5714 24.4198C37.6273 24.5055 37.6517 24.608 37.6402 24.7097C37.6287 24.8114 37.5822 24.9059 37.5085 24.977L24.8885 36.1027L38.9343 46.2684C39.1257 46.4055 39.3828 46.4398 39.6028 46.3598C39.713 46.3187 39.8113 46.2511 39.8891 46.1628C39.9669 46.0746 40.0216 45.9686 40.0485 45.8541L47.0714 16.3169C47.1017 16.1906 47.0969 16.0584 47.0577 15.9345C47.0184 15.8107 46.9461 15.6999 46.8485 15.6141C46.751 15.5282 46.6318 15.4706 46.504 15.4475C46.3761 15.4243 46.2443 15.4365 46.1228 15.4827L10.9114 28.8998Z" stroke="#D4D2CC" stroke-linecap="round" stroke-linejoin="round"/>
<path d="M19.4457 33.3574L21.6429 44.5489C21.7115 44.8689 22.0143 45.1146 22.34 45.1146C22.5031 45.1118 22.6605 45.0546 22.7873 44.9521C22.9142 44.8496 23.0031 44.7077 23.04 44.5489L24.8772 36.1031M30.2229 39.9746L22.7943 44.9688" stroke="#D4D2CC" stroke-linecap="round" stroke-linejoin="round"/>
<path d="M0.5 30.5C0.5 38.4565 3.66071 46.0871 9.2868 51.7132C14.9129 57.3393 22.5435 60.5 30.5 60.5C38.4565 60.5 46.0871 57.3393 51.7132 51.7132C57.3393 46.0871 60.5 38.4565 60.5 30.5C60.5 22.5435 57.3393 14.9129 51.7132 9.2868C46.0871 3.66071 38.4565 0.5 30.5 0.5C22.5435 0.5 14.9129 3.66071 9.2868 9.2868C3.66071 14.9129 0.5 22.5435 0.5 30.5Z" stroke="#D4D2CC" stroke-linejoin="round"/>
</svg>
