<svg width="769" height="20" viewBox="0 0 769 20" fill="none" xmlns="http://www.w3.org/2000/svg">
<path d="M17.2754 0.74013C33.3619 -1.00774 44.3425 0.849402 59.2655 1.14539C92.1167 1.79566 135.438 1.20999 169.037 1.25647C194.468 1.2917 220.309 1.41643 245.587 1.51647C246.883 1.5214 247.657 1.71302 248.245 1.71544C253.779 1.73799 263.06 1.56438 268.55 1.58971C280.099 1.64255 300.195 1.6127 310.772 1.79234C315.264 1.86841 319.872 1.90012 321.617 2.35629C323.259 2.37952 324.155 1.96736 324.583 1.94493C324.588 1.94533 324.593 1.94574 324.598 1.94615C325.978 1.87657 329.464 2.16556 330.233 2.14756C330.348 2.14474 329.64 1.84621 331.506 1.93638C331.672 1.94413 331.519 2.14711 333.09 2.15C333.499 2.1507 338.755 1.83944 340.257 1.82042C345.255 1.75847 357.192 2.00283 363.168 1.99864C364.082 1.99864 364.608 1.8799 365.573 1.87779C366.072 1.87656 366.819 2.00544 366.972 2.00474C367.645 2.00016 370.582 1.41485 369.527 2.56991C372.594 2.49667 371.69 2.11481 371.76 1.86681C375.089 1.83099 376.693 2.37498 377.562 1.79845C393.932 1.86803 410.302 1.9376 426.672 2.00718C426.677 1.91319 426.682 1.8192 426.687 1.72521C431.512 2.10063 433.167 1.46561 435.921 2.01084C437.62 1.89081 439.318 1.77078 441.017 1.65075C484.669 2.0206 528.219 1.58099 571.379 1.58239C573.2 1.58239 573.655 1.78239 576.659 1.7838C579.976 1.7852 584.641 1.55276 589.012 1.55554C592.846 1.55765 598.503 1.74685 602.779 1.77648C603.744 1.78282 604.442 1.65615 604.551 1.65685C605.19 1.6618 605.222 1.86234 605.842 1.86803C606.583 1.87437 607.479 1.72581 608.335 1.73497C611.535 1.76806 615.023 1.71685 615.428 1.72032C617.38 1.73931 617.811 1.93544 617.972 1.9376C620.143 1.96154 619.329 1.78452 619.87 1.79479C622.675 1.84903 624.659 2.29093 628.5 1.86681C628.395 2.03078 628.291 2.19476 628.186 2.35873C631.126 2.451 629.184 2.01529 629.785 1.93638C630.03 1.90715 636.358 1.96036 636.846 1.96812C638.545 1.99629 638.591 2.2142 638.738 2.21714C639.096 2.22418 643.372 1.97687 645.564 2.16709C648.158 2.39251 645.105 2.83578 645.749 2.91902C645.858 2.93311 648.573 2.88768 648.938 3.02644C649.34 3.17572 646.992 3.17256 647.028 3.23517C647.053 3.27815 650.953 3.58589 650.205 3.79302C649.604 4.00076 644.314 3.73439 643.194 3.83208C643.009 3.84825 643.358 4.10465 643.194 4.11405C642.536 4.14856 630.348 4.15627 629.791 4.11405C630.425 3.99727 631.06 3.8805 631.695 3.76372C630.851 3.75192 630.007 3.74012 629.163 3.72832C630.363 3.63474 631.562 3.54115 632.762 3.44757C630.979 2.48603 625.609 3.46078 625.387 3.94072C625.292 4.16264 628.575 4.73363 625.519 5.06617C625.984 5.12313 626.448 5.1801 626.913 5.23706C627.87 5.14348 628.828 5.04989 629.785 4.95631C629.147 4.89731 628.51 4.83831 627.872 4.77931C628.107 4.71258 628.341 4.64585 628.576 4.57912C630.366 4.47211 632.155 4.3651 633.945 4.25809C634.864 4.30741 634.673 4.50441 635.306 4.5425C643.192 5.02227 638.048 4.41176 643.211 4.49978C643.949 4.60557 644.686 4.71136 645.423 4.81715C645.163 4.37962 647.45 4.65434 650.217 4.4656C649.886 4.6072 649.555 4.7488 649.225 4.89039C653.232 4.81501 661.356 5.52889 659.164 4.74758C660.082 4.81431 661 4.88103 661.918 4.94776C662.694 4.82 663.469 4.69224 664.245 4.56448C665.316 4.57912 666.388 4.59377 667.46 4.60842C667.465 4.67759 667.47 4.74676 667.474 4.81593C666.62 4.81634 665.765 4.81675 664.911 4.81715C665.552 5.02792 666.193 5.23869 666.835 5.44946C667.465 5.41447 668.096 5.37947 668.727 5.34448C666.081 5.14514 669.569 4.81954 670.414 4.54128C672.644 4.43845 674.069 4.79965 674.817 4.81593C675.168 4.82368 679.31 4.18644 677.686 4.88673C679.817 4.80169 681.947 4.71665 684.078 4.63161C684.911 4.68532 685.744 4.73903 686.577 4.79274C684.769 5.11893 690.009 5.51194 686.149 5.64721C683.266 5.74866 682.556 5.44368 681.189 5.4458C679.956 5.44729 679.303 5.6527 677.962 5.66185C668.937 5.71963 661.586 5.68194 653.015 5.59106C651.322 5.57279 649.782 5.6735 648.644 5.65941C647.36 5.64317 648.969 5.38554 647.333 5.44824C645.615 5.51452 645.243 5.72477 644.79 5.72899C644.507 5.73138 643.613 5.54223 642.789 5.54223C639.405 5.54227 634.446 5.72517 633.965 5.72411C633.422 5.722 623.851 5.55132 623.393 5.52026C623.15 5.50335 623.654 4.80487 621.545 5.54955C620.886 5.56339 620.228 5.57722 619.57 5.59106C619.677 5.45149 619.783 5.31193 619.89 5.17237C615.991 5.70145 617.332 5.40545 613.574 5.44702C604.575 5.54704 591.301 5.42944 581.458 5.47875C579.26 5.49005 578.423 5.65715 575.823 5.66918C573.408 5.67974 567.1 5.18111 568.472 5.87181C563.097 5.27373 562.233 6.30507 559.542 5.66185C559.216 5.75544 558.891 5.84902 558.565 5.94261C555.644 5.54105 554.743 5.89397 551.554 5.94261C550.18 5.96374 551.764 5.53663 548.99 6.01219C548.46 5.97679 547.93 5.94139 547.4 5.90599C547.523 5.80264 547.647 5.69929 547.77 5.59594C544.689 5.68048 544.491 5.62663 544.842 6.01341C543.355 5.94301 541.868 5.87262 540.38 5.80223C540.196 5.92918 540.011 6.05613 539.826 6.18308C540.539 6.42522 574.308 6.06006 579.012 5.94383C584.527 6.23118 595.607 5.87193 600.063 5.94017C601.846 5.96764 602.634 6.25476 605.228 6.28928C607.823 6.32377 611.087 6.063 612.468 6.05369C617.07 6.02128 638.872 6.07856 624.044 6.43576C624.47 6.57573 624.897 6.7157 625.323 6.85567C631.215 6.37805 629.082 6.67208 633.971 6.72139C636.029 6.74244 640.924 6.42988 640.65 7.06562C636.829 7.18398 632.768 6.98078 629.445 6.98994C629.115 6.99093 625.18 7.2812 623.155 7.20233C621.328 7.13034 622.586 6.5243 618.611 7.20478C615.659 6.54005 613.952 7.14311 613.172 7.20722C611.825 7.31837 611.677 6.9903 610.33 6.9521C608.862 6.9099 607.852 7.12767 607.651 7.12909C605.639 7.13402 595.157 7.16372 594.677 7.03144C595.098 6.97326 595.52 6.91507 595.941 6.85689C593.219 6.76325 593.788 7.0987 593.072 7.13886C592.539 7.13764 592.006 7.13642 591.473 7.1352C591.684 7.06562 591.896 6.99604 592.107 6.92646C588.892 6.94126 591.352 7.18304 586.788 7.1767C583.891 7.17244 580.898 6.90682 580.616 6.92646C580.533 6.9321 581.445 7.11118 580.264 7.1352C578.309 7.17464 574.928 7.17009 574.55 6.92646C573.592 6.96095 573.674 7.19935 573.547 7.20478C572.991 7.22802 563.424 7.30908 561.71 7.32318C556.961 7.36193 551.674 7.3111 546.529 7.35126C546 7.35527 546.338 7.20229 545.807 7.20722C544.956 7.21505 540.587 7.45515 539.935 7.4721C538.306 7.51365 534.02 7.41842 533.346 7.48797C533.25 7.49783 534.66 7.70461 533.011 7.76872C531.181 7.83965 532.166 7.56154 532.067 7.55877C528.341 7.46367 525.989 7.6569 523.445 7.69426C522.621 7.70624 521.1 7.49694 519.937 7.55877C519.803 7.56579 520.068 7.75921 519.937 7.76872C518.179 7.87017 516.535 7.51122 515.774 7.48797C513.913 7.43114 514.927 7.69604 514.83 7.69792C513.59 7.70638 511.921 7.61081 510.036 7.62346C501.632 7.67983 494.773 7.69601 485.838 7.67839C484.716 7.67628 483.384 7.48943 483.212 7.48919C482.682 7.4906 482.834 7.71018 481.3 7.70525C478.066 7.69398 475.068 7.70459 471.866 7.70037C471.221 7.69948 470.946 7.49603 470.455 7.49163C468.806 7.47895 463.184 8.01169 463.091 7.34881C459.819 7.93563 457.646 7.42986 455.013 7.43548C448.775 7.44816 439.007 7.56772 432.788 7.49163C431.479 7.47532 430.865 7.30548 430.137 7.29633C428.83 7.27947 421.363 7.37435 420.972 7.34759C420.205 7.29616 420.665 6.54821 416.722 7.19989C414.41 7.24633 414.683 6.93935 414.205 6.9228C410.479 6.79951 406.853 7.48462 407.531 6.85689C403.192 7.02734 400.381 7.37424 398.61 6.78731C398.633 7.07374 396.593 7.24555 394.134 7.13642C396.652 6.65526 396.34 6.34775 402.43 6.43576C402.526 6.43717 402.342 6.6443 402.438 6.64571C403.308 6.6597 405.122 6.55513 406.604 6.56637C408.086 6.57764 407.263 6.71924 407.857 6.71651C408.4 6.71369 408.382 6.51548 409.168 6.51266C411.718 6.5049 413.974 6.45026 415.425 6.44674C416.339 6.44469 417.362 6.61886 418.071 6.61886C420.813 6.61743 426.624 6.48143 430.113 6.50045C430.84 6.50489 430.535 6.70031 432.125 6.71651C432.311 6.7184 432.989 6.51462 434.381 6.47238C435.774 6.43012 436.854 6.53131 437.749 6.51022C438.497 6.49261 438.184 6.31158 439.717 6.30026C440.996 6.2911 455.473 6.42152 456.259 6.4504C457.39 6.49204 457.928 6.74628 458.618 6.71529C458.739 6.70865 458.945 6.4631 459.366 6.44552C466.307 6.15533 481.67 6.49033 489.602 6.48825C506.18 6.48472 521.475 6.34024 538.201 6.28317C538.499 6.24045 538.797 6.19773 539.096 6.155C537.405 6.15338 535.714 6.15175 534.024 6.15012C534.013 6.03456 534.002 5.91901 533.991 5.80345C531.706 5.78515 532.008 6.05845 532.073 6.22336C531.227 6.15338 530.381 6.08339 529.535 6.01341C528.806 6.41611 523.165 6.14828 520.257 6.1489C518.365 6.1489 516.114 6.30242 515.117 6.2905C513.01 6.26586 513.065 6.01737 512.899 6.01341C512.618 6.00777 509.677 6.22693 507.555 6.21848C504.418 6.20641 504.078 5.82486 499.784 6.1489C494.281 5.95095 488.184 6.05057 482.253 6.08298C483.382 5.7303 478.067 6.06411 475.67 6.05857C461.047 6.02405 443.074 5.87337 428.259 5.73387C426.355 5.71627 424.917 5.5085 423.856 5.51537C423.281 5.5189 423.03 5.76384 422.231 5.73143C422.09 5.7252 421.993 5.49616 420.506 5.46167C416.805 5.37501 407.587 5.75725 405.255 5.31763C392.602 5.38558 379.95 5.45353 367.298 5.52148C366.98 5.42789 366.662 5.33431 366.345 5.24072C363.941 5.71897 354.439 5.43794 349.805 5.46044C341.65 5.5006 331.245 5.64931 324.099 5.66552C322.546 5.66904 321.274 5.53337 319.805 5.53613C319.172 5.53753 318.386 5.71343 317.728 5.71434C310.339 5.72773 300.336 5.54655 292.89 5.55077C275.985 5.55993 260.064 5.53326 242.935 5.54101C185.234 5.56848 127.865 5.82716 70.6563 5.72289C69.8894 5.72148 69.9277 5.51923 69.3333 5.51782C65.8245 5.50795 57.989 5.67467 54.0263 5.66552C50.869 5.65847 45.8576 5.34923 44.7711 5.66063C55.9879 6.13196 67.8385 6.0965 79.5155 6.22824C80.3456 6.23752 80.4488 6.42979 80.551 6.43332C82.4415 6.50012 81.2477 6.23534 83.9891 6.22336C84.9053 6.21935 93.3682 6.83314 92.3613 6.22214C94.3881 6.46656 108.675 6.58873 111.432 6.50778C112.269 6.48312 111.677 6.3021 111.843 6.29294C112.564 6.25296 112.89 6.50255 113.535 6.509C115.255 6.5245 119.628 6.32205 120.458 6.32346C122.37 6.32562 128.101 6.5288 130.626 6.48092C132.94 6.43724 132.506 6.17652 134.507 6.15256C136.084 6.13436 134.366 6.35367 137.886 6.41989C139.631 6.45229 145.734 6.29541 147.218 6.29538C148.701 6.29538 150.35 6.4514 152.395 6.43942C155.342 6.42251 161.75 6.33564 164.748 6.28561C164.927 6.2828 165.363 6.07998 165.804 6.0842C166.718 6.09271 166.444 6.34319 167.133 6.36862C167.823 6.39398 179.777 6.36338 181.807 6.36618C183.206 6.36759 184.172 6.21838 184.946 6.2197C185.552 6.22111 185.617 6.42976 186.236 6.43209C186.428 6.43209 188.059 6.25087 189.689 6.2551C191.229 6.25935 197.076 6.43169 197.753 6.43332C198.194 6.43402 197.711 6.28575 199.015 6.28928C200.203 6.29291 200.983 6.48543 201.661 6.48825C203.232 6.49451 204.989 6.33034 206.656 6.32956C211.45 6.32745 211.203 6.56594 211.491 6.57369C212.288 6.59523 212.608 6.37679 212.87 6.37228C213.975 6.35397 216.684 6.31362 217.669 6.30515C218.896 6.29458 219.416 6.50219 220.72 6.50289C221.691 6.50275 223.654 6.30036 225.871 6.2905C230.869 6.26725 236.812 6.22904 241.721 6.23679C243.184 6.2389 243.409 6.42838 243.856 6.43332C246.207 6.45932 247.524 6.24744 248.195 6.25022C252.982 6.26924 261.521 6.60166 265.963 6.62984C267.772 6.64111 275.691 6.48762 280.158 6.5151C280.669 6.51795 280.191 6.66652 280.76 6.64327C282.12 6.58752 281.994 6.285 282.684 6.29416C283.017 6.29951 283.776 6.47006 284.746 6.48702C289.776 6.57509 293.235 6.44247 295.53 6.45163C317.567 6.53969 340.039 6.61894 360.618 6.64571C362.913 6.64853 365.758 6.46855 369.222 6.64327C369.329 6.73726 369.436 6.83125 369.542 6.92524C369.663 6.83288 369.785 6.74052 369.906 6.64815C373.83 6.59813 375.312 6.47925 379.319 6.59688C379.665 6.60675 380.718 7.03583 381.37 6.50289C385.339 6.88897 383.161 6.49976 386.108 6.46383C389.054 6.42791 391.917 6.5469 394.773 6.57369C396.339 6.76462 389.768 7.20496 389.34 7.20356C388.65 7.20185 387.934 6.93689 387.269 6.9228C385.302 6.88067 383.398 7.09094 382.957 6.85444C380.414 7.10449 383.58 6.97956 383.262 7.20478C381.565 7.1116 379.867 7.01842 378.169 6.92524C377.305 7.69126 367.925 6.6923 368.577 7.27557C367.831 7.1588 367.085 7.04202 366.339 6.92524C363.067 7.65699 361.143 7.14174 356.778 6.92402C357.093 7.01761 357.408 7.11119 357.723 7.20478C357.634 7.24383 353.782 7.39348 355.159 6.99482C351.211 7.5201 351.377 6.64636 347.837 7.27802C345.734 7.35904 346.999 6.99215 343.234 6.99848C341.004 7.00201 338.235 7.19383 335.742 7.20722C335.168 7.20969 334.918 6.99726 334.408 6.99726C333.897 6.99735 333.647 7.20563 333.029 7.21088C331.75 7.22215 330.093 7.07594 329.294 7.09003C328.579 7.10205 327.555 7.28575 325.83 7.31464C319.804 7.41675 321.625 7.15441 320.673 7.06562C319.65 6.97122 318.915 7.31688 316.877 7.2768C316.672 7.27257 317.201 7.05717 316.537 7.06562C316 7.07224 315.731 7.30638 313.955 7.35004C313.248 7.36765 302.271 7.41781 300.599 7.42205C298.036 7.42839 292.327 7.23022 289.675 7.23163C288.652 7.23167 287.56 7.41965 286.474 7.41839C282.876 7.41417 277.115 7.39825 272.552 7.3891C268.442 7.38059 261.229 6.96567 258.978 7.34027C253.208 7.38887 251.807 7.06876 251.372 7.0644C250.196 7.05242 249.651 7.26449 248.168 7.27435C228.963 7.39763 203.672 7.25745 185.482 7.27435C143.287 7.31522 100.862 7.4311 58.5204 7.34515C58.407 7.43914 58.2936 7.53313 58.1801 7.62713C63.1846 7.68772 69.0659 7.85101 74.0064 7.88835C80.6021 7.93762 90.3863 7.5462 95.2244 8.18863C93.2623 8.24497 90.0658 7.99865 90.1231 8.32901C93.6305 8.35261 97.138 8.37621 100.646 8.39981C100.541 8.24722 100.436 8.09464 100.332 7.94206C103.994 7.89768 107.74 7.93094 111.414 7.9091C112.053 7.9055 111.601 7.76699 112.157 7.76628C112.779 7.76578 112.357 7.90676 112.473 7.90788C114.045 7.90929 114.52 7.76667 114.712 7.76872C115.204 7.77436 114.821 7.91012 116.24 7.94816C118.872 8.01922 120.757 7.65856 120.139 8.25943C120.988 8.25943 121.838 8.25943 122.688 8.25943C122.908 8.09586 123.128 7.93229 123.348 7.76872C128.575 8.4291 130.985 7.2707 133.873 8.18985C134.826 8.04948 135.778 7.9091 136.731 7.76872C137.267 7.93229 137.804 8.09586 138.341 8.25943C138.446 8.11905 138.55 7.97868 138.655 7.8383C143.787 7.94181 149.251 7.77329 154.158 7.78947C157.577 7.80075 158.396 7.85617 161.425 7.84563C168.161 7.82167 161.471 8.10021 167.069 8.40103C166.777 8.22891 166.486 8.0568 166.195 7.88469C167.122 7.82162 168.049 7.75855 168.976 7.69548C169.621 7.83586 170.266 7.97624 170.912 8.11661C173.774 7.3885 175.629 7.97624 176.019 7.97624C176.334 7.97496 177.415 7.53663 180.803 7.90788C179.398 7.3086 183.388 7.90436 183.708 7.90788C184.011 7.91031 187.896 7.77652 189.472 7.78215C190.712 7.78642 193.357 7.91542 195.204 7.9091C196.835 7.90348 196.669 7.70004 196.788 7.69792C198.795 7.68102 197.537 7.8391 198.988 7.84685C200.439 7.85458 201.565 7.68121 201.878 7.6967C202.035 7.70496 201.509 7.89447 202.23 7.91276C204.167 7.96268 207.669 7.79675 209.886 7.80168C210.672 7.80321 211.663 7.96398 212.538 7.96891C213.88 7.97592 214.507 7.76238 215.287 7.76872C215.558 7.77151 217.289 8.10137 219.441 8.0507C219.85 8.04053 221.052 7.34252 222.65 8.33145C222.773 8.19229 222.896 8.05314 223.02 7.91398C230.235 7.56947 232.243 8.69995 235.452 7.6967C240.691 7.80875 237.094 8.19955 237.669 8.25943C238.041 8.29727 239.749 8.18983 239.937 8.19596C240.269 8.20793 240.212 8.33337 240.577 8.33267C247.255 8.30942 244.29 8.07259 246.405 7.92253C251.435 7.56534 255.36 8.35834 246.611 8.12028C246.611 8.19026 246.611 8.26024 246.611 8.33023C248.765 8.26334 254.233 8.29511 252.407 8.65004C250.969 8.92973 237.996 8.74719 245.343 9.13953C247.012 9.2283 247.876 8.96566 250.765 9.45812C252.675 9.48484 252.95 8.84685 255.537 9.10291C255.112 8.88034 254.687 8.65777 254.261 8.43521C257.789 8.14509 262.142 8.53426 264.851 8.40957C265.772 8.36708 269.089 7.30596 268.316 8.36685C269.864 8.3007 277.155 8.49613 278.51 8.40103C278.836 8.37806 279.26 7.81323 283.975 8.01042C284.302 8.08121 284.63 8.15201 284.957 8.22281C280.645 8.4285 288.261 8.63772 286.192 9.17371C285.49 8.9328 282.07 8.78586 281.519 8.66469C280.58 8.45615 283.378 8.18738 279.812 8.26065C277.564 9.15646 283.992 8.74424 283.01 9.59484C287.692 9.19778 288.16 9.57663 289.22 9.5924C293.751 9.6565 296.602 9.56635 300.878 9.66564C301.919 9.49092 294.18 9.2387 293.221 9.31409C296.749 8.69481 290.677 8.66679 288.114 9.03455C287.899 8.84738 287.684 8.66022 287.469 8.47305C290.805 8.5745 294.059 8.62662 297.363 8.47305C297.578 8.54303 297.794 8.61302 298.009 8.683C297.267 8.78839 296.526 8.89377 295.785 8.99915C298.533 9.17173 296.885 8.62594 300.546 9.10413C300.66 8.89336 300.773 8.6826 300.886 8.47183C304.397 8.54181 307.907 8.6118 311.418 8.68178C313.245 8.25914 320 8.41657 318.763 8.96376C321.49 9.00239 318.124 8.71117 320.679 8.57802C321.791 8.52025 323.964 8.50402 324.501 8.65126C324.27 9.17234 321.017 9.23701 320.033 9.59484C320.63 9.71028 335.756 9.33826 334.408 9.94761C335.615 10.0209 335.06 9.70695 337.238 9.62658C343.342 9.40254 352.796 10.023 357.711 9.24451C351.94 8.81123 350.233 9.27013 345.81 9.28845C342.985 9.30043 325.761 9.37431 329.608 8.82338C328.976 8.89336 328.343 8.96335 327.71 9.03333C327.071 8.86936 326.431 8.70538 325.792 8.5414C327.594 8.51781 329.396 8.49421 331.198 8.47061C331.628 8.63418 332.059 8.79774 332.489 8.96131C332.688 8.84454 332.886 8.72776 333.085 8.61098C333.843 8.58779 334.602 8.5646 335.361 8.5414C335.148 8.68178 334.935 8.82216 334.721 8.96253C335.891 8.98654 337.06 9.01055 338.23 9.03455C337.915 8.84698 337.6 8.6594 337.285 8.47183C342.793 8.42465 340.928 8.54213 343.982 8.89296C346.263 8.92883 342.411 8.56829 347.236 8.47671C352.847 8.37036 349.166 8.94351 356.432 8.82094C356.537 8.72735 356.642 8.63377 356.746 8.54018C358.344 8.63377 359.942 8.72735 361.539 8.82094C361.328 8.70457 361.117 8.5882 360.906 8.47183C364.204 8.51692 368.748 8.29483 369.841 8.75136C366.499 8.53155 366.531 9.32867 367.401 9.47521C369.195 9.7759 395.701 9.49616 400.84 9.47643C407.409 9.45108 412.375 9.70641 418.376 9.31409C414.309 8.9923 400.009 9.25592 397.299 9.03333C397.03 9.01149 397.106 8.28077 395.38 9.10291C389.82 8.96347 383.174 9.19641 376.228 9.17249C376.44 8.96213 376.652 8.75177 376.864 8.5414C381.134 8.98878 385.085 8.00613 384.529 8.82338C385.379 8.82338 386.229 8.82338 387.079 8.82338C387.079 8.6826 387.079 8.54181 387.079 8.40103C388.36 8.40103 389.64 8.40103 390.921 8.40103C390.921 8.54181 390.921 8.6826 390.921 8.82338C391.982 8.82338 393.043 8.82338 394.104 8.82338C394.215 8.683 394.325 8.54263 394.436 8.40225C397.613 8.69381 408.443 7.91424 403.682 8.75258C405.174 8.75258 406.667 8.75258 408.159 8.75258C408.154 8.64964 408.149 8.54669 408.144 8.44375C408.785 8.42992 409.427 8.41608 410.068 8.40225C409.857 8.49543 409.646 8.5886 409.435 8.68178C412.374 8.51484 415.161 9.00537 417.091 8.683C415.818 8.61261 414.545 8.54222 413.272 8.47183C415.713 8.60554 420.212 8.32849 420.614 8.32779C421.841 8.32639 422.488 8.5345 423.818 8.54507C425.018 8.55409 424.853 8.39417 425.076 8.39981C431.549 8.56259 429.082 9.42833 432.105 8.40347C432.427 8.54344 432.748 8.68341 433.07 8.82338C433.498 8.7066 433.927 8.58982 434.355 8.47305C436.267 8.48403 438.178 8.49502 440.09 8.50601C439.452 8.33104 438.815 8.15608 438.177 7.98112C441.043 7.90303 442.379 8.25383 442.657 8.26187C443.442 8.28228 443.801 8.06209 444.044 8.06168C455.721 8.08071 448.629 8.27458 454.464 9.10169C456.545 8.77711 454.44 8.45171 454.144 8.1215C456.911 8.2764 457.774 8.18497 460.695 8.20328C461.455 8.20827 462.272 8.38642 462.751 8.38882C463.167 8.39093 464.465 8.20162 465.462 8.20084C467.123 8.19943 469.335 8.31228 471.61 8.30948C473.502 8.30666 479.293 8.17295 483.333 8.17154C485.056 8.17155 484.656 8.3299 485.102 8.33023C485.287 8.33023 486.63 8.14055 487.736 8.13981C496.754 8.13558 505.996 8.25562 515.058 8.25211C521.443 8.24999 527.931 8.09746 534.329 8.11295C535.69 8.11647 534.969 8.25572 535.564 8.26065C535.768 8.26189 536.014 8.01891 538.119 8.11661C538.879 8.15184 538.005 8.32178 538.752 8.33023C539.116 8.33426 539.271 8.12126 541.398 8.07267C545.265 7.98394 547.343 8.26789 547.688 8.25943C548.339 8.24308 548.148 8.0668 549.011 8.06046C553.228 8.02947 556.749 7.99958 560.513 7.98478C562.271 7.97774 574.389 7.9421 575.054 7.9738C576.543 8.04423 575.157 8.41234 577.067 8.39981C577.602 8.30663 578.136 8.21345 578.671 8.12028C577.822 8.04948 576.972 7.97868 576.122 7.90788C578.461 8.02623 581.114 7.85882 582.846 7.86516C583.166 7.8666 586.111 8.03353 587.613 8.0153C586.974 8.08447 586.336 8.15364 585.697 8.22281C585.923 8.28181 586.149 8.34081 586.375 8.39981C589.379 8.31036 592.556 8.31267 595.636 8.32535C596.747 8.32966 596.371 8.473 597.496 8.47793C604.046 8.50816 602.391 7.91217 608.693 9.03089C606.565 8.92947 598.803 9.07178 597.675 9.03455C596.889 9.00849 593.84 8.0632 594.958 9.03333C588.669 9.02911 594.132 8.49403 588.258 8.61098C588.375 8.72939 588.493 8.84779 588.61 8.9662C586.56 9.04084 585.045 9.10067 583.799 8.89174C583.381 9.46615 576.414 9.13009 572.593 9.16883C567.071 9.22378 560.833 9.36389 555.362 9.38855C553.477 9.39691 552.409 9.17178 552.173 9.17249C551.827 9.17411 550.856 9.37127 550.167 9.37268C547.591 9.3783 539.754 9.045 537.805 9.5924C553.131 9.5924 568.458 9.5924 583.785 9.5924C581.858 9.32333 597.361 9.29704 598.147 9.31042C598.875 9.32245 598.262 9.51136 598.478 9.52282C600.089 9.60384 601.464 9.32995 601.975 9.32995C602.365 9.32999 603.152 9.4585 604.539 9.45568C604.793 9.45528 604.864 9.31938 605.138 9.31897C606.946 9.31897 608.732 9.32089 610.547 9.32019C610.657 9.32151 611.115 9.52003 611.574 9.52038C612.033 9.52038 612.487 9.32203 612.603 9.32141C614.054 9.32282 616.541 9.45183 617.922 9.45324C618.401 9.45318 618.069 9.30781 618.605 9.3092C620.254 9.31273 619.711 9.59731 621.75 9.52404C622.433 9.49935 622.389 9.28173 623.698 9.31042C624.625 9.33086 624.525 9.71868 624.672 9.73277C624.875 9.7498 628.073 9.44353 629.119 9.69738C626.833 10.3675 631.619 9.73234 631.389 9.44958C632.657 9.52079 633.924 9.59199 635.191 9.6632C635.623 9.59158 636.056 9.51997 636.488 9.44836C641.601 9.77103 644.72 9.57729 649.75 9.67662C649.993 9.68156 654.231 9.84076 654.033 9.94151C651.496 10.1148 648.965 10.1227 647.342 9.80235C644.67 10.4132 644.624 9.9264 640.31 10.0074C638.866 10.0349 638.763 10.2006 638.597 10.2027C632.98 10.2851 623.982 10.3565 620.198 9.87193C619.137 10.003 622.951 10.0549 621.468 10.1515C620.659 10.2043 601.196 10.3591 607.414 9.80113C606.769 9.81659 606.123 9.83206 605.478 9.84752C604.832 10.3745 601.623 10.254 601.987 9.72911C601.683 9.83653 601.379 9.94395 601.075 10.0514C600.474 10.1423 599.763 10.1909 598.766 10.2198C594.948 10.3297 572.235 10.1469 571.027 10.2223C570.999 10.3468 570.972 10.4713 570.945 10.5958C580.979 10.7367 590.714 10.4273 601.655 10.7838C601.338 10.667 601.02 10.5502 600.702 10.4334C605.068 10.597 609.434 10.7606 613.8 10.9241C609.179 11.1355 601.828 11.313 596.977 11.139C596.114 11.1079 596.746 10.9451 596.548 10.9254C596.031 10.8741 595.474 11.1567 593.615 11.1841C591.755 11.2116 587.082 11.0113 586.654 11.0169C585.828 11.0285 583.6 11.3518 582.195 11.3477C580.348 11.3421 581.585 11.142 581.215 11.1378C579.681 11.1181 578.306 11.2172 577.105 11.2025C575.322 11.1805 571.616 10.8286 570.37 11.3453C571.644 11.3689 572.918 11.3925 574.192 11.4161C567.283 11.6014 561.881 10.9409 555.074 11.4503C553.528 12.0759 559.152 11.9913 554.397 12.2583C555.26 12.2494 556.124 12.2404 556.987 12.2315C557.189 12.1005 557.392 11.9694 557.594 11.8384C559.082 11.932 560.569 12.0256 562.056 12.1192C561.632 12.0024 561.207 11.8856 560.783 11.7688C566.056 11.6808 571.38 11.561 573.221 12.1888C573.33 12.037 573.438 11.8852 573.547 11.7334C578.442 11.918 585.791 11.2747 584.418 12.1192C584.65 12.0744 584.882 12.0297 585.113 11.9849C588.073 12.1575 586.809 11.8083 587.921 11.7688C588.238 11.7577 593.99 11.938 591.441 12.1888C597.052 12.3804 595.322 11.5911 596.868 11.5564C600.46 11.9475 606.921 11.3609 604.205 11.9788C604.739 12.002 605.275 12.0252 605.809 12.0484C607.567 11.5623 609.299 12.1123 611.204 12.2962C611.849 12.3072 612.495 12.3181 613.14 12.3291C613.572 12.1656 614.005 12.002 614.437 11.8384C620.508 12.6169 618.586 10.4879 621.36 12.2766C620.928 12.3837 620.495 12.4907 620.063 12.5977C619.038 12.6485 618.014 12.6994 616.989 12.7503C621.122 12.7975 625.255 12.8447 629.389 12.8919C634.635 13.3932 637.621 12.8492 643.449 13.2458C643.995 13.1982 644.54 13.1506 645.086 13.103C644.53 13.5081 642.413 13.4486 646.356 13.6304C646.692 13.9168 644.029 13.9538 642.815 13.7341C642.523 13.6805 645.013 13.4611 642.214 13.4534C640.311 13.4478 643.766 13.792 638.066 13.6645C638.277 13.7345 638.488 13.8045 638.7 13.8745C638.082 13.8725 637.464 13.8704 636.846 13.8684C636.296 13.7064 635.747 13.5445 635.197 13.3826C633.785 13.6165 632.992 13.9442 629.764 13.8745C630.64 13.7731 629.452 13.4479 627.855 13.4534C627.855 13.5705 627.855 13.6877 627.855 13.8049C623.988 13.8803 625.323 13.5365 622.108 13.8049C621.786 13.7117 621.464 13.6186 621.143 13.5254C619.392 13.9093 612.944 14.1706 614.12 13.595C612.311 14.1544 608.512 13.902 607.1 13.4546C606.992 13.571 606.883 13.6873 606.774 13.8037C606.022 13.8273 605.271 13.8509 604.519 13.8745C604.099 13.8041 603.68 13.7337 603.26 13.6633C602.727 13.7337 602.194 13.8041 601.661 13.8745C601.34 13.7577 601.018 13.6409 600.696 13.5242C599.839 13.6641 598.983 13.8041 598.126 13.9441C597.602 13.8509 597.078 13.7577 596.554 13.6645C596.5 13.9081 591.307 13.9624 589.857 13.8025C589.425 13.8733 588.993 13.9441 588.56 14.0149C588.349 13.8989 588.138 13.7829 587.927 13.667C587.605 13.7597 587.283 13.8525 586.962 13.9453C586.22 13.8525 585.479 13.7597 584.738 13.667C581.715 14.2355 581.617 13.7367 580.927 13.7402C579.648 13.7467 575.29 14.1028 574.562 14.0844C573.834 14.066 573.483 13.8619 572.895 13.8428C563.213 13.5222 567.193 14.0698 565.251 14.1565C564.203 14.2037 563.461 14.0133 562.534 14.0344C560.949 14.0696 552.953 14.3215 552.493 14.2968C551.823 14.2613 553.4 13.3636 551.223 13.595C551.15 14.077 546.494 13.5905 548.671 14.2627C546.753 14.2037 544.835 14.1447 542.918 14.0857C543.135 14.657 540.771 14.2896 538.195 14.3213C534.545 14.3657 526.328 14.7414 526.628 14.1552C525.754 14.2899 524.88 14.4246 524.006 14.5593C518.024 14.3748 512.157 14.5681 506.22 14.5752C488.599 14.597 469.482 14.4698 451.944 14.3542C451.101 14.3485 451.222 14.157 450.615 14.1528C447.426 14.1317 439.136 14.2671 434.669 14.2248C433.238 14.2114 432.541 14.0247 432.087 14.0161C430.547 13.9858 430.91 14.2319 430.201 14.2248C429.082 14.2135 423.163 13.9851 421.125 13.9612C420.115 13.9493 418.921 14.1448 417.74 14.0844C417.638 14.0795 417.826 13.878 417.74 13.8745C415.586 13.8498 416.881 14.024 416.152 14.0149C410.957 13.9494 405.403 13.9454 399.766 13.9038C398.366 13.8932 396.224 13.7512 395.022 13.7378C394.564 13.733 395.386 13.8859 393.802 13.8733C393.26 13.8689 393.074 13.6701 392.462 13.6572C389.822 13.603 388.939 14.2419 386.671 13.728C382.293 13.7618 374.672 13.9259 370.677 13.9294C369.732 13.93 369.272 13.8126 368.372 13.8147C367.733 13.8161 366.608 13.998 365.611 14.0002C364.614 14.0023 363.04 13.8291 361.123 13.8354C359.104 13.8418 356.594 13.9447 356.139 13.9441C355.589 13.9441 355.333 13.7253 354.784 13.728C353.122 13.7351 348.673 13.9501 346.532 13.9734C344.231 13.998 342.85 13.8919 342.064 13.894C341.336 13.897 340.487 14.0816 340.154 14.0832C339.637 14.086 339.515 13.8703 338.858 13.8721C337.784 13.8756 336.677 14.0113 335.068 14.0149C306.076 14.0818 277.652 13.9632 249.447 13.8061C246.303 13.7885 244.526 13.9399 239.893 13.8708C238.014 13.8427 238.806 13.62 237.344 13.6621C236.692 13.6811 236.857 13.8562 236.033 13.8647C232.389 13.9014 228.145 13.7386 226.566 13.7414C225.94 13.7423 225.224 13.9412 223.941 13.9441C214.373 13.9666 203.054 13.9108 192.757 13.9453C187.306 13.9636 179.052 14.065 172.795 14.0783C155.507 14.1157 136.909 14.0696 121.142 14.0893C97.3342 14.1182 73.6408 14.3021 49.8842 14.0844C60.9986 14.5656 76.1332 14.5255 88.5067 14.5776C124.247 14.727 162.301 14.4474 198.93 14.458C211.674 14.4615 227.742 14.4504 241.694 14.5617C242.327 14.5667 243.638 14.4137 245.006 14.4299C245.297 14.4337 248.9 14.7127 250.113 14.7155C248.963 14.2195 253.718 14.6616 255.188 14.6496C257.042 14.634 260.908 14.3862 265.247 14.5263C269.184 14.6531 268.098 14.8439 268.316 14.8559C269.708 14.9332 270.194 14.6258 271.261 14.5947C275.62 14.4707 298.041 14.6493 304.298 14.6606C305.915 14.6634 305.961 14.8589 306.325 14.8596C307.29 14.8609 308.663 14.6678 310.209 14.6691C312.996 14.672 316.205 14.8564 317.739 14.8571C321.408 14.8592 328.369 14.6416 333.137 14.6374C334.478 14.6361 334.396 14.8395 335.003 14.8388C337.675 14.8352 344.635 14.5956 347.952 14.5935C353.339 14.5899 358.881 14.7214 364.359 14.6545C364.706 14.7452 365.053 14.836 365.4 14.9267C365.948 14.8315 366.495 14.7363 367.043 14.6411C376.303 14.7136 385.731 14.5093 394.94 14.5227C396.001 14.5241 401.254 14.6977 402.13 14.6984C402.859 14.6984 403.576 14.4737 404.656 14.5068C406.169 14.5527 404.745 14.9808 407.217 14.8583C407.882 14.8252 407.237 14.642 408.572 14.5849C409.013 14.5659 417.573 14.4917 418.033 14.5044C418.799 14.5257 419.483 14.9183 419.681 14.9267C420.71 14.971 420.666 14.6698 421.357 14.6423C423.393 14.5601 426.054 14.7627 426.385 14.7583C430.386 14.7026 437.865 14.4621 442.064 14.6045C442.645 14.6243 442.575 14.8486 442.677 14.8559C443.335 14.9024 443.744 14.647 444.37 14.6411C447.738 14.6122 453.013 14.7842 456.4 14.8278C456.79 14.8326 457.614 14.7097 458.31 14.7216C462.247 14.7907 460.97 14.9878 461.193 14.9963C461.724 15.0172 462.657 14.7998 464.068 14.7863C467.705 14.7504 474.679 14.7816 478.577 14.7985C481.498 14.8119 481.454 15.0609 481.646 15.0659C482.055 15.0748 483.193 14.876 485.116 14.8535C488.816 14.8091 488.395 15.0047 489.915 14.9963C490.043 14.9963 489.821 14.8048 491.508 14.7851C494.768 14.7471 502.091 14.9353 505.58 14.9255C506.923 14.922 507.236 14.7374 508.611 14.7338C510.789 14.7275 515.706 14.9272 516.094 14.9267C516.203 14.9267 516.446 14.7143 517.086 14.7143C517.789 14.7143 518.48 14.8237 519.004 14.8229C521.989 14.82 527.13 14.4494 525.701 15.2075C526.658 15.0203 527.614 14.8331 528.57 14.646C534.821 14.6833 540.893 14.6083 547.086 14.5703C548.479 14.5618 549.642 14.7054 550.818 14.6984C551.993 14.6914 557.179 14.4539 558.046 14.4494C559.593 14.4417 568.382 14.4167 569.475 14.4336C571.61 14.466 573.681 14.7793 574.55 14.718C575.247 14.6687 574.602 14.4921 575.932 14.4421C578.233 14.3556 582.143 14.5823 582.846 14.5788C583.146 14.5774 582.584 14.4398 585.395 14.4299C586.91 14.4243 587.723 14.5759 588.273 14.5752C588.444 14.5744 588.187 14.3285 591.186 14.3615C593.257 14.3848 594.14 14.5745 594.357 14.5752C594.683 14.5764 595.47 14.374 596.78 14.3811C599.842 14.3987 605.439 14.6308 608.347 14.6484C608.909 14.6519 608.718 14.4074 610.961 14.4299C612.565 14.4461 612.284 14.6406 612.885 14.6484C613.837 14.6604 615.256 14.4222 617.358 14.4299C620.005 14.4398 639.651 14.6868 640.668 14.7509C641.352 14.7939 642.145 14.7966 642.484 14.9023C642.194 15.0036 641.903 15.1049 641.613 15.2062C638.604 14.8507 639.818 15.257 639.019 15.2831C637.862 15.3205 633.503 15.2686 632.448 15.3588C632.073 15.3914 632.933 15.6077 630.914 15.7189C628.748 15.8379 627.784 15.4529 626.922 15.9789C623.848 15.3949 620.894 16.0148 624.455 16.1803C626.442 16.2726 645.936 16.4812 649.917 16.5136C653.145 16.5396 659.191 16.3831 663.159 16.4232C665.492 16.4472 671.238 16.4743 670.995 16.754C673.065 16.7893 670.874 16.5108 671.309 16.4721C672.217 16.3912 678.681 16.5835 679.904 16.5758C685.937 16.5392 693.551 16.2265 699.411 16.5795C699.139 16.6544 698.866 16.7292 698.593 16.8041C697.276 16.9415 691.166 16.7451 690.476 17.1044C699.411 17.1044 708.347 17.1044 717.282 17.1044C717.116 16.7986 728.199 16.8027 728.723 16.9408C728.528 17.0889 728.334 17.237 728.139 17.3851C721.877 16.823 722.438 17.566 718.233 17.1715C716.521 17.1659 717.038 17.4107 716.194 17.4571C707.798 17.9192 716.059 16.955 709.632 17.174C711.567 17.5289 706.302 17.6586 703.944 17.7037C703.407 17.7136 696.356 17.6236 695.519 17.6293C690.815 17.661 682.736 17.8554 678.064 17.661C674.383 17.6377 672.357 17.8906 669.015 17.9491C666.478 17.9935 667.205 17.8158 666.011 17.8136C663.505 17.8086 662.681 18.3496 661.076 17.5951C659.378 17.6891 657.68 17.7831 655.981 17.8771C655.981 17.7599 655.981 17.6427 655.981 17.5255C654.914 17.5255 653.847 17.5255 652.781 17.5255C652.467 17.6423 652.153 17.7591 651.839 17.8758C648.453 17.7159 649.867 17.4337 649.234 17.1019C648.503 17.0791 647.771 17.0564 647.04 17.0336C646.474 17.2883 645.907 17.543 645.341 17.7977C642.075 17.777 638.809 17.7562 635.543 17.7355C635.332 17.6187 635.121 17.5019 634.91 17.3851C634.903 17.5019 634.896 17.6187 634.889 17.7355C629.358 17.7595 623.828 17.7835 618.297 17.8075C616.826 17.9948 625.687 18.1368 626.358 18.148C630.091 18.21 640.004 18.0222 640.017 18.4386C642.337 18.1279 649.323 18.205 651.496 18.5777C648.198 18.5553 644.899 18.533 641.601 18.5106C641.707 18.6501 641.814 18.7897 641.921 18.9293C637.811 18.3664 637.21 18.3974 632.985 18.9293C632.981 18.7421 632.977 18.5549 632.974 18.3678C630.028 19.0186 624.821 17.9146 624.672 18.7181C623.103 18.653 621.535 18.5879 619.966 18.5228C616.58 18.6207 621.839 19.2387 608.578 18.9964C607.664 18.9795 607.855 18.7748 606.481 18.7889C606.085 18.7931 603.816 19.0909 599.476 19.0599C598.798 19.0549 598.747 18.8774 598.044 18.8548C596.421 18.8013 593.188 19.1525 594.656 18.5802C588.227 18.4132 590.892 18.883 588.898 19.0696C587.569 19.1935 587.836 18.8549 586.686 18.9317C585.262 19.0269 586.307 19.3683 580.608 19.2112C581.247 19.1881 581.887 19.1649 582.526 19.1417C582.204 19.0489 581.883 18.9561 581.561 18.8634C578.308 19.086 578.615 18.7607 577.081 19.282C574.717 19.0496 572.671 19.031 569.437 19.0733C563.154 19.1557 566.375 19.7176 559.205 18.961C558.043 19.0672 556.881 19.1734 555.72 19.2796C553.81 19.0563 555.355 18.7769 552.505 18.7205C554.735 19.2722 548.722 19.071 547.705 19.5628C547.599 19.4456 547.492 19.3284 547.386 19.2112C546.749 19.2112 546.112 19.2112 545.476 19.2112C545.474 19.3052 545.472 19.3992 545.47 19.4932C544.622 19.4228 543.775 19.3524 542.927 19.282C542.289 19.3752 541.652 19.4684 541.014 19.5616C539.966 19.365 538.918 19.1685 537.869 18.972C537.211 18.9586 536.553 18.9451 535.895 18.9317C536.103 19.0717 536.312 19.2116 536.52 19.3516C535.674 19.3048 534.828 19.258 533.982 19.2112C534.967 19.4409 534.348 19.7102 531.715 19.7032C529.542 19.6975 531.99 19.2182 527.318 19.4175C526.992 19.4317 526.415 19.7736 521.999 19.8265C516.703 19.8898 519.276 19.6422 518.332 19.6336C518.147 19.6322 516.529 19.8042 515.014 19.8289C514.155 19.8429 513.327 19.704 513.213 19.7044C512.683 19.7107 512.528 19.9072 511.793 19.9143C509.928 19.9313 507.423 19.835 505.595 19.8448C504.764 19.849 503.983 19.9654 503.612 19.9668C503.037 19.9682 502.307 19.7904 501.726 19.7911C499.578 19.7948 496.319 20.3848 495.322 19.5652C493.258 20.3188 488.933 19.4077 489.25 19.9131C483.733 19.7224 469.02 20.3424 469.451 19.4932C466.327 20.2193 466.606 19.6935 465.297 19.7044C463.834 19.7164 464.592 19.8572 463.429 19.8509C460.713 19.8361 458.118 19.7756 455.414 19.7727C455.839 19.6564 456.263 19.54 456.688 19.4236C453.85 19.3863 454.827 19.6571 451.932 19.7093C446.609 19.8044 448.852 19.5883 448.066 19.2833C448.277 19.5778 441.999 19.532 441.36 19.4932C440.979 19.4696 442.649 19.09 438.805 19.2125C439.015 19.3292 439.225 19.446 439.436 19.5628C437.684 19.4031 432.927 19.6057 432.12 19.5665C431.749 19.5481 429.766 18.6064 427.951 19.3516C427.732 19.2348 427.513 19.1181 427.294 19.0013C425.279 19.1417 423.263 19.282 421.248 19.4224C420.926 19.2121 420.605 19.0017 420.283 18.7913C419.643 18.7913 419.004 18.7913 418.364 18.7913C418.789 18.9781 419.213 19.1649 419.637 19.3516C415.689 19.2671 410.865 19.5616 410.051 18.9317C409.205 19.0485 408.359 19.1653 407.513 19.282C406.963 19.0725 406.412 18.8629 405.862 18.6534C401.945 18.7063 401.88 18.8463 399.203 19.0696C399.307 18.9061 399.412 18.7425 399.517 18.5789C397.542 18.8086 393.936 19.0225 391.086 19.0513C389.731 19.0647 387.404 18.8393 387.084 18.8597C386.761 18.8812 383.583 19.7668 383.239 19.0001C378.56 19.3396 376.501 18.9928 374.602 19.0013C373.369 19.007 372.807 19.191 371.414 19.21C369.42 19.2375 367.413 19.1485 366.262 19.1612C365.604 19.1689 365.481 19.3484 365.027 19.3541C362.882 19.3814 364.139 19.198 361.877 19.21C361.668 19.2121 360.015 19.431 358.151 19.4029C357.109 19.3873 354.414 19.1411 354.176 19.1417C353.122 19.1459 353.965 19.6382 350.36 19.0696C350.465 19.1632 350.569 19.2568 350.674 19.3504C346.213 19.5878 345.508 19.1706 344.607 19.1417C344.492 19.1393 343.406 19.3006 342.756 19.2784C341.659 19.2404 341.216 19.0196 340.973 19.0098C340.116 18.976 337.232 19.0732 335.346 18.8597C335.743 19.4881 329.136 19.7116 327.672 19.0001C326.503 19.1404 325.333 19.2808 324.164 19.4212C323.635 19.304 323.106 19.1868 322.577 19.0696C322.255 19.1864 321.933 19.3032 321.612 19.42C319.907 19.1628 318.203 18.9057 316.498 18.6485C316.39 18.9061 316.281 19.1636 316.173 19.4212C315.696 19.3919 315.218 19.3626 314.741 19.3333C314.369 19.1286 313.996 18.924 313.624 18.7193C313.027 18.7584 312.431 18.7974 311.834 18.8365C311.687 18.9846 311.539 19.1327 311.391 19.2808C308.185 19.4516 309.832 18.0389 303.723 19.2808C302.773 19.164 301.822 19.0473 300.872 18.9305C299.798 19.4988 297.787 19.1547 296.163 19.2186C295.02 19.2636 295.082 19.4894 293.523 19.4944C291.964 19.4994 292.02 19.2835 291.898 19.282C290.627 19.2688 289.669 19.4591 288.736 19.4212C288.595 19.4156 288.243 19.1592 287.055 19.1429C285.866 19.1267 285.15 19.3994 283.379 19.348C282.472 19.3219 282.21 19.1059 281.405 19.0867C277.57 18.9937 273.709 20.0877 270.833 18.7901C270.184 18.9545 265.482 19.53 263.47 19.4969C260.34 19.444 261.546 19.1895 260.301 19.1429C260.122 19.1358 259.169 19.2218 256.544 19.2064C256.074 19.2036 256.183 19.3473 256.115 19.3492C253.054 19.3464 247.11 19.2329 243.748 19.2125C243.447 19.2104 241.875 19.6109 239.21 19.0721C235.26 19.4701 227.821 18.615 222.612 19.2149C221.89 19.2276 221.013 19.0843 220.693 19.0892C217.939 19.1336 218.948 19.5686 212.723 18.9317C213.227 19.1536 211.771 19.3538 209.713 19.337C206.62 19.3116 208.817 18.8979 206.331 18.9317C206.331 19.0485 206.331 19.1653 206.331 19.282C200.611 18.9679 199.473 19.4672 193.734 19.47C191.67 19.4707 188.621 19.2119 188.128 19.2112C187.938 19.212 185.68 19.4935 185.465 19.4957C184.25 19.5041 183.565 19.3743 182.517 19.3736C179.053 19.3708 174.919 19.7371 175.667 19.0721C174.715 19.2125 173.762 19.3528 172.81 19.4932C169.211 18.7831 166.521 19.7618 165.766 19.0721C165.123 19.2145 164.48 19.3569 163.836 19.4993C148.403 19.4273 132.97 19.3553 117.537 19.2833C116.923 19.5052 110.193 19.4264 109.848 19.3919C108.263 19.2355 109.937 18.7515 106.703 18.8621C106.345 19.0741 105.987 19.2861 105.63 19.4981C101.565 19.5671 103.52 19.3562 101.916 19.2125C101.245 19.2386 101.462 19.4031 100.555 19.4151C95.6333 19.4806 85.5424 19.4884 80.1609 19.5018C79.0757 19.5046 79.2395 19.3508 78.9024 19.3504C77.9759 19.3518 76.1474 19.5456 74.288 19.5457C62.7903 19.5443 46.498 19.435 34.9233 19.2723C34.1372 19.261 34.0399 19.0776 33.5094 19.0684C32.7742 19.0565 31.132 19.2048 30.3588 19.1893C29.6304 19.1752 29.1639 19.0359 28.3846 19.0196C24.8182 18.9435 20.0232 19.1789 16.2076 18.7681C15.8867 18.7335 11.889 17.9951 11.7985 17.9466C11.2681 17.6592 14.8206 17.2076 8.98532 16.787C14.2007 16.4199 12.5714 15.7711 5.7966 15.454C9.19457 15.3722 12.5925 15.2905 15.9905 15.2087C15.9954 15.1318 16.0003 15.0549 16.0052 14.978C12.912 14.5968 9.84305 14.47 5.1395 14.4348C5.28617 14.3636 5.43285 14.2924 5.57952 14.2212C9.73387 13.8654 14.7453 13.7996 17.909 13.3142C13.2692 12.9549 8.62939 12.5956 3.98956 12.2364C4.22131 12.1802 4.45306 12.1241 4.6848 12.0679C6.90899 11.9221 11.7673 11.8365 13.6144 11.7005C20.6689 11.182 7.4401 11.3125 9.61309 10.9962C17.0612 11.0076 24.5094 11.0189 31.9576 11.0303C32.2187 10.7974 3.56533 10.154 3.86049 9.4508C6.20142 9.4036 8.54236 9.3564 10.8833 9.3092C9.83994 9.13058 8.7966 8.95196 7.75325 8.77333C8.04073 8.71677 8.32821 8.66022 8.6157 8.60366C12.5652 8.46491 16.5146 8.32616 20.4641 8.18741C8.45634 8.32688 2.87621 8.22564 0 6.81905C0.325619 6.78324 0.651237 6.74743 0.976856 6.71163C3.57813 7.59158 15.8571 7.30696 22.3826 7.13154C21.0526 6.87378 15.3068 7.0729 14.0925 6.91792C13.7485 6.87349 14.9484 6.69458 14.1512 6.60299C12.0677 6.36487 3.18922 6.05849 4.47946 5.76683C5.31033 5.57943 19.596 5.32231 22.3826 5.34204C15.8508 5.00529 9.12074 4.90787 2.56975 4.49856C6.7048 3.92791 10.367 3.22955 17.9149 3.19855C20.2155 2.89913 4.23705 2.48434 3.86636 2.32089C6.63167 2.14552 9.39699 1.97015 12.1623 1.79479C9.82332 1.84158 7.48434 1.88837 5.14536 1.93516C5.13852 1.87657 5.13167 1.81798 5.12483 1.75939C11.1838 1.48744 16.727 0.988287 23.6616 1.0221C23.4379 0.712113 19.2887 0.742949 17.2754 0.74013ZM680.863 18.3714C681.003 18.6285 678.46 18.5863 677.029 18.5814C677.244 18.6282 677.459 18.675 677.674 18.7218C674.619 18.6731 668.932 18.5745 668.721 19.0733C666.542 19.1353 667.506 18.7015 666.803 18.6522C666.528 18.6325 663.683 18.8849 661.408 18.5777C660.867 18.5789 660.326 18.5802 659.786 18.5814C659.681 18.7449 659.577 18.9085 659.472 19.0721C658.718 18.8735 657.964 18.675 657.21 18.4764C665.09 18.4414 672.971 18.4064 680.851 18.3714C680.855 18.3714 680.859 18.3714 680.863 18.3714ZM602.313 18.5826C599.443 18.4903 595.047 18.3446 595.935 18.7926C597.748 18.769 599.561 18.7454 601.374 18.7218C601.687 18.6754 602 18.629 602.313 18.5826ZM316.833 18.2298C314.436 17.7888 312.229 18.1703 308.522 18.0907C308.527 18.1838 308.532 18.277 308.537 18.3702C310.053 18.1465 314.06 18.2953 316.833 18.2298ZM752.071 16.6857C752.599 16.7203 753.127 16.7549 753.655 16.7894C751.507 17.2904 751.123 16.9374 748.694 16.986C748.548 16.989 748.599 17.1037 748.548 17.1044C747.953 17.1121 747.404 16.9741 746.867 16.9762C745.831 16.9804 744.987 17.1203 743.153 17.1154C741.734 17.1111 741.721 16.8912 741.223 16.8969C740.798 16.9023 736.589 17.5071 733.88 17.246C728.729 16.7486 750.498 16.6392 752.071 16.6857ZM767.34 17.0995C766.83 17.1015 766.321 17.1036 765.811 17.1056C767.343 16.7676 764.252 16.819 761.983 16.8261C762.053 16.502 766.852 16.6406 769 16.5441C768.447 16.7292 767.893 16.9144 767.34 17.0995ZM702.914 16.4049C704.908 16.3719 704.575 16.7764 704.492 16.8969C703.858 16.8969 703.223 16.8969 702.588 16.8969C702.697 16.7329 702.806 16.5689 702.914 16.4049ZM717.907 16.2646C717.287 16.5393 712.959 16.6595 710.908 16.682C710.818 16.6821 711.382 16.5313 709.931 16.5453C709.495 16.5497 705.21 17.0984 706.153 16.4757C710.069 16.4053 713.985 16.3349 717.901 16.2646C717.903 16.2646 717.905 16.2646 717.907 16.2646ZM722.278 16.4269C721.463 16.5132 720.647 16.5994 719.832 16.6857C719.41 16.5567 718.989 16.4277 718.567 16.2987C719.495 16.2662 720.423 16.2336 721.351 16.2011C721.66 16.2764 721.969 16.3516 722.278 16.4269ZM108.71 16.0607C108.899 16.1986 109.089 16.3366 109.279 16.4745C110.014 16.5591 113.587 15.9585 112.456 15.8422C111.207 15.915 109.958 15.9879 108.71 16.0607ZM93.6198 15.7714C92.8766 15.7018 92.1335 15.6323 91.3903 15.5627C90.5357 15.7966 89.6811 16.0306 88.8264 16.2646C92.539 16.4223 96.4892 16.6041 95.8522 15.9142C96.7019 15.9142 97.5517 15.9142 98.4014 15.9142C97.6858 16.1995 97.7821 16.2935 100.006 16.4745C100.492 16.0776 102.792 16.2798 105.424 16.1925C103.51 16.1693 101.595 16.1462 99.6804 16.123C99.6804 16.053 99.6804 15.983 99.6804 15.913C103.948 15.9383 98.6439 15.4944 95.8639 15.7726C95.6449 15.6795 95.4259 15.5863 95.2068 15.4931C94.6778 15.5859 94.1488 15.6786 93.6198 15.7714ZM402.086 15.913C401.557 15.8426 401.028 15.7722 400.499 15.7018C398.449 16.6187 402.623 15.7489 405.595 16.4745C404.613 15.9233 409.143 15.9464 409.402 15.9093C408.881 15.7238 408.36 15.5383 407.839 15.3527C405.921 15.5395 404.004 15.7262 402.086 15.913ZM387.09 15.2807C388.925 15.7379 379.914 15.766 376.891 15.6652C376.155 15.6404 374.845 15.3894 374.315 15.4211C373.993 15.5138 373.671 15.6066 373.35 15.6994C372.969 15.3788 367.066 15.7392 364.74 15.9118C364.521 15.795 364.302 15.6782 364.083 15.5615C363.235 15.6078 362.387 15.6542 361.539 15.7006C361.646 15.5842 361.753 15.4679 361.859 15.3515C361.218 15.4915 360.576 15.6314 359.935 15.7714C357.417 15.9271 358.969 15.2927 357.078 15.4907C354.975 15.7105 358.421 16.0883 358.357 16.3341C360.063 16.2707 363.944 16.1288 365.676 16.1217C366.67 16.1179 365.543 16.5585 369.83 16.0522C370.769 16.1702 371.709 16.2882 372.649 16.4062C374.374 16.2186 376.098 16.031 377.823 15.8434C378.145 16.0066 378.467 16.1698 378.788 16.3329C378.973 16.3585 382.962 15.988 382.749 15.8654C384.365 16.1773 387.682 16.2329 391.177 16.2487C391.513 16.16 391.849 16.0713 392.186 15.9826C388.806 16.1741 391.11 15.8887 390.103 15.7189C389.521 15.621 387.742 15.4286 387.09 15.2807ZM132.257 15.703C126.582 16.1011 130.095 15.7727 123.961 15.7726C124.389 15.9834 124.818 16.1942 125.246 16.4049C128.262 16.0198 133.225 16.2759 132.263 15.703C132.261 15.703 132.259 15.703 132.257 15.703ZM72.2287 16.4037C75.4749 16.2762 73.8459 15.9484 77.9608 15.8434C77.9627 15.8434 77.9647 15.8434 77.9666 15.8434C75.8389 15.8198 73.7111 15.7962 71.5833 15.7726C71.7984 15.983 72.0136 16.1934 72.2287 16.4037ZM262 16.1486C265.112 16.2402 264.5 16.0762 267.324 16.4037C271.529 16.0064 267.97 16.0625 267.97 15.7018C267.008 15.8076 266.047 15.9134 265.086 16.0192C262.756 15.6819 264.966 15.5121 264.966 15.4797C264.964 15.4797 264.962 15.4797 264.96 15.4797C264.96 15.3714 265.035 15.3486 264.141 15.2831C263.428 15.5716 262.714 15.8601 262 16.1486ZM275.321 15.703C274.254 15.9426 273.774 16.2501 276.579 16.4037C276.581 16.4037 276.583 16.4037 276.585 16.4037C276.811 15.8684 279.501 16.3005 280.727 16.2646C281.049 16.2064 281.371 16.1482 281.692 16.09C279.569 15.961 277.445 15.832 275.321 15.703ZM322.257 15.2111C322.269 15.8025 319.914 15.8588 323.228 16.4037C323.871 16.3931 324.515 16.3826 325.158 16.372C325.581 16.2422 326.003 16.1124 326.425 15.9826C334.587 17.0527 337.02 15.2305 323.228 15.9118C323.226 15.9122 323.224 15.9126 323.222 15.913C322.9 15.679 322.579 15.4451 322.257 15.2111ZM307.883 15.2612C307.779 15.5716 307.675 15.8821 307.572 16.1925C305.77 15.4436 303.441 16.1582 299.907 15.6298C299.587 15.7242 299.267 15.8186 298.947 15.913C297.627 15.7053 284.652 15.6454 287.463 16.123C288.69 16.3315 291.363 16.0483 291.593 16.0546C292.373 16.078 293.389 16.3447 294.706 16.3293C295.466 16.3199 297.069 16.0064 298.622 16.007C302.092 16.0084 308.427 16.8501 312.99 16.0534C313.319 16.147 313.647 16.2405 313.976 16.3341C317.362 16.277 316.231 15.9805 319.382 16.3341C321.559 14.8595 306.716 16.4069 309.807 15.2111C309.805 15.2111 309.803 15.2111 309.801 15.2111C309.162 15.2278 308.522 15.2445 307.883 15.2612ZM214.647 15.703C214.443 15.4382 210.515 15.8468 211.438 15.2123C210.156 15.4333 208.874 15.6542 207.592 15.8752C207.602 15.9342 207.612 15.9932 207.622 16.0522C208.896 16.0058 210.17 15.9594 211.444 15.913C211.449 16.0066 211.454 16.1002 211.459 16.1938C213.357 15.8552 221.281 16.0027 221.039 16.3341C221.463 16.1942 221.886 16.0542 222.31 15.9142C226.1 16.2954 229.36 15.8901 233.489 16.2621C233.809 16.1462 234.129 16.0302 234.448 15.9142C234.657 16.0078 234.865 16.1014 235.073 16.195C236.577 16.2068 238.081 16.2186 239.585 16.2304C244.486 15.8536 234.963 15.3657 233.809 15.4211C233.656 15.4288 233.679 15.6711 232.721 15.7092C231.018 15.7759 221.487 15.5347 218.54 15.6945C218.515 15.5338 218.489 15.3731 218.464 15.2123C217.192 15.3759 215.919 15.5395 214.647 15.703ZM340.468 15.8434C340.683 16.007 340.898 16.1706 341.113 16.3341C344.826 16.1708 347.164 16.3136 346.212 15.7726C346.21 15.7726 346.208 15.7726 346.206 15.7726C344.293 15.7962 342.381 15.8198 340.468 15.8434ZM616.373 15.9826C616.275 15.6574 614.501 15.5359 612.207 15.769C612.318 15.8634 612.428 15.9578 612.539 16.0522C613.734 15.7753 615.225 16.2579 618.913 16.1938C618.913 16.0302 618.913 15.8666 618.913 15.703C618.066 15.7962 617.22 15.8894 616.373 15.9826ZM337.265 15.7726C336.133 15.5798 332.957 16.1649 335.047 16.1938C336.645 16.2156 337.872 15.8762 337.265 15.7726ZM59.4592 16.0876C60.2981 16.1217 61.1371 16.1559 61.9761 16.1901C62.4132 16.0509 62.8503 15.9118 63.2874 15.7726C63.2854 15.7726 63.2835 15.7726 63.2815 15.7726C62.0074 15.8776 60.7333 15.9826 59.4592 16.0876ZM251.36 16.1754C254.206 16.1551 257.051 16.1348 259.897 16.1144C259.925 16.0237 259.953 15.9329 259.982 15.8422C257.131 16.1733 255.985 15.8164 255.32 15.7946C255.323 15.7946 255.326 15.7946 255.329 15.7946C253.195 15.7228 251.162 15.6699 249.142 15.5615C249.882 15.7661 250.621 15.9708 251.36 16.1754ZM241.606 15.603C242.086 16.2441 242.712 16.3187 247.083 15.8678C246.91 15.7889 246.737 15.71 246.564 15.631C244.299 15.6782 242.977 15.8262 243.375 15.4919C242.785 15.5289 242.196 15.5659 241.606 15.603ZM286.166 15.808C285.641 15.6039 281.478 15.8089 281.704 15.9118C281.794 15.9526 287.189 16.2082 286.166 15.808ZM647.981 15.841C647.022 15.7942 646.063 15.7474 645.104 15.7006C646.38 15.631 647.656 15.5615 648.932 15.4919C648.615 15.6082 648.298 15.7246 647.981 15.841ZM658.513 14.9291C659.196 15.0109 656.973 15.5873 661.062 15.736C658.086 15.7482 655.111 15.7604 652.135 15.7726C653.53 15.6795 654.926 15.5863 656.321 15.4931C656.078 15.3275 655.834 15.1619 655.591 14.9963C656.565 14.9739 657.539 14.9515 658.513 14.9291ZM661.707 15.3515C660.105 14.9134 668.542 14.8805 669.328 14.934C669.503 14.9468 670.336 15.2789 670.643 15.3503C669.369 15.3507 668.094 15.3511 666.82 15.3515C667.247 15.4561 667.673 15.5606 668.099 15.6652C666.608 15.701 665.117 15.7368 663.626 15.7726C664.263 15.6677 664.901 15.5627 665.538 15.4577C664.261 15.4223 662.984 15.3869 661.707 15.3515ZM627.855 15.4577C628.921 15.4687 629.988 15.4797 631.055 15.4907C630.842 15.3271 630.629 15.1635 630.415 14.9999C629.777 14.9999 629.138 14.9999 628.5 14.9999C628.285 15.1525 628.07 15.3051 627.855 15.4577ZM649.592 15.2465C648.039 16.0341 643.806 14.3123 648.753 14.9499C649.251 15.0147 649.739 15.1704 649.592 15.2465ZM672.491 15.028C675.808 14.4538 675.059 15.7216 671.927 15.3503C671.77 15.3305 672.242 15.0704 672.491 15.028ZM697.361 15.0097C697.63 15.014 698.099 15.4244 700.664 15.0341C701.087 15.0809 701.511 15.1277 701.934 15.1745C700.943 15.3652 692.467 15.4787 693.638 15.072C694.936 15.0656 696.019 14.997 697.361 15.0097ZM689.153 13.4912C687.881 13.5026 686.609 13.514 685.337 13.5254C685.756 13.654 686.176 13.7825 686.595 13.9111C685.969 13.9461 685.343 13.9811 684.718 14.0161C683.648 13.7943 682.578 13.5726 681.508 13.3508C684.274 13.3154 687.039 13.28 689.804 13.2446C689.587 13.3268 689.37 13.409 689.153 13.4912ZM655.33 13.1738C657.778 13.3352 660.777 13.1634 664.752 13.1909C664.754 13.1913 664.756 13.1917 664.758 13.1921C664.956 13.194 665.308 13.3706 665.946 13.3777C666.49 13.3833 677.227 13.1893 676.389 13.4888C672.235 13.7571 670.683 13.3491 669.686 14.0149C669.484 13.8745 669.281 13.7341 669.079 13.5937C665.084 13.3507 663.945 13.8366 661.701 14.0149C661.71 13.9091 661.719 13.8033 661.728 13.6975C660.23 13.6869 658.732 13.6763 657.234 13.6658C657.445 13.7353 657.656 13.8049 657.867 13.8745C657.337 13.8745 656.807 13.8745 656.277 13.8745C654.986 13.561 653.349 13.488 655.33 13.1738ZM694.923 13.6658C696.099 12.8633 707.559 13.413 712.794 13.2446C710.046 13.7278 705.788 13.3948 702.791 13.3899C696.996 13.3808 701.002 13.6765 700.019 13.8061C699.533 13.8702 696.246 13.3558 694.923 13.6658ZM646.388 13.3142C649.277 13.379 650.895 13.1943 653.394 13.4888C653.185 13.5474 652.975 13.6059 652.766 13.6645C651.91 13.6109 644.932 13.4417 646.388 13.3142ZM720.465 13.4546C714.886 13.1664 717.638 13.893 714.736 13.3484C716.646 13.3138 718.555 13.2792 720.465 13.2446C720.465 13.3146 720.465 13.3846 720.465 13.4546ZM330.879 12.7539C328.527 12.7356 325.901 12.5891 324.495 12.8919C326.093 12.9386 327.691 12.9854 329.289 13.0322C329.819 12.9395 330.349 12.8467 330.879 12.7539ZM397.932 9.79625C397.396 9.72368 395.273 9.93785 395.049 9.93785C394.633 9.93784 394.747 9.83235 394.741 9.80479C392.02 9.82391 394.53 10.1511 392.517 10.2223C392.173 10.234 387.444 10.0723 385.521 10.0855C382.562 10.106 379.607 10.0848 378.501 10.0904C376.635 10.0996 373.17 10.3451 370.102 10.3578C368.838 10.3626 368.396 10.1661 367.125 10.171C358.963 10.2041 342.896 10.4739 335.654 10.3492C333.865 10.3182 332.159 10.0609 331.213 10.0819C330.467 10.1759 329.721 10.2699 328.975 10.3639C326.68 9.51776 325.913 10.2703 323.439 10.3492C321.868 10.3991 321.133 10.1484 320.922 10.149C319.523 10.154 318.832 10.2733 317.733 10.2931C316.5 10.3149 314.728 10.2018 314.287 10.2223C314.016 10.236 314.88 10.5692 310.095 10.5628C305.217 10.5563 300.402 10.521 295.442 10.5055C297.096 11.5114 298.521 10.8229 300.546 10.7862C301.089 10.7763 300.745 10.9361 301.218 10.929C302.554 10.91 305.111 10.7531 306.217 10.7911C307.41 10.8321 307.002 11.2023 308.516 11.0657C308.593 11.0587 308.351 10.9058 308.707 10.8802C312.286 10.6273 313.458 10.8932 317.983 10.901C320.981 10.9066 339.189 10.7548 339.814 10.8546C343.074 11.39 323.887 11.3936 321.644 11.3514C320.859 11.3365 321.682 11.1677 320.966 11.1353C320.663 11.1224 317.935 11.4442 315.24 11.471C311.981 11.5034 305.43 11.2838 302.324 11.2916C275.621 11.3585 249.289 11.164 222.612 11.1597C222.043 11.1597 221.294 11.3526 219.441 11.3526C184.851 11.3491 149 11.197 113.969 11.2879C106.332 11.3076 98.7577 11.489 91.05 11.3453C90.0937 11.4861 89.1374 11.6268 88.1811 11.7676C90.6272 11.6557 95.1095 11.9741 95.5178 11.9788C95.6648 11.9802 96.5922 11.8215 98.0875 11.8299C100.19 11.8411 101.112 11.9788 101.285 11.9788C101.82 11.9792 101.469 11.8328 101.98 11.8335C105.789 11.8399 108.737 11.7983 112.233 11.7969C116.182 11.7956 118.184 12.0682 121.06 11.7688C121.385 11.8856 121.711 12.0024 122.037 12.1192C124.185 11.6141 136.98 11.6701 142.163 11.6968C143.799 11.7053 143.512 11.9104 144.061 11.9104C144.412 11.9102 144.274 11.6416 148.553 11.6944C150.706 11.7212 151.271 11.9168 152.351 11.9104C152.938 11.9067 152.843 11.7127 153.686 11.7127C158.562 11.7127 162.544 11.7756 167.318 11.8116C168.66 11.8214 168.675 11.9834 168.976 11.9812C170.082 11.974 172.005 11.6998 174.816 11.7005C179.443 11.7019 188.666 11.7028 192.449 11.836C193.006 11.8557 193.466 12.05 193.875 12.0472C194.494 12.0422 194.737 11.8395 194.846 11.8384C196.917 11.8349 195.671 12.0234 197.058 11.9776C197.806 11.9529 198.585 11.7217 200.323 11.6956C202.617 11.6611 202.166 11.9355 203.124 11.908C203.226 11.9037 203.256 11.7129 204.198 11.7066C207.771 11.684 212.953 11.64 216.334 11.6407C217.305 11.6407 218.028 11.7691 219.382 11.7713C222.111 11.7755 237.623 11.6937 238.896 11.7676C239.03 11.7754 237.65 12.0568 239.849 12.0484C240.488 11.9312 241.126 11.814 241.765 11.6968C242.832 11.8844 243.9 12.072 244.968 12.2596C244.93 11.6115 251.211 11.5114 251.149 12.1741C251.836 12.201 252.524 12.2278 253.211 12.2547C254.643 11.7968 255.596 11.9658 258.362 11.6968C258.794 11.8372 259.225 11.9776 259.656 12.118C259.765 12.0244 259.873 11.9308 259.982 11.8372C261.458 12.3444 263.88 11.8351 264.174 11.8323C265.304 11.8211 266.154 11.95 266.685 11.9458C268.666 11.9325 272.954 11.7548 275.268 11.8372C275.377 11.8414 275.27 12.0582 275.928 12.085C277.116 12.1333 277.231 11.8159 278.815 12.1888C279.134 12.0952 279.454 12.0016 279.774 11.908C280.113 11.9564 280.453 12.0048 280.792 12.0533C282.794 12.0284 284.797 12.0036 286.8 11.9788C284.978 12.3459 287.074 12.5508 289.056 12.262C289.726 12.164 289.131 11.9406 289.355 11.9068C289.662 11.861 298.649 11.9747 299.244 12.1192C299.669 12.0488 300.094 11.9784 300.52 11.908C300.735 12.0488 300.95 12.1896 301.165 12.3304C301.4 12.2811 301.635 12.2319 301.869 12.1826C304.208 12.4306 310.279 11.8619 311.38 11.9068C311.968 11.9307 311.439 12.5308 314.257 12.4695C314.355 12.3047 314.453 12.1399 314.551 11.9751C315.196 11.9515 315.841 11.9279 316.487 11.9043C317.698 11.919 319.461 12.2046 319.517 12.3999C319.895 12.2827 320.274 12.1656 320.652 12.0484C321.668 12.4302 327.088 12.2949 329.268 12.0533C329.906 12.1684 330.543 12.2836 331.181 12.3987C332.037 12.2587 332.894 12.1188 333.75 11.9788C335.735 11.9366 333.638 12.1693 334.061 12.1888C334.956 12.2289 339.516 11.8358 339.216 12.3255C339.837 12.3267 340.459 12.3279 341.081 12.3291C341.401 12.1892 341.721 12.0492 342.04 11.9092C343.108 12.3918 344.955 12.2214 348.744 12.3975C349.061 12.2864 349.379 12.1753 349.697 12.0642C350.868 12.2221 352.04 12.38 353.211 12.5379C353.452 12.354 353.692 12.17 353.933 11.9861C354.442 11.9597 354.952 11.9332 355.461 11.9068C356.496 12.3188 358.355 11.8736 359.301 12.0435C360.682 12.2915 359.614 12.587 357.051 12.6441C357.243 12.9441 364.878 12.8063 366.638 12.7844C366.522 12.7258 366.405 12.6673 366.289 12.6087C364.489 12.655 362.688 12.7014 360.888 12.7478C359.38 11.9933 364.268 12.1956 366.512 12.0984C366.717 12.0891 367.879 11.8032 370.141 11.8299C371.016 11.8404 374.432 12.2583 375.083 12.2815C380.348 12.4723 376.477 11.8753 381.628 12.3987C380.554 11.9978 383.514 12.3309 386.595 12.2534C387.119 12.2402 391.566 11.9152 391.866 11.9068C393.739 11.8546 391.7 12.209 394.409 12.1167C394.735 12.0236 395.061 11.9304 395.386 11.8372C396.017 11.8372 396.648 11.8372 397.278 11.8372C401.106 12.6676 401.996 12.0561 403.357 11.9776C403.906 11.9459 403.199 12.1625 404.624 12.1167C405.16 12.0997 405.756 11.9195 407.199 11.9068C411.717 11.8674 413.251 12.639 417.405 11.836C418.043 11.9524 418.68 12.0687 419.318 12.1851C419.748 12.0455 420.178 11.906 420.608 11.7664C423.899 12.1714 422.711 11.7566 423.9 11.7615C427.038 11.7742 433.461 11.8536 434.023 12.1875C436.733 11.4205 439.972 12.2858 441.04 12.2559C441.675 12.1627 442.31 12.0695 442.944 11.9764C443.69 12.0699 444.436 12.1635 445.182 12.2571C444.82 11.5038 448.684 12.2446 449.055 12.2559C449.483 12.2672 455.426 12.0442 457.638 12.0484C459.847 12.0526 463.697 12.2567 464.036 12.2571C464.426 12.2571 468.186 12.0524 471.126 12.0545C473.699 12.0567 488.94 12.3475 487.979 12.0118C486.982 11.9188 485.563 11.8382 484.336 11.7945C480.526 11.6606 458.168 11.4891 452.455 11.4356C440.996 11.3292 429.044 11.349 417.534 11.2757C416.857 11.2715 416.754 11.0762 416.173 11.0718C415.291 11.0662 413.053 11.2616 412.183 11.2574C408.937 11.2405 404.986 11.2086 403.248 11.2037C399.363 11.1938 396.698 11.0762 393.758 11.0572C392.838 11.0516 388.185 11.2936 384.996 11.1915C384.418 11.1365 383.84 11.0816 383.262 11.0267C384.905 10.9626 389.214 10.7967 391.215 10.7777C394.192 10.7502 395.745 10.9086 396.844 10.9058C397.764 10.9037 402.467 10.7234 404.609 10.7191C405.274 10.7177 405.41 10.9224 405.979 10.9217C409.066 10.9168 413.132 10.9113 415.809 10.7105C414.716 10.776 421.541 10.9017 421.899 10.901C422.513 10.9009 423.178 10.7093 424.431 10.7093C426.839 10.7094 426.534 11.1101 429.544 10.7093C430.289 10.8261 431.034 10.9429 431.779 11.0596C431.825 10.5258 441.24 11.2519 443.918 10.6031C443.988 10.5298 431.754 10.3219 430.744 10.3114C424.685 10.2473 415.719 10.3782 409.84 10.2845C408.07 10.2563 402.506 9.9318 402.086 9.93785C401.409 9.947 402.021 10.1327 401.728 10.1393C395.742 10.2773 398.729 9.90419 397.932 9.79625ZM661.701 12.8223C659.883 12.8003 658.064 12.7783 656.245 12.7564C656.377 12.6392 656.509 12.522 656.641 12.4048C657.474 12.4504 658.307 12.496 659.14 12.5415C659.781 12.4715 660.421 12.4016 661.062 12.3316C661.275 12.4951 661.488 12.6587 661.701 12.8223ZM666.184 12.3316C667.761 12.2726 667.838 12.5197 668.202 12.5318C669.288 12.5684 670.228 12.4685 671.282 12.4719C670.068 13.0589 667.481 12.7899 666.184 12.3316ZM633.607 12.1204C633.963 12.1485 636.337 12.7804 639.037 12.1924C641.057 12.3792 643.077 12.5659 645.098 12.7527C641.665 12.4674 636.916 12.764 635.235 12.7527C634.597 12.7484 634.475 12.5544 633.965 12.5513C631.025 12.5358 628.167 12.9753 627.866 12.3328C630.646 12.5195 633.153 12.0859 633.607 12.1204ZM651.349 12.3487C651.819 12.4829 652.29 12.6172 652.76 12.7515C651.061 12.7515 649.361 12.7515 647.662 12.7515C648.121 12.6156 648.581 12.4797 649.04 12.3438C649.81 12.3454 650.579 12.347 651.349 12.3487ZM520.606 11.9043C521.654 11.906 522.702 11.9076 523.75 11.9092C523.693 11.8114 522.494 11.8117 522.052 11.7457C522.054 11.7457 522.056 11.7457 522.058 11.7457C521.566 11.671 521.776 11.545 520.881 11.4893C520.79 11.6277 520.698 11.766 520.606 11.9043ZM86.9109 11.3477C85.1538 11.3407 68.9279 11.34 70.3102 11.6968C71.0068 11.8751 76.5563 11.7196 78.1925 11.7225C80.3981 11.7261 86.3549 12.112 86.9109 11.3477ZM58.1743 11.2781C57.8932 11.6338 68.0338 11.6903 69.0253 11.6285C68.8148 11.5778 68.4903 11.4649 68.2098 11.4393C66.8421 11.3167 60.3604 11.3753 58.1743 11.2781ZM461.903 10.8778C462.721 11.0576 463.538 11.2374 464.356 11.4173C464.141 11.1833 463.926 10.9494 463.71 10.7154C463.108 10.7695 462.506 10.8236 461.903 10.8778ZM382.605 11.1353C368.987 11.1239 355.368 11.1125 341.75 11.1011C342.948 11.0039 344.146 10.9066 345.344 10.8094C357.078 10.8439 369.592 10.9424 380.924 10.7923C381.484 10.9066 382.045 11.021 382.605 11.1353ZM629.77 11.067C626.281 11.0635 623.366 11.2353 619.57 10.962C623.188 10.6971 624.979 11.1069 628.494 10.7166C628.496 10.7166 628.498 10.7166 628.5 10.7166C628.923 10.8334 629.347 10.9502 629.77 11.067ZM551.868 10.9962C552.929 10.8326 553.99 10.669 555.051 10.5055C553.775 10.5055 552.499 10.5055 551.223 10.5055C551.438 10.669 551.653 10.8326 551.868 10.9962ZM263.816 10.2259C260.166 10.5829 250.829 9.93678 247.863 10.3663C247.672 10.3945 249.435 10.5757 246.584 10.9266C248.738 10.8547 250.258 10.7814 250.418 10.5055C251.058 10.599 251.697 10.6926 252.337 10.7862C253.398 10.7154 254.459 10.6446 255.52 10.5738C255.405 10.8486 255.489 10.8339 257.119 10.6458C257.862 10.7154 258.605 10.785 259.348 10.8546C259.663 10.7382 259.978 10.6218 260.293 10.5055C260.936 10.6682 261.579 10.831 262.223 10.9937C264.731 10.8172 263.203 10.5018 263.816 10.2259ZM276.591 10.2931C275.998 10.2326 259.077 10.4299 266.767 10.9779C268.766 10.9604 270.764 10.9429 272.763 10.9254C271.108 10.0179 276.554 10.8294 277.002 10.8485C279.142 10.9371 281.87 10.7213 283.423 10.7325C284.759 10.7424 285.552 10.9051 286.492 10.901C289.692 10.8869 294.746 10.8809 295.442 10.5055C292.954 10.4976 290.428 10.4936 287.841 10.503C285.106 10.5129 282.701 10.1585 277.562 10.6446C276.291 10.5924 276.744 10.3086 276.591 10.2931ZM558.245 10.5433C558.118 10.9205 564.576 10.8303 564.617 10.6812C564.63 10.5939 562.527 10.5959 562.226 10.5628C562.224 10.5628 562.222 10.5628 562.22 10.5628C562.095 10.5484 562.73 10.404 561.742 10.3639C560.577 10.4237 559.411 10.4835 558.245 10.5433ZM112.148 10.5042C111.275 10.2926 91.3324 10.3687 90.745 10.4701C90.5854 10.4982 90.8079 10.591 90.745 10.6446C95.3974 10.346 102.011 10.6994 106.427 10.7227C107.659 10.729 107.291 10.5791 107.36 10.5763C107.363 10.5763 107.366 10.5763 107.369 10.5763C108.068 10.5759 111.221 10.9422 112.148 10.5042ZM241.477 10.5384C242.325 10.5974 243.173 10.6564 244.02 10.7154C244.236 10.5986 244.451 10.4819 244.666 10.3651C244.664 10.3651 244.662 10.3651 244.66 10.3651C243.599 10.4229 242.538 10.4806 241.477 10.5384ZM212.104 10.1539C212.31 10.2361 212.517 10.3183 212.723 10.4005C214.858 10.4119 216.992 10.4233 219.127 10.4347C218.912 10.481 218.697 10.5274 218.481 10.5738C221.709 10.6978 223.046 10.409 224.765 10.4505C224.763 10.4505 224.761 10.4505 224.759 10.4505C224.944 10.4554 225.168 10.6266 225.856 10.6324C227.434 10.6458 231.957 10.7095 232.504 10.5372C233.66 10.1695 224.558 10.344 222.861 10.3272C222.094 10.3195 221.172 10.1696 220.705 10.1661C220.194 10.1628 219.498 10.3652 218.253 10.359C217.888 10.3569 213.849 10.1188 212.104 10.1539ZM174.426 10.3993C175.084 10.5845 176.459 10.4056 176.964 10.4359C177.084 10.443 176.146 10.5981 177.283 10.6446C177.605 10.5388 177.927 10.433 178.248 10.3272C176.974 10.3512 175.7 10.3753 174.426 10.3993ZM569.096 10.3651C568.911 10.3253 565.444 10.3399 565.277 10.3651C563.2 10.7032 570.381 10.6666 569.096 10.3651ZM656.594 9.97813C654.999 9.48661 673.922 9.96982 675.756 9.94395C675.664 10.2529 671.163 9.94228 673.52 10.3663C671.271 10.1331 665.051 10.2569 663.588 10.1893C662.699 10.1484 662.475 9.88161 662.341 9.87315C661.814 9.8431 657.156 10.1514 656.594 9.97813ZM691.391 10.1539C689.593 10.0953 687.795 10.0367 685.997 9.97813C688.118 9.94314 690.24 9.90814 692.362 9.87315C692.039 9.96674 691.715 10.0603 691.391 10.1539ZM693.653 10.0135C693.595 9.7141 699.699 9.94219 701.304 9.87315C699.495 10.3825 696.478 9.90229 693.653 10.0135ZM592.095 9.5924C589.283 9.39443 588.075 10.3071 591.494 9.90977C591.598 9.89664 592.213 9.60289 592.095 9.5924ZM262.947 8.94178C262.468 8.93615 256.504 8.64022 256.159 8.78676C255.068 9.25424 258.981 9.06676 260.293 9.24329C262.408 9.52932 259.297 9.76501 264.461 9.5924C264.25 9.68598 264.039 9.77957 263.827 9.87315C266.85 9.90414 265.861 9.25586 266.403 9.17249C266.569 9.14715 268.459 9.20165 268.8 9.16028C273.059 8.638 263.392 8.94614 262.947 8.94178ZM522.48 9.52282C516.881 9.24806 519.29 9.65122 513.545 9.62658C513.353 9.8323 521.752 9.70318 522.48 9.52282ZM317.464 9.31164C311.673 9.39263 306.912 9.12358 301.511 9.48498C301.863 10.0416 318.966 9.45537 317.464 9.31164ZM45.4047 8.7477C67.9337 9.73892 93.9201 9.4126 117.906 9.39709C120.52 9.39568 120.771 9.61635 121.717 9.5924C122.336 9.57688 122.228 9.39915 123.052 9.39831C152.816 9.36943 181.316 9.13691 209.828 9.24329C211.623 9.25033 220.361 9.63202 222.227 9.05653C223.639 8.61992 217.363 8.96034 216.316 8.95643C215.53 8.95361 215.497 8.74843 214.973 8.7477C214.417 8.74699 214.876 8.88718 214.231 8.88929C211.495 8.89915 208.511 8.84436 206.037 8.85634C181.782 8.97117 158.185 8.93832 134.058 8.91859C131.138 8.91647 131.738 8.75206 131.591 8.75136C131.589 8.75177 131.587 8.75217 131.585 8.75258C115.926 8.73708 98.043 9.10588 81.4575 8.96498C69.7782 8.85186 58.099 8.73875 46.4197 8.62563C46.0814 8.66632 45.7431 8.70701 45.4047 8.7477ZM275.312 9.5216C273.855 8.90163 273.529 9.52673 268.301 9.2738C267.876 9.3796 267.45 9.48539 267.025 9.59118C269.79 9.56798 272.556 9.54479 275.321 9.5216C275.318 9.5216 275.315 9.5216 275.312 9.5216ZM240.782 9.29578C239.898 8.45845 228.207 9.05021 222.943 8.89052C221.978 9.31102 229.631 9.12212 231.436 9.16639C232.337 9.18823 237.163 9.62071 240.832 9.38122C240.815 9.35274 240.798 9.32426 240.782 9.29578ZM636.796 8.7477C635.945 8.77211 635.095 8.79652 634.244 8.82094C636.372 8.91371 638.501 9.00648 640.63 9.09925C637.234 9.03944 633.838 8.97962 630.442 8.91981C631.075 8.74607 631.707 8.57233 632.34 8.39859C633.825 8.51496 635.311 8.63133 636.796 8.7477ZM625.778 8.83681C631.725 8.77138 625.517 9.23649 624.032 9.02967C623.144 8.90568 625.17 8.84385 625.778 8.83681ZM610.309 8.53774C613.083 8.23272 618.688 8.21171 616.695 8.82094C613.698 8.53561 611.766 8.7727 607.42 8.60854C608.055 8.49176 608.689 8.37499 609.324 8.25821C609.327 8.25821 609.329 8.25821 609.332 8.25821C609.658 8.35139 609.984 8.44457 610.309 8.53774ZM628.494 8.46816C632.389 8.81816 621.112 8.69849 624.657 8.46816C624.823 8.4576 628.341 8.45478 628.494 8.46816ZM70.3102 8.11783C69.8409 8.31691 72.8368 8.31319 73.8333 8.32657C78.1535 8.38573 83.6942 8.29911 88.1869 8.32657C87.8486 8.26106 87.5103 8.19555 87.172 8.13004C81.5514 8.12597 75.9307 8.1219 70.3102 8.11783ZM102.241 8.32779C105.328 8.32779 108.415 8.32779 111.502 8.32779C111.79 8.32779 113.14 8.15696 112.136 8.11539C108.838 8.18619 105.54 8.25699 102.241 8.32779ZM294.799 8.32779C292.432 8.21631 299.248 7.64488 298.941 8.25699C297.561 8.28059 296.18 8.30419 294.799 8.32779ZM316.824 8.08366C315.34 8.14184 313.855 8.20003 312.371 8.25821C312.369 8.18782 312.367 8.11743 312.365 8.04704C313.852 8.05924 315.338 8.07145 316.824 8.08366ZM58.1743 7.97746C59.7466 8.21834 63.4974 8.18127 65.8366 8.18619C64.2255 7.97923 60.3853 8.08098 58.1743 7.97746ZM259.336 8.08121C259.528 8.24537 250.113 8.20406 253.372 7.9152C255.36 7.97054 257.348 8.02588 259.336 8.08121ZM240.213 7.8383C242.232 7.80239 243.796 7.85878 243.381 8.11661C242.31 8.10563 241.239 8.09464 240.169 8.08366C240.183 8.00187 240.198 7.92009 240.213 7.8383ZM599.752 8.04704C596.349 8.07023 592.946 8.09342 589.543 8.11661C589.669 8.04622 589.795 7.97583 589.921 7.90544C593.202 7.88265 596.483 7.85987 599.763 7.83708C599.759 7.90707 599.755 7.97705 599.752 8.04704ZM56.2499 7.34515C53.9129 7.39113 51.5759 7.43711 49.2388 7.48309C51.5778 7.53029 53.9168 7.57749 56.2558 7.62468C56.2558 7.5311 56.2558 7.43752 56.2558 7.34393C56.2538 7.34434 56.2519 7.34475 56.2499 7.34515ZM646.368 7.1352C635.972 6.80692 649.237 6.4599 651.98 6.94233C651.983 6.94193 651.986 6.94152 651.988 6.94111C652.229 6.98375 651.721 7.18994 652.12 7.27313C651.062 7.17996 650.004 7.08678 648.946 6.9936C647.981 7.10956 647.016 7.22553 646.051 7.34149C645.733 7.29592 645.415 7.25035 645.098 7.20478C645.521 7.18158 645.944 7.15839 646.368 7.1352ZM688.323 6.9521C697.749 6.99017 688.104 7.50578 683.439 7.09858C683.472 7.00434 687.455 6.94858 688.323 6.9521ZM663.62 7.06318C662.134 7.10997 660.649 7.15676 659.164 7.20356C658.974 7.14456 658.784 7.08556 658.595 7.02656C659.735 6.96797 660.875 6.90937 662.015 6.85078C662.55 6.92158 663.085 6.99238 663.62 7.06318ZM614.771 6.15256C612.381 6.08775 609.332 6.74378 617.006 6.57125C617.003 6.50086 616.999 6.43047 616.995 6.36008C616.689 6.37132 615.791 6.43735 615.742 6.43209C615.602 6.41449 615.767 6.17943 614.771 6.15256ZM705.777 5.09791C706.046 5.07112 706.192 4.32862 708.983 5.09669C709.827 5.04989 710.671 5.0031 711.515 4.95631C711.733 5.11988 711.951 5.28345 712.169 5.44702C708.903 5.3202 708.557 5.65115 708.32 5.65819C707.235 5.68916 708.038 5.51894 707.338 5.5166C705.529 5.51096 701.42 5.62526 703.284 5.13941C703.955 4.96539 705.509 5.12468 705.777 5.09791ZM699.391 4.67556C699.787 4.73753 698.511 4.95474 698.81 5.01612C699.072 5.06966 703.008 5.29125 701.943 5.65819C701.297 5.64273 700.65 5.62727 700.004 5.61181C699.785 5.51131 699.566 5.4108 699.347 5.3103C698.721 5.40307 698.095 5.49584 697.469 5.58861C696.415 5.34062 694.171 5.01935 696.836 4.81715C695.856 4.83831 694.876 4.85947 693.896 4.88063C693.389 4.99944 692.882 5.11825 692.374 5.23706C692.64 5.056 692.906 4.87493 693.172 4.69387C695.245 4.68776 697.318 4.68166 699.391 4.67556ZM729.764 4.74513C729.645 4.83872 729.526 4.9323 729.406 5.02589C733.005 4.85191 738.609 4.78575 735.426 5.37256C730.552 5.42138 725.677 5.47021 720.803 5.51904C720.479 5.44864 720.155 5.37825 719.832 5.30786C723.468 5.57907 722.344 4.425 725.508 4.75612C726.041 4.81225 724.494 5.21583 727.846 4.95753C727.727 4.86354 727.607 4.76955 727.488 4.67556C728.247 4.69875 729.006 4.72194 729.764 4.74513ZM760.698 4.88551C754.537 4.75024 761.324 4.40872 762.461 4.69265C762.459 4.69265 762.457 4.69265 762.455 4.69265C765.573 5.46958 758.869 5.0942 758.46 5.09913C757.916 5.10601 756.65 5.66222 753.693 4.85133C756.028 4.86273 758.363 4.87412 760.698 4.88551ZM740.583 4.74636C741.101 4.72804 740.814 4.86929 741.038 4.8672C741.04 4.8672 741.042 4.8672 741.044 4.8672C744.342 4.83691 752.186 4.71044 753.036 5.16626C750.595 5.2043 739.671 5.3028 739.011 4.99293C739.535 4.91074 740.059 4.82855 740.583 4.74636ZM717.376 5.0857C715.352 4.79058 719.909 4.75129 721.105 4.88795C721.33 4.91756 719.474 5.39141 717.376 5.0857ZM562.068 4.324C557.613 4.50154 563.466 4.67873 561.44 4.95631C562.291 4.93271 563.142 4.90911 563.992 4.88551C563.351 4.69834 562.709 4.51117 562.068 4.324ZM358.97 3.76372C357.931 3.73092 358.423 3.90037 358.333 3.90287C357.651 3.89815 357.008 3.76011 356.746 3.7747C351.906 4.05338 355.125 4.1957 355.174 4.22879C355.276 4.39644 354.004 4.5926 355.766 4.7842C356.836 4.72479 357.906 4.66538 358.976 4.60598C359.507 4.69916 360.038 4.79233 360.568 4.88551C362.694 4.6856 359.913 4.63076 359.598 4.36551C359.476 4.26124 361.475 4.13641 358.97 3.76372ZM554.086 3.7625C553.364 4.05699 551.593 4.42848 553.332 4.72438C553.334 4.72438 553.336 4.72438 553.338 4.72438C553.659 4.77852 554.969 4.80829 555.371 4.88429C558.239 4.49196 557.14 4.08651 554.086 3.7625ZM378.158 3.23639C379.883 3.30516 381.608 3.37392 383.332 3.44268C383.303 3.61927 383.274 3.79586 383.244 3.97245C382.321 3.92485 381.398 3.87724 380.475 3.82964C380.152 3.9102 379.828 3.99076 379.504 4.07133C380.65 4.27274 381.796 4.47415 382.942 4.67556C384.323 4.60516 385.704 4.53477 387.084 4.46438C386.45 4.3712 385.815 4.27803 385.181 4.18485C388.555 4.08199 387.82 4.5114 390.613 4.67556C391.57 4.51199 392.526 4.34842 393.482 4.18485C394.867 4.34923 396.252 4.51361 397.636 4.678C399.963 4.6012 400.167 4.47601 398.601 4.28861C399.758 4.07445 401.025 4.41128 402.418 4.324C402.533 4.31697 402.316 4.11526 402.418 4.11283C409.621 3.97686 409.238 4.50653 410.388 4.52908C411.2 4.54455 414.441 4.1871 414.492 4.06522C414.555 3.90098 407.814 3.25332 418.37 3.23639C412.912 2.78841 406.708 3.24442 410.72 3.90165C408.992 3.83552 401.375 3.9995 400.889 3.97978C400.182 3.95001 400.43 3.70066 399.543 3.69414C399.019 3.69062 397.63 4.2606 393.482 3.7625C392.952 3.85608 392.422 3.94967 391.892 4.04325C391.396 3.96635 390.899 3.88945 390.402 3.81255C391.425 3.5383 392.448 3.26406 393.471 2.98982C389.419 3.2878 386.058 2.72801 383.591 3.19977C381.458 3.14486 380.421 3.09059 381.338 2.84944C380.697 2.84944 380.057 2.84944 379.416 2.84944C378.997 2.97842 378.577 3.10741 378.158 3.23639ZM540.996 4.18363C538.877 3.90983 538.114 4.50052 538.444 4.53396C540.304 4.71777 542.1 4.32607 540.996 4.18363ZM362.818 4.07743C365.157 4.22961 367.496 4.38178 369.835 4.53396C369.835 4.3472 369.835 4.16044 369.835 3.97367C367.496 4.00826 365.157 4.04284 362.818 4.07743ZM562.719 3.9041C562.934 4.04407 563.149 4.18403 563.364 4.324C565.927 3.81274 568.47 4.54629 569.736 4.3948C570.011 4.36171 569.456 4.11456 568.932 4.06156C568.606 4.02845 563.173 3.85689 562.719 3.9041ZM669.372 3.97123C668.418 4.06522 667.464 4.15921 666.509 4.25321C666.562 4.09574 666.615 3.93827 666.668 3.78081C667.139 3.75151 667.61 3.72222 668.082 3.69292C668.512 3.78569 668.942 3.87846 669.372 3.97123ZM658.513 4.22147C656.81 4.20886 655.108 4.19624 653.405 4.18363C659.899 4.0392 654.57 3.96872 658.513 3.76372C658.513 3.9163 658.513 4.06889 658.513 4.22147ZM641.281 3.90287C641.49 3.80888 641.7 3.71489 641.909 3.6209C643.611 3.6209 645.314 3.6209 647.016 3.6209C645.94 3.29458 644.863 2.96825 643.786 2.64193C643.163 2.64111 642.539 2.6403 641.915 2.63949C641.704 3.06062 641.492 3.48175 641.281 3.90287ZM312.984 3.06184C311.955 3.0562 308.375 3.34137 308.528 3.44635C310.015 3.57533 311.503 3.70431 312.99 3.8333C312.997 3.64613 313.004 3.45896 313.011 3.27179C313.221 3.36497 313.431 3.45815 313.641 3.55132C314.487 3.48134 315.333 3.41135 316.179 3.34137C316.605 3.50494 317.031 3.66851 317.458 3.83208C317.886 3.64531 318.314 3.45855 318.743 3.27179C314.659 2.94068 314.799 3.27163 313.949 3.26813C313.518 3.26655 313.246 3.15066 313.093 3.09235C313.057 3.08218 313.02 3.07201 312.984 3.06184ZM364.435 2.88606C359.558 2.83956 356.771 3.33232 353.244 2.92024C355.506 3.79804 370.117 2.89135 375.268 3.62334C375.803 3.48256 376.338 3.34178 376.873 3.20099C374.068 3.32636 372.124 3.0364 370.757 2.9947C369.67 2.96159 369.784 3.10911 369.7 3.107C369.697 3.107 369.693 3.107 369.689 3.107C367.145 3.04642 366.358 2.9044 364.435 2.88606ZM566.342 3.21564C565.031 2.99321 562.739 3.01545 562.713 3.34015C563.989 3.43414 565.265 3.52813 566.541 3.62212C566.279 3.53899 566.566 3.25368 566.342 3.21564ZM639.301 2.99592C638.279 2.89024 635.863 2.98285 636.904 3.26325C637.092 3.31301 639.498 3.11591 638.087 3.62212C640.431 3.6143 639.883 3.05666 639.301 2.99592ZM447.764 3.55132C448.624 3.54197 449.485 3.53261 450.345 3.52325C450.546 3.39223 450.746 3.26121 450.947 3.13019C449.886 3.27057 448.825 3.41095 447.764 3.55132ZM577.401 2.99104C578.545 3.63224 580.5 3.00825 582.646 3.53545C583.439 3.53952 584.232 3.54359 585.025 3.54766C585.027 3.54766 585.029 3.54766 585.031 3.54766C585.053 3.3727 585.074 3.19774 585.096 3.02278C582.531 3.0122 579.966 3.00162 577.401 2.99104ZM394.11 3.23517C394.64 3.31655 395.17 3.39793 395.7 3.4793C396.644 3.3845 397.587 3.28969 398.531 3.19489C398.021 3.12694 397.51 3.05899 397 2.99104C396.036 3.07242 395.073 3.15379 394.11 3.23517ZM591.341 2.93611C588.567 2.85579 587.524 3.4132 591.071 3.41461C592.567 3.41461 594.247 3.02003 591.341 2.93611ZM259.993 3.26935C260.944 3.31696 261.894 3.36456 262.845 3.41217C263.168 3.29498 263.492 3.1778 263.816 3.06062C262.542 3.13019 261.267 3.19977 259.993 3.26935ZM652.455 3.05939C652.343 3.17658 652.232 3.29376 652.12 3.41095C651.273 3.38735 650.425 3.36375 649.577 3.34015C649.79 3.22378 650.003 3.10741 650.217 2.99104C650.963 3.01382 651.709 3.03661 652.455 3.05939ZM266.388 3.34137C267.148 3.36375 267.908 3.38613 268.668 3.40851C269.178 3.35154 269.689 3.29458 270.199 3.23761C269.488 3.18105 268.777 3.1245 268.066 3.06794C267.507 3.15908 266.948 3.25023 266.388 3.34137ZM617.634 2.98982C616.567 2.84892 612.304 3.28792 616.144 3.39996C618.591 3.47109 617.794 3.01125 617.634 2.98982ZM623.387 2.84944C619.322 2.58102 622.37 3.94338 627.221 3.06062C622.338 3.18165 623.626 2.86565 623.387 2.84944ZM659.132 2.14634C659.234 2.14704 659.318 2.34293 660.135 2.35019C663.075 2.37555 666.956 2.45295 669.059 2.46493C674.114 2.49381 689.598 2.13969 691.409 2.70662C691.786 2.82569 690.918 3.18145 691.072 3.19977C691.522 3.25086 694.111 3.07824 693.632 3.34015C691.091 3.33811 688.55 3.33608 686.008 3.33404C686.632 3.14932 687.256 2.96459 687.88 2.77986C681.548 2.87848 683.643 2.86709 681.822 3.26935C680.751 3.11351 679.679 2.95767 678.607 2.80183C676.274 2.95849 673.941 3.11514 671.608 3.27179C672.137 3.15501 672.666 3.03824 673.195 2.92146C669.68 2.70518 670.656 2.84701 668.733 3.13019C668.729 3.01342 668.725 2.89664 668.721 2.77986C665.327 3.06449 664.666 2.71451 663.925 2.71028C662.404 2.70341 660.465 4.08508 654.664 2.71028C652.218 3.37149 652.273 2.02635 650.836 2.71028C646.695 1.96573 654.57 2.2352 658.295 2.25986C658.297 2.25986 658.299 2.25986 658.301 2.25986C658.582 2.26197 658.136 2.1366 659.132 2.14634ZM637.864 2.83113C640.37 2.22418 630.468 2.16737 633.745 3.04353C634.233 3.07201 634.721 3.10049 635.209 3.12897C636.096 3.02969 636.983 2.93041 637.87 2.83113C637.868 2.83113 637.866 2.83113 637.864 2.83113ZM544.825 2.42831C535.653 2.67771 540.868 3.02686 543.974 2.68587C544.594 2.61824 544.933 2.52552 544.825 2.42831ZM357.468 2.41977C357.334 2.4926 357.2 2.56543 357.066 2.63827C360.142 2.5701 366.089 2.85105 366.007 2.35995C363.161 2.37989 360.314 2.39983 357.468 2.41977ZM381.798 2.09873C381.138 2.06911 378.439 1.99919 378.765 2.18296C379.935 2.31316 381.104 2.44337 382.273 2.57357C382.818 2.49219 383.363 2.41081 383.907 2.32944C383.147 2.30176 381.977 2.10648 381.798 2.09873Z" fill="#EFF7CF"/>
</svg>
