<svg width="1007" height="23" viewBox="0 0 1007 23" fill="none" xmlns="http://www.w3.org/2000/svg">
<path d="M984.302 21.9547C963.23 23.6133 948.859 21.6952 929.319 21.3163C886.303 20.4836 829.572 20.8287 785.575 20.5956C752.274 20.4192 718.436 20.1509 685.336 19.9105C683.638 19.8984 682.626 19.7025 681.856 19.6968C674.609 19.6435 662.455 19.7656 655.266 19.7097C640.143 19.5928 613.829 19.511 599.978 19.2726C594.096 19.1716 588.063 19.1143 585.779 18.6485C583.63 18.6161 582.455 19.0233 581.893 19.0434C581.887 19.0429 581.881 19.0425 581.874 19.0421C580.066 19.104 575.503 18.7956 574.496 18.8094C574.345 18.8115 575.271 19.114 572.828 19.0135C572.61 19.0048 572.812 18.8027 570.754 18.7911C570.219 18.7881 563.335 19.0702 561.369 19.0808C554.823 19.115 539.194 18.8044 531.368 18.7754C530.171 18.7703 529.482 18.8861 528.218 18.8829C527.565 18.8813 526.587 18.7483 526.386 18.7482C525.506 18.749 521.657 19.318 523.043 18.1688C519.027 18.225 520.208 18.6119 520.116 18.8595C515.757 18.8768 513.659 18.3239 512.518 18.8956C491.082 18.7352 469.646 18.5747 448.21 18.4142C448.204 18.5081 448.197 18.6021 448.19 18.6961C441.873 18.2939 439.703 18.9197 436.099 18.3592C433.874 18.4698 431.649 18.5804 429.425 18.691C372.265 18.0787 315.235 18.2765 258.718 18.0354C256.333 18.0253 255.738 17.8227 251.804 17.8046C247.461 17.7848 241.351 17.9913 235.627 17.9643C230.606 17.9409 223.199 17.7203 217.601 17.6669C216.337 17.6552 215.422 17.778 215.28 17.7767C214.443 17.7682 214.402 17.5675 213.591 17.5584C212.62 17.5479 211.446 17.6915 210.325 17.6776C206.134 17.6267 201.567 17.6585 201.036 17.6528C198.481 17.623 197.917 17.4245 197.707 17.4214C194.864 17.3854 195.929 17.567 195.221 17.5537C191.547 17.4839 188.952 17.031 183.92 17.4337C184.058 17.2704 184.195 17.107 184.333 16.9436C180.484 16.835 183.025 17.2815 182.238 17.357C181.917 17.3849 173.631 17.2966 172.992 17.2861C170.766 17.2485 170.707 17.0303 170.515 17.0266C170.046 17.0175 164.446 17.2411 161.576 17.0387C158.18 16.7989 162.18 16.3726 161.337 16.2858C161.195 16.2711 157.639 16.3014 157.162 16.1606C156.636 16.0091 159.711 16.0253 159.664 15.9625C159.63 15.9194 154.526 15.59 155.506 15.387C156.293 15.1826 163.219 15.4784 164.687 15.3869C164.929 15.3717 164.474 15.1134 164.688 15.1049C165.55 15.0741 181.509 15.134 182.239 15.1794C181.408 15.2926 180.576 15.4059 179.745 15.5191C180.85 15.5356 181.955 15.5521 183.06 15.5686C181.488 15.6555 179.917 15.7424 178.345 15.8293C180.676 16.8008 187.713 15.8558 188.004 15.3771C188.131 15.1557 183.834 14.5665 187.836 14.251C187.228 14.1914 186.62 14.1319 186.012 14.0723C184.758 14.1606 183.505 14.2489 182.251 14.3371C183.085 14.3997 183.92 14.4622 184.754 14.5247C184.447 14.5902 184.139 14.6556 183.832 14.721C181.488 14.8181 179.144 14.9152 176.801 15.0122C175.596 14.9578 175.847 14.7619 175.019 14.7203C164.694 14.1967 171.428 14.8358 164.667 14.7191C163.702 14.6092 162.737 14.4993 161.772 14.3894C162.11 14.8284 159.117 14.541 155.493 14.7144C155.927 14.5746 156.36 14.4348 156.794 14.2951C151.546 14.3482 140.911 13.5892 143.778 14.3827C142.576 14.3109 141.374 14.2391 140.172 14.1672C139.156 14.2907 138.14 14.4141 137.124 14.5376C135.721 14.517 134.318 14.4964 132.914 14.4758C132.908 14.4066 132.902 14.3374 132.896 14.2682C134.015 14.2725 135.134 14.2769 136.253 14.2812C135.414 14.0669 134.575 13.8526 133.736 13.6382C132.91 13.6697 132.084 13.7012 131.258 13.7327C134.721 13.9467 130.153 14.253 129.046 14.5265C126.125 14.617 124.26 14.2479 123.281 14.2274C122.821 14.2177 117.396 14.832 119.525 14.1407C116.734 14.2139 113.944 14.2871 111.153 14.3603C110.062 14.302 108.972 14.2436 107.881 14.1853C110.25 13.8692 103.39 13.4471 108.445 13.3332C112.221 13.2478 113.149 13.5567 114.94 13.5622C116.555 13.5675 117.41 13.3658 119.167 13.3641C130.985 13.3564 140.61 13.4349 151.833 13.5734C154.051 13.6011 156.068 13.5089 157.557 13.5293C159.239 13.5527 157.131 13.8014 159.274 13.7478C161.524 13.691 162.011 13.4828 162.605 13.4811C162.975 13.4803 164.146 13.6744 165.224 13.679C169.656 13.6978 176.15 13.5424 176.78 13.5461C177.491 13.5513 190.023 13.7751 190.623 13.8087C190.941 13.8269 190.278 14.5226 193.044 13.7897C193.905 13.7795 194.767 13.7693 195.629 13.7591C195.489 13.8981 195.349 14.0371 195.208 14.176C200.316 13.6686 198.559 13.9571 203.48 13.9365C215.264 13.8864 232.647 14.0777 245.535 14.0831C248.414 14.084 249.511 13.9215 252.915 13.9239C256.079 13.9268 264.336 14.4604 262.543 13.7621C269.579 14.3901 270.714 13.3635 274.235 14.0217C274.662 13.9299 275.089 13.8381 275.515 13.7463C279.338 14.1641 280.52 13.8162 284.696 13.7853C286.496 13.7718 284.42 14.1901 288.054 13.7299C288.748 13.7683 289.442 13.8066 290.136 13.845C289.974 13.9476 289.812 14.0503 289.65 14.153C293.684 14.0855 293.944 14.1405 293.486 13.7518C295.433 13.8304 297.38 13.9091 299.327 13.9877C299.57 13.8618 299.813 13.7359 300.055 13.6099C299.123 13.3638 254.901 13.5415 248.741 13.6316C241.52 13.3136 227.01 13.6113 221.175 13.5183C218.841 13.481 217.81 13.1895 214.412 13.1405C211.015 13.0916 206.74 13.3343 204.931 13.3359C198.905 13.3428 170.356 13.1644 189.774 12.8896C189.217 12.7472 188.659 12.6049 188.101 12.4626C180.383 12.9075 183.179 12.6253 176.776 12.5488C174.081 12.5163 167.671 12.8017 168.031 12.1675C173.036 12.0704 178.353 12.2961 182.705 12.3054C183.136 12.3062 188.29 12.0378 190.942 12.1279C193.334 12.2101 191.684 12.8091 196.892 12.1507C200.755 12.8318 202.992 12.2383 204.014 12.1785C205.779 12.0748 205.971 12.4037 207.735 12.4494C209.656 12.4998 210.98 12.2876 211.243 12.2873C213.878 12.2935 227.604 12.322 228.233 12.457C227.681 12.5128 227.129 12.5687 226.576 12.6245C230.141 12.7333 229.397 12.3947 230.335 12.3585C231.032 12.3627 231.73 12.3668 232.428 12.371C232.151 12.4394 231.874 12.5078 231.597 12.5762C235.807 12.5793 232.587 12.3239 238.563 12.3555C242.357 12.3759 246.275 12.6581 246.644 12.64C246.753 12.6349 245.559 12.4507 247.106 12.4333C249.667 12.4047 254.094 12.428 254.588 12.6737C255.842 12.6446 255.736 12.4057 255.903 12.401C256.631 12.3808 269.159 12.3529 271.403 12.3483C277.622 12.3359 284.545 12.4161 291.283 12.4046C291.975 12.4035 291.533 12.5546 292.227 12.5526C293.341 12.5495 299.064 12.3337 299.918 12.3203C302.052 12.2878 307.663 12.4069 308.546 12.3411C308.672 12.3317 306.826 12.1171 308.985 12.0622C311.383 12.0014 310.091 12.274 310.221 12.2774C315.1 12.3931 318.181 12.213 321.512 12.1897C322.591 12.1823 324.582 12.4001 326.105 12.3447C326.281 12.3384 325.934 12.1435 326.106 12.1348C328.408 12.0431 330.56 12.4112 331.556 12.4386C333.992 12.5058 332.667 12.2353 332.794 12.2339C334.417 12.2324 336.602 12.3372 339.07 12.335C350.076 12.3253 359.058 12.3472 370.758 12.4145C372.227 12.4228 373.97 12.617 374.195 12.6182C374.89 12.6198 374.692 12.3994 376.701 12.4128C380.935 12.442 384.861 12.4481 389.054 12.4701C389.899 12.4745 390.258 12.6795 390.901 12.6866C393.06 12.7085 400.424 12.207 400.542 12.8704C404.83 12.3017 407.674 12.8195 411.122 12.8285C419.29 12.8505 432.081 12.7852 440.224 12.8958C441.939 12.9194 442.742 13.0926 443.696 13.1058C445.407 13.13 455.185 13.0766 455.697 13.1055C456.701 13.1612 456.096 13.9066 461.262 13.2768C464.29 13.2432 463.931 13.5486 464.557 13.5678C469.436 13.7118 474.186 13.0469 473.296 13.6708C478.978 13.5245 482.661 13.1932 484.977 13.7899C484.948 13.5034 487.621 13.3429 490.841 13.4657C487.541 13.9329 487.948 14.2421 479.974 14.1203C479.849 14.1183 480.089 13.9122 479.964 13.9103C478.825 13.8915 476.449 13.986 474.508 13.9665C472.567 13.947 473.646 13.81 472.869 13.8094C472.158 13.8092 472.18 14.0075 471.151 14.006C467.812 13.9995 464.857 14.0417 462.957 14.0371C461.76 14.0341 460.422 13.8543 459.493 13.8503C455.902 13.8365 448.293 13.9402 443.724 13.9018C442.771 13.8934 443.172 13.6996 441.089 13.6746C440.846 13.6717 439.958 13.8717 438.134 13.9062C436.31 13.9407 434.896 13.8336 433.724 13.8497C432.745 13.8631 433.154 14.0459 431.146 14.0487C429.472 14.0508 410.515 13.8399 409.485 13.8067C408.005 13.7588 407.302 13.5016 406.398 13.5287C406.239 13.5347 405.968 13.7791 405.417 13.7943C396.327 14.046 376.211 13.6257 365.824 13.5837C344.115 13.4951 324.086 13.5547 302.184 13.5189C301.793 13.5599 301.402 13.601 301.011 13.6421C303.225 13.6531 305.439 13.6641 307.653 13.6751C307.667 13.7907 307.68 13.9064 307.694 14.022C310.687 14.053 310.292 13.778 310.208 13.6127C311.315 13.6874 312.423 13.7621 313.53 13.8368C314.487 13.4381 321.873 13.7373 325.681 13.7528C328.158 13.7633 331.105 13.6223 332.411 13.6397C335.171 13.6761 335.097 13.9243 335.314 13.9291C335.682 13.9363 339.536 13.7335 342.314 13.7538C346.422 13.7832 346.865 14.1667 352.49 13.8665C359.694 14.095 367.679 14.0292 375.445 14.0298C373.965 14.3762 380.927 14.0719 384.065 14.0907C403.214 14.2065 426.749 14.4569 446.148 14.6787C448.641 14.7069 450.524 14.9227 451.913 14.9217C452.666 14.9213 452.996 14.6778 454.042 14.7146C454.226 14.7216 454.353 14.9512 456.3 14.994C461.145 15.1012 473.217 14.7701 476.27 15.2227C492.838 15.225 509.406 15.2273 525.975 15.2296C526.39 15.325 526.806 15.4203 527.222 15.5157C530.371 15.0508 542.812 15.3846 548.88 15.3878C559.559 15.3929 573.186 15.302 582.543 15.3255C584.576 15.3306 586.242 15.4733 588.166 15.4787C588.994 15.4808 590.025 15.3093 590.887 15.3121C600.562 15.3397 613.66 15.5764 623.411 15.6136C645.548 15.6983 666.396 15.8134 688.825 15.9007C764.384 16.1937 839.508 16.2536 914.422 16.6756C915.426 16.6813 915.375 16.8833 916.154 16.888C920.748 16.9173 931.009 16.7941 936.198 16.8253C940.333 16.8499 946.894 17.1869 948.318 16.8816C933.632 16.348 918.113 16.3176 902.823 16.121C901.736 16.1071 901.602 15.9143 901.468 15.9102C898.993 15.8329 900.555 16.1043 896.965 16.1011C895.765 16.1 884.686 15.4392 886.002 16.0558C883.349 15.8001 864.641 15.5986 861.03 15.6643C859.934 15.6843 860.709 15.8686 860.492 15.8768C859.546 15.9128 859.121 15.6614 858.276 15.6514C856.025 15.6263 850.298 15.8045 849.21 15.7985C846.706 15.7857 839.202 15.5507 835.896 15.5845C832.866 15.6154 833.432 15.8785 830.813 15.8913C828.748 15.9008 830.998 15.691 826.388 15.6052C824.104 15.5631 816.111 15.6861 814.169 15.6779C812.227 15.6697 810.067 15.5045 807.389 15.5051C803.531 15.5057 795.139 15.557 791.213 15.5903C790.978 15.5922 790.406 15.7926 789.829 15.7859C788.633 15.7723 788.993 15.5233 788.09 15.4941C787.186 15.4649 771.534 15.4291 768.875 15.415C767.043 15.4059 765.777 15.5497 764.764 15.5441C763.97 15.5393 763.886 15.3303 763.075 15.3245C762.824 15.3235 760.687 15.4956 758.553 15.4823C756.537 15.4695 748.881 15.2647 747.994 15.2594C747.416 15.2562 748.049 15.4071 746.342 15.3964C744.786 15.3862 743.764 15.1893 742.877 15.1827C740.82 15.1677 738.518 15.3221 736.335 15.3137C730.058 15.2892 730.382 15.052 730.005 15.0427C728.961 15.0167 728.542 15.2334 728.199 15.2364C726.752 15.2486 723.205 15.2739 721.914 15.2769C720.307 15.2807 719.627 15.0702 717.92 15.0622C716.648 15.057 714.077 15.2485 711.174 15.246C704.629 15.2415 696.846 15.2467 690.419 15.2117C688.502 15.2015 688.209 15.0107 687.623 15.0033C684.544 14.9643 682.82 15.1688 681.941 15.1623C675.672 15.1167 664.492 14.7369 658.675 14.684C656.307 14.6627 645.937 14.7722 640.086 14.7199C639.417 14.7143 640.044 14.5683 639.3 14.5884C637.518 14.6366 637.682 14.9398 636.778 14.9269C636.342 14.9197 635.348 14.7449 634.078 14.7225C627.492 14.6065 622.962 14.72 619.957 14.6981C591.101 14.4876 561.675 14.2836 534.726 14.1425C531.721 14.127 527.995 14.2911 523.459 14.0972C523.32 14.0026 523.181 13.908 523.042 13.8134C522.883 13.9051 522.724 13.9968 522.564 14.0885C517.426 14.1167 515.484 14.2274 510.237 14.0875C509.785 14.0757 508.408 13.6408 507.552 14.1701C502.356 13.762 505.206 14.1633 501.348 14.1828C497.49 14.2024 493.741 14.0675 490.001 14.0249C487.951 13.8252 496.557 13.4214 497.118 13.4252C498.021 13.4307 498.959 13.6997 499.828 13.7174C502.405 13.7705 504.898 13.5708 505.475 13.8097C508.806 13.5738 504.66 13.6812 505.077 13.4577C507.299 13.5603 509.522 13.6629 511.744 13.7655C512.88 13.0043 525.158 14.0554 524.307 13.4685C525.284 13.5894 526.26 13.7103 527.237 13.8312C531.524 13.1176 534.042 13.6436 539.756 13.8855C539.344 13.7902 538.932 13.6949 538.52 13.5995C538.637 13.561 543.681 13.4327 541.876 13.8237C547.049 13.3204 546.828 14.1932 551.466 13.5812C554.219 13.5119 552.562 13.8717 557.491 13.8863C560.412 13.8951 564.039 13.7187 567.303 13.7192C568.055 13.7199 568.381 13.9337 569.05 13.9365C569.719 13.9393 570.046 13.7324 570.857 13.7306C572.53 13.7264 574.7 13.8818 575.746 13.8721C576.683 13.8641 578.024 13.6861 580.284 13.6668C588.174 13.5981 585.79 13.8504 587.036 13.9444C588.374 14.0445 589.338 13.7029 592.007 13.7543C592.275 13.7597 591.582 13.9722 592.452 13.9674C593.154 13.9638 593.508 13.7311 595.834 13.6973C596.76 13.6836 611.134 13.6944 613.324 13.6995C616.68 13.7074 624.155 13.9373 627.628 13.9506C628.967 13.9562 630.398 13.7743 631.82 13.7816C636.532 13.8058 644.075 13.8537 650.051 13.8882C655.432 13.9195 664.876 14.3745 667.825 14.0124C675.381 13.9958 677.215 14.3237 677.784 14.3305C679.324 14.349 680.038 14.14 681.98 14.1383C707.13 14.1217 740.247 14.4024 764.066 14.4865C819.32 14.6799 874.875 14.7996 930.321 15.1207C930.469 15.0274 930.618 14.934 930.767 14.8406C924.214 14.7523 916.514 14.5563 910.044 14.4915C901.408 14.4056 888.594 14.7427 882.261 14.0734C884.831 14.028 889.015 14.2921 888.942 13.9614C884.349 13.9183 879.756 13.8752 875.163 13.8321C875.299 13.9853 875.436 14.1385 875.572 14.2916C870.776 14.3157 865.872 14.2616 861.059 14.263C860.223 14.2631 860.815 14.4041 860.087 14.4017C859.272 14.3988 859.825 14.2602 859.673 14.2584C857.614 14.2482 856.992 14.3882 856.741 14.3851C856.097 14.3767 856.598 14.2431 854.74 14.1972C851.294 14.1115 848.824 14.4617 849.637 13.8643C848.524 13.8596 847.411 13.8548 846.298 13.8501C846.01 14.0125 845.721 14.1748 845.432 14.3372C838.59 13.6477 835.429 14.7928 831.651 13.8576C830.403 13.9927 829.155 14.1277 827.908 14.2628C827.205 14.0963 826.503 13.9297 825.801 13.7632C825.663 13.903 825.526 14.0428 825.388 14.1826C818.669 14.0506 811.513 14.1887 805.086 14.1453C800.609 14.115 799.537 14.0551 795.571 14.0488C786.75 14.0353 795.511 13.794 788.183 13.4621C788.564 13.6358 788.945 13.8095 789.326 13.9832C788.111 14.0412 786.897 14.0991 785.683 14.157C784.839 14.013 783.994 13.8691 783.15 13.7251C779.398 14.4373 776.972 13.8393 776.461 13.8371C776.049 13.8367 774.631 14.269 770.196 13.8789C772.033 14.486 766.811 13.8681 766.393 13.8628C765.995 13.8587 760.908 13.9709 758.844 13.9565C757.22 13.9454 753.757 13.8017 751.338 13.7977C749.203 13.7943 749.419 13.9987 749.263 14.0001C746.635 14.0059 748.283 13.8548 746.383 13.839C744.483 13.8232 743.008 13.9903 742.598 13.9731C742.392 13.9639 743.083 13.7774 742.138 13.7551C739.602 13.6944 735.015 13.8409 732.112 13.8236C731.083 13.8177 729.786 13.6515 728.64 13.6417C726.883 13.6272 726.061 13.8373 725.04 13.8266C724.685 13.8223 722.419 13.4828 719.602 13.5215C719.066 13.5294 717.488 14.2208 715.4 13.223C715.238 13.3614 715.076 13.4999 714.915 13.6384C705.464 13.9428 702.84 12.8012 698.634 13.7866C691.774 13.6455 696.485 13.2747 695.732 13.2116C695.246 13.1717 693.008 13.2696 692.763 13.2625C692.327 13.2486 692.403 13.1235 691.926 13.1222C683.18 13.1084 687.062 13.3617 684.291 13.5C677.703 13.8292 672.568 13.0144 684.023 13.3011C684.023 13.2311 684.024 13.1611 684.024 13.0911C681.203 13.1461 674.042 13.0839 676.435 12.7391C678.319 12.4674 695.307 12.722 685.687 12.2889C683.503 12.1908 682.37 12.4487 678.589 11.9402C676.088 11.9029 675.725 12.5393 672.338 12.2689C672.894 12.4938 673.45 12.7187 674.006 12.9437C669.385 13.2142 663.688 12.8009 660.139 12.9105C658.933 12.9479 654.585 13.9906 655.602 12.934C653.575 12.9915 644.028 12.7556 642.253 12.8432C641.826 12.8644 641.269 13.4268 635.095 13.2034C634.667 13.1308 634.238 13.0582 633.809 12.9856C639.457 12.8039 629.485 12.5523 632.196 12.0278C633.116 12.2727 637.593 12.4386 638.313 12.5628C639.543 12.7766 635.877 13.0298 640.547 12.9763C643.495 12.093 635.076 12.4695 636.366 11.6244C630.233 11.9955 629.622 11.614 628.234 11.5924C622.301 11.5031 618.566 11.5774 612.968 11.4544C611.603 11.6233 621.737 11.9185 622.993 11.8484C618.37 12.4481 626.322 12.5099 629.679 12.1563C629.96 12.3447 630.241 12.5331 630.522 12.7214C626.154 12.6014 621.893 12.5313 617.565 12.6665C617.284 12.5953 617.002 12.5241 616.721 12.4529C617.692 12.3517 618.663 12.2504 619.634 12.1491C616.037 11.9613 618.192 12.5162 613.4 12.0177C613.251 12.2279 613.101 12.438 612.952 12.6481C608.355 12.5586 603.759 12.4692 599.162 12.3797C596.767 12.7922 587.922 12.5972 589.544 12.0569C585.974 12.0032 590.381 12.3131 587.034 12.432C585.578 12.4836 582.732 12.4878 582.029 12.3375C582.334 11.8178 586.594 11.7712 587.884 11.4188C587.102 11.3 567.294 11.5881 569.063 10.9862C567.481 10.9062 568.207 11.2232 565.354 11.2915C557.361 11.4817 544.983 10.8087 538.544 11.5599C546.1 12.0252 548.337 11.5758 554.128 11.582C557.828 11.5857 580.383 11.6075 575.342 12.1371C576.171 12.0706 577 12.0041 577.829 11.9377C578.665 12.1052 579.502 12.2727 580.339 12.4402C577.979 12.4538 575.619 12.4674 573.259 12.481C572.696 12.3151 572.133 12.1491 571.571 11.9831C571.31 12.0988 571.05 12.2145 570.789 12.3302C569.796 12.3491 568.802 12.3681 567.808 12.3871C568.088 12.2479 568.368 12.1087 568.647 11.9695C567.116 11.939 565.585 11.9085 564.054 11.878C564.465 12.0673 564.877 12.2567 565.288 12.446C558.076 12.4626 560.519 12.3555 556.52 11.9877C553.534 11.9391 558.577 12.3211 552.258 12.3859C544.91 12.461 549.733 11.9083 540.217 11.9906C540.08 12.0836 539.942 12.1766 539.805 12.2696C537.713 12.1671 535.621 12.0646 533.529 11.9622C533.805 12.0797 534.081 12.1973 534.357 12.3148C530.039 12.2514 524.087 12.4483 522.658 11.9857C527.034 12.224 526.995 11.4267 525.857 11.2754C523.508 10.9647 488.797 11.0973 482.069 11.0885C473.466 11.0773 466.965 10.7944 459.105 11.1534C464.429 11.4978 483.156 11.3136 486.704 11.5512C487.055 11.5745 486.953 12.3048 489.216 11.4923C496.496 11.6626 505.201 11.4666 514.297 11.5291C514.018 11.7383 513.739 11.9474 513.461 12.1566C507.872 11.6855 502.693 12.6462 503.424 11.8321C502.312 11.8274 501.199 11.8226 500.086 11.8179C500.086 11.9587 500.085 12.0995 500.084 12.2403C498.407 12.2332 496.73 12.226 495.052 12.2189C495.053 12.0781 495.053 11.9374 495.054 11.7966C493.665 11.7907 492.275 11.7848 490.886 11.7789C490.741 11.9187 490.596 12.0584 490.45 12.1982C486.291 11.889 472.105 12.6084 478.344 11.7965C476.39 11.7882 474.436 11.7799 472.482 11.7717C472.488 11.8746 472.494 11.9776 472.5 12.0806C471.66 12.0908 470.82 12.1011 469.98 12.1114C470.257 12.0194 470.534 11.9274 470.811 11.8354C466.961 11.986 463.313 11.48 460.785 11.7916C462.451 11.8691 464.118 11.9466 465.785 12.024C462.588 11.8767 456.697 12.1288 456.17 12.1273C454.563 12.1219 453.717 11.9102 451.976 11.8922C450.404 11.8765 450.62 12.0374 450.327 12.0305C441.851 11.8317 445.085 10.9797 441.123 11.9878C440.703 11.846 440.282 11.7043 439.861 11.5625C439.3 11.6769 438.739 11.7913 438.177 11.9057C435.674 11.8841 433.171 11.8625 430.668 11.8409C431.502 12.0194 432.336 12.1979 433.17 12.3764C429.417 12.4386 427.669 12.0804 427.305 12.0708C426.277 12.046 425.805 12.2642 425.487 12.2633C410.197 12.1794 419.485 12.0249 411.847 11.1654C409.121 11.4784 411.877 11.8155 412.262 12.1474C408.64 11.9771 407.509 12.0637 403.685 12.0292C402.69 12.02 401.62 11.8373 400.992 11.8322C400.449 11.8278 398.748 12.0099 397.442 12.0052C395.266 11.9974 392.371 11.8722 389.391 11.8624C386.914 11.8547 379.33 11.9562 374.041 11.9352C371.783 11.9256 372.308 11.7695 371.725 11.7667C371.482 11.7657 369.722 11.9479 368.275 11.9425C356.466 11.8967 344.364 11.7253 332.497 11.6785C324.136 11.6451 315.639 11.7616 307.262 11.7106C305.479 11.6995 306.424 11.5643 305.645 11.5561C305.378 11.5537 305.055 11.7953 302.299 11.6859C301.303 11.6465 302.449 11.4814 301.47 11.4688C300.994 11.4627 300.79 11.6749 298.004 11.7116C292.941 11.7789 290.221 11.4834 289.769 11.49C288.917 11.5027 289.165 11.68 288.036 11.6816C282.513 11.6891 277.902 11.6995 272.973 11.6934C270.672 11.6907 254.803 11.659 253.932 11.6236C251.982 11.5449 253.799 11.1845 251.298 11.1864C250.598 11.2766 249.897 11.3668 249.196 11.457C250.308 11.5326 251.421 11.6081 252.533 11.6836C249.471 11.5523 245.997 11.7049 243.729 11.689C243.31 11.6858 239.454 11.5025 237.487 11.5124C238.323 11.4467 239.16 11.3811 239.996 11.3155C239.701 11.2552 239.405 11.195 239.11 11.1347C235.176 11.2075 231.016 11.1875 226.982 11.1578C225.528 11.1473 226.02 11.006 224.547 10.9949C215.971 10.9283 218.134 11.5334 209.887 10.3797C212.673 10.493 222.838 10.3937 224.315 10.4372C225.345 10.4677 229.333 11.4299 227.873 10.4535C236.108 10.4927 228.952 10.9974 236.644 10.9131C236.491 10.794 236.338 10.675 236.185 10.5559C238.87 10.4927 240.854 10.4413 242.484 10.6571C243.034 10.085 252.156 10.4598 257.16 10.4423C264.391 10.418 272.561 10.3125 279.725 10.3182C282.193 10.3203 283.59 10.5514 283.899 10.552C284.352 10.5523 285.624 10.3605 286.528 10.3629C289.901 10.3716 300.161 10.7485 302.716 10.2119C282.646 10.1268 262.577 10.0417 242.507 9.95654C245.029 10.2363 224.727 10.1765 223.698 10.1588C222.745 10.1427 223.548 9.95718 223.265 9.94452C221.156 9.85455 219.355 10.1208 218.685 10.118C218.175 10.1158 217.144 9.98288 215.328 9.978C214.995 9.97698 214.902 10.1125 214.544 10.1114C212.176 10.1013 209.838 10.0895 207.461 10.0801C207.316 10.0782 206.717 9.87713 206.117 9.87424C205.515 9.87168 204.92 10.0675 204.768 10.0675C202.868 10.058 199.612 9.91519 197.804 9.90612C197.177 9.90352 197.611 10.0507 196.908 10.0464C194.749 10.0337 195.462 9.75212 192.791 9.81406C191.896 9.83495 191.953 10.0528 190.24 10.0169C189.027 9.99128 189.159 9.60401 188.966 9.5891C188.701 9.57095 184.511 9.85946 183.143 9.59981C186.139 8.94236 179.868 9.55095 180.168 9.83499C178.509 9.75675 176.85 9.67851 175.191 9.60026C174.625 9.66948 174.058 9.73869 173.492 9.8079C166.798 9.45684 162.712 9.63325 156.126 9.50599C155.808 9.4997 150.259 9.31696 150.519 9.21732C153.842 9.05813 157.156 9.06427 159.281 9.39363C162.781 8.79765 162.84 9.28467 168.489 9.22761C170.381 9.20816 170.516 9.04301 170.733 9.04182C178.09 8.9906 189.872 8.96926 194.825 9.47479C196.215 9.34965 191.221 9.27649 193.163 9.18821C194.222 9.13985 219.71 9.09319 211.565 9.61659C212.411 9.60471 213.256 9.59283 214.101 9.58095C214.948 9.05756 219.151 9.1959 218.672 9.71874C219.07 9.61301 219.469 9.50729 219.868 9.40156C220.655 9.31401 221.586 9.26928 222.891 9.24593C227.891 9.15727 257.634 9.4662 259.215 9.39753C259.252 9.27318 259.288 9.14882 259.325 9.02447C246.186 8.82784 233.437 9.08318 219.11 8.66594C219.526 8.78448 219.941 8.90302 220.357 9.02156C214.641 8.83375 208.924 8.64593 203.208 8.45812C209.26 8.27243 218.887 8.13576 225.239 8.33671C226.368 8.37253 225.539 8.53188 225.799 8.5527C226.476 8.60681 227.206 8.32736 229.641 8.31022C232.077 8.29311 238.195 8.51936 238.756 8.5161C239.837 8.50906 242.756 8.19816 244.596 8.21007C247.015 8.22596 245.393 8.41918 245.878 8.42546C247.886 8.45364 249.687 8.36213 251.26 8.38359C253.596 8.41549 258.446 8.78793 260.081 8.27818C258.412 8.2475 256.744 8.21683 255.076 8.18615C264.124 8.03923 271.195 8.72971 280.11 8.25814C282.138 7.64112 274.773 7.69444 281.001 7.45383C279.87 7.45799 278.739 7.46214 277.609 7.4663C277.343 7.59619 277.078 7.72609 276.812 7.85598C274.865 7.75414 272.918 7.65229 270.97 7.55045C271.526 7.66958 272.081 7.78872 272.636 7.90785C265.731 7.96663 258.758 8.0568 256.35 7.41887C256.208 7.57004 256.065 7.7212 255.922 7.87237C249.512 7.66065 239.886 8.26311 241.688 7.42627C241.384 7.46974 241.08 7.51321 240.777 7.55668C236.902 7.36764 238.556 7.72387 237.1 7.75714C236.684 7.76649 229.153 7.55424 232.492 7.31769C225.145 7.09492 227.407 7.8938 225.383 7.91985C220.681 7.5089 212.218 8.05954 215.777 7.45676C215.077 7.4306 214.376 7.40444 213.676 7.37827C211.372 7.85462 209.106 7.29499 206.613 7.10052C205.768 7.08595 204.923 7.07138 204.078 7.05681C203.511 7.21798 202.944 7.37915 202.378 7.54031C194.43 6.7281 196.939 8.86783 193.314 7.06365C193.88 6.95904 194.447 6.85443 195.013 6.74982C196.355 6.70465 197.698 6.65948 199.04 6.61431C193.627 6.54416 188.215 6.47401 182.803 6.40386C175.935 5.87334 172.023 6.40076 164.393 5.97178C163.678 6.01636 162.963 6.06094 162.249 6.10551C162.978 5.70351 165.75 5.77479 160.587 5.57113C160.149 5.28286 163.636 5.26058 165.224 5.48704C165.608 5.54228 162.346 5.74784 166.011 5.77113C168.502 5.78723 163.98 5.42384 171.443 5.58299C171.167 5.51184 170.891 5.44068 170.614 5.36952C171.424 5.37499 172.233 5.38045 173.042 5.38592C173.761 5.55091 174.48 5.7159 175.199 5.8809C177.05 5.65484 178.089 5.33147 182.315 5.41914C181.168 5.51571 182.722 5.8475 184.814 5.85087C184.815 5.73369 184.815 5.61651 184.816 5.49933C189.88 5.44542 188.13 5.78181 192.341 5.53124C192.762 5.6262 193.183 5.72117 193.604 5.81613C195.898 5.44189 204.343 5.21649 202.8 5.78555C205.171 5.23621 210.144 5.5097 211.992 5.96491C212.135 5.84914 212.277 5.73338 212.42 5.61761C213.405 5.59819 214.389 5.57876 215.374 5.55934C215.923 5.63206 216.472 5.70478 217.021 5.7775C217.719 5.71007 218.417 5.64264 219.116 5.57521C219.536 5.69377 219.957 5.81233 220.378 5.9309C221.5 5.79568 222.622 5.66047 223.745 5.52526C224.431 5.62135 225.117 5.71744 225.802 5.81352C225.874 5.57025 232.674 5.54485 234.573 5.71278C235.139 5.64438 235.705 5.57598 236.272 5.50759C236.548 5.62472 236.824 5.74186 237.1 5.85899C237.522 5.76801 237.943 5.67703 238.365 5.58604C239.335 5.68293 240.305 5.77981 241.275 5.8767C245.236 5.32498 245.362 5.82431 246.266 5.82462C247.941 5.8252 253.649 5.49339 254.603 5.51575C255.556 5.53824 256.015 5.74424 256.784 5.76669C269.461 6.141 264.252 5.57134 266.796 5.49544C268.168 5.45406 269.139 5.64853 270.352 5.63259C272.428 5.60616 282.9 5.3987 283.502 5.42591C284.379 5.4652 282.311 6.35409 285.163 6.13484C285.259 5.65325 291.355 6.16559 288.508 5.48131C291.018 5.55096 293.529 5.62061 296.04 5.69026C295.758 5.11769 298.853 5.4983 302.225 5.4809C307.005 5.45673 317.767 5.1267 317.371 5.71114C318.517 5.58132 319.662 5.45149 320.807 5.32167C328.639 5.53939 336.323 5.37864 344.097 5.40457C367.172 5.48058 392.204 5.71399 415.169 5.92692C416.273 5.93731 416.114 6.1281 416.909 6.13571C421.085 6.17455 431.941 6.08516 437.791 6.15224C439.665 6.17358 440.576 6.36421 441.17 6.37531C443.187 6.41416 442.712 6.16607 443.641 6.17705C445.106 6.19457 452.856 6.45585 455.525 6.49112C456.847 6.50858 458.411 6.31969 459.959 6.38663C460.092 6.3921 459.845 6.59258 459.958 6.59659C462.778 6.63321 461.082 6.45182 462.036 6.46502C468.84 6.55939 476.113 6.59424 483.494 6.6671C485.327 6.68544 488.131 6.8394 489.705 6.85945C490.305 6.86673 489.229 6.70927 491.303 6.73074C492.014 6.73808 492.256 6.93794 493.058 6.95424C496.514 7.02314 497.673 6.38911 500.641 6.9156C506.374 6.90609 516.354 6.78435 521.585 6.80301C522.822 6.80766 523.424 6.92765 524.604 6.93055C525.44 6.93269 526.914 6.75702 528.219 6.76034C529.525 6.76377 531.585 6.94575 534.096 6.95006C536.739 6.95491 540.027 6.86594 540.623 6.8691C541.342 6.87215 541.677 7.09239 542.397 7.09268C544.573 7.09486 550.4 6.90451 553.203 6.89315C556.216 6.88129 558.024 6.99505 559.053 6.99731C560.007 6.99842 561.119 6.81849 561.555 6.81871C562.232 6.81877 562.392 7.03523 563.252 7.03708C564.658 7.03952 566.108 6.90997 568.216 6.91531C606.179 7.00938 643.399 7.28578 680.333 7.59952C684.45 7.63459 686.777 7.49313 692.844 7.58789C695.304 7.62649 694.267 7.84477 696.182 7.81078C697.035 7.79537 696.82 7.61933 697.899 7.61543C702.67 7.59902 708.228 7.78534 710.295 7.79128C711.115 7.79393 712.053 7.599 713.734 7.60324C726.263 7.63382 741.085 7.75252 754.568 7.77519C761.707 7.78714 772.515 7.73163 780.709 7.75299C803.347 7.81166 827.701 7.96102 848.348 8.02885C879.523 8.13218 910.55 8.07983 941.658 8.42945C927.106 7.88655 907.287 7.84267 891.085 7.72183C844.284 7.37399 794.452 7.44221 746.488 7.22823C729.799 7.15394 708.758 7.07578 690.489 6.88699C689.66 6.87855 687.942 7.02423 686.151 7.00043C685.771 6.99504 681.054 6.69599 679.465 6.68644C680.969 7.18881 674.744 6.72036 672.819 6.72417C670.391 6.72946 665.327 6.95586 659.646 6.79159C654.491 6.64292 655.914 6.45816 655.629 6.44498C653.806 6.35992 653.169 6.66469 651.772 6.68984C646.063 6.78963 616.704 6.48649 608.51 6.44046C606.393 6.42866 606.334 6.23296 605.857 6.23024C604.594 6.22358 602.794 6.40899 600.77 6.39909C597.121 6.3808 592.919 6.17851 590.91 6.16929C586.106 6.14681 576.989 6.32575 570.746 6.3035C568.99 6.29732 569.098 6.0944 568.304 6.09173C564.804 6.08046 555.69 6.28148 551.347 6.26518C544.292 6.23877 537.035 6.07652 529.862 6.11303C529.408 6.02037 528.954 5.9277 528.5 5.83504C527.782 5.92721 527.065 6.01938 526.347 6.11155C514.221 5.98757 501.875 6.13956 489.816 6.07503C488.426 6.06772 481.548 5.86492 480.401 5.85933C479.447 5.85528 478.507 6.07605 477.093 6.03694C475.112 5.9826 476.978 5.56248 473.741 5.67117C472.87 5.70059 473.713 5.88739 471.965 5.93707C471.387 5.95364 460.179 5.98034 459.576 5.9651C458.572 5.93948 457.679 5.54315 457.419 5.5336C456.072 5.48358 456.128 5.78507 455.224 5.80871C452.558 5.87964 449.074 5.66222 448.641 5.66482C443.401 5.69826 433.606 5.89718 428.108 5.73155C427.348 5.70849 427.44 5.48454 427.306 5.47669C426.445 5.42656 425.908 5.67969 425.089 5.68213C420.678 5.69231 413.772 5.49105 409.336 5.42856C408.825 5.42164 407.747 5.53992 406.835 5.52415C401.68 5.43324 403.353 5.24319 403.06 5.23349C402.366 5.20962 401.143 5.42187 399.295 5.42748C394.533 5.44321 385.401 5.37326 380.296 5.3347C376.471 5.30509 376.53 5.05633 376.279 5.05033C375.742 5.03911 374.251 5.2316 371.733 5.24346C366.888 5.26727 367.441 5.074 365.449 5.07399C365.282 5.07328 365.572 5.26596 363.363 5.27632C359.094 5.29619 349.506 5.06733 344.936 5.05779C343.179 5.05386 342.767 5.23672 340.967 5.23261C338.115 5.22683 331.676 4.99983 331.169 4.99819C331.027 4.99758 330.706 5.20862 329.87 5.20507C328.949 5.20114 328.044 5.08799 327.358 5.08578C323.45 5.07214 316.715 5.41424 318.59 4.66408C317.336 4.84594 316.083 5.0278 314.83 5.20965C306.645 5.1376 298.693 5.17886 290.583 5.18251C288.759 5.1832 287.237 5.03318 285.698 5.03362C284.158 5.03413 277.366 5.24284 276.232 5.24249C274.206 5.24165 262.697 5.21787 261.265 5.19489C258.47 5.15063 255.76 4.82583 254.621 4.88229C253.709 4.92774 254.552 5.10785 252.811 5.15049C249.797 5.22423 244.678 4.97576 243.757 4.97538C243.364 4.97515 244.099 5.11587 240.418 5.11014C238.435 5.10737 237.37 4.95125 236.651 4.9489C236.427 4.94875 236.761 5.19601 232.835 5.14634C230.124 5.11159 228.968 4.91703 228.684 4.91512C228.257 4.91204 227.225 5.11006 225.51 5.09574C221.501 5.06108 214.172 4.79796 210.364 4.76419C209.628 4.75754 209.877 5.00311 206.941 4.96817C204.84 4.94306 205.208 4.7501 204.422 4.73898C203.175 4.72172 201.316 4.95202 198.563 4.93264C195.098 4.90808 169.372 4.55192 168.041 4.48216C167.145 4.43539 166.107 4.42827 165.663 4.32072C166.044 4.22101 166.425 4.12131 166.806 4.02161C170.744 4.39385 169.156 3.98077 170.202 3.95911C171.717 3.92819 177.425 4.00424 178.807 3.91992C179.299 3.88944 178.173 3.6684 180.817 3.56835C183.654 3.46143 184.915 3.85179 186.046 3.33052C190.07 3.93164 193.939 3.32814 189.278 3.14281C186.676 3.03946 161.149 2.72268 155.936 2.66817C151.71 2.62422 143.793 2.74715 138.596 2.68496C135.541 2.64805 128.018 2.589 128.337 2.31065C125.626 2.26393 128.494 2.55455 127.925 2.59088C126.734 2.66674 118.272 2.43855 116.67 2.43939C108.769 2.44252 98.7983 2.71291 91.1251 2.3274C91.4826 2.25405 91.8402 2.1807 92.1977 2.10734C93.9224 1.97727 101.923 2.20761 102.828 1.85214C91.1273 1.80252 79.4265 1.7529 67.7257 1.70327C67.9421 2.00996 53.4292 1.9443 52.7437 1.80331C52.9991 1.65628 53.2545 1.50926 53.51 1.36223C61.7085 1.95909 60.9762 1.21299 66.4814 1.63086C68.7231 1.64593 68.0476 1.39836 69.1523 1.35655C80.1492 0.941145 69.3266 1.85945 77.7442 1.67618C75.2122 1.31049 82.1058 1.21001 85.1949 1.17801C85.8979 1.17112 95.1306 1.30024 96.227 1.29925C102.387 1.29367 112.966 1.14408 119.083 1.36445C123.904 1.40814 126.558 1.16656 130.935 1.12663C134.257 1.09634 133.304 1.26999 134.868 1.2788C138.149 1.29765 139.231 0.761255 141.328 1.5247C143.553 1.44014 145.777 1.35558 148.002 1.27103C148.001 1.38821 148.001 1.50539 148 1.62257C149.397 1.6285 150.794 1.63442 152.191 1.64035C152.603 1.52532 153.014 1.41028 153.426 1.29525C157.859 1.47399 156.007 1.74831 156.834 2.08361C157.792 2.11046 158.749 2.13731 159.707 2.16415C160.449 1.91259 161.192 1.66102 161.934 1.40946C166.211 1.44834 170.488 1.48723 174.764 1.52612C175.04 1.64407 175.316 1.76202 175.592 1.87997C175.602 1.76323 175.611 1.64649 175.621 1.52975C182.863 1.53646 190.105 1.54317 197.348 1.54987C199.275 1.37071 187.672 1.17954 186.793 1.16454C181.905 1.08184 168.924 1.2146 168.909 0.798179C165.869 1.09595 156.722 0.980024 153.878 0.59528C158.197 0.635974 162.516 0.676669 166.835 0.717364C166.696 0.57721 166.557 0.437057 166.418 0.296904C171.797 0.882607 172.585 0.854967 178.119 0.346525C178.123 0.533713 178.128 0.720902 178.132 0.908092C181.992 0.273624 188.806 1.40654 189.004 0.603866C191.058 0.677678 193.112 0.751489 195.165 0.825301C199.601 0.74616 192.716 0.0989993 210.079 0.414927C211.276 0.43691 211.026 0.640534 212.825 0.634086C213.344 0.63206 216.317 0.346905 221.999 0.402003C222.886 0.410717 222.952 0.588574 223.873 0.615023C225.998 0.677571 230.233 0.344327 228.309 0.908487C236.726 1.1111 233.239 0.626599 235.851 0.450982C237.592 0.334466 237.24 0.671596 238.747 0.6012C240.612 0.513879 239.245 0.166711 246.708 0.355424C245.87 0.375065 245.033 0.394706 244.195 0.414348C244.616 0.508904 245.037 0.603461 245.458 0.698016C249.718 0.493484 249.314 0.81702 251.325 0.304207C254.421 0.549827 257.1 0.579703 261.335 0.555392C269.562 0.507855 265.347 -0.0718679 274.733 0.724515C276.255 0.624769 277.776 0.525023 279.298 0.425277C281.798 0.659196 279.774 0.930013 283.506 1.00219C280.587 0.438169 288.461 0.672702 289.794 0.186592C289.933 0.304366 290.072 0.422142 290.211 0.539916C291.045 0.543451 291.878 0.546986 292.712 0.550521C292.715 0.456542 292.718 0.362562 292.721 0.268583C293.831 0.343682 294.94 0.418781 296.05 0.49388C296.886 0.404244 297.721 0.314608 298.556 0.224971C299.928 0.427318 301.3 0.629665 302.672 0.832011C303.533 0.849093 304.395 0.866175 305.257 0.883257C304.984 0.742131 304.712 0.601006 304.44 0.459881C305.548 0.511371 306.655 0.56286 307.762 0.614348C306.474 0.37921 307.286 0.113349 310.734 0.135017C313.579 0.152735 310.372 0.618501 316.491 0.445071C316.918 0.432667 317.675 0.0939931 323.457 0.0656864C330.392 0.0317483 327.022 0.265093 328.258 0.278912C328.501 0.281351 330.62 0.118282 332.603 0.102033C333.729 0.092768 334.813 0.236274 334.961 0.236542C335.656 0.233148 335.859 0.0374916 336.821 0.0344743C339.265 0.027931 342.544 0.13813 344.938 0.138473C346.026 0.13886 347.05 0.0267718 347.535 0.0274203C348.288 0.029269 349.243 0.211144 350.004 0.21367C352.816 0.221873 357.087 -0.350029 358.389 0.475053C361.095 -0.267089 366.755 0.668055 366.342 0.160888C373.565 0.382268 392.835 -0.156064 392.266 0.69074C396.36 -0.0180217 395.992 0.506273 397.706 0.502634C399.623 0.498786 398.63 0.353732 400.154 0.366532C403.71 0.396419 407.108 0.471331 410.648 0.489161C410.092 0.603173 409.536 0.717185 408.979 0.831198C412.695 0.884293 411.417 0.608055 415.207 0.571972C422.179 0.50643 419.241 0.710045 420.269 1.01945C419.993 0.723792 428.214 0.804442 429.051 0.846739C429.55 0.872473 427.361 1.24276 432.395 1.14168C432.121 1.02374 431.846 0.905792 431.571 0.787849C433.864 0.957293 440.094 0.781048 441.151 0.824815C441.637 0.845191 444.229 1.79795 446.609 1.0628C446.895 1.18079 447.182 1.29879 447.468 1.41678C450.108 1.28759 452.747 1.15841 455.387 1.02923C455.807 1.24137 456.228 1.45352 456.648 1.66566C457.485 1.66922 458.323 1.67277 459.16 1.67632C458.605 1.4872 458.05 1.29808 457.496 1.10897C462.666 1.21542 468.984 0.947709 470.047 1.58211C471.155 1.47003 472.263 1.35795 473.372 1.24587C474.092 1.45848 474.812 1.67108 475.532 1.88368C480.661 1.85258 480.746 1.71286 484.253 1.50442C484.116 1.66741 483.978 1.83039 483.84 1.99338C486.427 1.77468 491.15 1.58086 494.882 1.56781C496.657 1.56201 499.703 1.80032 500.121 1.78167C500.544 1.76193 504.709 0.894012 505.158 1.66265C511.285 1.34906 513.981 1.7073 516.467 1.70939C518.081 1.71054 518.819 1.52965 520.643 1.51837C523.254 1.50197 525.882 1.60208 527.388 1.5958C528.25 1.59171 528.412 1.41291 529.006 1.40979C531.816 1.39433 530.169 1.57074 533.131 1.57133C533.405 1.57041 535.571 1.36067 538.011 1.39915C539.375 1.4205 542.904 1.68173 543.215 1.68245C544.596 1.68408 543.494 1.1871 548.212 1.77566C548.075 1.6815 547.939 1.58733 547.802 1.49317C553.645 1.28052 554.565 1.7017 555.745 1.73559C555.896 1.7386 557.319 1.58333 558.17 1.60915C559.607 1.65324 560.186 1.87652 560.504 1.8876C561.625 1.92618 565.403 1.84505 567.871 2.06899C567.355 1.43836 576.007 1.25154 577.921 1.97123C579.453 1.83735 580.985 1.70347 582.517 1.56959C583.209 1.68971 583.901 1.80983 584.594 1.92995C585.015 1.81496 585.437 1.69997 585.859 1.58498C588.09 1.8516 590.32 2.11821 592.551 2.38483C592.694 2.12787 592.838 1.87092 592.981 1.61396C593.606 1.64591 594.23 1.67785 594.855 1.7098C595.342 1.91653 595.829 2.12326 596.316 2.33C597.097 2.29425 597.878 2.2585 598.66 2.22275C598.854 2.07546 599.048 1.92818 599.242 1.78089C603.441 1.62797 601.278 3.03142 609.283 1.82348C610.527 1.94553 611.771 2.06758 613.015 2.18964C614.423 1.62726 617.056 1.98257 619.182 1.92771C620.68 1.88898 620.599 1.66286 622.64 1.6665C624.682 1.67023 624.609 1.88584 624.767 1.88792C626.432 1.90826 627.688 1.72321 628.909 1.76633C629.093 1.77275 629.553 2.03111 631.109 2.05397C632.666 2.07678 633.605 1.80805 635.923 1.86932C637.111 1.90043 637.453 2.11792 638.507 2.1415C643.528 2.25579 648.59 1.18327 652.35 2.49683C653.2 2.33603 659.36 1.78668 661.995 1.83096C666.093 1.90119 664.513 2.14902 666.142 2.20255C666.376 2.21058 667.625 2.1299 671.063 2.15994C671.679 2.16535 671.536 2.02103 671.625 2.0195C675.633 2.03932 683.417 2.18578 687.819 2.2249C688.213 2.22868 690.274 1.83683 693.761 2.39047C698.935 2.01439 708.673 2.91083 715.496 2.33983C716.442 2.33116 717.589 2.47932 718.008 2.47621C721.616 2.44712 720.295 2.00649 728.444 2.67794C727.786 2.45329 729.693 2.26109 732.387 2.28939C736.438 2.33194 733.559 2.73344 736.815 2.71343C736.815 2.59666 736.816 2.47988 736.816 2.36311C744.304 2.70897 745.797 2.21602 753.312 2.24508C756.015 2.25584 760.007 2.53155 760.652 2.53499C760.901 2.53529 763.859 2.26629 764.141 2.26537C765.731 2.26366 766.628 2.39728 768.001 2.4038C772.537 2.42579 777.951 2.08249 776.969 2.74334C778.217 2.60826 779.465 2.47317 780.712 2.33809C785.421 3.06822 788.949 2.10442 789.934 2.79833C790.777 2.65949 791.62 2.52065 792.463 2.38182C812.672 2.53954 832.881 2.69726 853.091 2.85499C853.895 2.63647 862.707 2.75261 863.159 2.78905C865.234 2.95427 863.04 3.42892 867.275 3.33628C867.744 3.12628 868.214 2.91628 868.684 2.70628C874.006 2.65982 871.445 2.85991 873.546 3.01253C874.423 2.99011 874.141 2.8244 875.329 2.81746C881.773 2.77928 894.987 2.82755 902.034 2.84405C903.455 2.84726 903.24 3.00014 903.682 3.0024C904.895 3.00614 907.29 2.8225 909.725 2.83272C924.781 2.89798 946.115 3.09774 961.271 3.32475C962.3 3.34039 962.427 3.52435 963.122 3.53645C964.084 3.55246 966.235 3.41332 967.248 3.43311C968.202 3.45124 968.812 3.59315 969.832 3.61374C974.502 3.70963 980.782 3.50089 985.777 3.93282C986.197 3.96925 991.429 4.72986 991.547 4.7788C992.24 5.06919 987.586 5.50105 995.226 5.95405C988.395 6.29214 990.526 6.95006 999.396 7.30471C994.946 7.36762 990.496 7.43054 986.046 7.49345C986.039 7.57033 986.033 7.6472 986.026 7.72407C990.075 8.12237 994.093 8.26625 1000.25 8.32761C1000.06 8.398 999.867 8.46839 999.675 8.53878C994.233 8.87148 987.671 8.90942 983.526 9.37725C989.6 9.7623 995.674 10.1473 1001.75 10.5324C1001.44 10.5873 1001.14 10.6421 1000.84 10.697C997.924 10.8305 991.562 10.8891 989.143 11.0148C979.903 11.4941 997.226 11.4371 994.379 11.7413C984.626 11.6886 974.873 11.6358 965.12 11.5831C964.777 11.8146 1002.3 12.6171 1001.91 13.3186C998.84 13.3528 995.774 13.387 992.709 13.4212C994.074 13.6057 995.44 13.7901 996.805 13.9745C996.429 14.0294 996.052 14.0844 995.675 14.1394C990.503 14.2562 985.33 14.373 980.158 14.4898C995.883 14.417 1003.19 14.5493 1006.95 15.9718C1006.52 16.0058 1006.1 16.0398 1005.67 16.0738C1002.27 15.1794 986.187 15.3958 977.641 15.535C979.382 15.8002 986.907 15.633 988.496 15.7947C988.947 15.841 987.375 16.0133 988.418 16.1093C991.145 16.359 1002.77 16.7146 1001.08 16.9991C999.991 17.1819 981.283 17.3597 977.634 17.3245C986.186 17.6975 994.998 17.8323 1003.57 18.278C998.158 18.8257 993.359 19.5037 983.475 19.4928C980.461 19.7794 1001.38 20.2829 1001.87 20.4485C998.246 20.6085 994.624 20.7685 991.002 20.9285C994.065 20.8947 997.128 20.8609 1000.19 20.8271C1000.2 20.8857 1000.21 20.9443 1000.22 21.003C992.282 21.2413 985.021 21.7096 975.941 21.6373C976.232 21.9485 981.666 21.9407 984.302 21.9547ZM115.422 0.638484C115.24 0.380678 118.569 0.436939 120.443 0.449823C120.162 0.401837 119.88 0.35385 119.599 0.305864C123.599 0.371441 131.046 0.501661 131.324 0.00403451C134.178 -0.0458568 132.914 0.382551 133.834 0.435815C134.194 0.457067 137.92 0.220428 140.898 0.540234C141.606 0.542016 142.315 0.543798 143.023 0.54558C143.16 0.382593 143.298 0.219606 143.436 0.0566195C144.422 0.259366 145.409 0.462113 146.395 0.664859C136.076 0.656089 125.756 0.647319 115.437 0.638549C115.432 0.638527 115.427 0.638506 115.422 0.638484ZM218.283 0.863527C222.04 0.971754 227.796 1.14189 226.635 0.688989C224.261 0.702521 221.887 0.716053 219.513 0.729585C219.103 0.774232 218.693 0.818879 218.283 0.863527ZM592.111 2.80166C595.248 3.25599 598.14 2.88677 602.993 2.98696C602.987 2.89376 602.981 2.80056 602.975 2.70735C600.99 2.92267 595.743 2.75156 592.111 2.80166ZM22.1692 1.92877C21.4779 1.89125 20.7865 1.85373 20.0952 1.81622C22.9094 1.32723 23.4114 1.68236 26.5919 1.64724C26.7838 1.64501 26.7175 1.53007 26.7844 1.52965C27.5627 1.52521 28.2821 1.66628 28.985 1.66715C30.3409 1.66867 31.4468 1.5335 33.8487 1.54862C35.706 1.56077 35.7227 1.78071 36.3754 1.77784C36.9317 1.77476 42.4458 1.1933 45.9918 1.46951C52.7353 1.9955 24.2279 1.984 22.1692 1.92877ZM2.1766 1.43017C2.84372 1.43097 3.51084 1.43176 4.17795 1.43256C2.17043 1.76199 6.21932 1.7278 9.18972 1.73335C9.09631 2.05703 2.81259 1.89176 1.14093e-05 1.97635C0.725582 1.79429 1.45109 1.61223 2.1766 1.43017ZM86.5377 2.4825C83.9272 2.50446 84.3638 2.10181 84.4732 1.98181C85.3041 1.98534 86.1352 1.98886 86.9662 1.99239C86.8234 2.15576 86.6805 2.31913 86.5377 2.4825ZM66.9039 2.53962C67.7169 2.2683 73.3845 2.17217 76.0712 2.16102C76.1886 2.16147 75.4499 2.30913 77.3498 2.30316C77.9203 2.30118 83.5345 1.77629 82.2971 2.39372C77.1687 2.44236 72.0401 2.491 66.9116 2.53965C66.9091 2.53964 66.9065 2.53963 66.9039 2.53962ZM61.181 2.353C62.2492 2.27126 63.3175 2.18953 64.3858 2.1078C64.9371 2.23913 65.4884 2.37045 66.0398 2.50177C64.8244 2.52917 63.6092 2.55657 62.3939 2.58396C61.9896 2.50697 61.5852 2.42998 61.181 2.353ZM864.636 6.12654C864.388 5.98755 864.14 5.84856 863.892 5.70957C862.93 5.62095 858.248 6.2017 859.729 6.32423C861.365 6.25833 863 6.19243 864.636 6.12654ZM884.394 6.49963C885.367 6.57333 886.34 6.64704 887.313 6.72074C888.433 6.49153 889.553 6.26232 890.673 6.0331C885.812 5.85471 880.64 5.65098 881.472 6.34442C880.359 6.3397 879.246 6.33498 878.134 6.33026C879.072 6.04898 878.946 5.95446 876.035 5.76107C875.396 6.15531 872.386 5.94031 868.938 6.01295C871.446 6.04678 873.953 6.0806 876.46 6.11442C876.459 6.18441 876.459 6.25439 876.459 6.32438C870.87 6.27539 877.814 6.74877 881.456 6.48595C881.742 6.58034 882.029 6.67473 882.315 6.76913C883.008 6.67929 883.701 6.58946 884.394 6.49963ZM480.464 4.64502C481.156 4.71835 481.849 4.79168 482.541 4.86501C485.23 3.95957 479.76 4.80609 475.872 4.06403C477.155 4.62066 471.223 4.57247 470.883 4.60805C471.565 4.79649 472.247 4.98492 472.929 5.17335C475.44 4.99724 477.952 4.82113 480.464 4.64502ZM500.098 5.3606C497.698 4.89318 509.498 4.9152 513.456 5.03273C514.419 5.06159 516.133 5.31992 516.828 5.29117C517.25 5.20018 517.671 5.1092 518.093 5.01822C518.591 5.34097 526.322 5.01326 529.368 4.85364C529.655 4.97163 529.941 5.08962 530.227 5.20761C531.338 5.16594 532.448 5.12426 533.558 5.08258C533.418 5.19836 533.278 5.31414 533.138 5.42991C533.979 5.29351 534.819 5.1571 535.66 5.0207C538.958 4.87898 536.922 5.50477 539.4 5.31731C542.155 5.10918 537.644 4.71226 537.729 4.46674C535.494 4.52067 530.412 4.64106 528.144 4.63849C526.842 4.63676 528.319 4.2025 522.704 4.685C521.474 4.56178 520.244 4.43857 519.014 4.31535C516.755 4.49335 514.495 4.67134 512.236 4.84934C511.815 4.68439 511.394 4.51944 510.974 4.35449C510.733 4.32793 505.507 4.67626 505.786 4.80001C503.671 4.47914 499.327 4.40512 494.751 4.36992C494.31 4.45676 493.87 4.54359 493.429 4.63042C497.855 4.45763 494.837 4.73025 496.155 4.90565C496.916 5.00681 499.245 5.20903 500.098 5.3606ZM833.799 6.35342C841.233 5.98691 836.63 6.29582 844.663 6.32991C844.103 6.11677 843.543 5.90362 842.983 5.69048C839.032 6.05882 832.535 5.77517 833.792 6.35339C833.794 6.3534 833.797 6.35341 833.799 6.35342ZM912.408 5.98612C908.157 6.09561 910.289 6.43243 904.9 6.51457C904.897 6.51456 904.895 6.51455 904.892 6.51454C907.678 6.54995 910.465 6.58537 913.251 6.62079C912.97 6.40923 912.689 6.19768 912.408 5.98612ZM663.905 5.18738C659.83 5.07851 660.632 5.24591 656.934 4.90269C651.426 5.27667 656.088 5.24028 656.086 5.60099C657.345 5.50053 658.605 5.40008 659.864 5.29963C662.914 5.64989 660.019 5.80743 660.019 5.83983C660.022 5.83984 660.024 5.83985 660.027 5.83986C660.026 5.94814 659.927 5.9705 661.098 6.04093C662.033 5.75641 662.969 5.4719 663.905 5.18738ZM646.46 5.55894C647.859 5.32533 648.488 5.02046 644.815 4.8513C644.812 4.85129 644.81 4.85128 644.807 4.85126C644.51 5.38536 640.989 4.93831 639.383 4.96742C638.961 5.02381 638.54 5.08021 638.118 5.13661C640.899 5.27739 643.679 5.41816 646.46 5.55894ZM584.996 5.79021C584.983 5.19876 588.067 5.15558 583.729 4.59224C582.887 4.59925 582.044 4.60625 581.202 4.61326C580.648 4.74071 580.094 4.86816 579.541 4.99561C568.858 3.88016 565.664 5.68884 583.727 5.08417C583.73 5.08377 583.733 5.08337 583.735 5.08298C584.155 5.31872 584.576 5.55447 584.996 5.79021ZM603.819 5.81999C603.956 5.51011 604.093 5.20024 604.23 4.89036C606.587 5.64927 609.639 4.94763 614.265 5.49565C614.684 5.40303 615.103 5.31041 615.522 5.21778C617.251 5.43285 634.241 5.56475 630.562 5.07161C628.956 4.85626 625.455 5.12465 625.153 5.11703C624.132 5.08927 622.802 4.81691 621.079 4.8251C620.083 4.8302 617.982 5.13479 615.949 5.1256C611.405 5.10492 603.113 4.22807 597.134 4.99942C596.705 4.90402 596.275 4.80861 595.845 4.7132C591.41 4.7515 592.889 5.05431 588.765 4.68318C585.909 6.14569 605.351 4.68078 601.299 5.85935C601.301 5.85936 601.304 5.85937 601.306 5.85938C602.144 5.84625 602.981 5.83312 603.819 5.81999ZM725.911 5.89588C726.177 6.16182 731.322 5.77504 730.111 6.40441C731.791 6.19059 733.47 5.97677 735.15 5.76295C735.137 5.7039 735.125 5.64484 735.112 5.58579C733.444 5.6251 731.775 5.66441 730.106 5.70372C730.1 5.61011 730.095 5.5165 730.088 5.42289C727.601 5.75089 717.226 5.55942 717.543 5.22931C716.988 5.36692 716.433 5.50454 715.878 5.64216C710.917 5.23997 706.645 5.6271 701.24 5.23219C700.821 5.34637 700.402 5.46056 699.982 5.57475C699.71 5.48001 699.438 5.38527 699.165 5.29053C697.196 5.27037 695.227 5.25022 693.258 5.23007C686.838 5.57967 699.306 6.12039 700.818 6.07144C701.019 6.06454 700.989 5.82213 702.244 5.78941C704.474 5.73208 716.954 6.02624 720.813 5.88281C720.846 6.04367 720.879 6.20453 720.911 6.36539C722.578 6.20889 724.244 6.05238 725.911 5.89588ZM561.151 5.05678C560.87 4.89202 560.589 4.72726 560.308 4.5625C555.446 4.70524 552.386 4.54947 553.63 5.09568C553.632 5.09569 553.635 5.09571 553.637 5.09572C556.142 5.08274 558.647 5.06976 561.151 5.05678ZM199.86 3.38544C199.986 3.71113 202.31 3.84254 205.314 3.62219C205.17 3.52718 205.025 3.43217 204.881 3.33715C203.315 3.60739 201.364 3.11653 196.534 3.16016C196.534 3.32373 196.533 3.48729 196.532 3.65086C197.642 3.56239 198.751 3.47391 199.86 3.38544ZM565.346 5.14537C566.827 5.34452 570.988 4.77705 568.252 4.73656C566.16 4.70586 564.551 5.03844 565.346 5.14537ZM929.128 6.37319C928.03 6.33435 926.931 6.29551 925.833 6.25667C925.26 6.3934 924.687 6.53013 924.114 6.66686C924.117 6.66687 924.119 6.66688 924.122 6.66689C925.791 6.56899 927.46 6.47109 929.128 6.37319ZM677.838 5.21961C674.112 5.22415 670.386 5.22869 666.659 5.23324C666.622 5.32382 666.584 5.41439 666.547 5.50497C670.281 5.18968 671.78 5.55293 672.651 5.57846C672.647 5.57845 672.643 5.57843 672.639 5.57841C675.434 5.66211 678.096 5.72625 680.74 5.84592C679.772 5.63715 678.805 5.42838 677.838 5.21961ZM690.608 5.84626C689.983 5.2025 689.164 5.12437 683.438 5.55097C683.664 5.63086 683.89 5.71076 684.116 5.79066C687.083 5.75606 688.814 5.61538 688.291 5.94752C689.064 5.91377 689.836 5.88002 690.608 5.84626ZM632.259 5.39374C632.945 5.60075 638.398 5.41891 638.102 5.31476C637.985 5.2734 630.921 4.98789 632.259 5.39374ZM158.469 3.3515C159.725 3.40362 160.981 3.45574 162.237 3.50786C160.565 3.57035 158.894 3.63284 157.223 3.69533C157.638 3.58072 158.053 3.46611 158.469 3.3515ZM144.674 4.20485C143.779 4.11934 146.693 3.55527 141.34 3.38384C145.236 3.38816 149.133 3.39247 153.029 3.39679C151.201 3.48222 149.374 3.56765 147.546 3.65308C147.864 3.82003 148.183 3.98698 148.501 4.15394C147.225 4.17091 145.95 4.18788 144.674 4.20485ZM140.493 3.76476C142.589 4.21176 131.54 4.19781 130.511 4.1399C130.282 4.1262 129.193 3.78945 128.792 3.71636C130.461 3.72303 132.129 3.7297 133.797 3.73637C133.24 3.62943 132.682 3.52249 132.124 3.41556C134.077 3.38803 136.03 3.36051 137.982 3.33298C137.147 3.43442 136.312 3.53585 135.477 3.63729C137.149 3.67978 138.821 3.72227 140.493 3.76476ZM184.823 3.84656C183.426 3.82965 182.029 3.81274 180.632 3.79583C180.91 3.96058 181.189 4.12533 181.467 4.29008C182.303 4.29363 183.14 4.29717 183.976 4.30072C184.258 4.14933 184.54 3.99795 184.823 3.84656ZM156.357 3.93702C158.395 3.1581 163.93 4.90332 157.455 4.2383C156.802 4.17071 156.165 4.01229 156.357 3.93702ZM126.371 4.02835C122.025 4.58411 123.01 3.32055 127.11 3.70923C127.316 3.72985 126.697 3.98733 126.371 4.02835ZM93.8035 3.90855C93.4517 3.90279 92.8384 3.48972 89.4782 3.86579C88.924 3.81665 88.3697 3.76751 87.8155 3.71836C89.1137 3.53315 100.214 3.46677 98.6785 3.86697C96.9794 3.8661 95.561 3.92868 93.8035 3.90855ZM104.545 5.47262C106.211 5.4683 107.877 5.46397 109.543 5.45964C108.994 5.32873 108.445 5.19783 107.897 5.06692C108.716 5.03541 109.536 5.00389 110.356 4.97237C111.755 5.20007 113.155 5.42776 114.555 5.65545C110.934 5.6755 107.312 5.69554 103.691 5.71558C103.976 5.63459 104.261 5.55361 104.545 5.47262ZM148.835 5.97783C145.63 5.8029 141.702 5.95796 136.496 5.90841C136.494 5.90799 136.491 5.90758 136.489 5.90716C136.229 5.90418 135.77 5.7256 134.934 5.71502C134.221 5.70638 120.161 5.84071 121.259 5.54595C126.7 5.30063 128.73 5.71728 130.039 5.05707C130.303 5.19857 130.568 5.34007 130.832 5.48157C136.062 5.74681 137.556 5.2672 140.495 5.10141C140.483 5.20715 140.471 5.31289 140.459 5.41863C142.421 5.43753 144.382 5.45643 146.344 5.47533C146.068 5.40458 145.791 5.33383 145.515 5.26308C146.209 5.26602 146.903 5.26896 147.597 5.27191C149.286 5.59255 151.429 5.6747 148.835 5.97783ZM96.99 5.26603C95.4467 6.06192 80.4422 5.44865 73.5866 5.58791C77.1874 5.12 82.7615 5.47663 86.6863 5.4982C94.2741 5.53949 89.0303 5.22154 90.3182 5.09735C90.9545 5.03594 95.2561 5.56867 96.99 5.26603ZM160.544 5.8871C156.761 5.80625 154.643 5.98201 151.371 5.67365C151.646 5.61622 151.92 5.55879 152.194 5.50136C153.315 5.55975 162.452 5.76774 160.544 5.8871ZM63.5423 5.33536C70.8476 5.65449 67.2466 4.91266 71.044 5.47337C68.5432 5.49735 66.0423 5.52133 63.5414 5.54531C63.5417 5.47533 63.542 5.40534 63.5423 5.33536ZM573.696 8.19951C576.775 8.23093 580.213 8.39194 582.055 8.09703C579.963 8.04136 577.871 7.9857 575.779 7.93003C575.085 8.01986 574.39 8.10969 573.696 8.19951ZM485.877 10.7848C486.58 10.8603 489.361 10.658 489.654 10.6592C490.198 10.6615 490.049 10.7664 490.057 10.794C493.619 10.79 490.334 10.4488 492.97 10.3889C493.421 10.379 499.612 10.567 502.131 10.5644C506.006 10.5604 509.876 10.598 511.324 10.5985C513.768 10.5997 518.306 10.3735 522.323 10.3778C523.979 10.38 524.556 10.579 526.221 10.5811C536.909 10.5933 557.95 10.4128 567.432 10.5777C569.774 10.6186 572.007 10.8854 573.246 10.8697C574.224 10.7798 575.201 10.69 576.179 10.6001C579.18 11.459 580.188 10.7107 583.427 10.6455C585.485 10.6044 586.446 10.8591 586.722 10.8597C588.555 10.8625 589.459 10.747 590.898 10.7334C592.514 10.7184 594.834 10.8413 595.412 10.8233C595.766 10.8111 594.636 10.4731 600.903 10.506C607.289 10.5397 613.595 10.6016 620.09 10.6448C617.928 9.62962 616.059 10.3102 613.407 10.3357C612.696 10.3425 613.147 10.1847 612.528 10.1891C610.779 10.2007 607.429 10.3435 605.982 10.2993C604.419 10.2516 604.954 9.8837 602.971 10.0119C602.871 10.0185 603.187 10.1727 602.721 10.1963C598.033 10.4294 596.5 10.157 590.575 10.1241C586.648 10.1018 562.805 10.1524 561.987 10.0492C557.721 9.4957 582.845 9.5986 585.782 9.65333C586.811 9.67255 585.732 9.83677 586.669 9.87315C587.066 9.88778 590.639 9.58105 594.169 9.56927C598.437 9.55497 607.014 9.81091 611.081 9.82043C646.048 9.90179 680.529 10.2426 715.462 10.3949C716.207 10.3981 717.189 10.2094 719.616 10.2197C764.91 10.4153 811.855 10.7664 857.728 10.8701C867.729 10.8928 877.648 10.7535 887.741 10.94C888.993 10.8045 890.246 10.6691 891.499 10.5336C888.296 10.6319 882.427 10.2886 881.893 10.2817C881.7 10.2794 880.485 10.433 878.527 10.4163C875.774 10.3934 874.567 10.2506 874.341 10.2496C873.64 10.2462 874.099 10.3946 873.43 10.391C868.442 10.3635 864.582 10.3887 860.004 10.3707C854.833 10.3502 852.212 10.0663 848.445 10.3498C848.019 10.2312 847.593 10.1126 847.168 9.99402C844.352 10.4871 827.597 10.3601 820.81 10.3046C818.669 10.287 819.045 10.0835 818.326 10.0804C817.866 10.0787 818.046 10.3481 812.444 10.2716C809.623 10.2328 808.884 10.0341 807.47 10.0344C806.701 10.0349 806.825 10.2294 805.721 10.2247C799.336 10.1977 794.122 10.1126 787.871 10.0502C786.113 10.0328 786.095 9.87084 785.701 9.87129C784.253 9.87239 781.733 10.1359 778.052 10.1196C771.993 10.0925 759.916 10.0403 754.962 9.88619C754.234 9.86337 753.632 9.66655 753.096 9.6671C752.285 9.66862 751.966 9.86995 751.824 9.87044C749.112 9.86246 750.744 9.68091 748.928 9.719C747.949 9.73953 746.927 9.96636 744.651 9.98284C741.646 10.0046 742.239 9.73273 740.984 9.75489C740.851 9.75862 740.811 9.94925 739.577 9.95033C734.898 9.95304 728.112 9.96833 723.685 9.94885C722.413 9.94346 721.468 9.81101 719.694 9.80132C716.121 9.78193 695.807 9.77765 694.141 9.69661C693.966 9.68812 695.773 9.41432 692.894 9.41057C692.058 9.52421 691.221 9.63784 690.384 9.75148C688.987 9.55798 687.589 9.36447 686.192 9.17097C686.239 9.81927 678.013 9.88447 678.098 9.22209C677.198 9.19142 676.298 9.16075 675.398 9.13007C673.521 9.58001 672.274 9.40568 668.65 9.65931C668.086 9.51654 667.522 9.37377 666.958 9.231C666.815 9.32398 666.673 9.41696 666.53 9.50994C664.599 8.99459 661.426 9.49036 661.041 9.49154C659.56 9.49651 658.448 9.36288 657.753 9.36408C655.159 9.36646 649.542 9.52026 646.513 9.42505C646.37 9.42022 646.511 9.20402 645.649 9.17359C644.095 9.11864 643.942 9.4354 641.87 9.0538C641.451 9.14561 641.032 9.23742 640.613 9.32923C640.168 9.27892 639.724 9.22862 639.28 9.17832C636.658 9.19202 634.035 9.20571 631.413 9.21941C633.8 8.86248 631.056 8.64584 628.46 8.92369C627.582 9.01792 628.36 9.24465 628.067 9.27724C627.665 9.32133 615.896 9.15766 615.118 9.00993C614.561 9.07796 614.004 9.14599 613.446 9.21402C613.165 9.07204 612.884 8.93007 612.603 8.78809C612.296 8.83602 611.988 8.88395 611.681 8.93188C608.619 8.67093 600.666 9.20597 599.226 9.15493C598.456 9.12771 599.151 8.53059 595.46 8.57623C595.331 8.74047 595.202 8.90472 595.073 9.06897C594.228 9.08898 593.383 9.109 592.538 9.12901C590.952 9.1076 588.645 8.81222 588.572 8.6166C588.076 8.73168 587.58 8.84676 587.084 8.96184C585.755 8.57439 578.657 8.67962 575.802 8.90911C574.967 8.79042 574.133 8.67174 573.299 8.55305C572.176 8.68826 571.054 8.82347 569.932 8.95868C567.333 8.98981 570.079 8.76876 569.525 8.747C568.354 8.70187 562.381 9.06964 562.777 8.58167C561.962 8.57699 561.148 8.57232 560.334 8.56764C559.914 8.70584 559.495 8.84403 559.076 8.98222C557.68 8.49371 555.26 8.65383 550.3 8.45673C549.884 8.56605 549.467 8.67536 549.05 8.78468C547.517 8.6203 545.984 8.45593 544.451 8.29155C544.135 8.47412 543.819 8.6567 543.503 8.83928C542.836 8.8629 542.169 8.88651 541.502 8.91013C540.148 8.49241 537.712 8.92727 536.474 8.75209C534.667 8.49644 536.066 8.20686 539.423 8.16403C539.173 7.86292 529.175 7.95829 526.87 7.97041C527.022 8.02965 527.174 8.08889 527.326 8.14813C529.684 8.11174 532.041 8.07535 534.399 8.03896C536.371 8.80188 529.97 8.57236 527.032 8.65712C526.763 8.6653 525.24 8.94471 522.279 8.90551C521.132 8.89008 516.662 8.45329 515.808 8.42642C508.915 8.20639 513.982 8.82492 507.239 8.2729C508.643 8.67973 504.769 8.33018 500.735 8.39057C500.048 8.4009 494.223 8.70117 493.83 8.70796C491.378 8.7497 494.049 8.40669 490.501 8.48389C490.074 8.57526 489.647 8.66662 489.22 8.75799C488.394 8.75449 487.568 8.75099 486.743 8.74749C481.734 7.89586 480.566 8.50241 478.784 8.57336C478.064 8.60201 478.992 8.38929 477.125 8.42716C476.422 8.44122 475.642 8.61815 473.751 8.62281C467.835 8.6371 465.83 7.85703 460.387 8.63694C459.553 8.51703 458.718 8.39712 457.884 8.27721C457.32 8.41438 456.756 8.55155 456.192 8.68872C451.884 8.26547 453.438 8.68686 451.882 8.67533C447.772 8.64521 439.362 8.53015 438.627 8.1931C435.076 8.94512 430.838 8.06179 429.439 8.08578C428.607 8.17543 427.776 8.26508 426.945 8.35473C425.968 8.25701 424.991 8.15928 424.015 8.06155C424.487 8.81683 419.43 8.05464 418.944 8.04127C418.384 8.02762 410.601 8.21754 407.703 8.20112C404.811 8.18462 399.77 7.95914 399.326 7.95685C398.816 7.95469 393.891 8.13855 390.041 8.12011C386.672 8.10361 366.716 7.72813 367.972 8.06924C369.277 8.16777 371.136 8.25626 372.742 8.30675C377.73 8.46176 407.007 8.7574 414.489 8.84267C429.494 9.01267 445.144 9.05932 460.216 9.1965C461.102 9.20449 461.236 9.40029 461.997 9.40791C463.152 9.41844 466.084 9.23547 467.222 9.24452C471.473 9.27946 476.647 9.33327 478.923 9.34785C484.01 9.37931 487.499 9.51168 491.349 9.54703C492.554 9.55778 498.648 9.34159 502.824 9.46142C503.58 9.51956 504.337 9.5777 505.093 9.63584C502.942 9.69083 497.298 9.83278 494.678 9.84069C490.779 9.85159 488.747 9.68461 487.307 9.68126C486.102 9.67826 479.943 9.8325 477.138 9.82489C476.268 9.82261 476.09 9.61711 475.345 9.61466C471.303 9.60245 465.979 9.58535 462.472 9.77124C463.903 9.71179 454.967 9.54828 454.498 9.547C453.695 9.54365 452.822 9.73154 451.182 9.72458C448.028 9.71111 448.43 9.31208 444.487 9.69619C443.511 9.57528 442.536 9.45436 441.561 9.33345C441.499 9.86705 429.173 9.08861 425.663 9.72256C425.571 9.79544 441.592 10.0713 442.914 10.0875C450.847 10.1852 462.588 10.1041 470.287 10.2304C472.604 10.2684 479.889 10.6238 480.438 10.6201C481.325 10.6147 480.525 10.4257 480.908 10.4207C488.748 10.3159 484.835 10.6724 485.877 10.7848ZM140.49 6.29399C142.871 6.32606 145.253 6.35814 147.635 6.39021C147.461 6.50666 147.288 6.62311 147.114 6.73956C146.024 6.68936 144.933 6.63916 143.842 6.58896C143.003 6.65539 142.164 6.72182 141.325 6.78825C141.047 6.62349 140.768 6.45874 140.49 6.29399ZM134.618 6.7598C132.553 6.81005 132.453 6.56251 131.976 6.54841C130.554 6.50575 129.323 6.60045 127.942 6.59111C129.535 6.01086 132.921 6.29423 134.618 6.7598ZM177.276 7.15188C176.81 7.12182 173.704 6.47671 170.166 7.04971C167.521 6.85173 164.876 6.65375 162.232 6.45577C166.725 6.76016 172.945 6.48994 175.146 6.51054C175.982 6.51837 176.141 6.71302 176.809 6.719C180.659 6.75083 184.403 6.32718 184.794 6.97137C181.154 6.76923 177.87 7.18893 177.276 7.15188ZM154.044 6.82509C153.429 6.68821 152.813 6.55133 152.198 6.41444C154.423 6.42388 156.649 6.43332 158.874 6.44276C158.272 6.5761 157.67 6.70945 157.067 6.8428C156.059 6.8369 155.052 6.831 154.044 6.82509ZM325.248 7.99547C323.875 7.98802 322.503 7.98058 321.13 7.97313C321.205 8.07131 322.775 8.07758 323.354 8.14613C323.351 8.14612 323.348 8.1461 323.346 8.14609C323.99 8.22351 323.714 8.34834 324.885 8.40896C325.006 8.27113 325.127 8.1333 325.248 7.99547ZM893.161 10.9605C895.462 10.9773 916.709 11.0682 914.901 10.7036C913.989 10.5215 906.721 10.6461 904.579 10.6342C901.691 10.6183 893.892 10.1993 893.161 10.9605ZM930.791 11.1897C931.16 10.8356 917.881 10.7227 916.583 10.7791C916.858 10.831 917.283 10.9457 917.65 10.9728C919.44 11.103 927.928 11.0804 930.791 11.1897ZM402.113 9.34804C401.044 9.16365 399.974 8.97927 398.904 8.79489C399.185 9.03004 399.465 9.26519 399.746 9.50035C400.535 9.44958 401.324 9.39881 402.113 9.34804ZM505.954 9.53085C523.787 9.61787 541.62 9.70489 559.453 9.79191C557.884 9.8825 556.315 9.97309 554.746 10.0637C539.38 9.964 522.993 9.79606 508.154 9.88319C507.421 9.76574 506.687 9.64829 505.954 9.53085ZM182.296 8.22662C186.865 8.24949 190.682 8.09383 195.652 8.38824C190.913 8.63305 188.57 8.21325 183.965 8.58403C183.963 8.58402 183.96 8.58401 183.958 8.584C183.404 8.46487 182.85 8.34574 182.296 8.22662ZM284.307 8.73003C282.917 8.88771 281.527 9.04538 280.137 9.20306C281.808 9.21014 283.479 9.21723 285.15 9.22432C284.869 9.05955 284.588 8.89479 284.307 8.73003ZM661.503 11.0999C666.283 10.7632 678.506 11.4612 682.392 11.0481C682.644 11.021 680.335 10.83 684.07 10.4949C681.25 10.5548 679.259 10.6197 679.047 10.8948C678.21 10.7976 677.373 10.7005 676.536 10.6034C675.147 10.6683 673.757 10.7332 672.367 10.7981C672.519 10.524 672.409 10.5381 670.274 10.7172C669.301 10.6435 668.328 10.5698 667.356 10.4961C666.943 10.6107 666.53 10.7253 666.117 10.8399C665.275 10.6736 664.433 10.5073 663.592 10.341C660.307 10.5036 662.305 10.8274 661.503 11.0999ZM644.774 10.9618C645.55 11.0256 667.709 10.9222 657.641 10.3316C655.024 10.338 652.407 10.3444 649.789 10.3508C651.953 11.2674 644.824 10.4257 644.238 10.4042C641.436 10.3036 637.862 10.5043 635.829 10.4845C634.08 10.4672 633.042 10.3 631.812 10.299C627.621 10.2953 621.002 10.2731 620.09 10.6448C623.347 10.6664 626.656 10.6844 630.043 10.6894C633.625 10.6947 636.773 11.0625 643.504 10.6049C645.167 10.6642 644.573 10.9455 644.774 10.9618ZM275.954 9.14748C276.122 8.77103 267.666 8.82536 267.611 8.97416C267.594 9.06145 270.348 9.07106 270.741 9.10584C270.744 9.10585 270.746 9.10586 270.749 9.10587C270.913 9.12104 270.08 9.26188 271.374 9.30749C272.901 9.25416 274.427 9.20082 275.954 9.14748ZM860.11 11.6639C861.252 11.8803 887.367 11.915 888.136 11.8169C888.345 11.7896 888.054 11.6956 888.137 11.6423C882.044 11.9151 873.384 11.525 867.602 11.4771C865.99 11.464 866.471 11.616 866.379 11.6184C866.375 11.6184 866.372 11.6184 866.368 11.6184C865.453 11.6149 861.325 11.2311 860.11 11.6639ZM690.756 10.9115C689.646 10.8478 688.536 10.7841 687.426 10.7204C687.144 10.8359 686.862 10.9515 686.58 11.0671C686.582 11.0671 686.585 11.0671 686.587 11.0671C687.977 11.0152 689.366 10.9634 690.756 10.9115ZM729.218 11.4591C728.948 11.3758 728.678 11.2924 728.408 11.2091C725.613 11.1858 722.818 11.1626 720.023 11.1394C720.305 11.0942 720.587 11.049 720.868 11.0038C716.642 10.8619 714.891 11.1433 712.64 11.0922C712.642 11.0922 712.645 11.0922 712.647 11.0922C712.405 11.0863 712.113 10.9138 711.211 10.9042C709.145 10.8821 703.223 10.7932 702.507 10.9625C700.991 11.3238 712.91 11.1998 715.132 11.226C716.137 11.238 717.344 11.393 717.955 11.3991C718.624 11.4053 719.537 11.2067 721.167 11.2199C721.644 11.224 726.932 11.4845 729.218 11.4591ZM778.557 11.423C777.696 11.234 775.896 11.4054 775.235 11.3723C775.077 11.3645 776.306 11.2146 774.817 11.1618C774.395 11.2658 773.973 11.3698 773.552 11.4738C775.22 11.4568 776.889 11.4399 778.557 11.423ZM261.744 9.26543C261.987 9.30622 266.527 9.31093 266.745 9.28664C269.467 8.96001 260.063 8.95677 261.744 9.26543ZM147.166 9.16648C149.252 9.66685 124.475 9.07856 122.074 9.09425C122.195 8.78585 128.088 9.12142 125.003 8.68431C127.948 8.93 136.092 8.84071 138.009 8.91647C139.172 8.96228 139.464 9.23034 139.64 9.23954C140.33 9.27252 146.43 8.9901 147.166 9.16648ZM101.6 8.79746C103.955 8.86604 106.309 8.93462 108.664 9.0032C105.885 9.0264 103.106 9.04961 100.327 9.07282C100.752 8.98104 101.176 8.88925 101.6 8.79746ZM98.6378 8.92528C98.7119 9.22502 90.7198 8.96303 88.6189 9.02317C90.9895 8.52388 94.9383 9.02083 98.6378 8.92528ZM231.624 9.91039C235.306 10.124 236.892 9.218 232.413 9.59636C232.277 9.60892 231.471 9.89925 231.624 9.91039ZM662.634 12.3889C663.262 12.3972 671.07 12.7262 671.522 12.5816C672.954 12.1202 667.828 12.2859 666.112 12.1021C663.343 11.8043 667.418 11.5859 660.655 11.7298C660.932 11.6374 661.209 11.545 661.486 11.4526C657.528 11.4048 658.821 12.0586 658.11 12.139C657.892 12.1634 655.418 12.0984 654.971 12.1379C649.392 12.6365 662.052 12.382 662.634 12.3889ZM322.783 10.3666C330.114 10.6724 326.961 10.2559 334.485 10.3124C334.736 10.1078 323.738 10.1902 322.783 10.3666ZM591.248 11.7163C598.83 11.6674 605.065 11.9629 612.138 11.6315C611.68 11.073 589.281 11.5642 591.248 11.7163ZM947.501 13.791C918.004 12.6747 883.974 12.8567 852.565 12.739C849.142 12.7259 848.814 12.5039 847.576 12.5226C846.764 12.5346 846.905 12.713 845.827 12.7092C806.851 12.5728 769.53 12.6471 732.195 12.3824C729.843 12.3653 718.404 11.9351 715.957 12.5003C714.106 12.929 722.327 12.6235 723.697 12.6332C724.726 12.6404 724.769 12.8457 725.455 12.8494C726.183 12.8532 725.582 12.7104 726.427 12.7119C730.009 12.7172 733.917 12.7886 737.156 12.7903C768.918 12.8102 799.818 12.9741 831.412 13.1278C835.236 13.1462 834.449 13.3072 834.642 13.3087C834.645 13.3084 834.647 13.308 834.65 13.3076C855.154 13.41 878.574 13.1405 900.292 13.3735C915.585 13.5515 930.878 13.7295 946.172 13.9075C946.615 13.8686 947.058 13.8298 947.501 13.791ZM646.445 11.7404C648.351 12.3684 648.78 11.7452 655.625 12.0271C656.182 11.9237 656.74 11.8203 657.297 11.7168C653.676 11.7247 650.055 11.7325 646.434 11.7403C646.437 11.7404 646.441 11.7404 646.445 11.7404ZM691.661 12.158C692.814 13.0002 708.126 12.4734 715.019 12.6623C716.284 12.2471 706.262 12.3935 703.899 12.3393C702.719 12.3124 696.401 11.8531 691.596 12.0722C691.618 12.1008 691.639 12.1294 691.661 12.158ZM173.086 10.5068C174.2 10.4872 175.314 10.4675 176.428 10.4478C173.641 10.3432 170.854 10.2386 168.067 10.134C172.513 10.2127 176.96 10.2913 181.407 10.37C180.578 10.5402 179.749 10.7105 178.919 10.8807C176.975 10.7561 175.03 10.6315 173.086 10.5068ZM187.514 10.4789C179.727 10.5113 187.858 10.0807 189.801 10.2958C190.964 10.4247 188.309 10.4753 187.514 10.4789ZM207.769 10.8639C204.135 11.1535 196.796 11.1434 199.407 10.5452C203.331 10.8472 205.862 10.6208 211.553 10.8091C210.721 10.9224 209.89 11.0356 209.058 11.1489C209.054 11.1489 209.05 11.1489 209.047 11.1488C208.621 11.0539 208.195 10.9589 207.769 10.8639ZM183.956 10.8325C178.857 10.4608 193.623 10.6431 188.98 10.8538C188.763 10.8634 184.157 10.8467 183.956 10.8325ZM914.885 14.2826C915.501 14.0861 911.578 14.0732 910.273 14.0543C904.616 13.9711 897.36 14.027 891.477 13.9746C891.92 14.042 892.362 14.1093 892.805 14.1767C900.165 14.212 907.525 14.2473 914.885 14.2826ZM873.073 13.8953C869.031 13.8782 864.988 13.861 860.946 13.8439C860.569 13.8423 858.801 14.0056 860.115 14.0527C864.434 14.0003 868.754 13.9478 873.073 13.8953ZM620.922 12.826C624.021 12.9506 615.093 13.4842 615.498 12.8738C617.306 12.8578 619.114 12.8419 620.922 12.826ZM592.08 12.9478C594.024 12.8978 595.968 12.8479 597.912 12.798C597.914 12.8684 597.916 12.9388 597.919 13.0092C595.972 12.9887 594.026 12.9682 592.08 12.9478ZM930.777 14.4903C928.719 14.2407 923.807 14.257 920.744 14.2391C922.853 14.455 927.882 14.3745 930.777 14.4903ZM667.359 13.2695C667.109 13.1043 679.438 13.1979 675.168 13.4686C672.565 13.4022 669.962 13.3359 667.359 13.2695ZM692.4 13.6186C689.755 13.6433 687.707 13.5782 688.252 13.3227C689.655 13.3396 691.057 13.3565 692.459 13.3735C692.439 13.4552 692.42 13.5369 692.4 13.6186ZM221.592 11.4132C226.048 11.4089 230.504 11.4046 234.96 11.4003C234.794 11.47 234.629 11.5397 234.463 11.6094C230.167 11.614 225.871 11.6185 221.575 11.6231C221.581 11.5531 221.586 11.4832 221.592 11.4132ZM933.294 15.1333C936.354 15.1003 939.415 15.0673 942.475 15.0343C939.413 14.9741 936.35 14.914 933.287 14.8538C933.287 14.9474 933.286 15.0409 933.286 15.1345C933.289 15.1341 933.291 15.1337 933.294 15.1333ZM160.545 12.0662C174.156 12.4522 156.785 12.7255 153.195 12.2279C153.191 12.2283 153.188 12.2287 153.184 12.229C152.869 12.1851 153.535 11.9817 153.012 11.8963C154.397 11.9953 155.782 12.0944 157.167 12.1934C158.432 12.0828 159.696 11.9722 160.96 11.8616C161.376 11.909 161.792 11.9563 162.208 12.0036C161.654 12.0245 161.099 12.0453 160.545 12.0662ZM105.605 12.0163C93.2614 11.9259 105.894 11.4638 112.001 11.8969C111.957 11.991 106.742 12.0246 105.605 12.0163ZM137.953 12.0424C139.898 12.0038 141.844 11.9653 143.789 11.9268C144.037 11.9868 144.285 12.0469 144.533 12.1069C143.04 12.1592 141.547 12.2114 140.054 12.2637C139.353 12.1899 138.653 12.1162 137.953 12.0424ZM201.916 13.2243C205.045 13.3024 209.041 12.6633 198.99 12.7932C198.995 12.8636 199 12.934 199.005 13.0044C199.406 12.9949 200.581 12.9338 200.645 12.9393C200.829 12.9577 200.611 13.1919 201.916 13.2243ZM82.7406 13.7735C82.389 13.7988 82.1945 14.5405 78.542 13.7569C77.4368 13.799 76.3315 13.8412 75.2263 13.8833C74.9414 13.7185 74.6566 13.5537 74.3717 13.3889C78.6481 13.5339 79.1027 13.2049 79.4125 13.1991C80.8344 13.1742 79.7814 13.3399 80.6988 13.3462C83.0669 13.3619 88.4491 13.2704 86.0059 13.7459C85.1264 13.9162 83.0923 13.7482 82.7406 13.7735ZM91.1014 14.2313C90.583 14.1672 92.255 13.957 91.8635 13.894C91.5206 13.839 86.3671 13.5956 87.7637 13.2345C88.61 13.2536 89.4563 13.2726 90.3026 13.2917C90.5888 13.3934 90.8756 13.4951 91.1618 13.5968C91.9817 13.5075 92.8016 13.4183 93.6214 13.329C95.0014 13.5828 97.9388 13.9165 94.4478 14.1039C95.7311 14.0882 97.0141 14.0725 98.2972 14.0568C98.9622 13.9408 99.6274 13.8248 100.292 13.7088C99.9433 13.8884 99.5943 14.068 99.2452 14.2476C96.5306 14.2422 93.816 14.2367 91.1014 14.2313ZM51.3282 13.9931C51.4849 13.9002 51.6415 13.8072 51.7981 13.7143C47.0854 13.8683 39.7471 13.9034 43.9171 13.3342C50.3004 13.3125 56.6836 13.2907 63.0669 13.269C63.4905 13.3411 63.914 13.4133 64.3375 13.4855C59.5768 13.1941 61.0435 14.3544 56.9021 14.0057C56.2041 13.9466 58.2323 13.5517 53.8414 13.7913C53.9972 13.886 54.153 13.9807 54.3089 14.0753C53.3153 14.0479 52.3218 14.0205 51.3282 13.9931ZM10.8216 13.6809C18.889 13.8504 10.0008 14.1542 8.51217 13.864C8.51474 13.864 8.5173 13.864 8.51986 13.864C4.44037 13.0698 13.2178 13.4824 13.7535 13.4797C14.4656 13.4759 16.1257 12.9267 19.9947 13.754C16.937 13.7296 13.8794 13.7053 10.8216 13.6809ZM37.1613 13.9318C36.4833 13.9472 36.8591 13.8076 36.5664 13.8084C36.5639 13.8084 36.5613 13.8084 36.5587 13.8084C32.2399 13.8204 21.9678 13.9033 20.8565 13.4427C24.0534 13.4182 38.3578 13.3804 39.2213 13.6939C38.5347 13.7732 37.848 13.8525 37.1613 13.9318ZM67.5518 13.7213C70.2017 14.0277 64.2329 14.0417 62.6686 13.8984C62.3732 13.8675 64.8064 13.404 67.5518 13.7213ZM270.922 15.3455C276.756 15.1927 269.093 14.983 271.747 14.7167C270.633 14.7355 269.518 14.7544 268.404 14.7733C269.244 14.964 270.083 15.1548 270.922 15.3455ZM536.873 17.0336C538.232 17.0722 537.589 16.9 537.707 16.898C538.6 16.9065 539.442 17.0481 539.785 17.035C546.123 16.7832 541.909 16.623 541.845 16.5896C541.712 16.4214 543.379 16.2323 541.072 16.031C539.671 16.0844 538.27 16.1379 536.869 16.1914C536.174 16.0952 535.479 15.9991 534.784 15.903C532 16.0911 535.642 16.1614 536.053 16.4284C536.212 16.5333 533.594 16.647 536.873 17.0336ZM281.372 15.9513C282.319 15.6608 284.639 15.2992 282.363 14.9936C282.361 14.9936 282.358 14.9936 282.356 14.9936C281.935 14.9377 280.221 14.9006 279.694 14.8224C275.937 15.1988 277.374 15.6103 281.372 15.9513ZM511.744 17.4544C509.486 17.3761 507.227 17.2977 504.969 17.2194C505.008 17.0429 505.047 16.8665 505.086 16.6901C506.295 16.7428 507.503 16.7956 508.712 16.8483C509.136 16.7695 509.56 16.6908 509.984 16.612C508.485 16.4042 506.985 16.1965 505.485 15.9887C503.677 16.0514 501.868 16.1141 500.06 16.1768C500.891 16.2736 501.721 16.3703 502.552 16.467C498.132 16.5511 499.097 16.1257 495.44 15.9461C494.187 16.1043 492.934 16.2626 491.681 16.4208C489.869 16.2488 488.056 16.0767 486.244 15.9046C483.197 15.9685 482.928 16.0926 484.978 16.2887C483.462 16.4964 481.805 16.1525 479.981 16.2321C479.83 16.2385 480.113 16.4414 479.98 16.4432C470.547 16.5392 471.051 16.0117 469.545 15.9827C468.482 15.9628 464.236 16.3022 464.168 16.4238C464.086 16.5877 472.91 17.2728 459.087 17.2311C466.232 17.7094 474.358 17.2878 469.108 16.6083C471.369 16.684 481.345 16.5624 481.98 16.5848C482.907 16.6185 482.581 16.8665 483.742 16.8779C484.429 16.8843 486.249 16.3221 491.679 16.8432C492.373 16.7526 493.068 16.6619 493.762 16.5713C494.412 16.6509 495.063 16.7306 495.713 16.8103C494.372 17.0788 493.032 17.3474 491.691 17.6159C496.998 17.3405 501.397 17.9189 504.63 17.4609C507.423 17.5276 508.779 17.5876 507.578 17.8237C508.417 17.8272 509.256 17.8308 510.095 17.8344C510.644 17.7077 511.194 17.5811 511.744 17.4544ZM298.514 15.6029C301.289 15.8884 302.289 15.302 301.857 15.2667C299.424 15.0726 297.07 15.4543 298.514 15.6029ZM531.834 16.6986C528.772 16.5334 525.71 16.3682 522.648 16.2031C522.647 16.3898 522.646 16.5766 522.645 16.7633C525.708 16.7417 528.771 16.7201 531.834 16.6986ZM270.067 15.7618C269.786 15.6206 269.505 15.4794 269.224 15.3383C265.867 15.8353 262.539 15.0876 260.881 15.2321C260.521 15.2637 261.246 15.5139 261.932 15.5698C262.359 15.6047 269.473 15.8065 270.067 15.7618ZM130.407 15.1024C131.657 15.0137 132.907 14.925 134.158 14.8363C134.088 14.9935 134.018 15.1506 133.948 15.3078C133.331 15.3345 132.713 15.3612 132.096 15.3878C131.533 15.2927 130.97 15.1975 130.407 15.1024ZM144.629 14.9124C146.858 14.9345 149.087 14.9566 151.317 14.9786C142.813 15.087 149.791 15.1871 144.627 15.3702C144.628 15.2176 144.628 15.065 144.629 14.9124ZM167.192 15.3267C166.917 15.4195 166.643 15.5124 166.369 15.6052C164.139 15.5957 161.91 15.5863 159.681 15.5768C161.089 15.9091 162.497 16.2414 163.906 16.5737C164.723 16.578 165.54 16.5823 166.357 16.5866C166.635 16.1666 166.913 15.7467 167.192 15.3267ZM597.087 17.9909C598.434 18.0022 603.124 17.7369 602.924 17.6311C600.977 17.4939 599.03 17.3566 597.083 17.2194C597.073 17.4065 597.063 17.5937 597.053 17.7808C596.778 17.6864 596.503 17.5921 596.229 17.4978C595.121 17.563 594.013 17.6283 592.905 17.6936C592.347 17.5277 591.79 17.3617 591.232 17.1958C590.671 17.3802 590.109 17.5646 589.547 17.749C594.894 18.1027 594.711 17.771 595.824 17.7792C596.388 17.7832 596.745 17.9006 596.945 17.9598C596.992 17.9701 597.04 17.9805 597.087 17.9909ZM529.712 17.8809C536.098 17.9545 539.75 17.4772 544.367 17.9089C541.408 17.0185 522.272 17.8441 515.529 17.0835C514.828 17.2213 514.127 17.3591 513.426 17.4969C517.1 17.3871 519.644 17.6879 521.435 17.7372C522.857 17.7763 522.709 17.6282 522.818 17.6308C522.823 17.6308 522.828 17.6308 522.834 17.6308C526.164 17.7055 527.194 17.8519 529.712 17.8809ZM265.32 16.4301C267.035 16.6598 270.038 16.6503 270.073 16.3257C268.402 16.2247 266.732 16.1236 265.061 16.0225C265.404 16.1071 265.028 16.3908 265.32 16.4301ZM169.781 16.2447C171.119 16.356 174.283 16.2768 172.92 15.9906C172.675 15.9398 169.524 16.1236 171.374 15.6252C168.304 15.62 169.02 16.1807 169.781 16.2447ZM420.597 16.7529C419.471 16.7575 418.344 16.7621 417.217 16.7667C416.954 16.8966 416.691 17.0265 416.428 17.1564C417.818 17.0219 419.208 16.8874 420.597 16.7529ZM250.837 16.5933C249.342 15.9457 246.78 16.5589 243.971 16.0197C242.933 16.0113 241.895 16.0028 240.856 15.9943C240.854 15.9943 240.851 15.9943 240.848 15.9943C240.82 16.1691 240.791 16.344 240.762 16.5188C244.12 16.5436 247.479 16.5685 250.837 16.5933ZM490.855 17.367C490.161 17.2827 489.467 17.1984 488.774 17.1141C487.538 17.2036 486.302 17.2932 485.066 17.3828C485.734 17.4535 486.402 17.5243 487.07 17.5951C488.332 17.5191 489.593 17.4431 490.855 17.367ZM232.583 16.5708C236.215 16.6665 237.583 16.1149 232.939 16.0938C230.98 16.0855 228.778 16.4707 232.583 16.5708ZM666.478 18.0776C665.234 18.0248 663.989 17.9719 662.745 17.919C662.321 18.0344 661.896 18.1498 661.472 18.2652C663.141 18.2027 664.81 18.1402 666.478 18.0776ZM152.556 16.1081C152.703 15.9916 152.849 15.875 152.996 15.7584C154.106 15.7868 155.216 15.8151 156.326 15.8434C156.046 15.9586 155.767 16.0737 155.487 16.1889C154.51 16.162 153.533 16.1351 152.556 16.1081ZM658.104 17.9701C657.11 17.9435 656.115 17.9169 655.12 17.8903C654.451 17.9445 653.783 17.9986 653.114 18.0527C654.045 18.1132 654.975 18.1737 655.906 18.2342C656.639 18.1462 657.372 18.0582 658.104 17.9701ZM198.153 16.3711C199.55 16.5179 205.135 16.1026 200.106 15.9692C196.902 15.8845 197.943 16.3488 198.153 16.3711ZM190.62 16.4795C195.942 16.7705 191.956 15.3912 185.6 16.247C191.995 16.1531 190.307 16.462 190.62 16.4795ZM143.81 16.9841C143.676 16.9828 143.566 16.7865 142.497 16.7747C138.647 16.733 133.565 16.634 130.812 16.6104C124.192 16.5534 103.914 16.8216 101.545 16.2446C101.052 16.1234 102.19 15.7725 101.989 15.7533C101.4 15.6997 98.0081 15.858 98.6364 15.5987C101.964 15.6149 105.292 15.631 108.62 15.6472C107.802 15.8284 106.985 16.0097 106.167 16.1909C114.459 16.1275 111.715 16.1272 114.101 15.7351C115.504 15.8969 116.907 16.0587 118.31 16.2205C121.365 16.0768 124.421 15.9331 127.477 15.7894C126.784 15.9032 126.091 16.0171 125.397 16.1309C129.999 16.3667 128.721 16.2194 131.241 15.9469C131.246 16.0637 131.25 16.1805 131.255 16.2973C135.7 16.0316 136.565 16.3852 137.535 16.3935C139.527 16.4089 142.071 15.038 149.662 16.445C152.868 15.7974 152.79 17.1422 154.675 16.4662C160.094 17.2338 149.784 16.9206 144.905 16.8752C144.902 16.8752 144.9 16.8752 144.897 16.8752C144.529 16.8715 145.113 16.9994 143.81 16.9841ZM171.662 16.4174C168.378 17.0105 181.344 17.1223 177.057 16.2279C176.418 16.1967 175.779 16.1655 175.14 16.1343C173.978 16.2287 172.817 16.323 171.655 16.4174C171.657 16.4174 171.66 16.4174 171.662 16.4174ZM293.493 17.3369C305.504 17.1385 298.678 16.7603 294.609 17.0841C293.797 17.1483 293.352 17.2391 293.493 17.3369ZM538.834 18.3859C539.01 18.3138 539.185 18.2417 539.361 18.1697C535.333 18.2207 527.546 17.9068 527.651 18.3983C531.379 18.3942 535.106 18.39 538.834 18.3859ZM506.972 18.5718C507.837 18.6051 511.37 18.69 510.944 18.5045C509.414 18.3678 507.883 18.2311 506.352 18.0944C505.638 18.1727 504.925 18.2511 504.211 18.3294C505.207 18.3613 506.738 18.5631 506.972 18.5718Z" fill="#EFF7CF"/>
</svg>
