<svg width="1007" height="20" viewBox="0 0 1007 20" fill="none" xmlns="http://www.w3.org/2000/svg">
<path d="M22.622 0.74013C43.6872 -1.00774 58.0662 0.849402 77.6078 1.14539C120.626 1.79566 177.355 1.20999 221.353 1.25647C254.655 1.2917 288.493 1.41643 321.594 1.51647C323.292 1.5214 324.305 1.71302 325.075 1.71544C332.322 1.73799 344.475 1.56438 351.665 1.58971C366.788 1.64255 393.103 1.6127 406.954 1.79234C412.836 1.86841 418.869 1.90012 421.156 2.35629C423.305 2.37952 424.478 1.96736 425.039 1.94493C425.046 1.94533 425.052 1.94574 425.059 1.94615C426.866 1.87657 431.431 2.16556 432.438 2.14756C432.589 2.14474 431.661 1.84621 434.105 1.93638C434.323 1.94413 434.122 2.14711 436.179 2.15C436.715 2.1507 443.597 1.83944 445.564 1.82042C452.109 1.75847 467.74 2.00283 475.565 1.99864C476.762 1.99864 477.451 1.8799 478.715 1.87779C479.368 1.87656 480.347 2.00544 480.548 2.00474C481.428 2.00016 485.274 1.41485 483.893 2.56991C487.909 2.49667 486.726 2.11481 486.817 1.86681C491.176 1.83099 493.277 2.37498 494.415 1.79845C515.851 1.86803 537.288 1.9376 558.724 2.00718C558.73 1.91319 558.737 1.8192 558.743 1.72521C565.061 2.10063 567.229 1.46561 570.836 2.01084C573.06 1.89081 575.284 1.77078 577.508 1.65075C634.67 2.0206 691.699 1.58099 748.216 1.58239C750.602 1.58239 751.197 1.78239 755.131 1.7838C759.474 1.7852 765.583 1.55276 771.307 1.55554C776.328 1.55765 783.736 1.74685 789.335 1.77648C790.599 1.78282 791.513 1.65615 791.655 1.65685C792.492 1.6618 792.534 1.86234 793.345 1.86803C794.316 1.87437 795.489 1.72581 796.61 1.73497C800.801 1.76806 805.368 1.71685 805.899 1.72032C808.455 1.73931 809.019 1.93544 809.229 1.9376C812.073 1.96154 811.007 1.78452 811.715 1.79479C815.389 1.84903 817.986 2.29093 823.016 1.86681C822.879 2.03078 822.742 2.19476 822.605 2.35873C826.455 2.451 823.912 2.01529 824.699 1.93638C825.02 1.90715 833.306 1.96036 833.945 1.96812C836.171 1.99629 836.23 2.2142 836.423 2.21714C836.891 2.22418 842.491 1.97687 845.362 2.16709C848.758 2.39251 844.76 2.83578 845.604 2.91902C845.746 2.93311 849.302 2.88768 849.779 3.02644C850.306 3.17572 847.231 3.17256 847.278 3.23517C847.312 3.27815 852.418 3.58589 851.439 3.79302C850.652 4.00076 843.725 3.73439 842.258 3.83208C842.016 3.84825 842.472 4.10465 842.258 4.11405C841.396 4.14856 825.436 4.15627 824.706 4.11405C825.537 3.99727 826.368 3.8805 827.199 3.76372C826.094 3.75192 824.989 3.74012 823.884 3.72832C825.455 3.63474 827.027 3.54115 828.598 3.44757C826.263 2.48603 819.23 3.46078 818.94 3.94072C818.815 4.16264 823.114 4.73363 819.113 5.06617C819.721 5.12313 820.33 5.1801 820.938 5.23706C822.192 5.14348 823.445 5.04989 824.699 4.95631C823.864 4.89731 823.029 4.83831 822.194 4.77931C822.501 4.71258 822.809 4.64585 823.116 4.57912C825.459 4.47211 827.802 4.3651 830.146 4.25809C831.351 4.30741 831.1 4.50441 831.928 4.5425C842.256 5.02227 835.519 4.41176 842.281 4.49978C843.246 4.60557 844.212 4.71136 845.177 4.81715C844.837 4.37962 847.831 4.65434 851.454 4.4656C851.021 4.6072 850.588 4.7488 850.156 4.89039C855.403 4.81501 866.041 5.52889 863.17 4.74758C864.373 4.81431 865.575 4.88103 866.777 4.94776C867.793 4.82 868.808 4.69224 869.824 4.56448C871.227 4.57912 872.63 4.59377 874.034 4.60842C874.04 4.67759 874.047 4.74676 874.053 4.81593C872.934 4.81634 871.815 4.81675 870.696 4.81715C871.536 5.02792 872.376 5.23869 873.216 5.44946C874.041 5.41447 874.867 5.37947 875.693 5.34448C872.229 5.14514 876.796 4.81954 877.902 4.54128C880.823 4.43845 882.689 4.79965 883.668 4.81593C884.128 4.82368 889.551 4.18644 887.425 4.88673C890.215 4.80169 893.005 4.71665 895.795 4.63161C896.886 4.68532 897.977 4.73903 899.068 4.79274C896.701 5.11893 903.562 5.51194 898.507 5.64721C894.733 5.74866 893.803 5.44368 892.012 5.4458C890.397 5.44729 889.543 5.6527 887.786 5.66185C875.968 5.71963 866.342 5.68194 855.119 5.59106C852.901 5.57279 850.884 5.6735 849.395 5.65941C847.714 5.64317 849.82 5.38554 847.678 5.44824C845.428 5.51452 844.941 5.72476 844.347 5.72899C843.978 5.73138 842.806 5.54223 841.728 5.54223C837.296 5.54227 830.802 5.72517 830.173 5.72411C829.461 5.722 816.928 5.55132 816.328 5.52026C816.01 5.50335 816.67 4.80487 813.908 5.54955C813.046 5.56339 812.185 5.57722 811.323 5.59106C811.462 5.45149 811.602 5.31193 811.742 5.17237C806.636 5.70145 808.392 5.40545 803.471 5.44702C791.687 5.54704 774.304 5.42944 761.415 5.47875C758.537 5.49005 757.441 5.65715 754.036 5.66918C750.873 5.67974 742.613 5.18111 744.41 5.87181C737.371 5.27373 736.24 6.30507 732.716 5.66185C732.29 5.75544 731.864 5.84902 731.437 5.94261C727.612 5.54105 726.432 5.89397 722.256 5.94261C720.457 5.96374 722.531 5.53663 718.899 6.01219C718.205 5.97679 717.511 5.94139 716.817 5.90599C716.978 5.80264 717.139 5.69929 717.301 5.59594C713.267 5.68048 713.007 5.62663 713.467 6.01341C711.519 5.94301 709.572 5.87262 707.624 5.80223C707.382 5.92918 707.14 6.05613 706.898 6.18308C707.831 6.42522 752.053 6.06006 758.212 5.94383C765.434 6.23118 779.943 5.87193 785.778 5.94017C788.113 5.96764 789.144 6.25475 792.542 6.28928C795.939 6.32377 800.214 6.063 802.023 6.05369C808.049 6.02128 836.598 6.07856 817.181 6.43576C817.739 6.57573 818.298 6.7157 818.856 6.85567C826.572 6.37805 823.778 6.67208 830.18 6.72139C832.875 6.74244 839.285 6.42988 838.927 7.06562C833.922 7.18398 828.605 6.98078 824.253 6.98994C823.822 6.99093 818.669 7.2812 816.017 7.20233C813.625 7.13034 815.272 6.5243 810.067 7.20478C806.201 6.54005 803.966 7.14311 802.945 7.20722C801.18 7.31837 800.987 6.9903 799.222 6.9521C797.301 6.9099 795.978 7.12767 795.715 7.12909C793.08 7.13402 779.354 7.16372 778.725 7.03144C779.277 6.97326 779.829 6.91507 780.38 6.85689C776.816 6.76325 777.561 7.0987 776.624 7.13886C775.926 7.13764 775.228 7.13642 774.53 7.1352C774.807 7.06562 775.083 6.99604 775.36 6.92646C771.15 6.94126 774.371 7.18304 768.395 7.1767C764.601 7.17244 760.682 6.90682 760.313 6.92646C760.204 6.9321 761.399 7.11118 759.852 7.1352C757.291 7.17464 752.864 7.17009 752.369 6.92646C751.115 6.96095 751.222 7.19935 751.055 7.20478C750.327 7.22802 737.799 7.30908 735.555 7.32318C729.337 7.36193 722.413 7.3111 715.676 7.35126C714.983 7.35527 715.425 7.20229 714.731 7.20722C713.616 7.21505 707.895 7.45515 707.04 7.4721C704.907 7.51365 699.296 7.41842 698.413 7.48797C698.287 7.49783 700.134 7.70461 697.975 7.76872C695.577 7.83965 696.868 7.56154 696.738 7.55877C691.859 7.46367 688.779 7.6569 685.448 7.69426C684.369 7.70624 682.377 7.49694 680.854 7.55877C680.678 7.56579 681.026 7.75921 680.854 7.76872C678.552 7.87017 676.399 7.51122 675.403 7.48797C672.966 7.43114 674.293 7.69604 674.166 7.69792C672.542 7.70638 670.357 7.61081 667.889 7.62346C656.883 7.67983 647.902 7.69601 636.201 7.67839C634.732 7.67628 632.988 7.48943 632.763 7.48919C632.068 7.4906 632.267 7.71018 630.258 7.70525C626.024 7.69398 622.098 7.70459 617.905 7.70037C617.06 7.69948 616.7 7.49603 616.057 7.49163C613.898 7.47895 606.536 8.01169 606.415 7.34881C602.13 7.93563 599.284 7.42986 595.836 7.43548C587.667 7.44816 574.877 7.56772 566.733 7.49163C565.019 7.47532 564.214 7.30548 563.261 7.29633C561.55 7.27947 551.771 7.37435 551.26 7.34759C550.256 7.29616 550.858 6.54821 545.694 7.19989C542.666 7.24633 543.024 6.93935 542.398 6.9228C537.519 6.79951 532.772 7.48462 533.659 6.85689C527.978 7.02734 524.296 7.37424 521.977 6.78731C522.007 7.07374 519.335 7.24555 516.115 7.13642C519.412 6.65526 519.004 6.34775 526.979 6.43576C527.104 6.43717 526.865 6.6443 526.99 6.64571C528.129 6.6597 530.504 6.55513 532.445 6.56637C534.386 6.57764 533.308 6.71923 534.085 6.71651C534.797 6.71369 534.773 6.51548 535.802 6.51266C539.141 6.5049 542.096 6.45026 543.996 6.44674C545.193 6.44469 546.532 6.61886 547.461 6.61886C551.052 6.61743 558.661 6.48143 563.23 6.50045C564.182 6.50489 563.782 6.70031 565.865 6.71651C566.108 6.7184 566.996 6.51462 568.819 6.47238C570.643 6.43012 572.057 6.53131 573.229 6.51022C574.208 6.49261 573.799 6.31158 575.807 6.30026C577.481 6.2911 596.439 6.42152 597.468 6.4504C598.949 6.49204 599.653 6.74628 600.557 6.71529C600.716 6.70865 600.985 6.4631 601.536 6.44552C610.626 6.15533 630.743 6.49033 641.13 6.48825C662.839 6.48472 682.868 6.34024 704.77 6.28317C705.161 6.24045 705.551 6.19773 705.942 6.155C703.728 6.15338 701.514 6.15175 699.3 6.15012C699.286 6.03456 699.272 5.91901 699.258 5.80345C696.265 5.78515 696.661 6.05845 696.745 6.22336C695.638 6.15338 694.53 6.08339 693.423 6.01341C692.467 6.41611 685.08 6.14828 681.272 6.1489C678.795 6.1489 675.848 6.30242 674.542 6.2905C671.783 6.26586 671.855 6.01737 671.638 6.01341C671.27 6.00777 667.418 6.22693 664.639 6.21848C660.531 6.20641 660.087 5.82486 654.463 6.1489C647.257 5.95095 639.273 6.05057 631.507 6.08298C632.986 5.7303 626.026 6.06411 622.887 6.05857C603.738 6.02405 580.202 5.87337 560.802 5.73387C558.309 5.71627 556.425 5.5085 555.036 5.51537C554.283 5.5189 553.954 5.76384 552.908 5.73143C552.724 5.7252 552.597 5.49616 550.649 5.46167C545.803 5.37501 533.733 5.75725 530.678 5.31763C514.11 5.38558 497.542 5.45353 480.974 5.52148C480.558 5.42789 480.142 5.33431 479.726 5.24072C476.578 5.71897 464.136 5.43794 458.068 5.46044C447.389 5.5006 433.763 5.64931 424.406 5.66552C422.372 5.66904 420.706 5.53337 418.782 5.53613C417.954 5.53753 416.924 5.71343 416.062 5.71434C406.387 5.72773 393.287 5.54655 383.537 5.55077C361.4 5.55993 340.552 5.53326 318.122 5.54101C242.563 5.56848 167.439 5.82716 92.524 5.72289C91.5196 5.72148 91.5698 5.51923 90.7915 5.51782C86.1968 5.50795 75.9362 5.67467 70.7471 5.66552C66.6126 5.65847 60.0503 5.34923 58.6274 5.66063C73.3158 6.13196 88.8341 6.0965 104.125 6.22824C105.212 6.23752 105.347 6.42979 105.481 6.43332C107.957 6.50012 106.393 6.23534 109.983 6.22336C111.183 6.21935 122.265 6.83314 120.946 6.22214C123.601 6.46656 142.309 6.58873 145.919 6.50778C147.016 6.48312 146.24 6.3021 146.457 6.29294C147.402 6.25296 147.829 6.50255 148.674 6.509C150.925 6.5245 156.651 6.32205 157.739 6.32346C160.243 6.32562 167.748 6.5288 171.054 6.48092C174.083 6.43724 173.516 6.17652 176.136 6.15256C178.201 6.13436 175.952 6.35367 180.561 6.41989C182.846 6.45229 190.838 6.29541 192.781 6.29538C194.722 6.29538 196.883 6.4514 199.561 6.43942C203.419 6.42251 211.811 6.33564 215.737 6.28561C215.971 6.2828 216.542 6.07998 217.12 6.0842C218.316 6.09271 217.957 6.34319 218.86 6.36862C219.764 6.39398 235.416 6.36338 238.075 6.36618C239.907 6.36759 241.172 6.21838 242.185 6.2197C242.98 6.22111 243.065 6.42976 243.875 6.43209C244.126 6.43209 246.262 6.25087 248.396 6.2551C250.413 6.25935 258.07 6.43169 258.956 6.43332C259.534 6.43402 258.901 6.28575 260.608 6.28928C262.164 6.29291 263.186 6.48543 264.073 6.48825C266.131 6.49451 268.432 6.33034 270.615 6.32956C276.892 6.32744 276.569 6.56594 276.946 6.57369C277.99 6.59523 278.408 6.37679 278.751 6.37228C280.198 6.35397 283.746 6.31362 285.036 6.30515C286.643 6.29458 287.323 6.50219 289.031 6.50289C290.303 6.50275 292.873 6.30036 295.776 6.2905C302.321 6.26725 310.104 6.22904 316.531 6.23679C318.448 6.2389 318.742 6.42838 319.328 6.43332C322.407 6.45932 324.131 6.24744 325.009 6.25022C331.278 6.26924 342.46 6.60166 348.277 6.62984C350.645 6.64111 361.015 6.48762 366.865 6.5151C367.534 6.51795 366.908 6.66652 367.653 6.64327C369.434 6.58752 369.269 6.285 370.173 6.29416C370.609 6.29951 371.603 6.47006 372.873 6.48702C379.46 6.57509 383.99 6.44247 386.994 6.45163C415.851 6.53969 445.278 6.61894 472.227 6.64571C475.232 6.64853 478.958 6.46855 483.494 6.64327C483.634 6.73726 483.773 6.83125 483.913 6.92524C484.072 6.83288 484.23 6.74052 484.389 6.64815C489.527 6.59813 491.469 6.47925 496.716 6.59688C497.168 6.60675 498.547 7.03583 499.401 6.50289C504.599 6.88897 501.747 6.49976 505.605 6.46383C509.463 6.42791 513.212 6.5469 516.953 6.57369C519.003 6.76462 510.399 7.20496 509.838 7.20356C508.935 7.20185 507.996 6.93688 507.126 6.9228C504.55 6.88067 502.057 7.09094 501.479 6.85444C498.149 7.10449 502.295 6.97956 501.879 7.20478C499.656 7.1116 497.433 7.01842 495.21 6.92524C494.078 7.69126 481.795 6.6923 482.649 7.27557C481.672 7.1588 480.695 7.04202 479.718 6.92524C475.434 7.65699 472.914 7.14174 467.199 6.92402C467.611 7.01761 468.023 7.11119 468.436 7.20478C468.319 7.24383 463.275 7.39348 465.078 6.99482C459.908 7.5201 460.125 6.64636 455.49 7.27802C452.737 7.35903 454.392 6.99215 449.463 6.99848C446.542 7.00201 442.916 7.19383 439.652 7.20722C438.9 7.20969 438.573 6.99726 437.904 6.99726C437.235 6.99735 436.909 7.20563 436.099 7.21088C434.425 7.22215 432.255 7.07594 431.209 7.09003C430.271 7.10205 428.931 7.28575 426.672 7.31464C418.782 7.41675 421.165 7.15441 419.919 7.06562C418.58 6.97122 417.617 7.31688 414.948 7.27679C414.68 7.27257 415.373 7.05717 414.502 7.06562C413.8 7.07224 413.447 7.30638 411.122 7.35003C410.196 7.36765 395.822 7.41781 393.632 7.42205C390.276 7.4284 382.8 7.23022 379.327 7.23163C377.988 7.23167 376.558 7.41965 375.136 7.41839C370.424 7.41417 362.88 7.39826 356.904 7.3891C351.523 7.38059 342.077 6.96567 339.13 7.34027C331.574 7.38887 329.739 7.06876 329.17 7.0644C327.63 7.05242 326.917 7.26449 324.975 7.27435C299.825 7.39763 266.707 7.25745 242.888 7.27435C187.634 7.31522 132.079 7.4311 76.6321 7.34515C76.4836 7.43914 76.335 7.53313 76.1865 7.62713C82.7397 7.68772 90.4413 7.85101 96.9108 7.88835C105.548 7.93761 118.36 7.5462 124.696 8.18863C122.126 8.24497 117.94 7.99865 118.015 8.32901C122.609 8.35261 127.202 8.37621 131.795 8.39981C131.658 8.24722 131.521 8.09464 131.384 7.94206C136.179 7.89768 141.084 7.93094 145.896 7.9091C146.732 7.9055 146.14 7.76699 146.868 7.76628C147.683 7.76578 147.131 7.90676 147.283 7.90788C149.342 7.90929 149.963 7.76667 150.214 7.76872C150.859 7.77436 150.357 7.91012 152.215 7.94816C155.662 8.01922 158.13 7.65856 157.321 8.25943C158.433 8.25943 159.546 8.25943 160.659 8.25943C160.947 8.09586 161.235 7.93229 161.523 7.76872C168.368 8.4291 171.524 7.2707 175.306 8.18985C176.553 8.04948 177.8 7.9091 179.048 7.76872C179.751 7.93229 180.454 8.09586 181.157 8.25943C181.294 8.11905 181.431 7.97868 181.568 7.8383C188.287 7.94181 195.442 7.77329 201.869 7.78947C206.346 7.80075 207.419 7.85617 211.385 7.84563C220.205 7.82167 211.446 8.10021 218.775 8.40103C218.394 8.22891 218.012 8.0568 217.631 7.88469C218.845 7.82162 220.058 7.75855 221.272 7.69548C222.117 7.83586 222.963 7.97624 223.808 8.11661C227.556 7.3885 229.985 7.97624 230.496 7.97624C230.908 7.97496 232.324 7.53663 236.761 7.90788C234.921 7.3086 240.145 7.90436 240.564 7.90788C240.962 7.91031 246.048 7.77652 248.112 7.78215C249.736 7.78642 253.2 7.91542 255.618 7.9091C257.753 7.90348 257.537 7.70004 257.693 7.69792C260.321 7.68102 258.674 7.8391 260.574 7.84685C262.473 7.85458 263.947 7.68121 264.357 7.6967C264.564 7.70496 263.874 7.89447 264.818 7.91276C267.355 7.96268 271.941 7.79675 274.844 7.80168C275.874 7.80321 277.171 7.96398 278.317 7.96891C280.074 7.97592 280.896 7.76238 281.917 7.76872C282.272 7.77151 284.538 8.10137 287.356 8.0507C287.892 8.04053 289.467 7.34252 291.558 8.33145C291.72 8.19229 291.881 8.05314 292.042 7.91398C301.492 7.56947 304.121 8.69995 308.322 7.6967C315.183 7.80875 310.473 8.19955 311.226 8.25943C311.713 8.29727 313.95 8.18983 314.196 8.19596C314.631 8.20793 314.556 8.33337 315.033 8.33267C323.779 8.30942 319.896 8.07259 322.666 7.92253C329.253 7.56534 334.391 8.35834 322.935 8.12027C322.935 8.19026 322.935 8.26024 322.935 8.33023C325.756 8.26334 332.917 8.29511 330.526 8.65004C328.643 8.92973 311.654 8.74719 321.275 9.13953C323.46 9.2283 324.591 8.96566 328.374 9.45812C330.876 9.48484 331.237 8.84685 334.624 9.10291C334.067 8.88034 333.51 8.65777 332.953 8.43521C337.573 8.14509 343.272 8.53426 346.821 8.40957C348.027 8.36708 352.37 7.30596 351.358 8.36685C353.385 8.3007 362.932 8.49613 364.706 8.40103C365.133 8.37806 365.689 7.81323 371.863 8.01042C372.292 8.08121 372.721 8.15201 373.15 8.22281C367.503 8.4285 377.475 8.63772 374.767 9.17371C373.846 8.9328 369.368 8.78586 368.648 8.66469C367.417 8.45615 371.082 8.18738 366.412 8.26065C363.468 9.15646 371.885 8.74424 370.599 9.59484C376.73 9.19778 377.343 9.57663 378.731 9.5924C384.665 9.6565 388.399 9.56635 393.997 9.66564C395.361 9.49092 385.226 9.2387 383.971 9.31409C388.591 8.69481 380.639 8.66679 377.283 9.03455C377.001 8.84738 376.72 8.66022 376.438 8.47305C380.807 8.5745 385.068 8.62662 389.395 8.47305C389.677 8.54303 389.958 8.61302 390.24 8.683C389.27 8.78839 388.299 8.89377 387.328 8.99915C390.927 9.17173 388.769 8.62594 393.563 9.10413C393.712 8.89336 393.86 8.68259 394.009 8.47183C398.605 8.54181 403.202 8.6118 407.799 8.68178C410.192 8.25914 419.038 8.41657 417.418 8.96375C420.988 9.00239 416.581 8.71117 419.927 8.57802C421.383 8.52025 424.229 8.50402 424.932 8.65126C424.629 9.17234 420.37 9.23701 419.081 9.59484C419.863 9.71028 439.67 9.33826 437.904 9.94761C439.486 10.0209 438.759 9.70695 441.611 9.62658C449.604 9.40254 461.984 10.023 468.42 9.24451C460.863 8.81123 458.627 9.27013 452.836 9.28845C449.136 9.30043 426.581 9.37431 431.62 8.82338C430.791 8.89336 429.963 8.96335 429.134 9.03333C428.297 8.86936 427.459 8.70538 426.622 8.5414C428.982 8.51781 431.342 8.49421 433.702 8.47061C434.265 8.63418 434.829 8.79774 435.392 8.96131C435.652 8.84454 435.912 8.72776 436.172 8.61098C437.165 8.58779 438.159 8.5646 439.153 8.5414C438.874 8.68178 438.594 8.82216 438.315 8.96253C439.847 8.98654 441.378 9.01055 442.91 9.03455C442.497 8.84698 442.085 8.6594 441.673 8.47183C448.885 8.42465 446.442 8.54213 450.443 8.89296C453.429 8.92883 448.384 8.56829 454.703 8.47671C462.05 8.37036 457.23 8.94351 466.745 8.82094C466.882 8.72735 467.02 8.63377 467.156 8.54018C469.249 8.63377 471.341 8.72735 473.433 8.82094C473.157 8.70457 472.88 8.5882 472.604 8.47183C476.922 8.51692 482.873 8.29483 484.305 8.75136C479.927 8.53155 479.97 9.32867 481.108 9.47521C483.458 9.7759 518.168 9.49616 524.897 9.47643C533.5 9.45108 540.002 9.70641 547.86 9.31409C542.535 8.9923 523.809 9.25592 520.26 9.03333C519.909 9.01149 520.007 8.28077 517.748 9.10291C510.467 8.96347 501.764 9.19641 492.667 9.17249C492.945 8.96213 493.223 8.75177 493.501 8.5414C499.092 8.98878 504.266 8.00613 503.538 8.82338C504.651 8.82338 505.764 8.82338 506.877 8.82338C506.877 8.68259 506.877 8.54181 506.877 8.40103C508.554 8.40103 510.231 8.40103 511.909 8.40103C511.909 8.54181 511.909 8.68259 511.909 8.82338C513.298 8.82338 514.687 8.82338 516.077 8.82338C516.221 8.683 516.366 8.54263 516.511 8.40225C520.671 8.69381 534.854 7.91424 528.619 8.75258C530.573 8.75258 532.527 8.75258 534.481 8.75258C534.474 8.64964 534.468 8.54669 534.462 8.44375C535.302 8.42992 536.142 8.41608 536.982 8.40225C536.705 8.49543 536.428 8.5886 536.152 8.68178C540.001 8.51484 543.651 9.00537 546.178 8.683C544.511 8.61261 542.844 8.54222 541.176 8.47183C544.374 8.60554 550.264 8.32849 550.791 8.32779C552.398 8.32639 553.245 8.5345 554.986 8.54507C556.558 8.55409 556.341 8.39417 556.634 8.39981C565.111 8.56259 561.88 9.42833 565.838 8.40347C566.26 8.54344 566.681 8.68341 567.102 8.82338C567.663 8.7066 568.224 8.58982 568.785 8.47305C571.288 8.48403 573.791 8.49502 576.294 8.50601C575.46 8.33104 574.625 8.15608 573.79 7.98112C577.542 7.90303 579.292 8.25383 579.656 8.26187C580.684 8.28228 581.155 8.06209 581.473 8.06168C596.764 8.08071 587.476 8.27458 595.117 9.10169C597.842 8.77711 595.085 8.45171 594.699 8.1215C598.322 8.2764 599.452 8.18497 603.276 8.20328C604.271 8.20827 605.341 8.38642 605.969 8.38882C606.513 8.39093 608.213 8.20162 609.519 8.20084C611.695 8.19943 614.591 8.31228 617.57 8.30948C620.048 8.30666 627.631 8.17295 632.921 8.17154C635.178 8.17155 634.654 8.3299 635.237 8.33023C635.48 8.33023 637.239 8.14055 638.686 8.13981C650.496 8.13558 662.598 8.25562 674.465 8.25211C682.826 8.24999 691.322 8.09746 699.7 8.11295C701.482 8.11647 700.538 8.25572 701.317 8.26065C701.584 8.26189 701.906 8.01891 704.663 8.11661C705.659 8.15184 704.513 8.32178 705.492 8.33023C705.969 8.33426 706.172 8.12126 708.957 8.07267C714.02 7.98394 716.741 8.26788 717.193 8.25943C718.045 8.24308 717.796 8.0668 718.926 8.06046C724.448 8.02947 729.059 7.99958 733.988 7.98478C736.289 7.97774 752.158 7.9421 753.03 7.9738C754.979 8.04423 753.165 8.41234 755.665 8.39981C756.365 8.30663 757.066 8.21345 757.766 8.12027C756.653 8.04948 755.541 7.97868 754.428 7.90788C757.491 8.02623 760.964 7.85882 763.232 7.86516C763.651 7.8666 767.508 8.03353 769.475 8.0153C768.639 8.08447 767.802 8.15364 766.966 8.22281C767.262 8.28181 767.558 8.34081 767.854 8.39981C771.787 8.31036 775.947 8.31267 779.981 8.32535C781.435 8.32966 780.944 8.473 782.416 8.47793C790.994 8.50816 788.827 7.91217 797.079 9.03089C794.293 8.92947 784.128 9.07178 782.651 9.03455C781.621 9.00849 777.629 8.0632 779.094 9.03333C770.858 9.02911 778.011 8.49403 770.32 8.61098C770.473 8.72939 770.627 8.84779 770.781 8.9662C768.096 9.04084 766.112 9.10067 764.481 8.89174C763.934 9.46615 754.811 9.13009 749.807 9.16883C742.576 9.22378 734.406 9.36389 727.242 9.38855C724.774 9.39691 723.376 9.17178 723.067 9.17249C722.614 9.17411 721.343 9.37127 720.439 9.37268C717.066 9.3783 706.804 9.045 704.252 9.5924C724.322 9.5924 744.392 9.5924 764.462 9.5924C761.938 9.32333 782.24 9.29704 783.269 9.31042C784.222 9.32245 783.42 9.51136 783.703 9.52282C785.812 9.60384 787.613 9.32995 788.282 9.32995C788.793 9.32999 789.824 9.4585 791.64 9.45568C791.973 9.45528 792.065 9.31938 792.423 9.31897C794.792 9.31897 797.13 9.32089 799.507 9.32019C799.652 9.32151 800.251 9.52003 800.851 9.52038C801.453 9.52038 802.048 9.32203 802.2 9.32141C804.099 9.32282 807.356 9.45183 809.164 9.45324C809.791 9.45318 809.356 9.30781 810.059 9.3092C812.218 9.31273 811.507 9.59731 814.177 9.52404C815.072 9.49935 815.014 9.28173 816.728 9.31042C817.941 9.33086 817.811 9.71868 818.003 9.73277C818.269 9.7498 822.457 9.44353 823.827 9.69737C820.833 10.3675 827.101 9.73234 826.8 9.44958C828.459 9.52079 830.119 9.59199 831.778 9.6632C832.344 9.59158 832.91 9.51997 833.476 9.44836C840.172 9.77103 844.257 9.57729 850.843 9.67662C851.161 9.68156 856.711 9.84076 856.452 9.94151C853.13 10.1148 849.815 10.1227 847.689 9.80235C844.191 10.4132 844.131 9.9264 838.482 10.0074C836.59 10.0349 836.456 10.2006 836.238 10.2027C828.882 10.2851 817.101 10.3565 812.145 9.87193C810.756 10.003 815.75 10.0549 813.808 10.1515C812.749 10.2043 787.261 10.3591 795.404 9.80113C794.559 9.81659 793.714 9.83206 792.869 9.84752C792.023 10.3745 787.821 10.254 788.298 9.72911C787.899 9.83653 787.501 9.94395 787.103 10.0514C786.316 10.1423 785.385 10.1909 784.08 10.2198C779.08 10.3297 749.337 10.1469 747.755 10.2223C747.72 10.3468 747.684 10.4713 747.648 10.5958C760.788 10.7367 773.535 10.4273 787.863 10.7838C787.447 10.667 787.031 10.5502 786.615 10.4334C792.332 10.597 798.05 10.7606 803.767 10.9241C797.716 11.1355 788.089 11.313 781.736 11.139C780.607 11.1079 781.435 10.9451 781.176 10.9254C780.498 10.8741 779.769 11.1567 777.334 11.1841C774.898 11.2116 768.779 11.0113 768.219 11.0169C767.138 11.0285 764.22 11.3518 762.38 11.3477C759.961 11.3421 761.582 11.142 761.097 11.1378C759.088 11.1181 757.288 11.2172 755.715 11.2025C753.379 11.1805 748.527 10.8286 746.895 11.3453C748.563 11.3689 750.232 11.3925 751.9 11.4161C742.853 11.6014 735.779 10.9409 726.866 11.4503C724.841 12.0759 732.205 11.9913 725.979 12.2583C727.109 12.2494 728.24 12.2404 729.37 12.2315C729.636 12.1005 729.901 11.9694 730.166 11.8384C732.113 11.932 734.061 12.0256 736.008 12.1192C735.453 12.0024 734.897 11.8856 734.341 11.7688C741.246 11.6808 748.218 11.561 750.629 12.1888C750.771 12.037 750.913 11.8852 751.055 11.7334C757.466 11.918 767.089 11.2747 765.291 12.1192C765.595 12.0744 765.898 12.0297 766.202 11.9849C770.077 12.1575 768.422 11.8083 769.878 11.7688C770.294 11.7577 777.826 11.938 774.488 12.1888C781.836 12.3804 779.57 11.5911 781.594 11.5564C786.298 11.9475 794.759 11.3609 791.202 11.9788C791.902 12.002 792.602 12.0252 793.303 12.0484C795.605 11.5623 797.873 12.1123 800.367 12.2962C801.212 12.3072 802.057 12.3181 802.903 12.3291C803.469 12.1656 804.034 12.002 804.6 11.8384C812.551 12.6169 810.034 10.4879 813.666 12.2766C813.1 12.3837 812.534 12.4907 811.968 12.5977C810.626 12.6485 809.284 12.6994 807.942 12.7503C813.355 12.7975 818.768 12.8447 824.18 12.8919C831.05 13.3932 834.96 12.8492 842.592 13.2458C843.306 13.1982 844.021 13.1506 844.735 13.103C844.007 13.5081 841.235 13.4486 846.399 13.6304C846.839 13.9168 843.352 13.9538 841.762 13.7341C841.379 13.6805 844.64 13.4611 840.975 13.4534C838.483 13.4478 843.007 13.792 835.543 13.6645C835.819 13.7345 836.096 13.8045 836.373 13.8745C835.563 13.8725 834.754 13.8704 833.945 13.8684C833.225 13.7064 832.506 13.5445 831.786 13.3826C829.936 13.6165 828.898 13.9442 824.672 13.8745C825.818 13.7731 824.263 13.4479 822.171 13.4534C822.171 13.5705 822.171 13.6877 822.171 13.8049C817.107 13.8803 818.856 13.5365 814.646 13.8049C814.224 13.7117 813.803 13.6186 813.382 13.5254C811.089 13.9093 802.646 14.1706 804.186 13.595C801.817 14.1544 796.843 13.902 794.993 13.4546C794.851 13.571 794.709 13.6873 794.567 13.8037C793.582 13.8273 792.597 13.8509 791.613 13.8745C791.063 13.8041 790.514 13.7337 789.965 13.6633C789.267 13.7337 788.569 13.8041 787.871 13.8745C787.45 13.7577 787.029 13.6409 786.607 13.5242C785.486 13.6641 784.364 13.8041 783.242 13.9441C782.556 13.8509 781.87 13.7577 781.183 13.6645C781.112 13.9081 774.313 13.9624 772.413 13.8025C771.847 13.8733 771.281 13.9441 770.715 14.0149C770.439 13.8989 770.162 13.7829 769.886 13.667C769.464 13.7597 769.043 13.8525 768.622 13.9453C767.651 13.8525 766.681 13.7597 765.71 13.667C761.752 14.2355 761.624 13.7367 760.72 13.7402C759.044 13.7467 753.338 14.1028 752.384 14.0844C751.432 14.066 750.971 13.8619 750.202 13.8428C737.523 13.5222 742.735 14.0698 740.192 14.1565C738.819 14.2037 737.848 14.0133 736.635 14.0344C734.559 14.0696 724.088 14.3215 723.485 14.2968C722.608 14.2613 724.673 13.3636 721.822 13.595C721.728 14.077 715.63 13.5905 718.48 14.2627C715.969 14.2037 713.458 14.1447 710.947 14.0857C711.232 14.657 708.135 14.2896 704.762 14.3213C699.983 14.3657 689.223 14.7414 689.616 14.1552C688.471 14.2899 687.326 14.4246 686.182 14.5593C678.348 14.3748 670.666 14.5681 662.891 14.5752C639.817 14.597 614.783 14.4698 591.818 14.3542C590.714 14.3485 590.872 14.157 590.077 14.1528C585.901 14.1317 575.046 14.2671 569.196 14.2248C567.322 14.2114 566.409 14.0247 565.815 14.0161C563.798 13.9858 564.274 14.2319 563.345 14.2248C561.88 14.2135 554.13 13.9851 551.46 13.9612C550.138 13.9493 548.574 14.1448 547.027 14.0844C546.894 14.0795 547.14 13.878 547.027 13.8745C544.206 13.8498 545.903 14.024 544.949 14.0149C538.145 13.9494 530.872 13.9454 523.491 13.9038C521.658 13.8932 518.853 13.7512 517.279 13.7378C516.679 13.733 517.755 13.8859 515.681 13.8733C514.971 13.8689 514.727 13.6701 513.926 13.6572C510.469 13.603 509.313 14.2419 506.343 13.728C500.61 13.7618 490.63 13.9259 485.399 13.9294C484.162 13.93 483.559 13.8126 482.38 13.8147C481.543 13.8161 480.071 13.998 478.765 14.0002C477.46 14.0023 475.399 13.8291 472.888 13.8354C470.244 13.8418 466.957 13.9447 466.361 13.9441C465.642 13.9441 465.306 13.7253 464.587 13.728C462.411 13.7351 456.585 13.9501 453.781 13.9734C450.768 13.998 448.96 13.8919 447.93 13.894C446.977 13.897 445.865 14.0816 445.43 14.0832C444.752 14.086 444.592 13.8703 443.732 13.8721C442.326 13.8756 440.877 14.0113 438.769 14.0149C400.805 14.0818 363.584 13.9632 326.65 13.8061C322.532 13.7885 320.205 13.9399 314.138 13.8708C311.678 13.8427 312.715 13.62 310.8 13.6621C309.946 13.6811 310.162 13.8562 309.083 13.8647C304.312 13.9014 298.754 13.7386 296.687 13.7414C295.867 13.7423 294.93 13.9412 293.249 13.9441C280.72 13.9666 265.897 13.9108 252.415 13.9453C245.275 13.9636 234.467 14.065 226.274 14.0783C203.635 14.1157 179.281 14.0696 158.634 14.0893C127.458 14.1182 96.4321 14.3021 65.323 14.0844C79.8772 14.5656 99.6959 14.5255 115.899 14.5776C162.7 14.727 212.532 14.4474 260.497 14.458C277.185 14.4615 298.227 14.4504 316.497 14.5617C317.325 14.5667 319.043 14.4137 320.834 14.4299C321.214 14.4337 325.932 14.7127 327.522 14.7155C326.015 14.2195 332.242 14.6616 334.167 14.6496C336.595 14.634 341.658 14.3862 347.339 14.5263C352.495 14.6531 351.073 14.8439 351.358 14.8559C353.181 14.9332 353.817 14.6258 355.214 14.5947C360.922 14.4707 390.282 14.6493 398.476 14.6606C400.594 14.6634 400.653 14.8589 401.131 14.8596C402.394 14.8609 404.192 14.6678 406.217 14.6691C409.866 14.672 414.069 14.8564 416.077 14.8571C420.882 14.8592 429.997 14.6416 436.241 14.6374C437.997 14.6361 437.889 14.8395 438.684 14.8388C442.183 14.8352 451.297 14.5956 455.64 14.5935C462.695 14.5899 469.953 14.7214 477.125 14.6545C477.579 14.7452 478.034 14.836 478.489 14.9267C479.206 14.8315 479.923 14.7363 480.64 14.6411C492.767 14.7136 505.111 14.5093 517.172 14.5227C518.561 14.5241 525.44 14.6977 526.587 14.6984C527.541 14.6984 528.48 14.4737 529.894 14.5068C531.876 14.5527 530.011 14.9808 533.248 14.8583C534.118 14.8252 533.274 14.642 535.023 14.5849C535.6 14.5659 546.808 14.4917 547.411 14.5044C548.415 14.5257 549.31 14.9183 549.57 14.9267C550.917 14.971 550.859 14.6698 551.763 14.6423C554.43 14.5601 557.914 14.7627 558.347 14.7583C563.587 14.7026 573.381 14.4621 578.88 14.6045C579.64 14.6243 579.549 14.8486 579.683 14.8559C580.544 14.9024 581.08 14.647 581.899 14.6411C586.31 14.6122 593.217 14.7842 597.653 14.8278C598.164 14.8326 599.242 14.7097 600.153 14.7216C605.309 14.7907 603.637 14.9878 603.93 14.9963C604.624 15.0172 605.846 14.7998 607.694 14.7863C612.456 14.7504 621.589 14.7816 626.694 14.7985C630.518 14.8119 630.461 15.0609 630.712 15.0659C631.248 15.0748 632.738 14.876 635.256 14.8535C640.101 14.8091 639.549 15.0047 641.541 14.9963C641.708 14.9963 641.417 14.8048 643.627 14.7851C647.896 14.7471 657.484 14.9353 662.054 14.9255C663.811 14.922 664.223 14.7374 666.022 14.7338C668.875 14.7275 675.314 14.9272 675.821 14.9267C675.964 14.9267 676.283 14.7143 677.12 14.7143C678.04 14.7143 678.946 14.8237 679.632 14.8229C683.54 14.82 690.273 14.4494 688.402 15.2075C689.654 15.0203 690.907 14.8331 692.159 14.646C700.344 14.6833 708.296 14.6083 716.406 14.5703C718.23 14.5618 719.753 14.7054 721.292 14.6984C722.831 14.6914 729.622 14.4539 730.757 14.4494C732.783 14.4417 744.292 14.4166 745.723 14.4336C748.519 14.466 751.231 14.7793 752.369 14.718C753.281 14.6687 752.438 14.4921 754.178 14.4421C757.192 14.3556 762.312 14.5823 763.232 14.5788C763.626 14.5774 762.89 14.4398 766.571 14.4299C768.554 14.4243 769.619 14.5759 770.339 14.5752C770.563 14.5744 770.227 14.3285 774.154 14.3615C776.865 14.3848 778.021 14.5744 778.306 14.5752C778.733 14.5764 779.764 14.374 781.479 14.3811C785.488 14.3987 792.818 14.6308 796.626 14.6484C797.362 14.6519 797.112 14.4074 800.048 14.4299C802.149 14.4461 801.782 14.6406 802.568 14.6484C803.815 14.6604 805.673 14.4222 808.427 14.4299C811.891 14.4398 837.619 14.6868 838.95 14.7509C839.846 14.7939 840.885 14.7966 841.328 14.9023C840.948 15.0036 840.568 15.1049 840.187 15.2062C836.247 14.8507 837.837 15.257 836.791 15.2831C835.277 15.3205 829.568 15.2686 828.187 15.3588C827.695 15.3914 828.821 15.6077 826.178 15.7189C823.341 15.8379 822.079 15.4529 820.949 15.9789C816.924 15.3949 813.057 16.0148 817.719 16.1803C820.321 16.2726 845.849 16.4812 851.062 16.5136C855.289 16.5396 863.205 16.3831 868.402 16.4232C871.457 16.4472 878.981 16.4743 878.663 16.754C881.374 16.7893 878.505 16.5108 879.074 16.4721C880.264 16.3912 888.727 16.5835 890.329 16.5758C898.23 16.5392 908.2 16.2265 915.874 16.5795C915.517 16.6544 915.16 16.7292 914.803 16.8041C913.078 16.9415 905.077 16.7451 904.173 17.1044C915.874 17.1044 927.575 17.1044 939.276 17.1044C939.058 16.7986 953.571 16.8027 954.258 16.9408C954.003 17.0889 953.748 17.237 953.493 17.3851C945.292 16.823 946.028 17.566 940.521 17.1715C938.279 17.1659 938.956 17.4107 937.851 17.4571C926.856 17.9192 937.675 16.955 929.258 17.174C931.791 17.5289 924.898 17.6586 921.809 17.7037C921.106 17.7136 911.873 17.6236 910.777 17.6293C904.617 17.661 894.039 17.8554 887.92 17.661C883.1 17.6377 880.446 17.8906 876.07 17.9491C872.748 17.9935 873.7 17.8158 872.136 17.8136C868.855 17.8086 867.775 18.3496 865.675 17.5951C863.451 17.6891 861.227 17.7831 859.002 17.8771C859.002 17.7599 859.002 17.6427 859.002 17.5255C857.605 17.5255 856.208 17.5255 854.811 17.5255C854.4 17.6423 853.989 17.7591 853.578 17.8758C849.145 17.7159 850.996 17.4337 850.167 17.1019C849.209 17.0791 848.252 17.0564 847.294 17.0336C846.552 17.2883 845.811 17.543 845.07 17.7977C840.793 17.777 836.516 17.7562 832.239 17.7355C831.963 17.6187 831.686 17.5019 831.41 17.3851C831.401 17.5019 831.392 17.6187 831.383 17.7355C824.14 17.7595 816.898 17.7835 809.656 17.8075C807.729 17.9948 819.333 18.1368 820.212 18.148C825.1 18.21 838.081 18.0222 838.097 18.4386C841.136 18.1279 850.283 18.205 853.129 18.5777C848.81 18.5553 844.491 18.533 840.172 18.5106C840.311 18.6501 840.451 18.7897 840.591 18.9293C835.209 18.3664 834.422 18.3974 828.89 18.9293C828.885 18.7421 828.879 18.5549 828.874 18.3678C825.017 19.0186 818.199 17.9146 818.003 18.7181C815.949 18.653 813.895 18.5879 811.841 18.5228C807.406 18.6207 814.293 19.2387 796.929 18.9964C795.732 18.9795 795.982 18.7748 794.183 18.7889C793.664 18.7931 790.692 19.0909 785.009 19.0599C784.122 19.0549 784.055 18.8774 783.135 18.8548C781.009 18.8013 776.776 19.1525 778.698 18.5802C770.28 18.4132 773.768 18.883 771.157 19.0696C769.417 19.1935 769.767 18.8549 768.261 18.9317C766.397 19.0269 767.765 19.3683 760.301 19.2112C761.139 19.188 761.976 19.1649 762.814 19.1417C762.392 19.0489 761.971 18.9561 761.55 18.8634C757.29 19.086 757.693 18.7607 755.684 19.282C752.587 19.0496 749.908 19.031 745.673 19.0733C737.446 19.1557 741.664 19.7176 732.275 18.961C730.753 19.0672 729.232 19.1734 727.711 19.2796C725.21 19.0563 727.233 18.7769 723.501 18.7205C726.422 19.2722 718.547 19.071 717.216 19.5628C717.077 19.4456 716.937 19.3284 716.798 19.2112C715.964 19.2112 715.13 19.2112 714.297 19.2112C714.294 19.3052 714.292 19.3992 714.289 19.4932C713.179 19.4228 712.069 19.3524 710.959 19.282C710.124 19.3752 709.289 19.4684 708.454 19.5616C707.081 19.365 705.709 19.1685 704.336 18.972C703.474 18.9586 702.613 18.9451 701.751 18.9317C702.024 19.0717 702.296 19.2116 702.569 19.3516C701.461 19.3048 700.354 19.258 699.246 19.2112C700.535 19.4409 699.725 19.7102 696.277 19.7032C693.431 19.6975 696.637 19.2182 690.519 19.4175C690.092 19.4317 689.336 19.7736 683.554 19.8265C676.62 19.8898 679.988 19.6422 678.752 19.6336C678.51 19.6322 676.391 19.8042 674.408 19.8289C673.282 19.8429 672.198 19.704 672.049 19.7044C671.354 19.7107 671.152 19.9072 670.19 19.9143C667.747 19.9312 664.466 19.835 662.073 19.8448C660.985 19.849 659.961 19.9654 659.476 19.9668C658.723 19.9682 657.768 19.7904 657.006 19.7911C654.194 19.7948 649.926 20.3848 648.62 19.5652C645.917 20.3188 640.254 19.4077 640.669 19.9131C633.445 19.7224 614.178 20.3424 614.743 19.4932C610.652 20.2193 611.017 19.6935 609.304 19.7044C607.387 19.7164 608.38 19.8572 606.857 19.8509C603.3 19.8361 599.902 19.7756 596.362 19.7727C596.918 19.6564 597.473 19.54 598.029 19.4236C594.313 19.3863 595.593 19.6571 591.802 19.7093C584.831 19.8044 587.768 19.5883 586.739 19.2833C587.016 19.5778 578.795 19.532 577.958 19.4932C577.459 19.4696 579.646 19.09 574.612 19.2125C574.887 19.3292 575.163 19.446 575.438 19.5628C573.144 19.4031 566.915 19.6057 565.857 19.5665C565.372 19.5481 562.776 18.6064 560.399 19.3516C560.112 19.2348 559.825 19.1181 559.538 19.0013C556.899 19.1417 554.26 19.282 551.621 19.4224C551.2 19.2121 550.779 19.0017 550.357 18.7913C549.52 18.7913 548.683 18.7913 547.845 18.7913C548.401 18.9781 548.957 19.1649 549.512 19.3516C544.341 19.2671 538.024 19.5616 536.959 18.9317C535.851 19.0485 534.743 19.1653 533.636 19.282C532.915 19.0725 532.194 18.8629 531.473 18.6534C526.344 18.7063 526.259 18.8463 522.753 19.0696C522.89 18.9061 523.027 18.7425 523.164 18.5789C520.578 18.8086 515.857 19.0225 512.124 19.0513C510.35 19.0647 507.303 18.8393 506.884 18.8597C506.461 18.8812 502.3 19.7668 501.848 19.0001C495.722 19.3396 493.025 18.9928 490.539 19.0013C488.924 19.007 488.188 19.191 486.363 19.21C483.752 19.2375 481.124 19.1485 479.618 19.1612C478.756 19.1689 478.595 19.3484 478.001 19.3541C475.191 19.3814 476.837 19.198 473.875 19.21C473.602 19.2121 471.437 19.431 468.997 19.4029C467.632 19.3873 464.102 19.1411 463.791 19.1417C462.411 19.1459 463.514 19.6382 458.794 19.0696C458.931 19.1632 459.068 19.2568 459.205 19.3504C453.363 19.5878 452.441 19.1706 451.261 19.1417C451.11 19.1393 449.688 19.3006 448.837 19.2784C447.399 19.2404 446.82 19.0196 446.501 19.0098C445.38 18.976 441.602 19.0732 439.133 18.8597C439.652 19.4881 431.001 19.7116 429.084 19.0001C427.553 19.1404 426.022 19.2808 424.49 19.4212C423.797 19.304 423.105 19.1868 422.412 19.0696C421.991 19.1864 421.569 19.3032 421.148 19.42C418.916 19.1628 416.684 18.9057 414.452 18.6485C414.31 18.9061 414.168 19.1636 414.026 19.4212C413.401 19.3919 412.776 19.3626 412.151 19.3333C411.664 19.1286 411.176 18.924 410.688 18.7193C409.907 18.7584 409.126 18.7974 408.345 18.8365C408.151 18.9846 407.958 19.1327 407.765 19.2808C403.566 19.4516 405.723 18.0389 397.723 19.2808C396.479 19.164 395.234 19.0473 393.989 18.9305C392.584 19.4988 389.949 19.1547 387.824 19.2186C386.326 19.2636 386.408 19.4894 384.367 19.4944C382.325 19.4994 382.397 19.2835 382.239 19.282C380.574 19.2688 379.319 19.4591 378.097 19.4212C377.913 19.4156 377.453 19.1592 375.896 19.1429C374.34 19.1267 373.401 19.3994 371.083 19.348C369.895 19.3219 369.552 19.1059 368.498 19.0867C363.476 18.9937 358.42 20.0877 354.653 18.7901C353.804 18.9545 347.647 19.53 345.012 19.4969C340.913 19.444 342.492 19.1895 340.863 19.1429C340.629 19.1358 339.38 19.2218 335.942 19.2064C335.327 19.2036 335.469 19.3473 335.381 19.3492C331.373 19.3464 323.588 19.2329 319.186 19.2125C318.792 19.2104 316.733 19.6109 313.243 19.0721C308.071 19.4701 298.329 18.615 291.508 19.2149C290.563 19.2276 289.415 19.0843 288.996 19.0892C285.389 19.1336 286.711 19.5686 278.559 18.9317C279.219 19.1536 277.312 19.3538 274.618 19.337C270.567 19.3116 273.444 18.8979 270.189 18.9317C270.189 19.0485 270.189 19.1653 270.189 19.282C262.699 18.9679 261.209 19.4672 253.694 19.47C250.99 19.4707 246.997 19.2119 246.353 19.2112C246.103 19.212 243.147 19.4935 242.865 19.4957C241.275 19.5041 240.377 19.3743 239.004 19.3736C234.468 19.3708 229.055 19.7371 230.035 19.0721C228.787 19.2125 227.54 19.3528 226.293 19.4932C221.581 18.7831 218.057 19.7618 217.07 19.0721C216.227 19.2145 215.385 19.3569 214.542 19.4993C194.333 19.4273 174.123 19.3553 153.913 19.2833C153.11 19.5052 144.297 19.4264 143.845 19.3919C141.77 19.2355 143.962 18.7515 139.727 18.8621C139.258 19.0741 138.79 19.2861 138.321 19.4981C132.999 19.5671 135.559 19.3562 133.458 19.2125C132.58 19.2386 132.864 19.4031 131.675 19.4151C125.231 19.4806 112.017 19.4884 104.97 19.5018C103.549 19.5046 103.763 19.3508 103.322 19.3504C102.109 19.3518 99.7145 19.5456 97.2796 19.5457C82.2235 19.5443 60.8888 19.435 45.7319 19.2723C44.7024 19.261 44.575 19.0776 43.8803 19.0684C42.9176 19.0565 40.7672 19.2048 39.7547 19.1893C38.8008 19.1752 38.1899 19.0359 37.1694 19.0196C32.4992 18.9435 26.2203 19.1789 21.2237 18.7681C20.8035 18.7335 15.5686 17.9951 15.4501 17.9466C14.7555 17.6592 19.4075 17.2076 11.7662 16.787C18.5957 16.4199 16.4622 15.7711 7.59061 15.454C12.0402 15.3722 16.4899 15.2905 20.9395 15.2087C20.9459 15.1318 20.9523 15.0549 20.9587 14.978C16.9081 14.5968 12.8894 14.47 6.73013 14.4348C6.9222 14.3636 7.11427 14.2924 7.30634 14.2212C12.7464 13.8654 19.3089 13.7996 23.4517 13.3142C17.3759 12.9549 11.3001 12.5956 5.2243 12.2364C5.52777 12.1802 5.83125 12.1241 6.13472 12.0679C9.04727 11.9221 15.4092 11.8365 17.8279 11.7005C27.0658 11.182 9.74275 11.3125 12.5883 10.9962C22.3416 11.0076 32.0949 11.0189 41.8482 11.0303C42.1902 10.7974 4.66878 10.154 5.05528 9.4508C8.12072 9.4036 11.1862 9.3564 14.2516 9.3092C12.8853 9.13058 11.5191 8.95196 10.1528 8.77333C10.5293 8.71677 10.9057 8.66022 11.2822 8.60366C16.454 8.46491 21.6258 8.32616 26.7976 8.18741C11.0735 8.32688 3.76638 8.22564 0 6.81905C0.426395 6.78324 0.852791 6.74743 1.27919 6.71163C4.68554 7.59158 20.7647 7.30696 29.3099 7.13154C27.5682 6.87378 20.0441 7.0729 18.4541 6.91792C18.0035 6.87349 19.5748 6.69458 18.5309 6.60299C15.8026 6.36487 4.17626 6.05849 5.86582 5.76683C6.95384 5.57943 25.6608 5.32231 29.3099 5.34204C20.7565 5.00529 11.9435 4.90787 3.36507 4.49856C8.77989 3.92791 13.5755 3.22955 23.4594 3.19855C26.4721 2.89913 5.54839 2.48434 5.06297 2.32089C8.68412 2.14552 12.3053 1.97015 15.9264 1.79479C12.8636 1.84158 9.80069 1.88837 6.73782 1.93516C6.72885 1.87657 6.71989 1.81798 6.71093 1.75939C14.6451 1.48744 21.9039 0.988287 30.9847 1.0221C30.6918 0.712113 25.2584 0.742949 22.622 0.74013ZM891.585 18.3714C891.768 18.6285 888.439 18.5863 886.564 18.5814C886.846 18.6282 887.128 18.675 887.409 18.7218C883.409 18.6731 875.962 18.5745 875.685 19.0733C872.832 19.1353 874.094 18.7015 873.173 18.6522C872.813 18.6325 869.089 18.8849 866.109 18.5777C865.401 18.5789 864.693 18.5802 863.985 18.5814C863.848 18.7449 863.711 18.9085 863.574 19.0721C862.586 18.8735 861.599 18.675 860.612 18.4764C870.931 18.4414 881.25 18.4064 891.57 18.3714C891.575 18.3714 891.58 18.3714 891.585 18.3714ZM788.724 18.5826C784.966 18.4903 779.21 18.3446 780.373 18.7926C782.747 18.769 785.121 18.7454 787.495 18.7218C787.904 18.6754 788.314 18.629 788.724 18.5826ZM414.89 18.2298C411.752 17.7888 408.862 18.1703 404.008 18.0907C404.014 18.1838 404.021 18.277 404.027 18.3702C406.012 18.1465 411.259 18.2953 414.89 18.2298ZM984.831 16.6857C985.523 16.7203 986.214 16.7549 986.906 16.7894C984.094 17.2904 983.59 16.9374 980.41 16.986C980.218 16.989 980.285 17.1037 980.218 17.1044C979.44 17.1121 978.719 16.9741 978.017 16.9762C976.661 16.9804 975.555 17.1203 973.153 17.1154C971.296 17.1111 971.278 16.8912 970.626 16.8969C970.07 16.9023 964.558 17.5071 961.011 17.246C954.265 16.7486 982.772 16.6392 984.831 16.6857ZM1004.83 17.0995C1004.16 17.1015 1003.49 17.1036 1002.82 17.1056C1004.83 16.7676 1000.78 16.819 997.811 16.8261C997.903 16.502 1004.19 16.6406 1007 16.5441C1006.28 16.7292 1005.55 16.9144 1004.83 17.0995ZM920.461 16.4049C923.071 16.3719 922.636 16.7764 922.528 16.8969C921.697 16.8969 920.866 16.8969 920.035 16.8969C920.177 16.7329 920.319 16.5689 920.461 16.4049ZM940.094 16.2646C939.282 16.5393 933.615 16.6595 930.929 16.682C930.811 16.6821 931.549 16.5313 929.649 16.5453C929.079 16.5497 923.467 17.0984 924.702 16.4757C929.83 16.4053 934.958 16.3349 940.087 16.2646C940.089 16.2646 940.092 16.2646 940.094 16.2646ZM945.818 16.4269C944.75 16.5132 943.682 16.5994 942.614 16.6857C942.062 16.5567 941.511 16.4277 940.959 16.2987C942.174 16.2662 943.389 16.2336 944.604 16.2011C945.009 16.2764 945.413 16.3516 945.818 16.4269ZM142.355 16.0607C142.603 16.1986 142.851 16.3366 143.1 16.4745C144.062 16.5591 148.741 15.9585 147.26 15.8422C145.625 15.915 143.99 15.9879 142.355 16.0607ZM122.594 15.7714C121.621 15.7018 120.648 15.6323 119.675 15.5627C118.556 15.7966 117.437 16.0306 116.318 16.2646C121.179 16.4223 126.352 16.6041 125.518 15.9142C126.63 15.9142 127.743 15.9142 128.856 15.9142C127.919 16.1995 128.045 16.2935 130.957 16.4745C131.594 16.0776 134.605 16.2798 138.052 16.1925C135.545 16.1693 133.038 16.1462 130.531 16.123C130.531 16.053 130.531 15.983 130.531 15.913C136.119 15.9383 129.174 15.4944 125.533 15.7726C125.246 15.6795 124.959 15.5863 124.673 15.4931C123.98 15.5859 123.287 15.6786 122.594 15.7714ZM526.529 15.913C525.836 15.8426 525.144 15.7722 524.451 15.7018C521.766 16.6187 527.232 15.7489 531.123 16.4745C529.838 15.9233 535.77 15.9464 536.11 15.9093C535.427 15.7238 534.745 15.5383 534.062 15.3527C531.551 15.5395 529.04 15.7262 526.529 15.913ZM506.892 15.2807C509.294 15.7379 497.494 15.766 493.535 15.6652C492.573 15.6404 490.857 15.3894 490.163 15.4211C489.741 15.5138 489.32 15.6066 488.899 15.6994C488.4 15.3788 480.67 15.7392 477.624 15.9118C477.337 15.795 477.051 15.6782 476.764 15.5615C475.654 15.6078 474.544 15.6542 473.433 15.7006C473.573 15.5842 473.712 15.4679 473.852 15.3515C473.012 15.4915 472.172 15.6314 471.332 15.7714C468.034 15.9271 470.068 15.2927 467.591 15.4907C464.837 15.7105 469.349 16.0883 469.265 16.3341C471.5 16.2707 476.582 16.1288 478.85 16.1217C480.152 16.1179 478.676 16.5585 484.289 16.0522C485.52 16.1702 486.75 16.2882 487.981 16.4062C490.239 16.2186 492.498 16.031 494.757 15.8434C495.178 16.0066 495.599 16.1698 496.021 16.3329C496.262 16.3585 501.486 15.988 501.207 15.8654C503.323 16.1773 507.667 16.2329 512.243 16.2487C512.683 16.16 513.124 16.0713 513.564 15.9826C509.139 16.1741 512.156 15.8887 510.837 15.7189C510.075 15.621 507.746 15.4286 506.892 15.2807ZM173.19 15.703C165.758 16.1011 170.359 15.7727 162.326 15.7726C162.887 15.9834 163.448 16.1942 164.009 16.4049C167.958 16.0198 174.457 16.2759 173.197 15.703C173.195 15.703 173.192 15.703 173.19 15.703ZM94.583 16.4037C98.8339 16.2762 96.7007 15.9484 102.089 15.8434C102.092 15.8434 102.094 15.8434 102.097 15.8434C99.3104 15.8198 96.5241 15.7962 93.7378 15.7726C94.0196 15.983 94.3012 16.1933 94.583 16.4037ZM343.087 16.1486C347.163 16.2402 346.361 16.0762 350.059 16.4037C355.566 16.0064 350.904 16.0625 350.904 15.7018C349.645 15.8076 348.387 15.9134 347.128 16.0192C344.077 15.6819 346.971 15.5121 346.971 15.4797C346.968 15.4797 346.966 15.4797 346.963 15.4797C346.963 15.3714 347.062 15.3486 345.891 15.2831C344.956 15.5716 344.022 15.8601 343.087 16.1486ZM360.531 15.703C359.133 15.9426 358.505 16.2501 362.179 16.4037C362.181 16.4037 362.184 16.4037 362.186 16.4037C362.481 15.8684 366.004 16.3005 367.61 16.2646C368.032 16.2064 368.453 16.1482 368.874 16.09C366.093 15.961 363.312 15.832 360.531 15.703ZM421.993 15.2111C422.009 15.8025 418.925 15.8588 423.265 16.4037C424.107 16.3931 424.95 16.3826 425.792 16.372C426.345 16.2422 426.899 16.1124 427.452 15.9826C438.139 17.0527 441.326 15.2305 423.265 15.9118C423.262 15.9122 423.26 15.9126 423.257 15.913C422.836 15.679 422.414 15.4451 421.993 15.2111ZM403.17 15.2612C403.035 15.5716 402.899 15.8821 402.763 16.1925C400.403 15.4436 397.354 16.1582 392.726 15.6298C392.307 15.7242 391.888 15.8186 391.469 15.913C389.74 15.7053 372.75 15.6454 376.43 16.123C378.037 16.3315 381.538 16.0483 381.839 16.0546C382.86 16.078 384.191 16.3447 385.915 16.3293C386.911 16.3199 389.01 16.0064 391.043 16.007C395.588 16.0084 403.882 16.8501 409.858 16.0534C410.288 16.147 410.719 16.2405 411.149 16.3341C415.583 16.277 414.103 15.9805 418.229 16.3341C421.079 14.8595 401.643 16.4069 405.69 15.2111C405.688 15.2111 405.685 15.2111 405.683 15.2111C404.845 15.2278 404.008 15.2445 403.17 15.2612ZM281.079 15.703C280.811 15.4382 275.668 15.8468 276.877 15.2123C275.198 15.4333 273.519 15.6542 271.841 15.8752C271.853 15.9342 271.866 15.9932 271.879 16.0522C273.547 16.0058 275.216 15.9594 276.884 15.913C276.891 16.0066 276.897 16.1002 276.904 16.1938C279.39 15.8552 289.765 16.0027 289.449 16.3341C290.004 16.1942 290.558 16.0542 291.113 15.9142C296.076 16.2954 300.346 15.8901 305.752 16.2621C306.171 16.1462 306.59 16.0302 307.009 15.9142C307.281 16.0078 307.554 16.1014 307.827 16.195C309.796 16.2068 311.765 16.2186 313.735 16.2304C320.152 15.8536 307.683 15.3657 306.171 15.4211C305.97 15.4288 306.001 15.6711 304.746 15.7092C302.516 15.7759 290.036 15.5347 286.177 15.6945C286.143 15.5338 286.11 15.3731 286.077 15.2123C284.411 15.3759 282.745 15.5395 281.079 15.703ZM445.841 15.8434C446.122 16.007 446.404 16.1706 446.686 16.3341C451.547 16.1708 454.609 16.3136 453.362 15.7726C453.359 15.7726 453.357 15.7726 453.354 15.7726C450.85 15.7962 448.345 15.8198 445.841 15.8434ZM807.136 15.9826C807.008 15.6574 804.684 15.5359 801.681 15.769C801.826 15.8634 801.97 15.9578 802.115 16.0522C803.68 15.7753 805.633 16.2579 810.462 16.1938C810.462 16.0302 810.462 15.8666 810.462 15.703C809.354 15.7962 808.245 15.8894 807.136 15.9826ZM441.646 15.7726C440.164 15.5798 436.005 16.1649 438.742 16.1938C440.834 16.2156 442.441 15.8762 441.646 15.7726ZM77.8613 16.0876C78.96 16.1217 80.0586 16.1559 81.1572 16.1901C81.7296 16.0509 82.302 15.9118 82.8744 15.7726C82.8718 15.7726 82.8692 15.7726 82.8667 15.7726C81.1982 15.8776 79.5298 15.9826 77.8613 16.0876ZM329.154 16.1754C332.88 16.1551 336.606 16.1348 340.333 16.1144C340.37 16.0237 340.407 15.9329 340.444 15.8422C336.711 16.1733 335.211 15.8164 334.34 15.7946C334.344 15.7946 334.348 15.7946 334.352 15.7946C331.557 15.7228 328.894 15.6699 326.25 15.5615C327.218 15.7661 328.186 15.9708 329.154 16.1754ZM316.382 15.603C317.009 16.2441 317.829 16.3187 323.553 15.8678C323.327 15.7889 323.1 15.71 322.874 15.631C319.907 15.6782 318.177 15.8262 318.698 15.4919C317.926 15.5289 317.154 15.5659 316.382 15.603ZM374.732 15.808C374.045 15.6039 368.593 15.8089 368.89 15.9118C369.007 15.9526 376.072 16.2082 374.732 15.808ZM848.527 15.841C847.271 15.7942 846.015 15.7474 844.758 15.7006C846.429 15.631 848.1 15.5615 849.771 15.4919C849.357 15.6082 848.942 15.7246 848.527 15.841ZM862.318 14.9291C863.213 15.0109 860.302 15.5873 865.656 15.736C861.759 15.7482 857.863 15.7604 853.966 15.7726C855.794 15.6795 857.621 15.5863 859.448 15.4931C859.129 15.3275 858.81 15.1619 858.491 14.9963C859.767 14.9739 861.042 14.9515 862.318 14.9291ZM866.501 15.3515C864.402 14.9134 875.451 14.8805 876.481 14.934C876.71 14.9468 877.8 15.2789 878.202 15.3503C876.533 15.3507 874.865 15.3511 873.196 15.3515C873.755 15.4561 874.313 15.5606 874.871 15.6652C872.918 15.701 870.966 15.7368 869.013 15.7726C869.848 15.6677 870.683 15.5627 871.518 15.4577C869.845 15.4223 868.173 15.3869 866.501 15.3515ZM822.171 15.4577C823.568 15.4687 824.965 15.4797 826.362 15.4907C826.083 15.3271 825.804 15.1635 825.525 14.9999C824.688 14.9999 823.852 14.9999 823.016 14.9999C822.734 15.1525 822.453 15.3051 822.171 15.4577ZM850.636 15.2465C848.602 16.0341 843.06 14.3123 849.537 14.9499C850.19 15.0147 850.828 15.1704 850.636 15.2465ZM880.622 15.028C884.966 14.4538 883.985 15.7216 879.884 15.3503C879.678 15.3305 880.296 15.0704 880.622 15.028ZM913.189 15.0097C913.541 15.014 914.156 15.4244 917.515 15.0341C918.069 15.0809 918.623 15.1277 919.178 15.1745C917.88 15.3652 906.781 15.4787 908.314 15.072C910.013 15.0656 911.432 14.997 913.189 15.0097ZM902.441 13.4912C900.775 13.5026 899.109 13.514 897.443 13.5254C897.993 13.654 898.542 13.7825 899.091 13.9111C898.272 13.9461 897.452 13.9811 896.633 14.0161C895.232 13.7943 893.831 13.5726 892.43 13.3508C896.051 13.3154 899.673 13.28 903.294 13.2446C903.009 13.3268 902.725 13.409 902.441 13.4912ZM858.15 13.1738C861.355 13.3352 865.282 13.1634 870.488 13.1909C870.491 13.1913 870.493 13.1917 870.496 13.1921C870.755 13.194 871.216 13.3706 872.052 13.3777C872.764 13.3833 886.823 13.1893 885.727 13.4888C880.287 13.7571 878.255 13.3491 876.949 14.0149C876.684 13.8745 876.419 13.7341 876.154 13.5937C870.923 13.3507 869.431 13.8366 866.493 14.0149C866.505 13.9091 866.516 13.8033 866.528 13.6975C864.566 13.6869 862.604 13.6763 860.643 13.6658C860.919 13.7353 861.196 13.8049 861.472 13.8745C860.778 13.8745 860.084 13.8745 859.39 13.8745C857.7 13.561 855.556 13.488 858.15 13.1738ZM909.997 13.6658C911.537 12.8633 926.544 13.413 933.399 13.2446C929.8 13.7278 924.224 13.3948 920.3 13.3899C912.712 13.3808 917.957 13.6765 916.669 13.8061C916.033 13.8702 911.729 13.3558 909.997 13.6658ZM846.441 13.3142C850.224 13.379 852.342 13.1943 855.614 13.4888C855.34 13.5474 855.066 13.6059 854.792 13.6645C853.672 13.6109 844.534 13.4417 846.441 13.3142ZM943.444 13.4546C936.138 13.1664 939.741 13.893 935.942 13.3484C938.443 13.3138 940.943 13.2792 943.444 13.2446C943.444 13.3146 943.444 13.3846 943.444 13.4546ZM433.283 12.7539C430.204 12.7356 426.765 12.5891 424.924 12.8919C427.016 12.9386 429.109 12.9854 431.201 13.0322C431.895 12.9395 432.589 12.8467 433.283 12.7539ZM521.09 9.79625C520.387 9.72368 517.607 9.93785 517.314 9.93785C516.769 9.93784 516.918 9.83235 516.91 9.80479C513.348 9.82391 516.635 10.1511 513.999 10.2223C513.548 10.234 507.356 10.0723 504.837 10.0855C500.962 10.106 497.092 10.0848 495.644 10.0904C493.2 10.0996 488.663 10.3451 484.646 10.3578C482.99 10.3626 482.412 10.1661 480.747 10.171C470.06 10.2041 449.019 10.4739 439.537 10.3492C437.194 10.3182 434.96 10.0609 433.721 10.0819C432.744 10.1759 431.767 10.2699 430.79 10.3639C427.785 9.51776 426.78 10.2703 423.541 10.3492C421.484 10.3991 420.522 10.1484 420.245 10.149C418.413 10.154 417.509 10.2733 416.07 10.2931C414.454 10.3149 412.134 10.2018 411.556 10.2223C411.202 10.236 412.334 10.5692 406.067 10.5628C399.68 10.5563 393.374 10.521 386.879 10.5055C389.045 11.5114 390.911 10.8229 393.563 10.7862C394.274 10.7763 393.823 10.9361 394.443 10.929C396.192 10.91 399.541 10.753 400.988 10.7911C402.552 10.8321 402.017 11.2023 404 11.0657C404.1 11.0587 403.783 10.9058 404.25 10.8802C408.937 10.6273 410.471 10.8932 416.396 10.901C420.322 10.9066 444.166 10.7548 444.984 10.8546C449.252 11.39 424.128 11.3936 421.19 11.3514C420.162 11.3365 421.24 11.1677 420.303 11.1353C419.906 11.1224 416.334 11.4442 412.805 11.471C408.536 11.5034 399.959 11.2838 395.891 11.2916C360.924 11.3585 326.442 11.164 291.508 11.1597C290.764 11.1597 289.783 11.3526 287.356 11.3526C242.061 11.3491 195.115 11.197 149.242 11.2879C139.241 11.3076 129.322 11.489 119.229 11.3453C117.977 11.4861 116.725 11.6268 115.472 11.7676C118.676 11.6557 124.545 11.9741 125.08 11.9788C125.272 11.9802 126.487 11.8215 128.445 11.8299C131.198 11.8411 132.406 11.9788 132.632 11.9788C133.332 11.9792 132.873 11.8328 133.542 11.8335C138.531 11.8399 142.39 11.7983 146.968 11.7969C152.14 11.7956 154.761 12.0682 158.527 11.7688C158.953 11.8856 159.38 12.0024 159.806 12.1192C162.62 11.6141 179.375 11.6701 186.162 11.6968C188.303 11.7053 187.928 11.9104 188.647 11.9104C189.107 11.9102 188.925 11.6416 194.529 11.6944C197.349 11.7212 198.089 11.9168 199.503 11.9104C200.272 11.9067 200.147 11.7127 201.251 11.7127C207.636 11.7127 212.85 11.7756 219.102 11.8116C220.86 11.8214 220.879 11.9834 221.272 11.9812C222.72 11.974 225.239 11.6998 228.921 11.7005C234.98 11.7019 247.056 11.7028 252.011 11.836C252.739 11.8557 253.342 12.05 253.878 12.0472C254.689 12.0422 255.007 11.8395 255.15 11.8384C257.861 11.8349 256.23 12.0234 258.046 11.9776C259.025 11.9529 260.046 11.7217 262.322 11.6956C265.326 11.6611 264.735 11.9355 265.99 11.908C266.123 11.9037 266.162 11.7129 267.396 11.7066C272.074 11.684 278.861 11.64 283.288 11.6407C284.56 11.6407 285.506 11.7691 287.279 11.7713C290.853 11.7755 311.166 11.6937 312.832 11.7676C313.008 11.7754 311.201 12.0568 314.081 12.0484C314.917 11.9312 315.753 11.814 316.589 11.6968C317.987 11.8844 319.386 12.072 320.784 12.2596C320.734 11.6115 328.96 11.5114 328.878 12.1741C329.778 12.201 330.678 12.2278 331.578 12.2547C333.453 11.7968 334.701 11.9658 338.324 11.6968C338.888 11.8372 339.453 11.9776 340.018 12.118C340.16 12.0244 340.302 11.9308 340.444 11.8372C342.377 12.3444 345.548 11.8351 345.933 11.8323C347.414 11.8211 348.527 11.95 349.222 11.9458C351.816 11.9325 357.432 11.7548 360.462 11.8372C360.604 11.8414 360.464 12.0582 361.326 12.085C362.881 12.1333 363.033 11.8159 365.106 12.1888C365.525 12.0952 365.943 12.0016 366.362 11.908C366.806 11.9564 367.251 12.0048 367.695 12.0533C370.317 12.0284 372.94 12.0036 375.562 11.9788C373.177 12.3459 375.922 12.5508 378.516 12.262C379.394 12.164 378.615 11.9406 378.908 11.9068C379.31 11.861 391.079 11.9747 391.857 12.1192C392.414 12.0488 392.971 11.9784 393.528 11.908C393.81 12.0488 394.092 12.1896 394.374 12.3304C394.681 12.2811 394.988 12.2319 395.295 12.1826C398.358 12.4306 406.308 11.8619 407.749 11.9068C408.519 11.9307 407.827 12.5308 411.518 12.4695C411.646 12.3047 411.774 12.1399 411.902 11.9751C412.747 11.9515 413.592 11.9279 414.437 11.9043C416.023 11.919 418.331 12.2046 418.405 12.3999C418.901 12.2827 419.396 12.1656 419.892 12.0484C421.222 12.4302 428.32 12.2949 431.174 12.0533C432.009 12.1684 432.844 12.2836 433.679 12.3987C434.8 12.2587 435.922 12.1188 437.044 11.9788C439.642 11.9367 436.897 12.1693 437.451 12.1888C438.623 12.2289 444.594 11.8358 444.2 12.3255C445.015 12.3267 445.829 12.3279 446.643 12.3291C447.062 12.1892 447.481 12.0492 447.9 11.9092C449.297 12.3918 451.716 12.2214 456.677 12.3975C457.093 12.2864 457.509 12.1753 457.926 12.0642C459.46 12.2221 460.994 12.38 462.528 12.5379C462.843 12.3539 463.158 12.17 463.473 11.9861C464.14 11.9597 464.807 11.9332 465.474 11.9068C466.829 12.3188 469.263 11.8736 470.502 12.0435C472.31 12.2915 470.912 12.587 467.556 12.6441C467.807 12.9441 477.805 12.8063 480.11 12.7844C479.957 12.7258 479.805 12.6673 479.653 12.6087C477.295 12.655 474.938 12.7014 472.581 12.7478C470.605 11.9933 477.007 12.1956 479.944 12.0984C480.213 12.0891 481.736 11.8032 484.696 11.8299C485.843 11.8404 490.315 12.2583 491.169 12.2815C498.063 12.4723 492.994 11.8753 499.739 12.3987C498.333 11.9978 502.209 12.3309 506.243 12.2534C506.929 12.2402 512.753 11.9152 513.146 11.9068C515.598 11.8546 512.928 12.209 516.476 12.1167C516.903 12.0236 517.329 11.9304 517.755 11.8372C518.581 11.8372 519.407 11.8372 520.233 11.8372C525.245 12.6676 526.411 12.0561 528.193 11.9776C528.912 11.9459 527.986 12.1625 529.852 12.1167C530.555 12.0997 531.334 11.9195 533.225 11.9068C539.141 11.8674 541.149 12.639 546.589 11.836C547.424 11.9524 548.259 12.0687 549.094 12.1851C549.657 12.0455 550.22 11.906 550.784 11.7664C555.093 12.1714 553.537 11.7566 555.094 11.7615C559.203 11.7742 567.614 11.8536 568.351 12.1875C571.898 11.4205 576.141 12.2858 577.539 12.2559C578.37 12.1627 579.201 12.0695 580.032 11.9764C581.009 12.0699 581.986 12.1635 582.963 12.2571C582.488 11.5038 587.548 12.2446 588.034 12.2559C588.594 12.2672 596.377 12.0442 599.274 12.0484C602.167 12.0526 607.208 12.2567 607.652 12.2571C608.163 12.2571 613.087 12.0524 616.937 12.0545C620.305 12.0567 640.263 12.3475 639.005 12.0118C637.7 11.9188 635.841 11.8382 634.234 11.7945C629.246 11.6606 599.968 11.4891 592.486 11.4356C577.481 11.3292 561.83 11.349 546.758 11.2757C545.871 11.2715 545.736 11.0762 544.976 11.0718C543.821 11.0662 540.889 11.2616 539.751 11.2574C535.5 11.2405 530.327 11.2086 528.05 11.2037C522.963 11.1938 519.473 11.0762 515.623 11.0572C514.418 11.0516 508.325 11.2936 504.149 11.1915C503.392 11.1365 502.636 11.0816 501.879 11.0267C504.03 10.9626 509.673 10.7967 512.293 10.7777C516.192 10.7502 518.225 10.9086 519.665 10.9058C520.87 10.9037 527.028 10.7234 529.833 10.7191C530.703 10.7177 530.882 10.9224 531.627 10.9217C535.669 10.9168 540.993 10.9113 544.499 10.7105C543.068 10.776 552.005 10.9017 552.474 10.901C553.277 10.9009 554.149 10.7093 555.789 10.7093C558.943 10.7094 558.543 11.1101 562.485 10.7093C563.46 10.8261 564.436 10.9429 565.412 11.0596C565.472 10.5258 577.801 11.2519 581.308 10.6031C581.4 10.5298 565.378 10.3219 564.056 10.3114C556.122 10.2473 544.382 10.3782 536.682 10.2845C534.365 10.2563 527.079 9.9318 526.529 9.93785C525.643 9.947 526.444 10.1326 526.061 10.1393C518.221 10.2773 522.132 9.90419 521.09 9.79625ZM866.493 12.8223C864.111 12.8003 861.73 12.7783 859.348 12.7564C859.521 12.6392 859.694 12.522 859.867 12.4048C860.958 12.4504 862.049 12.496 863.14 12.5415C863.978 12.4715 864.817 12.4016 865.656 12.3316C865.935 12.4951 866.214 12.6587 866.493 12.8223ZM872.363 12.3316C874.428 12.2726 874.529 12.5197 875.006 12.5318C876.428 12.5684 877.659 12.4685 879.039 12.4719C877.449 13.0589 874.062 12.7899 872.363 12.3316ZM829.704 12.1204C830.17 12.1485 833.279 12.7804 836.814 12.1924C839.46 12.3792 842.105 12.5659 844.751 12.7527C840.256 12.4674 834.037 12.764 831.836 12.7527C831 12.7484 830.841 12.5544 830.173 12.5513C826.323 12.5358 822.58 12.9753 822.186 12.3328C825.827 12.5195 829.11 12.0859 829.704 12.1204ZM852.937 12.3487C853.553 12.4829 854.169 12.6172 854.784 12.7515C852.559 12.7515 850.334 12.7515 848.108 12.7515C848.71 12.6156 849.312 12.4797 849.914 12.3438C850.921 12.3454 851.929 12.347 852.937 12.3487ZM681.729 11.9043C683.102 11.906 684.475 11.9076 685.847 11.9092C685.772 11.8114 684.202 11.8117 683.623 11.7457C683.626 11.7457 683.628 11.7457 683.631 11.7457C682.987 11.671 683.262 11.545 682.091 11.4893C681.97 11.6277 681.85 11.766 681.729 11.9043ZM113.809 11.3477C111.508 11.3407 90.2606 11.34 92.0707 11.6968C92.9829 11.8751 100.25 11.7196 102.393 11.7225C105.281 11.7261 113.081 12.112 113.809 11.3477ZM76.1788 11.2781C75.8107 11.6338 89.0898 11.6903 90.3881 11.6285C90.1124 11.5778 89.6876 11.4649 89.3202 11.4393C87.5293 11.3167 79.0415 11.3753 76.1788 11.2781ZM604.859 10.8778C605.93 11.0576 607 11.2374 608.071 11.4173C607.789 11.1833 607.507 10.9494 607.225 10.7154C606.437 10.7695 605.648 10.8236 604.859 10.8778ZM501.018 11.1353C483.185 11.1239 465.352 11.1125 447.519 11.1011C449.088 11.0039 450.656 10.9066 452.225 10.8094C467.591 10.8439 483.978 10.9424 498.817 10.7923C499.551 10.9066 500.285 11.021 501.018 11.1353ZM824.679 11.067C820.11 11.0635 816.294 11.2353 811.323 10.962C816.06 10.6971 818.405 11.1069 823.008 10.7166C823.011 10.7166 823.014 10.7166 823.016 10.7166C823.571 10.8334 824.125 10.9502 824.679 11.067ZM722.667 10.9962C724.057 10.8326 725.446 10.669 726.835 10.5055C725.164 10.5055 723.493 10.5055 721.822 10.5055C722.104 10.669 722.385 10.8326 722.667 10.9962ZM345.465 10.2259C340.686 10.5829 328.46 9.93678 324.575 10.3663C324.324 10.3945 326.633 10.5757 322.9 10.9266C325.72 10.8547 327.711 10.7814 327.921 10.5055C328.759 10.599 329.596 10.6926 330.433 10.7862C331.823 10.7154 333.212 10.6446 334.601 10.5738C334.451 10.8486 334.561 10.8339 336.695 10.6458C337.668 10.7154 338.641 10.785 339.614 10.8546C340.027 10.7382 340.439 10.6218 340.851 10.5055C341.694 10.6682 342.536 10.831 343.379 10.9937C346.663 10.8172 344.663 10.5018 345.465 10.2259ZM362.194 10.2931C361.417 10.2326 339.259 10.4299 349.329 10.9779C351.947 10.9604 354.564 10.9429 357.181 10.9254C355.013 10.0179 362.146 10.8294 362.732 10.8485C365.535 10.9371 369.107 10.7213 371.141 10.7325C372.89 10.7424 373.929 10.9051 375.159 10.901C379.349 10.8869 385.968 10.8809 386.879 10.5055C383.622 10.4976 380.313 10.4936 376.926 10.503C373.344 10.5129 370.195 10.1585 363.466 10.6446C361.802 10.5924 362.395 10.3086 362.194 10.2931ZM731.018 10.5433C730.851 10.9205 739.308 10.8303 739.362 10.6812C739.379 10.5939 736.625 10.5959 736.231 10.5628C736.229 10.5628 736.226 10.5628 736.224 10.5628C736.06 10.5484 736.891 10.404 735.597 10.3639C734.071 10.4237 732.545 10.4835 731.018 10.5433ZM146.857 10.5042C145.714 10.2926 119.599 10.3687 118.83 10.4701C118.621 10.4982 118.912 10.591 118.83 10.6446C124.922 10.346 133.583 10.6994 139.366 10.7227C140.978 10.729 140.496 10.5791 140.588 10.5763C140.591 10.5763 140.595 10.5763 140.599 10.5763C141.514 10.5759 145.644 10.9422 146.857 10.5042ZM316.213 10.5384C317.323 10.5974 318.433 10.6564 319.543 10.7154C319.825 10.5986 320.106 10.4819 320.388 10.3651C320.386 10.3651 320.383 10.3651 320.38 10.3651C318.991 10.4229 317.602 10.4806 316.213 10.5384ZM277.749 10.1539C278.019 10.2361 278.289 10.3183 278.559 10.4005C281.354 10.4119 284.15 10.4233 286.945 10.4347C286.663 10.481 286.382 10.5274 286.1 10.5738C290.326 10.6978 292.077 10.409 294.328 10.4505C294.326 10.4505 294.323 10.4505 294.32 10.4505C294.563 10.4554 294.856 10.6266 295.757 10.6324C297.823 10.6458 303.746 10.7095 304.462 10.5372C305.976 10.1695 294.057 10.344 291.835 10.3272C290.831 10.3195 289.623 10.1696 289.012 10.1661C288.342 10.1628 287.43 10.3652 285.8 10.359C285.323 10.3569 280.034 10.1188 277.749 10.1539ZM228.41 10.3993C229.272 10.5845 231.071 10.4056 231.732 10.4359C231.89 10.443 230.662 10.5981 232.151 10.6446C232.572 10.5388 232.994 10.433 233.415 10.3272C231.747 10.3512 230.078 10.3753 228.41 10.3993ZM745.228 10.3651C744.985 10.3253 740.444 10.3399 740.226 10.3651C737.506 10.7032 746.91 10.6666 745.228 10.3651ZM859.805 9.97813C857.717 9.48661 882.496 9.96982 884.897 9.94395C884.777 10.2529 878.882 9.94228 881.97 10.3663C879.024 10.1331 870.88 10.2569 868.963 10.1893C867.8 10.1484 867.506 9.8816 867.331 9.87315C866.641 9.8431 860.541 10.1514 859.805 9.97813ZM905.372 10.1539C903.017 10.0953 900.662 10.0367 898.308 9.97813C901.086 9.94314 903.865 9.90814 906.643 9.87315C906.22 9.96673 905.796 10.0603 905.372 10.1539ZM908.334 10.0135C908.258 9.7141 916.251 9.94219 918.352 9.87315C915.984 10.3825 912.033 9.90229 908.334 10.0135ZM775.344 9.5924C771.662 9.39443 770.079 10.3071 774.557 9.90977C774.693 9.89664 775.498 9.60289 775.344 9.5924ZM344.328 8.94178C343.7 8.93615 335.891 8.64022 335.439 8.78676C334.009 9.25424 339.134 9.06676 340.851 9.24329C343.622 9.52932 339.547 9.76501 346.31 9.5924C346.033 9.68598 345.757 9.77957 345.48 9.87315C349.438 9.90414 348.143 9.25586 348.853 9.17249C349.07 9.14715 351.545 9.20165 351.991 9.16028C357.569 8.638 344.91 8.94614 344.328 8.94178ZM684.184 9.52282C676.853 9.24806 680.007 9.65122 672.483 9.62658C672.232 9.8323 683.23 9.70318 684.184 9.52282ZM415.716 9.31164C408.134 9.39263 401.899 9.12358 394.827 9.48498C395.287 10.0416 417.683 9.45537 415.716 9.31164ZM59.4572 8.7477C88.9587 9.73892 122.988 9.4126 154.397 9.39709C157.82 9.39568 158.149 9.61635 159.387 9.5924C160.199 9.57688 160.057 9.39915 161.135 9.39831C200.111 9.36943 237.432 9.13691 274.768 9.24329C277.119 9.25033 288.561 9.63202 291.005 9.05653C292.854 8.61992 284.635 8.96034 283.265 8.95643C282.236 8.95361 282.192 8.74842 281.505 8.7477C280.777 8.74699 281.379 8.88718 280.534 8.88929C276.952 8.89915 273.043 8.84436 269.805 8.85634C238.043 8.97117 207.143 8.93832 175.548 8.91859C171.724 8.91647 172.51 8.75206 172.318 8.75136C172.315 8.75177 172.312 8.75217 172.31 8.75258C151.805 8.73708 128.387 9.10588 106.668 8.96498C91.3741 8.85186 76.0802 8.73875 60.7863 8.62563C60.3433 8.66632 59.9002 8.70701 59.4572 8.7477ZM360.519 9.5216C358.611 8.90163 358.184 9.52673 351.338 9.2738C350.781 9.37959 350.224 9.48539 349.667 9.59118C353.288 9.56798 356.91 9.54479 360.531 9.5216C360.527 9.5216 360.523 9.5216 360.519 9.5216ZM315.302 9.29578C314.145 8.45845 298.836 9.05021 291.943 8.89051C290.679 9.31102 300.7 9.12212 303.063 9.16639C304.243 9.18822 310.563 9.62071 315.367 9.38122C315.346 9.35274 315.324 9.32426 315.302 9.29578ZM833.88 8.7477C832.766 8.77211 831.652 8.79652 830.538 8.82094C833.325 8.91371 836.113 9.00648 838.9 9.09925C834.453 9.03944 830.006 8.97962 825.559 8.91981C826.388 8.74607 827.216 8.57233 828.044 8.39859C829.99 8.51496 831.935 8.63133 833.88 8.7477ZM819.451 8.83681C827.239 8.77138 819.109 9.23649 817.166 9.02967C816.002 8.90567 818.656 8.84385 819.451 8.83681ZM799.196 8.53774C802.828 8.23272 810.167 8.21171 807.558 8.82094C803.633 8.5356 801.103 8.7727 795.412 8.60854C796.243 8.49176 797.074 8.37499 797.905 8.25821C797.909 8.25821 797.913 8.25821 797.916 8.25821C798.343 8.35139 798.769 8.44457 799.196 8.53774ZM823.008 8.46816C828.109 8.81816 813.342 8.69849 817.984 8.46816C818.201 8.4576 822.808 8.45478 823.008 8.46816ZM92.0707 8.11783C91.4562 8.31691 95.3792 8.31319 96.6842 8.32657C102.341 8.38573 109.597 8.29911 115.48 8.32657C115.037 8.26106 114.594 8.19555 114.151 8.13004C106.791 8.12597 99.4308 8.1219 92.0707 8.11783ZM133.884 8.32779C137.927 8.32779 141.969 8.32779 146.012 8.32779C146.388 8.32779 148.155 8.15696 146.841 8.11539C142.522 8.18619 138.203 8.25699 133.884 8.32779ZM386.038 8.32779C382.938 8.21631 391.863 7.64488 391.462 8.25699C389.654 8.28059 387.846 8.30419 386.038 8.32779ZM414.879 8.08365C412.935 8.14184 410.991 8.20003 409.048 8.25821C409.045 8.18782 409.043 8.11743 409.04 8.04703C410.986 8.05924 412.933 8.07145 414.879 8.08365ZM76.1788 7.97746C78.2377 8.21834 83.1495 8.18127 86.2125 8.18619C84.1028 7.97923 79.0741 8.08098 76.1788 7.97746ZM339.599 8.08121C339.85 8.24537 327.521 8.20406 331.789 7.9152C334.393 7.97054 336.996 8.02588 339.599 8.08121ZM314.557 7.8383C317.201 7.80239 319.25 7.85878 318.706 8.11661C317.303 8.10563 315.901 8.09464 314.499 8.08365C314.518 8.00187 314.538 7.92009 314.557 7.8383ZM785.37 8.04703C780.914 8.07023 776.458 8.09342 772.002 8.11661C772.168 8.04622 772.333 7.97583 772.498 7.90544C776.794 7.88265 781.09 7.85987 785.386 7.83708C785.381 7.90707 785.376 7.97705 785.37 8.04703ZM73.6588 7.34515C70.5985 7.39113 67.5382 7.43711 64.4779 7.48309C67.5408 7.53029 70.6036 7.57749 73.6665 7.62468C73.6665 7.5311 73.6665 7.43752 73.6665 7.34393C73.664 7.34434 73.6614 7.34475 73.6588 7.34515ZM846.414 7.1352C832.801 6.80692 850.171 6.4599 853.763 6.94233C853.767 6.94193 853.77 6.94152 853.774 6.94111C854.089 6.98375 853.424 7.18994 853.947 7.27313C852.562 7.17996 851.176 7.08678 849.791 6.9936C848.527 7.10956 847.263 7.22553 845.999 7.34149C845.583 7.29592 845.167 7.25035 844.751 7.20478C845.305 7.18158 845.86 7.15839 846.414 7.1352ZM901.354 6.9521C913.697 6.99017 901.067 7.50578 894.958 7.09858C895.002 7.00434 900.217 6.94858 901.354 6.9521ZM869.005 7.06318C867.06 7.10997 865.115 7.15676 863.17 7.20356C862.922 7.14456 862.673 7.08556 862.425 7.02656C863.918 6.96797 865.411 6.90937 866.904 6.85078C867.605 6.92158 868.305 6.99238 869.005 7.06318ZM805.038 6.15256C801.908 6.08775 797.916 6.74378 807.966 6.57125C807.96 6.50086 807.955 6.43047 807.95 6.36007C807.549 6.37132 806.374 6.43735 806.31 6.43209C806.126 6.41449 806.343 6.17943 805.038 6.15256ZM924.21 5.09791C924.562 5.07112 924.753 4.32862 928.409 5.09669C929.514 5.04989 930.619 5.0031 931.724 4.95631C932.009 5.11988 932.295 5.28345 932.581 5.44702C928.304 5.3202 927.85 5.65115 927.541 5.65819C926.119 5.68916 927.171 5.51894 926.254 5.5166C923.886 5.51096 918.504 5.62526 920.945 5.13941C921.824 4.96539 923.859 5.12468 924.21 5.09791ZM915.847 4.67556C916.366 4.73753 914.695 4.95474 915.087 5.01612C915.43 5.06966 920.584 5.29125 919.189 5.65819C918.343 5.64273 917.497 5.62727 916.65 5.61181C916.364 5.51131 916.076 5.4108 915.79 5.3103C914.97 5.40307 914.151 5.49584 913.331 5.58861C911.95 5.34062 909.011 5.01935 912.502 4.81715C911.218 4.83831 909.935 4.85947 908.652 4.88063C907.988 4.99944 907.323 5.11825 906.659 5.23706C907.007 5.056 907.355 4.87493 907.704 4.69387C910.418 4.68776 913.133 4.68166 915.847 4.67556ZM955.621 4.74513C955.465 4.83872 955.309 4.9323 955.153 5.02589C959.865 4.85191 967.203 4.78575 963.035 5.37256C956.652 5.42138 950.269 5.47021 943.886 5.51904C943.462 5.44864 943.038 5.37825 942.614 5.30786C947.376 5.57907 945.905 4.425 950.047 4.75612C950.746 4.81225 948.719 5.21583 953.109 4.95753C952.953 4.86354 952.797 4.76955 952.64 4.67556C953.634 4.69875 954.628 4.72194 955.621 4.74513ZM996.129 4.88551C988.061 4.75024 996.948 4.40872 998.438 4.69265C998.435 4.69265 998.432 4.69265 998.43 4.69265C1002.51 5.46958 993.733 5.0942 993.198 5.09913C992.486 5.10601 990.828 5.66222 986.956 4.85133C990.013 4.86272 993.071 4.87412 996.129 4.88551ZM969.788 4.74635C970.466 4.72804 970.091 4.86929 970.384 4.8672C970.386 4.8672 970.389 4.8672 970.391 4.8672C974.71 4.83691 984.982 4.71044 986.095 5.16626C982.898 5.2043 968.594 5.3028 967.729 4.99293C968.416 4.91074 969.102 4.82855 969.788 4.74635ZM939.399 5.0857C936.748 4.79058 942.716 4.75129 944.281 4.88795C944.577 4.91756 942.146 5.39141 939.399 5.0857ZM736.024 4.324C730.19 4.50154 737.855 4.67873 735.202 4.95631C736.316 4.93271 737.43 4.90911 738.544 4.88551C737.704 4.69834 736.864 4.51117 736.024 4.324ZM470.068 3.76372C468.709 3.73092 469.353 3.90037 469.235 3.90287C468.342 3.89815 467.499 3.76011 467.156 3.7747C460.819 4.05338 465.034 4.1957 465.098 4.22879C465.231 4.39644 463.565 4.5926 465.873 4.7842C467.274 4.72479 468.675 4.66538 470.076 4.60598C470.771 4.69916 471.467 4.79233 472.162 4.88551C474.945 4.6856 471.303 4.63076 470.89 4.36551C470.731 4.26124 473.349 4.13641 470.068 3.76372ZM725.571 3.7625C724.626 4.05699 722.307 4.42848 724.584 4.72438C724.587 4.72438 724.589 4.72438 724.592 4.72438C725.013 4.77852 726.727 4.80829 727.254 4.88429C731.009 4.49196 729.571 4.08651 725.571 3.7625ZM495.195 3.23639C497.454 3.30516 499.712 3.37392 501.971 3.44268C501.933 3.61927 501.894 3.79586 501.856 3.97245C500.647 3.92485 499.438 3.87724 498.23 3.82964C497.806 3.9102 497.382 3.99076 496.958 4.07133C498.459 4.27274 499.96 4.47415 501.46 4.67556C503.268 4.60516 505.076 4.53477 506.884 4.46438C506.053 4.3712 505.222 4.27803 504.391 4.18485C508.81 4.08199 507.848 4.5114 511.505 4.67556C512.758 4.51199 514.01 4.34842 515.262 4.18485C517.075 4.34923 518.889 4.51361 520.702 4.678C523.748 4.6012 524.016 4.47601 521.966 4.28861C523.48 4.07445 525.139 4.41128 526.963 4.324C527.114 4.31697 526.83 4.11526 526.963 4.11283C536.396 3.97686 535.894 4.50653 537.4 4.52908C538.463 4.54455 542.708 4.1871 542.774 4.06522C542.856 3.90098 534.029 3.25332 547.853 3.23639C540.706 2.78841 532.581 3.24442 537.834 3.90165C535.573 3.83552 525.598 3.9995 524.962 3.97978C524.035 3.95001 524.36 3.70066 523.199 3.69414C522.512 3.69062 520.694 4.2606 515.262 3.7625C514.568 3.85608 513.874 3.94967 513.18 4.04325C512.53 3.96635 511.879 3.88945 511.229 3.81255C512.568 3.5383 513.908 3.26406 515.247 2.98982C509.941 3.2878 505.54 2.72801 502.309 3.19977C499.516 3.14486 498.159 3.09059 499.359 2.84944C498.52 2.84944 497.682 2.84944 496.843 2.84944C496.294 2.97842 495.744 3.10741 495.195 3.23639ZM708.431 4.18363C705.655 3.90983 704.657 4.50052 705.089 4.53396C707.524 4.71777 709.876 4.32607 708.431 4.18363ZM475.108 4.07743C478.171 4.22961 481.234 4.38178 484.297 4.53396C484.297 4.3472 484.297 4.16044 484.297 3.97367C481.234 4.00826 478.171 4.04284 475.108 4.07743ZM736.877 3.9041C737.158 4.04406 737.44 4.18403 737.722 4.324C741.076 3.81274 744.408 4.54629 746.065 4.3948C746.425 4.36171 745.699 4.11456 745.013 4.06156C744.586 4.02845 737.471 3.85689 736.877 3.9041ZM876.538 3.97123C875.289 4.06522 874.039 4.15921 872.789 4.25321C872.858 4.09574 872.927 3.93827 872.997 3.78081C873.614 3.75151 874.231 3.72222 874.848 3.69292C875.411 3.78569 875.975 3.87846 876.538 3.97123ZM862.318 4.22147C860.088 4.20886 857.859 4.19624 855.63 4.18363C864.133 4.0392 857.154 3.96872 862.318 3.76372C862.318 3.9163 862.318 4.06889 862.318 4.22147ZM839.753 3.90287C840.027 3.80888 840.301 3.71489 840.575 3.6209C842.804 3.6209 845.034 3.6209 847.263 3.6209C845.853 3.29458 844.443 2.96825 843.034 2.64193C842.217 2.64111 841.4 2.6403 840.583 2.63949C840.306 3.06062 840.03 3.48175 839.753 3.90287ZM409.85 3.06184C408.503 3.0562 403.815 3.34137 404.015 3.44635C405.963 3.57533 407.911 3.70431 409.858 3.8333C409.867 3.64613 409.876 3.45896 409.885 3.27179C410.16 3.36497 410.436 3.45815 410.711 3.55132C411.819 3.48134 412.926 3.41135 414.034 3.34137C414.592 3.50494 415.15 3.66851 415.709 3.83208C416.269 3.64531 416.83 3.45855 417.391 3.27179C412.043 2.94068 412.227 3.27163 411.114 3.26813C410.55 3.26654 410.193 3.15066 409.993 3.09235C409.945 3.08218 409.898 3.07201 409.85 3.06184ZM477.225 2.88606C470.839 2.83956 467.19 3.33232 462.57 2.92024C465.533 3.79804 484.665 2.89135 491.411 3.62334C492.112 3.48256 492.812 3.34178 493.512 3.20099C489.839 3.32636 487.294 3.0364 485.503 2.9947C484.08 2.96159 484.229 3.10911 484.12 3.107C484.115 3.107 484.11 3.107 484.105 3.107C480.774 3.04642 479.743 2.9044 477.225 2.88606ZM741.621 3.21564C739.905 2.99321 736.902 3.01545 736.869 3.34015C738.54 3.43414 740.211 3.52813 741.882 3.62212C741.539 3.53899 741.914 3.25368 741.621 3.21564ZM837.16 2.99592C835.821 2.89024 832.658 2.98285 834.022 3.26325C834.267 3.31301 837.418 3.11591 835.57 3.62212C838.64 3.6143 837.922 3.05666 837.16 2.99592ZM586.344 3.55132C587.47 3.54196 588.597 3.53261 589.724 3.52325C589.987 3.39223 590.249 3.26121 590.512 3.13019C589.122 3.27057 587.733 3.41095 586.344 3.55132ZM756.103 2.99104C757.601 3.63223 760.16 3.00825 762.971 3.53545C764.01 3.53952 765.048 3.54359 766.087 3.54766C766.089 3.54766 766.092 3.54766 766.094 3.54766C766.122 3.3727 766.151 3.19774 766.179 3.02277C762.82 3.0122 759.461 3.00162 756.103 2.99104ZM516.084 3.23517C516.778 3.31655 517.472 3.39793 518.166 3.4793C519.402 3.3845 520.638 3.28969 521.873 3.19489C521.205 3.12694 520.537 3.05899 519.868 2.99104C518.607 3.07242 517.346 3.15379 516.084 3.23517ZM774.357 2.93611C770.725 2.85579 769.359 3.4132 774.004 3.41461C775.962 3.41461 778.163 3.02003 774.357 2.93611ZM340.459 3.26935C341.704 3.31696 342.949 3.36456 344.193 3.41217C344.617 3.29498 345.041 3.1778 345.465 3.06062C343.796 3.13019 342.128 3.19977 340.459 3.26935ZM854.385 3.05939C854.239 3.17658 854.093 3.29376 853.947 3.41095C852.837 3.38735 851.727 3.36375 850.617 3.34015C850.896 3.22378 851.175 3.10741 851.454 2.99104C852.431 3.01382 853.408 3.03661 854.385 3.05939ZM348.834 3.34137C349.829 3.36375 350.824 3.38613 351.818 3.40851C352.487 3.35154 353.155 3.29458 353.824 3.23761C352.893 3.18105 351.962 3.1245 351.031 3.06794C350.299 3.15908 349.566 3.25023 348.834 3.34137ZM808.788 2.98982C807.39 2.84892 801.807 3.28792 806.836 3.39996C810.041 3.47109 808.997 3.01125 808.788 2.98982ZM816.321 2.84944C810.997 2.58102 814.989 3.94338 821.341 3.06062C814.946 3.18165 816.633 2.86565 816.321 2.84944ZM863.128 2.14634C863.262 2.14704 863.372 2.34293 864.442 2.35019C868.292 2.37555 873.374 2.45295 876.127 2.46493C882.747 2.49381 903.023 2.13969 905.395 2.70662C905.889 2.82569 904.752 3.18145 904.953 3.19977C905.542 3.25086 908.934 3.07824 908.307 3.34015C904.979 3.33811 901.651 3.33608 898.323 3.33404C899.14 3.14932 899.957 2.96459 900.774 2.77986C892.482 2.87848 895.226 2.86709 892.841 3.26935C891.438 3.11351 890.035 2.95767 888.631 2.80183C885.576 2.95849 882.521 3.11514 879.466 3.27179C880.158 3.15501 880.851 3.03824 881.544 2.92146C876.941 2.70518 878.219 2.84701 875.701 3.13019C875.696 3.01342 875.691 2.89664 875.685 2.77986C871.242 3.06449 870.376 2.71451 869.405 2.71028C867.413 2.70341 864.875 4.08508 857.278 2.71028C854.074 3.37149 854.147 2.02635 852.265 2.71028C846.843 1.96573 857.154 2.2352 862.033 2.25986C862.036 2.25986 862.038 2.25986 862.041 2.25986C862.409 2.26197 861.825 2.1366 863.128 2.14634ZM835.278 2.83113C838.56 2.22418 825.593 2.16737 829.885 3.04353C830.523 3.07201 831.163 3.10049 831.801 3.12897C832.963 3.02969 834.124 2.93041 835.286 2.83113C835.283 2.83113 835.28 2.83113 835.278 2.83113ZM713.444 2.42831C701.434 2.67771 708.262 3.02686 712.33 2.68587C713.142 2.61824 713.586 2.52552 713.444 2.42831ZM468.102 2.41977C467.926 2.4926 467.751 2.56543 467.575 2.63827C471.603 2.5701 479.391 2.85105 479.284 2.35995C475.556 2.37989 471.829 2.39983 468.102 2.41977ZM499.962 2.09873C499.097 2.06911 495.563 1.99919 495.99 2.18296C497.521 2.31316 499.053 2.44337 500.584 2.57357C501.298 2.49219 502.011 2.41081 502.724 2.32944C501.728 2.30176 500.196 2.10648 499.962 2.09873Z" fill="#EFF7CF"/>
</svg>
